<?xml version="1.0" encoding="utf-8"?>
<!-- Generator: Adobe Illustrator 25.2.3, SVG Export Plug-In . SVG Version: 6.00 Build 0)  -->
<svg version="1.1" id="Layer_1" xmlns="http://www.w3.org/2000/svg" xmlns:xlink="http://www.w3.org/1999/xlink" x="0px" y="0px"
	 viewBox="0 0 150 150" style="enable-background:new 0 0 150 150;" xml:space="preserve">
<style type="text/css">
	.st0{fill:url(#SVGID_1_);}
	.st1{fill:url(#SVGID_2_);}
	.st2{fill:url(#SVGID_3_);}
	.st3{fill:#FFFFFF;}
	.st4{fill:url(#SVGID_4_);}
	.st5{fill:url(#SVGID_5_);}
	.st6{fill:url(#SVGID_6_);}
	.st7{fill:#797979;}
</style>
<g>
	<g>
		<radialGradient id="SVGID_1_" cx="127.4986" cy="114.1749" r="93.0526" gradientUnits="userSpaceOnUse">
			<stop  offset="5.618000e-03" style="stop-color:#4DBCE4"/>
			<stop  offset="0.1307" style="stop-color:#41ACD7"/>
			<stop  offset="0.5232" style="stop-color:#207EB2"/>
			<stop  offset="0.8258" style="stop-color:#0B629B"/>
			<stop  offset="1" style="stop-color:#035792"/>
		</radialGradient>
		<path class="st0" d="M126.3,104c16.7-23.3,7-43.7-8.4-49.7c-6-2.4-11.8-1.7-17.4-0.6c-6.9,1.7-9.7-6.6-2.3-8.7
			c8.6-1.9,16.7-1.7,25.1,2.4c16.8,8.1,25.6,35.8,6.3,58.5c-12.4,14.6-30.7,22.8-47.3,25.4C82.2,131.4,109.5,127.4,126.3,104z"/>
		<radialGradient id="SVGID_2_" cx="36.0455" cy="34.7558" r="72.7583" gradientUnits="userSpaceOnUse">
			<stop  offset="5.618000e-03" style="stop-color:#ED9426"/>
			<stop  offset="0.2083" style="stop-color:#DD7726"/>
			<stop  offset="0.5656" style="stop-color:#C54926"/>
			<stop  offset="0.8413" style="stop-color:#B62D26"/>
			<stop  offset="1" style="stop-color:#B02226"/>
		</radialGradient>
		<path class="st1" d="M45.2,32.7c6.5-17.5,20.9-18.7,28.3-12.7c2.9,2.4,4.6,5.5,5.6,8.6c1.8,5,6.7,2.4,6.3-0.3
			c-0.5-4.1-3.3-9.6-8.9-13.5C67.7,8.9,51,9.3,43.2,29.5c-6.9,17.9,1.3,39.3,3.3,43.9C46.5,73.4,39.5,48.2,45.2,32.7z"/>
	</g>
	<g>
		<g>
			<radialGradient id="SVGID_3_" cx="9.9154" cy="99.1034" r="41.4167" gradientUnits="userSpaceOnUse">
				<stop  offset="5.618000e-03" style="stop-color:#4DBCE4"/>
				<stop  offset="0.1307" style="stop-color:#41ACD7"/>
				<stop  offset="0.5232" style="stop-color:#207EB2"/>
				<stop  offset="0.8258" style="stop-color:#0B629B"/>
				<stop  offset="1" style="stop-color:#035792"/>
			</radialGradient>
			<path class="st2" d="M72.1,113.3H36.9V44.4c0-1.1-0.9-2.1-2.1-2.1H13.8c-1.2,0-2.1,0.9-2.1,2.1v88.1c0,1.2,0.9,2.1,2.1,2.1h20.9
				c0,0,0,0,0.1,0h37.3c1.2,0,2.1-0.9,2.1-2.1v-17.2C74.2,114.2,73.3,113.3,72.1,113.3z"/>
		</g>
		<path class="st3" d="M13.8,135.1c-1.4,0-2.6-1.2-2.6-2.6l0,0V44.4c0-1.4,1.2-2.6,2.6-2.6l0,0h20.9c1.4,0,2.6,1.2,2.6,2.6l0,0v68.4
			h34.8c1.4,0,2.6,1.2,2.6,2.6l0,0v17.2c0,1.4-1.2,2.6-2.6,2.6l0,0H34.9c0,0-0.1,0-0.1,0l0,0H13.8L13.8,135.1z M34.7,131.8
			L34.7,131.8L34.7,131.8L34.7,131.8L34.7,131.8l36.6,0v-15.6H34v-71H14.6v86.6H34.7L34.7,131.8z"/>
		<linearGradient id="SVGID_4_" gradientUnits="userSpaceOnUse" x1="42.9846" y1="27.4488" x2="42.9846" y2="165.5909">
			<stop  offset="0" style="stop-color:#98722A"/>
			<stop  offset="0.1538" style="stop-color:#F7F1B3"/>
			<stop  offset="0.1753" style="stop-color:#E7DC9B"/>
			<stop  offset="0.251" style="stop-color:#B2954B"/>
			<stop  offset="0.2857" style="stop-color:#9D792B"/>
			<stop  offset="0.3031" style="stop-color:#A48235"/>
			<stop  offset="0.3328" style="stop-color:#B69A50"/>
			<stop  offset="0.3712" style="stop-color:#D3C17C"/>
			<stop  offset="0.4121" style="stop-color:#F7F1B3"/>
			<stop  offset="0.4443" style="stop-color:#E7DC9B"/>
			<stop  offset="0.5578" style="stop-color:#B2954B"/>
			<stop  offset="0.6099" style="stop-color:#9D792B"/>
			<stop  offset="0.6341" style="stop-color:#A48235"/>
			<stop  offset="0.6754" style="stop-color:#B69A50"/>
			<stop  offset="0.7288" style="stop-color:#D3C17C"/>
			<stop  offset="0.7857" style="stop-color:#F7F1B3"/>
			<stop  offset="0.7884" style="stop-color:#F7F1B3"/>
			<stop  offset="1" style="stop-color:#E6DE93"/>
		</linearGradient>
		<path class="st4" d="M72.1,112.1H38V44.4c0-1.8-1.5-3.3-3.3-3.3H13.8c-1.8,0-3.3,1.5-3.3,3.3v88.1c0,1.8,1.5,3.3,3.3,3.3h20.9
			c0,0,0.1,0,0.1,0h37.2c1.8,0,3.3-1.5,3.3-3.3v-17.2C75.4,113.6,73.9,112.1,72.1,112.1z M73,132.5c0,0.5-0.4,0.9-0.9,0.9H34.8h0
			c0,0-0.1,0-0.1,0H13.8c-0.5,0-0.9-0.4-0.9-0.9V44.4c0-0.5,0.4-0.9,0.9-0.9h20.9c0.5,0,0.9,0.4,0.9,0.9v70.1h36.5
			c0.5,0,0.9,0.4,0.9,0.9V132.5z"/>
		<g>
			<g>
				<g>
					<path class="st3" d="M97.6,62.5c-2.3-0.8-4.8-1.1-7.2-1.1c0.5-1.5,0.9-3,1.1-4.5c0.7-5.2-0.4-10.4-3.3-15
						c-2.9-4.7-7.1-8.3-12.2-10.2c-4.8-1.8-9.8-2.3-14.5-1c-4.3,1.2-8.9,3.4-13.9,6.5c0,0-29.2,18.1-30.2,18.8
						c-1,0.6-1.2,1.7-0.7,2.6c0.6,0.9,44.4,71.4,45.3,72.9c0.9,1.5,2.5,1.4,3.9,0.5c1.4-0.9,33.4-20.7,33.4-20.7c0,0,0,0,0,0
						c8.1-5.1,13-10.8,14.8-18.2c1.7-6.9,0.5-14-3.4-20.1C107.6,67.9,103.1,64.3,97.6,62.5z M90,83.8c1.4,2.3,1.5,3.8,1,5.7
						c-0.6,1.9-2,3.7-5,5.6c0,0-11.3,7-12.1,7.5c-0.9,0.5-1.5,0.3-1.9-0.3c-0.4-0.6-5.9-9.6-6.5-10.5c-0.6-0.9-0.1-1.6,0.6-2
						c0.7-0.4,12.1-7.5,12.1-7.5c2.9-1.8,5.1-2.2,7.2-1.8C87.4,81,88.6,81.8,90,83.8z M55,73c-0.6,0.3-1.1,0.3-1.4-0.2
						c-0.3-0.5-6.1-9.7-6.4-10.4c-0.4-0.6-0.2-1.2,0.4-1.5c0.6-0.4,11.1-6.9,11.1-6.9c2.3-1.4,4.4-1.9,6.6-1.8
						c0.9,0.1,1.5,0.3,2.1,0.7c0.7,0.4,1.4,1.2,2.1,2.4c1.3,2.1,1.5,3.7,1.1,5.7c-0.5,1.8-1.5,3.4-4.1,5C66.4,65.9,55.5,72.7,55,73z
						"/>
				</g>
			</g>
			<g>
				<g>
					<g>
						<g>
							<g>
								<radialGradient id="SVGID_5_" cx="40.1261" cy="64.9723" r="62.06" gradientUnits="userSpaceOnUse">
									<stop  offset="5.618000e-03" style="stop-color:#ED9426"/>
									<stop  offset="0.2083" style="stop-color:#DD7726"/>
									<stop  offset="0.5656" style="stop-color:#C54926"/>
									<stop  offset="0.8413" style="stop-color:#B62D26"/>
									<stop  offset="1" style="stop-color:#B02226"/>
								</radialGradient>
								<path class="st5" d="M96.9,62.9c-2.3-0.7-4.6-1.1-7.1-1.1c0.5-1.4,0.9-2.9,1.1-4.4c0.7-5.1-0.4-10.2-3.2-14.6
									c-2.9-4.6-7-8.1-11.9-10c-4.7-1.8-9.6-2.2-14.2-1c-4.2,1.1-8.7,3.3-13.6,6.3c0,0-28.6,17.8-29.6,18.4
									c-1,0.6-1.2,1.7-0.7,2.5c0.5,0.9,43.4,69.9,44.3,71.3c0.9,1.4,2.5,1.4,3.9,0.5c1.4-0.8,32.6-20.3,32.6-20.3c0,0,0,0,0,0
									c8-4.9,12.7-10.6,14.4-17.8c1.7-6.8,0.5-13.7-3.3-19.7C106.7,68.2,102.3,64.6,96.9,62.9z M89.4,83.8
									c1.3,2.2,1.5,3.7,0.9,5.6c-0.6,1.9-2,3.7-4.9,5.5c0,0-11,6.9-11.9,7.4c-0.8,0.5-1.5,0.3-1.8-0.3c-0.4-0.6-5.8-9.3-6.4-10.2
									c-0.6-0.9-0.1-1.6,0.5-2c0.6-0.4,11.8-7.3,11.8-7.3c2.8-1.7,5-2.1,7-1.8C86.9,81,88.2,81.8,89.4,83.8z M55.2,73.2
									c-0.5,0.3-1.1,0.3-1.4-0.2c-0.3-0.5-5.9-9.5-6.3-10.1c-0.4-0.6-0.2-1.2,0.4-1.5c0.6-0.3,10.9-6.8,10.9-6.8
									c2.2-1.4,4.3-1.9,6.4-1.8c0.8,0.1,1.4,0.3,2.1,0.7c0.7,0.4,1.4,1.1,2.1,2.3c1.2,2.1,1.5,3.6,1,5.5c-0.4,1.8-1.5,3.3-4,4.9
									C66.4,66.3,55.8,72.9,55.2,73.2z"/>
							</g>
						</g>
						<path class="st3" d="M63,130.1c-0.3-0.2-0.6-0.5-0.9-0.9l0,0c-0.9-1.4-42.8-68.8-43.3-69.7l0,0c-0.2-0.3-0.3-0.7-0.3-0.9l0,0
							l0,0l0,0c0-0.2,0.1-0.6,0.2-0.8l0,0c0.2-0.3,0.4-0.5,0.7-0.7l0,0c0.5-0.3,7.7-4.8,14.8-9.2l0,0c7.1-4.4,14.1-8.7,14.1-8.8l0,0
							c4.8-3,9.2-5.1,13.3-6.2l0,0c1.7-0.5,3.5-0.7,5.3-0.7l0,0c2.8,0,5.7,0.6,8.5,1.6l0,0c4.8,1.8,8.8,5.2,11.6,9.6l0,0l0,0
							l0.1,0.1c2.2,3.5,3.4,7.4,3.4,11.4l0,0c0,1-0.1,1.9-0.2,2.9l0,0l0,0c-0.2,1.5-0.5,2.9-1.1,4.3l0,0c0.1,0,0.2,0,0.3,0l0,0
							c2.2,0,4.3,0.3,6.4,1l0,0h0l0.2,0.1c5.2,1.7,9.5,5.1,12.5,9.8l0,0l0,0l0.1,0.1c2.6,4.2,4,8.8,4,13.4l0,0
							c0,1.9-0.2,3.9-0.7,5.8l0,0c-0.8,3.6-2.4,6.7-4.8,9.6l0,0c-2.3,2.9-5.4,5.4-9.3,7.9l0,0c0,0,0,0,0,0l0,0l-0.5,0.3l0,0
							c-3.9,2.4-30.2,18.8-31.4,19.5l0,0c-0.6,0.4-1.2,0.6-1.9,0.6l0,0l0,0c0,0,0,0,0,0l0,0C63.7,130.4,63.3,130.3,63,130.1
							L63,130.1z M64.1,128.3c0.1,0,0.3-0.1,0.5-0.2l0,0c1.3-0.8,30.8-19.2,32.1-19.9l0,0c0,0,0,0,0,0l0,0c0,0,0,0,0,0l0,0l0,0
							c3.8-2.3,6.7-4.8,8.8-7.4l0,0c2.2-2.6,3.6-5.4,4.3-8.7l0,0c0.4-1.8,0.6-3.6,0.6-5.3l0,0c0-4.2-1.2-8.3-3.5-12.1l0,0l-0.1-0.1
							l-0.1-0.2c-2.7-4.3-6.5-7.4-11.1-8.9l0,0h0l-0.2-0.1c-1.9-0.6-3.9-0.9-5.9-0.9l0,0c-0.1,0-0.2,0-0.3,0l0,0L86,64.6l1.2-3.2
							c0.5-1.2,0.8-2.5,0.9-3.8l0,0l0,0l0,0l0,0c0.1-0.9,0.2-1.7,0.2-2.6l0,0c0-3.5-1-7-2.9-10.1l0,0l0,0l-0.1-0.1
							c-2.6-4.2-6.2-7.2-10.5-8.9l0,0c-2.6-1-5.2-1.5-7.7-1.5l0,0c-1.6,0-3.2,0.2-4.7,0.6l0,0c-3.8,1-8.1,3-12.8,6l0,0
							c0,0-25,15.5-28.7,17.8l0,0C24.8,65,63.2,126.8,64.1,128.3L64.1,128.3z M98.2,108.3c-0.1-0.1-0.1-0.1-0.2-0.1l0,0
							C98.1,108.2,98.2,108.2,98.2,108.3L98.2,108.3z M98,108.1C98,108.1,98,108.1,98,108.1L98,108.1L98,108.1
							C98,108.1,98,108.1,98,108.1L98,108.1z M108,73.8l-1,0.6L108,73.8L108,73.8L108,73.8L108,73.8z M72.4,105.8
							c-0.7,0-1.4-0.2-1.9-0.6l0,0c-0.5-0.4-0.9-0.8-1.2-1.2l0,0c-0.4-0.7-6.2-10-6.8-11l0,0c-0.4-0.6-0.6-1.3-0.6-2.1l0,0l0,0
							c0,0,0,0,0-0.1l0,0c0-0.8,0.3-1.6,0.7-2.1l0,0c0.4-0.5,0.9-0.9,1.3-1.2l0,0c0.7-0.4,11.8-7.4,12.6-7.8l0,0l0,0l0,0
							c2.6-1.6,5.1-2.4,7.4-2.4l0,0c0.6,0,1.2,0,1.7,0.1l0,0l0,0l0.1,0c1.3,0.3,2.6,0.7,3.7,1.5l0,0c1.1,0.8,2,1.8,2.8,3l0,0l0,0
							l0,0l0,0l0,0c1,1.7,1.6,3.4,1.7,5.1l0,0l0,0v0.1c0,0.9-0.2,1.8-0.4,2.7l0,0l0,0l0,0l0,0l0,0c-0.8,2.7-2.8,5.1-6.3,7.3l0,0
							c0,0-3,1.8-6,3.7l0,0c-3.1,1.9-6.2,3.9-6.7,4.2l0,0C74,105.5,73.3,105.8,72.4,105.8L72.4,105.8L72.4,105.8L72.4,105.8z
							 M64.5,91.7c0.6,1,6.4,10.3,6.8,11l0,0c0.1,0.2,0.3,0.4,0.5,0.5l0,0c0.2,0.1,0.4,0.2,0.6,0.2l0,0h0c0.3,0,0.6-0.1,1-0.3l0,0
							c0.4-0.3,3.6-2.3,6.7-4.2l0,0c3.1-1.9,6-3.7,6-3.7l0,0c3.1-2,4.6-3.9,5.3-5.9l0,0l0,0l0,0c0,0,0,0,0,0l0,0l0.2,0.1l0.9,0.2
							l-1.2-0.3c0.2-0.7,0.3-1.3,0.3-2l0,0c0,0,0,0,0,0l0,0h0c0-1.2-0.4-2.5-1.3-4l0,0l0,0c-0.7-1.1-1.4-1.8-2.2-2.4l0,0
							c-0.8-0.5-1.7-0.9-2.8-1.1l0,0l0,0l0,0c-0.5-0.1-0.9-0.1-1.4-0.1l0,0c-1.8,0-3.8,0.6-6.2,2l0,0l0,0c0,0,0,0,0,0l0,0
							c0,0,0,0,0,0l0,0c0,0-0.1,0-0.1,0.1l0,0c-0.1,0.1-0.2,0.1-0.4,0.2l0,0c-0.3,0.2-0.8,0.5-1.4,0.8l0,0c-1.1,0.7-2.6,1.6-4.2,2.6
							l0,0c-3.1,1.9-6.2,3.9-6.6,4.1l0,0c-0.2,0.1-0.4,0.3-0.6,0.6l0,0c-0.1,0.2-0.2,0.4-0.2,0.7l0,0l0.1,0.5l0,0
							C64.3,91.4,64.4,91.6,64.5,91.7L64.5,91.7z M76.5,79.6L76.5,79.6L76.5,79.6L76.5,79.6z M54.2,76.7c-0.5,0-1.1-0.1-1.6-0.4l0,0
							c-0.5-0.3-0.9-0.7-1.2-1.2l0,0c-0.3-0.5-6.4-10.2-6.8-10.9l0,0C44.3,63.7,44,63,44,62.3l0,0c0,0,0,0,0,0l0,0c0,0,0,0,0,0l0,0
							c0,0,0,0,0,0l0,0c0-0.7,0.2-1.3,0.6-1.9l0,0c0.3-0.5,0.8-0.9,1.2-1.1l0,0c0.6-0.4,11.6-7.2,11.7-7.3l0,0c0,0,0,0,0,0l0,0
							c2.5-1.5,5-2.3,7.6-2.3l0,0c0,0,0,0,0.1,0l0,0c0.2,0,0.4,0,0.6,0l0,0h0h0c1.2,0.1,2.4,0.5,3.4,1.1l0,0c1.1,0.7,2.1,1.7,3,3.2
							l0,0l0,0l0,0l0,0c1.1,1.8,1.7,3.5,1.7,5.4l0,0v0v0c0,0.8-0.1,1.6-0.3,2.3l0,0l0,0.1l0,0l0,0c-0.3,1.2-0.9,2.5-1.8,3.6l0,0
							c-0.9,1.1-2,2.1-3.5,3.1l0,0l0,0l-0.1,0.1c0,0-2.9,1.8-5.8,3.6l0,0h0c-2.9,1.8-5.9,3.7-6.2,3.9l0,0
							C55.7,76.4,55,76.6,54.2,76.7L54.2,76.7L54.2,76.7L54.2,76.7z M46.6,62.9c0.4,0.7,6.5,10.4,6.8,10.9l0,0
							c0.1,0.1,0.2,0.3,0.4,0.3l0,0c0.1,0.1,0.3,0.1,0.4,0.1l0,0h0c0.3,0,0.5-0.1,0.8-0.2l0,0c0.3-0.2,3.3-2,6.2-3.9l0,0l0.6,1
							l-0.6-1c2.6-1.6,5.2-3.2,5.7-3.5l0,0l0,0l0.1,0c1.4-0.9,2.3-1.7,3-2.6l0,0c0.7-0.9,1.1-1.8,1.3-2.7l0,0l0,0l0,0
							c0.1-0.6,0.2-1.2,0.2-1.8l0,0c0,0,0-0.1,0-0.1l0,0c0-1.3-0.4-2.6-1.3-4.1l0,0l0,0l0,0c-0.8-1.3-1.6-2-2.3-2.5l0,0
							c-0.7-0.4-1.4-0.7-2.2-0.7l0,0h0h0c-0.2,0-0.4,0-0.6,0l0,0h0C63,52,61,52.6,58.8,54l0,0l0,0v0c0,0,0,0,0,0l0,0l0,0
							c0,0,0,0,0,0l0,0c0,0,0,0,0,0l0,0l0,0c0,0,0,0-0.1,0l0,0c0,0,0,0,0,0l0,0l0,0l0,0c-0.1,0-0.2,0.1-0.3,0.2l0,0
							C58,54.4,57.5,54.7,57,55l0,0c-1.1,0.7-2.5,1.5-3.9,2.4l0,0c-2.9,1.8-5.8,3.6-6.1,3.8l0,0c-0.2,0.1-0.3,0.3-0.5,0.4l0,0
							c-0.1,0.1-0.2,0.3-0.2,0.5l0,0l0,0.3C46.5,62.6,46.6,62.8,46.6,62.9L46.6,62.9z"/>
						<linearGradient id="SVGID_6_" gradientUnits="userSpaceOnUse" x1="45.8246" y1="31.2464" x2="95.0451" y2="126.2762">
							<stop  offset="0" style="stop-color:#98722A"/>
							<stop  offset="0.1538" style="stop-color:#F7F1B3"/>
							<stop  offset="0.1753" style="stop-color:#E7DC9B"/>
							<stop  offset="0.251" style="stop-color:#B2954B"/>
							<stop  offset="0.2857" style="stop-color:#9D792B"/>
							<stop  offset="0.3031" style="stop-color:#A48235"/>
							<stop  offset="0.3328" style="stop-color:#B69A50"/>
							<stop  offset="0.3712" style="stop-color:#D3C17C"/>
							<stop  offset="0.4121" style="stop-color:#F7F1B3"/>
							<stop  offset="0.4443" style="stop-color:#E7DC9B"/>
							<stop  offset="0.5578" style="stop-color:#B2954B"/>
							<stop  offset="0.6099" style="stop-color:#9D792B"/>
							<stop  offset="0.6341" style="stop-color:#A48235"/>
							<stop  offset="0.6754" style="stop-color:#B69A50"/>
							<stop  offset="0.7288" style="stop-color:#D3C17C"/>
							<stop  offset="0.7857" style="stop-color:#F7F1B3"/>
							<stop  offset="0.7884" style="stop-color:#F7F1B3"/>
							<stop  offset="1" style="stop-color:#E6DE93"/>
						</linearGradient>
						<path class="st6" d="M62.4,132.9c-0.5-0.3-1-0.7-1.3-1.3l0,0c-0.9-1.4-44.3-71.3-44.9-72.2l0,0c-0.3-0.5-0.5-1-0.5-1.6l0,0
							c0-0.5,0.1-1,0.4-1.5l0,0c0.3-0.4,0.7-0.8,1.1-1.1l0,0c0.5-0.3,8-5,15.4-9.6l0,0c7.4-4.6,14.6-9.1,14.6-9.1l0,0
							c5-3.1,9.7-5.3,14.1-6.5l0,0c1.9-0.5,3.9-0.8,5.8-0.8l0,0c3.1,0,6.2,0.6,9.3,1.8l0,0c5.3,2,9.6,5.7,12.6,10.6l0,0l0,0
							c2.4,3.8,3.7,8.1,3.7,12.5l0,0c0,1.1-0.1,2.1-0.2,3.2l0,0v0c-0.1,1.1-0.4,2.1-0.7,3.2l0,0c2,0.1,4,0.5,5.9,1.1l0,0l0,0
							c5.7,1.8,10.4,5.6,13.6,10.8l0,0l0,0c2.8,4.5,4.3,9.5,4.3,14.5l0,0c0,2.1-0.3,4.2-0.8,6.3l0,0c-0.9,3.8-2.7,7.3-5.2,10.4l0,0
							c-2.5,3.1-5.9,5.8-10,8.4l0,0c0,0,0,0,0,0l0,0c0,0-31.7,19.7-33.1,20.5l0,0c-0.8,0.5-1.6,0.8-2.5,0.8l0,0c0,0,0,0,0,0l0,0
							C63.5,133.3,62.9,133.2,62.4,132.9L62.4,132.9z M61.9,33c-4.1,1.1-8.5,3.2-13.3,6.2l0,0c0,0-28.6,17.8-29.6,18.4l0,0
							c-0.2,0.1-0.3,0.2-0.3,0.3l0,0c-0.1,0.1-0.1,0.1-0.1,0.2l0,0c0,0.1,0,0.2,0.1,0.4l0,0c0.5,0.9,43.4,69.9,44.3,71.3l0,0
							c0.2,0.2,0.3,0.4,0.4,0.5l0,0c0.1,0.1,0.3,0.1,0.5,0.1l0,0c0.3,0,0.8-0.1,1.3-0.4l0,0c1.4-0.8,32.6-20.3,32.6-20.3l0,0
							c0,0,0,0,0,0l0,0c3.9-2.4,7-5,9.3-7.8l0,0c2.3-2.8,3.8-5.8,4.7-9.3l0,0c0.5-1.9,0.7-3.8,0.7-5.7l0,0c0-4.6-1.3-9-3.9-13.1l0,0
							l0,0l0,0c-2.9-4.7-7.1-8.1-12.2-9.7l0,0h0c-2.1-0.7-4.2-1-6.4-1l0,0c-0.1,0-0.2,0-0.3,0l0,0l-1.7,0l0.6-1.6
							c0.5-1.3,0.8-2.7,1-4.2l0,0l0,0c0.1-0.9,0.2-1.9,0.2-2.8l0,0c0-3.9-1.1-7.7-3.3-11.1l0,0l0,0l0,0c-2.7-4.4-6.6-7.7-11.3-9.5
							l0,0c-2.8-1.1-5.6-1.6-8.3-1.6l0,0C65.3,32.3,63.6,32.5,61.9,33L61.9,33z M71.6,103.4c-0.3-0.2-0.6-0.5-0.8-0.8l0,0
							c-0.4-0.6-5.8-9.3-6.4-10.2l0,0c-0.3-0.4-0.4-0.9-0.4-1.4l0,0c0-0.5,0.2-1,0.5-1.4l0,0c0.3-0.4,0.6-0.6,0.9-0.8l0,0
							c0.6-0.4,11.8-7.3,11.8-7.3l0,0c2.3-1.4,4.4-2.1,6.3-2.1l0,0c0.5,0,1,0,1.5,0.1l0,0l0,0l0,0c1.2,0.2,2.2,0.6,3.1,1.2l0,0
							c0.9,0.6,1.6,1.4,2.3,2.5l0,0l0,0l0,0l0,0c0.9,1.6,1.4,2.9,1.4,4.3l0,0c0,0.7-0.1,1.5-0.3,2.2l0,0l0,0l0,0
							c-0.7,2.2-2.3,4.2-5.4,6.2l0,0c0,0-2.8,1.7-5.6,3.5l0,0c-2.9,1.8-5.8,3.6-6.2,3.9l0,0c-0.5,0.3-0.9,0.5-1.5,0.5l0,0
							c0,0,0,0,0,0l0,0C72.3,103.7,71.9,103.6,71.6,103.4L71.6,103.4z M66.8,91c0,0,0,0.1,0.1,0.1l0,0c0.5,0.9,5.7,9.2,6.1,9.8l0,0
							c0,0,0,0,0,0l0,0c0,0,0.1,0,0.2-0.1l0,0c0.8-0.5,11.4-7.1,11.4-7.1l0,0c2.7-1.7,3.7-3.2,4.2-4.7l0,0c0.2-0.6,0.2-1,0.2-1.5
							l0,0c0-0.8-0.2-1.7-1-3l0,0c-0.6-0.9-1.1-1.4-1.6-1.8l0,0c-0.5-0.4-1.2-0.6-2.1-0.8l0,0c-0.3-0.1-0.7-0.1-1-0.1l0,0
							c-1.4,0-2.9,0.4-4.9,1.7l0,0c0,0-2.7,1.7-5.4,3.4l0,0c-2.8,1.7-5.6,3.5-5.9,3.7l0,0C67,90.8,66.9,90.8,66.8,91L66.8,91
							C66.9,90.9,66.8,90.9,66.8,91L66.8,91C66.8,91,66.8,91,66.8,91L66.8,91z M53.6,74.4c-0.3-0.2-0.6-0.4-0.7-0.7l0,0
							c-0.3-0.5-5.9-9.5-6.3-10.1l0,0c-0.2-0.4-0.4-0.8-0.4-1.2l0,0c0-0.4,0.1-0.8,0.3-1.1l0,0c0.2-0.3,0.5-0.6,0.8-0.7l0,0
							c0.6-0.3,10.9-6.8,10.9-6.8l0,0c2.2-1.4,4.3-2,6.5-2l0,0c0.2,0,0.4,0,0.6,0l0,0h0h0c1,0.1,1.9,0.3,2.7,0.9l0,0
							c0.8,0.5,1.6,1.4,2.4,2.7l0,0l0,0l0,0c0.9,1.6,1.4,3,1.4,4.5l0,0c0,0.6-0.1,1.3-0.2,1.9l0,0l0,0l0,0c-0.3,1-0.7,2-1.5,3l0,0
							c-0.7,0.9-1.7,1.8-3.1,2.7l0,0l0,0c0,0-2.7,1.7-5.4,3.3l0,0c-2.7,1.7-5.5,3.4-5.8,3.6l0,0l0,0c-0.4,0.2-0.8,0.4-1.3,0.4l0,0
							c0,0,0,0,0,0l0,0C54.2,74.6,53.9,74.5,53.6,74.4L53.6,74.4z M54.9,71.6c1-0.7,10.2-6.3,10.5-6.5l0,0c1.1-0.7,1.9-1.4,2.4-2
							l0,0c0.5-0.6,0.8-1.2,1-1.9l0,0c0.1-0.5,0.2-0.9,0.2-1.3l0,0c0-0.9-0.3-1.8-1-3.1l0,0c-0.6-1-1.2-1.5-1.6-1.8l0,0
							c-0.5-0.3-0.8-0.4-1.4-0.5l0,0c-0.1,0-0.3,0-0.4,0l0,0c-1.6,0-3.2,0.4-5,1.5l0,0c0,0-2.4,1.5-4.9,3.1l0,0
							c-2.4,1.5-4.8,3-5.3,3.3l0,0C49.8,63.4,54,70.2,54.9,71.6L54.9,71.6z M92.1,57.6C92.1,57.6,92.1,57.6,92.1,57.6L92.1,57.6
							L92.1,57.6L92.1,57.6L92.1,57.6z M88.7,42.2L88.7,42.2L88.7,42.2L88.7,42.2L88.7,42.2L88.7,42.2z"/>
					</g>
				</g>
			</g>
		</g>
	</g>
	<g>
		<path class="st7" d="M87.3,126.8c0.1-0.1,0.2-0.1,0.2-0.2c0-0.1,0-0.1,0-0.2l-1.4-2.3c-0.1-0.1-0.1-0.1-0.2-0.1
			c-0.1,0-0.2,0-0.3,0.1l-0.1-0.1l0.9-0.6l2.2,1.7l-0.5-2.7l0.9-0.6l0.1,0.1c-0.1,0.1-0.2,0.1-0.2,0.2c0,0,0,0.1,0,0.2l1.4,2.3
			c0.1,0.1,0.1,0.1,0.2,0.2c0.1,0,0.2,0,0.3-0.1l0.1,0.1l-1.2,0.7l-0.1-0.1c0.2-0.1,0.3-0.2,0.3-0.2c0-0.1,0-0.1,0-0.2l-1.5-2.4l0,0
			L89,126l-0.1,0l-2.8-2.2l0,0l1.5,2.5c0,0.1,0.1,0.1,0.2,0.1c0.1,0,0.2-0.1,0.3-0.1l0.1,0.1l-0.8,0.5L87.3,126.8z"/>
		<path class="st7" d="M91.8,121.8c0.3,0.1,0.5,0.3,0.7,0.6c0.2,0.3,0.3,0.6,0.2,0.9c0,0.3-0.2,0.6-0.6,0.8
			c-0.3,0.2-0.7,0.3-0.9,0.2c-0.3-0.1-0.5-0.3-0.7-0.6c-0.2-0.3-0.3-0.6-0.2-0.9c0-0.3,0.2-0.6,0.6-0.8
			C91.2,121.7,91.5,121.7,91.8,121.8z M90.7,122.6c0,0.2,0.1,0.5,0.3,0.7c0.2,0.3,0.3,0.4,0.5,0.6c0.2,0.1,0.4,0.1,0.6,0
			c0.2-0.1,0.2-0.3,0.2-0.5c0-0.2-0.1-0.5-0.3-0.7c-0.1-0.2-0.3-0.4-0.5-0.6c-0.2-0.1-0.4-0.2-0.6-0.1
			C90.7,122.1,90.7,122.3,90.7,122.6z"/>
		<path class="st7" d="M93.6,122.6c0.2,0,0.4-0.1,0.7-0.2c0.1,0,0.2-0.1,0.2-0.2c0-0.1,0-0.2-0.1-0.4c-0.1-0.1-0.1-0.1-0.3-0.1
			c-0.1,0-0.2,0-0.4,0.1c-0.3,0.1-0.5,0.1-0.7,0.1c-0.2,0-0.4-0.1-0.6-0.3c-0.1-0.2-0.1-0.3-0.1-0.5c0-0.2,0.2-0.3,0.4-0.4
			c0.1,0,0.1-0.1,0.2-0.1c0,0,0.1,0,0.2,0c0,0,0.1,0,0.1,0c0,0,0,0,0.1,0c0,0,0.1-0.1,0.1-0.1c0,0,0-0.1,0-0.1l0.1,0l0.6,0.5
			l-0.1,0.1l-0.1,0c-0.2-0.1-0.3-0.1-0.4-0.1c-0.2,0-0.4,0-0.6,0.1c-0.2,0.1-0.2,0.2-0.3,0.3c0,0.1,0,0.2,0.1,0.3
			c0.1,0.1,0.2,0.1,0.3,0.1c0.1,0,0.2,0,0.5-0.1c0.3-0.1,0.5-0.1,0.6-0.1c0.2,0,0.4,0.1,0.5,0.3c0.1,0.2,0.2,0.5,0.1,0.7
			c-0.1,0.2-0.2,0.3-0.4,0.4c-0.1,0-0.1,0-0.2,0.1c0,0-0.1,0-0.2,0c-0.1,0-0.1,0-0.1,0c0,0-0.1,0-0.1,0c0,0-0.1,0.1-0.1,0.1
			c0,0-0.1,0.1-0.1,0.1l-0.1,0l-0.6-0.4l0-0.1C93.3,122.6,93.5,122.6,93.6,122.6z"/>
		<path class="st7" d="M94.1,120.1c0.2-0.2,0.3-0.3,0.3-0.5c0-0.2,0-0.4-0.1-0.7l0.1-0.1l0.4,0.7l0.6-0.4l0.1,0.1l-0.6,0.4l0.8,1.4
			c0.1,0.1,0.1,0.2,0.2,0.2c0.1,0,0.2,0,0.3-0.1c0.1,0,0.1-0.1,0.1-0.2c0-0.1,0-0.2,0-0.3l0.1,0c0,0.2,0,0.3,0,0.5
			c-0.1,0.1-0.2,0.3-0.3,0.3c-0.2,0.1-0.4,0.2-0.5,0.1c-0.2,0-0.3-0.1-0.4-0.3l-0.8-1.4L94.1,120.1L94.1,120.1z"/>
		<path class="st7" d="M98.2,120c0.1-0.1,0.2-0.1,0.2-0.2c0-0.1,0-0.1,0-0.2l-1.4-2.2c0-0.1-0.1-0.1-0.2-0.1c-0.1,0-0.2,0-0.3,0.1
			l-0.1-0.1l0.7-0.7l1.6,2.7c0,0.1,0.1,0.1,0.2,0.1c0.1,0,0.2,0,0.3-0.1l0.1,0.1l-1.1,0.7L98.2,120z"/>
		<path class="st7" d="M100.5,116.4c0.3,0.1,0.5,0.3,0.7,0.6c0.2,0.3,0.3,0.6,0.2,0.9c0,0.3-0.2,0.6-0.6,0.8
			c-0.3,0.2-0.7,0.3-0.9,0.2c-0.3-0.1-0.5-0.3-0.7-0.6c-0.2-0.3-0.3-0.6-0.2-0.9c0-0.3,0.2-0.6,0.6-0.8
			C99.8,116.3,100.2,116.3,100.5,116.4z M99.4,117.2c0,0.2,0.1,0.5,0.3,0.7c0.2,0.3,0.3,0.4,0.5,0.6c0.2,0.1,0.4,0.1,0.6,0
			c0.2-0.1,0.2-0.3,0.2-0.5c0-0.2-0.1-0.5-0.3-0.7c-0.1-0.2-0.3-0.4-0.5-0.6c-0.2-0.1-0.4-0.2-0.6-0.1
			C99.4,116.8,99.3,117,99.4,117.2z"/>
		<path class="st7" d="M101.8,115.3l0.1,0.1c-0.1,0.1-0.2,0.1-0.2,0.2c0,0,0,0.1,0,0.1l1.2,0.9l-0.2-1.4c0-0.1,0-0.1-0.1-0.1
			c-0.1,0-0.2,0-0.3,0.1l-0.1-0.1l0.8-0.5l0.1,0.1c-0.1,0.1-0.2,0.1-0.2,0.2c0,0.1-0.1,0.1,0,0.2l0.3,2.2l-0.1,0l-1.9-1.3
			c0,0-0.1,0-0.1,0c0,0-0.1,0-0.2,0.1l-0.1-0.1L101.8,115.3z"/>
		<path class="st7" d="M106,115.3c-0.1,0.2-0.3,0.4-0.5,0.5c-0.3,0.2-0.6,0.3-0.9,0.2c-0.3-0.1-0.5-0.2-0.7-0.5
			c-0.2-0.3-0.3-0.6-0.3-0.9c0-0.3,0.2-0.6,0.6-0.9c0.3-0.2,0.5-0.2,0.8-0.2c0.3,0.1,0.6,0.2,0.7,0.5l-1.5,1
			c0.2,0.3,0.4,0.5,0.6,0.6c0.2,0.1,0.4,0.1,0.6-0.1c0.1-0.1,0.2-0.2,0.3-0.3c0.1-0.2,0.2-0.3,0.2-0.5l0.1,0
			C106.2,114.9,106.1,115.1,106,115.3z M104.7,113.8c-0.2-0.1-0.3,0-0.4,0.1c-0.1,0.1-0.2,0.2-0.2,0.4c0,0.2,0,0.4,0.2,0.6l1-0.6
			C105,114,104.8,113.8,104.7,113.8z"/>
		<path class="st7" d="M108,113.6c0,0.1,0,0.3-0.1,0.4c-0.1,0.1-0.2,0.2-0.3,0.3c-0.2,0.2-0.5,0.2-0.8,0.1c-0.3-0.1-0.5-0.3-0.7-0.6
			c-0.2-0.3-0.3-0.5-0.2-0.8c0-0.3,0.2-0.5,0.4-0.7c0.1-0.1,0.2-0.1,0.4-0.1c0.1,0,0.2,0,0.3,0l-0.5-0.8c0-0.1-0.1-0.1-0.2-0.1
			c-0.1,0-0.2,0.1-0.3,0.2l0-0.1l0.6-0.8l1.8,2.6c0,0.1,0.1,0.1,0.2,0.1c0.1,0,0.1,0,0.2-0.1l0.1,0.1l-0.6,0.4L108,113.6z
			 M106.8,112.2c-0.1,0-0.2,0-0.3,0.1c-0.1,0.1-0.2,0.3-0.2,0.5c0,0.2,0.1,0.5,0.3,0.7c0.2,0.2,0.4,0.4,0.6,0.5
			c0.2,0.1,0.4,0.1,0.5,0c0.1-0.1,0.2-0.1,0.2-0.3c0-0.1,0.1-0.2,0.1-0.3l-0.9-1.2C107,112.2,106.9,112.2,106.8,112.2z"/>
		<path class="st7" d="M110.1,112.2c0.1-0.1,0.2-0.2,0.2-0.2c0-0.1,0-0.2-0.1-0.2l-1.7-2c-0.1-0.1-0.1-0.1-0.2-0.1
			c-0.1,0-0.2,0.1-0.3,0.2l-0.1-0.1l1.4-1.2c0.3-0.3,0.6-0.4,0.8-0.4c0.2,0,0.4,0.1,0.6,0.2c0.1,0.2,0.2,0.3,0.2,0.5
			c0,0.2-0.1,0.4-0.3,0.7c0.3-0.2,0.6-0.3,0.8-0.3c0.2,0,0.4,0.1,0.6,0.3c0.2,0.2,0.2,0.4,0.2,0.7c-0.1,0.3-0.2,0.6-0.6,0.9
			l-1.5,1.3L110.1,112.2z M110.3,109.8c0.2-0.1,0.2-0.3,0.2-0.5c0-0.2-0.1-0.3-0.2-0.5c-0.1-0.1-0.3-0.2-0.4-0.3
			c-0.2,0-0.3,0-0.5,0.2l-0.3,0.3c-0.1,0.1-0.2,0.2-0.2,0.2c0,0.1,0,0.1,0.1,0.2l0.7,0.9L110.3,109.8z M110.7,111.4
			c0.1,0.1,0.1,0.1,0.2,0.1c0.1,0,0.2-0.1,0.3-0.2l0.4-0.3c0.2-0.1,0.2-0.3,0.2-0.5c0-0.2-0.1-0.4-0.2-0.6c-0.1-0.1-0.3-0.2-0.5-0.2
			c-0.2,0-0.4,0.1-0.6,0.2l-0.6,0.5L110.7,111.4z"/>
		<path class="st7" d="M112.9,109.8c0.1-0.1,0.1-0.2,0.2-0.2c0-0.1,0-0.1,0-0.2l-1.1-1.1c0,0-0.1,0-0.1,0c-0.1,0-0.1,0.1-0.2,0.2
			l-0.1,0l0.5-0.8l0.4,0.4c0-0.2,0-0.3,0-0.5c0-0.2,0.1-0.3,0.2-0.4c0.1-0.1,0.2-0.1,0.2-0.1c0.1,0,0.1,0,0.2,0.1
			c0,0,0.1,0.1,0.1,0.2c0,0.1,0,0.1-0.1,0.2c0,0-0.1,0.1-0.1,0.1c0,0-0.1,0-0.1,0c0,0-0.1,0-0.1,0c0,0-0.1,0-0.1,0
			c0,0-0.1,0.1-0.1,0.3c0,0.1,0,0.3,0,0.4l0.9,0.9c0.1,0.1,0.1,0.1,0.2,0c0.1,0,0.1-0.1,0.2-0.2l0.1,0.1L112.9,109.8L112.9,109.8z"
			/>
		<path class="st7" d="M116.1,106.6c0,0.1,0,0.2-0.1,0.2c-0.1,0.1-0.1,0.1-0.2,0.2c-0.1,0-0.2,0-0.3,0c0,0.1,0,0.2-0.1,0.4
			c0,0.2-0.1,0.3-0.2,0.4c-0.2,0.2-0.3,0.3-0.5,0.3c-0.2,0-0.3-0.1-0.5-0.2c-0.2-0.2-0.2-0.4-0.2-0.6c0-0.3,0.2-0.6,0.4-1.1
			l-0.3-0.3c-0.1-0.1-0.2-0.1-0.2-0.1c-0.1,0-0.2,0.1-0.3,0.2c-0.1,0.1-0.1,0.2-0.1,0.3c0,0.1,0,0.1,0.1,0.2c0,0.1,0.1,0.2,0.1,0.2
			c0,0.1,0,0.1,0,0.2c-0.1,0.1-0.1,0.1-0.2,0.1c-0.1,0-0.1,0-0.2-0.1c-0.1,0-0.1-0.1-0.1-0.2c0-0.1,0-0.2,0-0.3
			c0-0.1,0.1-0.3,0.2-0.4c0.1-0.1,0.2-0.3,0.3-0.4c0.1-0.1,0.3-0.2,0.4-0.2c0.1,0,0.2,0,0.3,0.1l1.1,1c0.1,0.1,0.2,0.1,0.2,0.1
			c0.1,0,0.1-0.1,0.1-0.2l0.1,0C116.1,106.5,116.1,106.5,116.1,106.6z M114.4,106.9c0,0.2,0.1,0.4,0.2,0.6c0.1,0.1,0.2,0.1,0.3,0.1
			c0.1,0,0.2,0,0.2-0.1c0.1-0.1,0.1-0.2,0.1-0.3c0-0.1,0-0.2,0-0.4l-0.7-0.6C114.5,106.4,114.4,106.7,114.4,106.9z"/>
		<path class="st7" d="M116.3,106.1c0.1-0.1,0.1-0.1,0.1-0.2c0-0.1,0-0.1-0.1-0.2l-1.2-0.9c-0.1,0-0.1-0.1-0.2,0
			c-0.1,0-0.1,0.1-0.2,0.2l-0.1,0l0.3-0.8l0.4,0.3c-0.1-0.1-0.1-0.3-0.1-0.4c0-0.2,0.1-0.4,0.2-0.5c0.1-0.2,0.3-0.3,0.5-0.3
			c0.2,0,0.3,0,0.5,0.1l1.1,0.8c0.1,0,0.1,0.1,0.2,0c0.1,0,0.1-0.1,0.2-0.2l0.1,0.1l-0.7,0.9l-0.1-0.1c0.1-0.1,0.1-0.2,0.1-0.2
			c0-0.1,0-0.1-0.1-0.2l-1.2-0.9c-0.1-0.1-0.2-0.1-0.2-0.1c-0.1,0-0.2,0.1-0.3,0.2c-0.1,0.1-0.1,0.3-0.1,0.4c0,0.1,0,0.3,0.1,0.4
			l1.1,0.8c0.1,0.1,0.1,0.1,0.2,0c0.1,0,0.1-0.1,0.2-0.2l0.1,0.1l-0.7,0.9L116.3,106.1z"/>
		<path class="st7" d="M118.9,102c0.1,0.1,0.1,0.2,0.1,0.4c0,0.1-0.1,0.3-0.2,0.4c-0.1,0.3-0.4,0.4-0.7,0.4c-0.3,0-0.6-0.1-0.9-0.3
			c-0.3-0.2-0.5-0.4-0.5-0.7c-0.1-0.3-0.1-0.6,0.1-0.8c0.1-0.1,0.2-0.2,0.3-0.3c0.1-0.1,0.2-0.1,0.3-0.1l-0.8-0.5
			c-0.1,0-0.1,0-0.2,0c-0.1,0-0.1,0.1-0.2,0.3l-0.1,0l0.3-1l2.7,1.6c0.1,0,0.1,0.1,0.2,0c0,0,0.1-0.1,0.2-0.2l0.1,0.1l-0.4,0.6
			L118.9,102z M117.2,101.3c-0.1,0-0.1,0.1-0.2,0.2c-0.1,0.2-0.1,0.3,0,0.6c0.1,0.2,0.3,0.4,0.6,0.6c0.3,0.2,0.5,0.2,0.7,0.2
			c0.2,0,0.4-0.1,0.4-0.2c0.1-0.1,0.1-0.2,0.1-0.3c0-0.1,0-0.2-0.1-0.3l-1.3-0.8C117.4,101.2,117.3,101.2,117.2,101.3z"/>
		<path class="st7" d="M117.7,97.6c0.1,0,0.2,0,0.2,0c0.1,0,0.1,0.1,0.2,0.2c0,0.1,0,0.2,0,0.3c0,0.1-0.1,0.2-0.2,0.2
			c-0.1,0-0.2,0-0.2,0c-0.1,0-0.1-0.1-0.2-0.2c0-0.1,0-0.2,0-0.3C117.5,97.7,117.6,97.6,117.7,97.6z M120.3,99.7
			c0.1-0.1,0.1-0.2,0.1-0.3c0-0.1,0-0.1-0.1-0.2l-1.5-0.6c-0.1,0-0.1,0-0.1,0c0,0-0.1,0.1-0.1,0.2l-0.1,0l0.1-0.9l1.9,0.8
			c0.1,0,0.1,0,0.2,0c0.1,0,0.1-0.1,0.2-0.2l0.1,0.1l-0.5,1.2L120.3,99.7z"/>
		<path class="st7" d="M121,98c0-0.1,0-0.2,0-0.2c0-0.1-0.1-0.1-0.1-0.1l-1.5-0.5c-0.1,0-0.1,0-0.2,0c-0.1,0-0.1,0.1-0.1,0.2l-0.1,0
			l0.1-0.9l0.5,0.1c-0.1-0.1-0.2-0.2-0.2-0.4c-0.1-0.2,0-0.4,0-0.6c0.1-0.2,0.2-0.4,0.4-0.5c0.2-0.1,0.3-0.1,0.5,0l1.4,0.4
			c0.1,0,0.1,0,0.2,0c0,0,0.1-0.1,0.1-0.2l0.1,0l-0.4,1.1l-0.1,0c0-0.1,0-0.2,0-0.3c0-0.1-0.1-0.1-0.1-0.1l-1.4-0.5
			c-0.1,0-0.2,0-0.3,0c-0.1,0-0.2,0.1-0.2,0.2c0,0.1,0,0.3,0,0.5c0,0.1,0.1,0.3,0.2,0.4l1.3,0.4c0.1,0,0.1,0,0.2,0
			c0,0,0.1-0.1,0.1-0.2l0.1,0l-0.3,1.1L121,98z"/>
		<path class="st7" d="M122.3,93.6c0-0.2,0-0.3,0-0.4c0-0.1-0.1-0.1-0.2-0.1l-2.6-0.4c-0.1,0-0.2,0-0.3,0.1c0,0.1-0.1,0.2-0.1,0.4
			l-0.2,0l0.2-1.6l0.2,0c0,0.2,0,0.4,0,0.4c0,0.1,0.1,0.1,0.2,0.1l1.5,0.2l-1.2-1.7c-0.1-0.1-0.2-0.2-0.2-0.1
			c-0.1,0-0.1,0.2-0.1,0.4l-0.2,0l0.2-1.3l0.2,0c0,0.1,0,0.2,0,0.3c0,0.2,0.1,0.3,0.2,0.4l0.7,1l1.9-1c0.1-0.1,0.2-0.1,0.2-0.2
			c0.1-0.1,0.1-0.2,0.1-0.3l0.1,0l-0.2,1.7l-0.1,0c0-0.2,0-0.3,0-0.4c0-0.1-0.1-0.1-0.2-0.1l-1.6,0.8l0.4,0.5l0.9,0.1
			c0.1,0,0.2,0,0.2-0.1c0-0.1,0.1-0.2,0.1-0.4l0.1,0l-0.2,1.5L122.3,93.6z"/>
		<path class="st7" d="M121,87.1c0.2-0.2,0.5-0.3,0.9-0.3c0.4,0,0.7,0.1,0.9,0.3c0.2,0.2,0.3,0.5,0.3,0.9c0,0.4-0.1,0.7-0.4,0.9
			c-0.2,0.2-0.5,0.3-0.9,0.3c-0.4,0-0.7-0.1-0.9-0.3c-0.2-0.2-0.3-0.5-0.3-0.9C120.7,87.6,120.8,87.3,121,87.1z M121.1,88.4
			c0.2,0.1,0.5,0.2,0.7,0.2c0.3,0,0.6,0,0.8-0.1c0.2-0.1,0.4-0.3,0.4-0.5c0-0.2-0.1-0.3-0.3-0.5c-0.2-0.1-0.5-0.2-0.8-0.2
			c-0.3,0-0.5,0-0.8,0.1c-0.2,0.1-0.4,0.3-0.4,0.5C120.8,88.1,120.9,88.3,121.1,88.4z"/>
		<path class="st7" d="M122.9,86.3c0-0.1,0-0.2-0.1-0.3c0-0.1-0.1-0.1-0.2-0.1l-1.6,0.1c0,0-0.1,0-0.1,0.1c0,0.1,0,0.2,0,0.3l-0.1,0
			l-0.3-0.9l0.5,0c-0.2-0.1-0.3-0.2-0.4-0.3c-0.1-0.1-0.2-0.3-0.2-0.4c0-0.1,0-0.2,0.1-0.3c0-0.1,0.1-0.1,0.2-0.1
			c0.1,0,0.1,0,0.2,0.1c0.1,0,0.1,0.1,0.1,0.2c0,0.1,0,0.1,0,0.2c0,0,0,0-0.1,0.1c0,0-0.1,0-0.1,0.1c0,0,0,0.1,0,0.1
			c0,0.1,0,0.1,0.1,0.2c0.1,0.1,0.2,0.2,0.3,0.2l1.3-0.1c0.1,0,0.1,0,0.1-0.1c0-0.1,0-0.2,0-0.3l0.1,0l0.1,1.3L122.9,86.3z"/>
		<path class="st7" d="M122.6,82.1c0.1,0.2,0.2,0.4,0.2,0.7c0.1,0.4,0,0.7-0.2,0.9c-0.2,0.2-0.4,0.4-0.8,0.4c-0.4,0.1-0.7,0-1-0.1
			c-0.3-0.2-0.5-0.5-0.5-0.9c0-0.3,0-0.6,0.2-0.8c0.2-0.3,0.4-0.4,0.8-0.5l0.3,1.8c0.4-0.1,0.6-0.2,0.8-0.3c0.2-0.2,0.2-0.4,0.2-0.6
			c0-0.2-0.1-0.3-0.1-0.4c-0.1-0.2-0.2-0.3-0.4-0.4l0-0.1C122.3,81.8,122.4,81.9,122.6,82.1z M120.7,82.7c-0.1,0.1-0.2,0.3-0.1,0.4
			c0,0.2,0.1,0.3,0.3,0.4c0.2,0.1,0.4,0.1,0.7,0.1l-0.2-1.2C121,82.4,120.8,82.5,120.7,82.7z"/>
		<path class="st7" d="M122,78.9c0.1,0.1,0.1,0.1,0.1,0.2c0,0.1,0,0.2,0,0.3c0,0.1-0.1,0.2-0.2,0.2c0.1,0.1,0.2,0.2,0.3,0.3
			c0.1,0.1,0.2,0.2,0.2,0.4c0.1,0.2,0,0.4,0,0.6c-0.1,0.1-0.2,0.2-0.4,0.3c-0.2,0.1-0.4,0-0.6-0.2c-0.2-0.2-0.4-0.5-0.6-1l-0.4,0.1
			c-0.1,0-0.2,0.1-0.2,0.1c-0.1,0.1-0.1,0.2,0,0.4c0,0.1,0.1,0.2,0.2,0.3c0.1,0,0.1,0,0.3,0.1c0.1,0,0.2,0,0.2,0
			c0.1,0,0.1,0.1,0.1,0.1c0,0.1,0,0.2,0,0.2c0,0.1-0.1,0.1-0.1,0.1c-0.1,0-0.1,0-0.2,0c-0.1,0-0.2-0.1-0.3-0.2
			c-0.1-0.1-0.2-0.2-0.2-0.4c-0.1-0.2-0.1-0.3-0.1-0.5c0-0.2,0-0.3,0-0.4c0-0.1,0.1-0.2,0.2-0.2l1.5-0.4c0.1,0,0.2-0.1,0.2-0.1
			c0-0.1,0-0.2-0.1-0.2l0-0.1C121.8,78.9,121.9,78.9,122,78.9z M121.2,80.5c0.2,0.1,0.4,0.2,0.6,0.1c0.1,0,0.2-0.1,0.3-0.2
			c0.1-0.1,0.1-0.2,0.1-0.3c0-0.1-0.1-0.2-0.2-0.3c-0.1-0.1-0.2-0.2-0.3-0.2l-0.9,0.2C120.9,80.2,121,80.4,121.2,80.5z"/>
		<path class="st7" d="M120.5,74.9l0.8,1.9c-0.2,0.1-0.5,0-0.8,0c-0.2-0.1-0.5-0.2-0.8-0.3c-0.2-0.1-0.3-0.1-0.4-0.2
			c-0.1-0.1-0.3-0.1-0.4-0.1c-0.1,0-0.3,0-0.4,0c-0.1,0-0.3,0.1-0.4,0.2c-0.1,0.1-0.2,0.2-0.3,0.3c-0.1,0.1-0.1,0.2,0,0.4
			c0.1,0.2,0.1,0.3,0.2,0.4c0.1,0.1,0.2,0.1,0.3,0.1c0,0,0.1,0,0.1-0.1c0,0,0,0,0-0.1c0-0.1,0.1-0.1,0.1-0.1c0.1,0,0.1-0.1,0.2,0
			c0.1,0,0.1,0.1,0.2,0.1c0.1,0.1,0.1,0.1,0.1,0.2c0,0.1,0,0.2,0,0.2c0,0.1-0.1,0.1-0.2,0.2c-0.2,0.1-0.4,0-0.6-0.1
			c-0.2-0.1-0.4-0.4-0.6-0.7c-0.1-0.3-0.1-0.6-0.1-0.8c0.1-0.2,0.3-0.4,0.6-0.6c0.2-0.1,0.5-0.1,0.8,0c0.2,0.1,0.4,0.2,0.8,0.4
			c0.3,0.2,0.4,0.3,0.6,0.3c0.2,0.1,0.4,0.2,0.5,0.2l-0.5-1.2c0-0.1-0.1-0.2-0.2-0.2c-0.1-0.1-0.3-0.1-0.5-0.1l0-0.1L120.5,74.9z"/>
		<path class="st7" d="M119.6,73.9c-0.2,0.3-0.5,0.6-1,0.9c-0.5,0.2-0.9,0.3-1.3,0.3c-0.4,0-0.7-0.2-0.8-0.5c-0.2-0.3-0.1-0.6,0.1-1
			c0.2-0.3,0.5-0.6,1-0.9c0.5-0.2,0.9-0.3,1.3-0.3c0.4,0,0.7,0.2,0.8,0.5C119.8,73.2,119.8,73.6,119.6,73.9z M117.2,74.7
			c0.3,0,0.7-0.2,1.1-0.4c0.5-0.2,0.8-0.5,1-0.7c0.2-0.2,0.3-0.5,0.2-0.7c-0.1-0.2-0.3-0.3-0.6-0.2c-0.3,0-0.7,0.2-1.1,0.4
			c-0.4,0.2-0.8,0.5-1,0.7c-0.2,0.2-0.3,0.5-0.2,0.6C116.7,74.7,116.9,74.8,117.2,74.7z"/>
		<path class="st7" d="M117.5,69.4l1.1,1.8c-0.2,0.1-0.5,0.1-0.8,0.1c-0.2,0-0.5-0.1-0.9-0.2c-0.2,0-0.3-0.1-0.4-0.1
			c-0.2,0-0.3,0-0.4-0.1c-0.1,0-0.3,0-0.4,0.1c-0.1,0.1-0.3,0.1-0.4,0.2c-0.1,0.1-0.2,0.2-0.2,0.3c0,0.1,0,0.3,0.1,0.4
			c0.1,0.2,0.2,0.3,0.3,0.3c0.1,0.1,0.2,0.1,0.3,0c0,0,0,0,0.1-0.1c0,0,0-0.1,0-0.1c0-0.1,0-0.1,0.1-0.2c0-0.1,0.1-0.1,0.2-0.1
			c0.1,0,0.1,0,0.2,0.1c0.1,0.1,0.1,0.1,0.1,0.2c0,0.1,0,0.2,0,0.2c0,0.1-0.1,0.2-0.2,0.2c-0.2,0.1-0.4,0.1-0.6,0
			c-0.3-0.1-0.5-0.3-0.7-0.6c-0.2-0.3-0.2-0.5-0.2-0.8c0-0.3,0.2-0.5,0.5-0.6c0.2-0.1,0.5-0.2,0.8-0.1c0.2,0,0.5,0.1,0.9,0.3
			c0.3,0.1,0.5,0.2,0.6,0.2c0.2,0.1,0.4,0.1,0.6,0.1l-0.7-1.1c-0.1-0.1-0.1-0.2-0.2-0.2c-0.1,0-0.3,0-0.5,0l0-0.1L117.5,69.4z"/>
		<path class="st7" d="M116.7,68.5c-0.1-0.2-0.3-0.3-0.4-0.4c-0.1-0.1-0.2-0.1-0.3,0l-1.9,1.5c-0.1,0-0.1,0.1-0.1,0.2
			c0,0.1,0.1,0.3,0.3,0.5l-0.1,0.1c-0.1-0.1-0.3-0.3-0.4-0.4c-0.2-0.1-0.3-0.2-0.5-0.3l0-0.1l2.4-1.9c0.1-0.1,0.1-0.2,0.1-0.3
			c0-0.1-0.1-0.2-0.2-0.4l0.1-0.1l1.1,1.5L116.7,68.5z"/>
	</g>
</g>
</svg>
