<?xml version="1.0" encoding="utf-8"?>
<!-- Generator: Adobe Illustrator 25.0.0, SVG Export Plug-In . SVG Version: 6.00 Build 0)  -->
<svg version="1.1" id="Layer_1" xmlns="http://www.w3.org/2000/svg" xmlns:xlink="http://www.w3.org/1999/xlink" x="0px" y="0px"
	 viewBox="0 0 500 100" style="enable-background:new 0 0 500 100;" xml:space="preserve">
<style type="text/css">
	.st0{stroke:#FFFFFF;stroke-width:1.75;stroke-miterlimit:10;}
	.st1{stroke:#FFFFFF;stroke-miterlimit:10;}
	.st2{stroke:#FFFFFF;stroke-width:0.25;stroke-miterlimit:10;}
	.st3{stroke:#FFFFFF;stroke-width:2.25;stroke-miterlimit:10;}
	.st4{stroke:#FFFFFF;stroke-width:0.2;stroke-miterlimit:10;}
	.st5{fill:#FFFFFF;stroke:#FFFFFF;stroke-width:0.2;stroke-miterlimit:10;}
</style>
<path class="st0" d="M83.6,60.9l-10.1-7.2c-0.4-0.3-0.9-0.4-1.4-0.4H32.6l-10.3-9.6c-1.7-1.6-4.2-2.3-6.6-1.7
	c-2.3,0.6-4.1,2.2-4.9,4.3c-0.9,2.4-0.2,5.1,1.7,6.9l14.2,13.3c0.4,0.4,1,0.6,1.6,0.6H39v14.2h-7.1c-1.3,0-2.4,1.1-2.4,2.4
	c0,1.3,1.1,2.4,2.4,2.4H62c1.3,0,2.4-1.1,2.4-2.4c0-1.3-1.1-2.4-2.4-2.4h-7.1V67.2h13.2l6.9,4.9c1.3,0.9,2.8,1.3,4.3,1.3
	c0.8,0,1.5-0.1,2.3-0.4c2.2-0.7,3.8-2.3,4.6-4.4C87.2,65.9,86.2,62.7,83.6,60.9z M50.1,81.4h-6.3V67.2h6.3V81.4z M81.7,67.2
	c-0.2,0.7-0.8,1.2-1.5,1.4c-0.8,0.3-1.7,0.1-2.4-0.3l-7.6-5.3c-0.4-0.3-0.9-0.4-1.4-0.4H29.3L15.8,49.8c-0.5-0.5-0.7-1.2-0.5-1.9
	c0.3-0.9,1.2-1.2,1.5-1.3c0.8-0.2,1.6,0,2.2,0.5L30,57.4c0.4,0.4,1,0.6,1.6,0.6h39.7l9.5,6.7C81.7,65.4,82,66.3,81.7,67.2z"/>
<path class="st0" d="M35.2,22.2c-0.9-0.9-2.3-0.9-3.3-0.1l-1.6-1.6c-2.2-2.2-5.7-2.2-7.8,0l-0.8,0.8l-7-7c-0.9-0.9-2.4-0.9-3.4,0
	c-0.9,0.9-0.9,2.4,0,3.4l7,7l-0.8,0.8c-2.2,2.2-2.2,5.7,0,7.8L19,35c-0.8,0.9-0.8,2.4,0.1,3.3c0.5,0.5,1.1,0.7,1.7,0.7
	c0.6,0,1.2-0.2,1.7-0.7l12.7-12.7C36.1,24.6,36.1,23.1,35.2,22.2z M26.9,23.8l1.6,1.6l-6.1,6.1L20.8,30c-0.3-0.3-0.3-0.8,0-1.1
	l2.5-2.5c0,0,0,0,0,0c0,0,0,0,0,0l2.5-2.5C26.1,23.5,26.6,23.5,26.9,23.8z"/>
<path class="st0" d="M85.9,14.3c-0.9-0.9-2.4-0.9-3.4,0l-7,7l-0.8-0.8c-2.2-2.2-5.7-2.2-7.8,0l-1.6,1.6c-0.9-0.8-2.4-0.8-3.3,0.1
	c-0.9,0.9-0.9,2.4,0,3.4l1.6,1.6c0,0,0,0,0,0c0,0,0,0,0,0l9.5,9.5l0,0l0,0l1.6,1.6c0.5,0.5,1.1,0.7,1.7,0.7s1.2-0.2,1.7-0.7
	c0.9-0.9,0.9-2.3,0.1-3.3l1.6-1.6c2.2-2.2,2.2-5.7,0-7.8l-0.8-0.8l7-7C86.8,16.7,86.8,15.2,85.9,14.3z M71.3,23.8l2.5,2.5
	c0,0,0,0,0,0c0,0,0,0,0,0l2.5,2.5c0.3,0.3,0.3,0.8,0,1.1l-1.6,1.6l-6.1-6.1l1.6-1.6C70.5,23.5,71,23.5,71.3,23.8z"/>
<g id="_x30_28---Hospital-Bed">
	<path id="Shape" class="st1" d="M288.5,45.6c-2.7,0-4.8,2.2-4.8,4.8v4.8h-42.2c0.4-0.7,0.6-1.6,0.6-2.4c0-3.1-2.5-5.6-5.6-5.6
		h-11.2c-3.1,0-5.6,2.5-5.6,5.6c0,0.8,0.2,1.7,0.6,2.4h-3.8V37.6c0-2.7-2.2-4.8-4.8-4.8s-4.8,2.2-4.8,4.8v44.9c0,2.3,1.7,4.3,4,4.7
		c2.3,0.4,4.6-0.9,5.3-3.1H284c0.8,2.2,3,3.5,5.3,3.1c2.3-0.4,4-2.4,4-4.7V50.5C293.3,47.8,291.1,45.6,288.5,45.6L288.5,45.6z
		 M283.7,72.9h-46.5c-0.9,0-1.6-0.7-1.6-1.6V58.5h48.1V72.9z M222.8,52.9c0-1.3,1.1-2.4,2.4-2.4h11.2c1.3,0,2.4,1.1,2.4,2.4
		c0,1.3-1.1,2.4-2.4,2.4h-11.2C223.8,55.3,222.8,54.2,222.8,52.9z M211.5,84.1c-0.9,0-1.6-0.7-1.6-1.6V37.6c0-0.9,0.7-1.6,1.6-1.6
		c0.9,0,1.6,0.7,1.6,1.6v44.9C213.1,83.4,212.4,84.1,211.5,84.1z M216.3,58.5h16v12.8c0,2.7,2.2,4.8,4.8,4.8h46.5v4.8h-67.3V58.5z
		 M290.1,82.5c0,0.9-0.7,1.6-1.6,1.6c-0.9,0-1.6-0.7-1.6-1.6V50.5c0-0.9,0.7-1.6,1.6-1.6c0.9,0,1.6,0.7,1.6,1.6V82.5z"/>
</g>
<path d="M186.6,72.6v-5.3h3.2c0.7,0,1.2-0.5,1.2-1.2V41.9c0-2.6-2.1-4.6-4.6-4.6c-2.1,0-3.9,1.5-4.5,3.4h-8.6c0,0,0,0,0,0H154
	c-4,0-7.3,3.3-7.3,7.3v0.3h-14.5c0-1.9-1.2-3.7-3-4.4c0,0-0.1,0-0.1,0l-11-3.4v-6.2c0-2.6-2.1-4.6-4.6-4.6c-2.6,0-4.6,2.1-4.6,4.6
	v19.6c0,0,0,0,0,0v12.3c0,0.7,0.5,1.2,1.2,1.2h4.5v5.3c-2.7,0.6-4.7,2.9-4.7,5.8c0,3.3,2.7,5.9,5.9,5.9c3.3,0,5.9-2.7,5.9-5.9
	c0-2.8-2-5.2-4.7-5.8v0.8h67.3v-0.8c-2.7,0.6-4.7,2.9-4.7,5.8c0,3.3,2.7,5.9,5.9,5.9s5.9-2.7,5.9-5.9
	C191.3,75.5,189.3,73.2,186.6,72.6z M184.2,41.9c0-1.2,1-2.2,2.2-2.2c1.2,0,2.2,1,2.2,2.2v23h-4.5V41.9z M149,48
	c0-2.7,2.2-4.9,4.9-4.9h17c0,0,0,0,0,0h10.7v21.8H149V48z M118,42.9l10.3,3.2c0.9,0.4,1.4,1.3,1.5,2.2H118V42.9z M118,50.7h12.8
	h15.8V58H118V50.7z M111.1,64.9V51.1c0,0,0,0,0,0V34.2c0-1.2,1-2.2,2.2-2.2c1.2,0,2.2,1,2.2,2.2v25.1c0,0.7,0.5,1.2,1.2,1.2h29.8
	v4.5H111.1z M119.1,78.4c0,1.9-1.6,3.5-3.5,3.5c-1.9,0-3.5-1.6-3.5-3.5c0-1.9,1.6-3.5,3.5-3.5C117.5,74.9,119.1,76.5,119.1,78.4z
	 M116.8,71v-3.7h67.3V71H116.8z M185.4,81.9c-1.9,0-3.5-1.6-3.5-3.5c0-1.9,1.6-3.5,3.5-3.5c1.9,0,3.5,1.6,3.5,3.5
	C188.9,80.3,187.3,81.9,185.4,81.9z"/>
<path class="st2" d="M255.4,43.3c1.4,0.4,2.8,0.6,4.2,0.6c2.3,0,4.6-0.6,6.7-1.7c7-3.7,9.7-12.5,6-19.5c-1.8-3.4-4.8-5.9-8.5-7
	c-3.7-1.1-7.6-0.8-11,1.1l0,0c-7,3.7-9.7,12.5-6,19.5C248.7,39.6,251.7,42.1,255.4,43.3L255.4,43.3z M253.9,18.7L253.9,18.7
	c2.9-1.5,6.2-1.8,9.3-0.9c3.1,1,5.7,3.1,7.2,5.9c3.2,5.9,0.9,13.3-5,16.5c-2.9,1.5-6.2,1.8-9.3,0.9c-3.1-1-5.7-3.1-7.2-5.9
	C245.7,29.3,248,21.9,253.9,18.7L253.9,18.7z"/>
<path class="st2" d="M253.8,33.1h2.3v2.3c0,1.4,1.1,2.6,2.5,2.6h2.1c1.4,0,2.6-1.1,2.6-2.6v-2.3h2.3c1.4,0,2.6-1.1,2.6-2.6v-2.1
	c0-1.4-1.1-2.6-2.6-2.6h-2.3v-2.3c0-1.4-1.1-2.6-2.6-2.6h-2.1c-1.4,0-2.5,1.1-2.5,2.6v2.3h-2.3c-1.4,0-2.6,1.1-2.6,2.6v2.1
	C251.2,31.9,252.4,33.1,253.8,33.1L253.8,33.1z M253.4,28.4c0-0.2,0.2-0.3,0.3-0.3h3.4c0.6,0,1.1-0.5,1.1-1.1v-3.4
	c0-0.2,0.2-0.3,0.3-0.3h2.1c0.2,0,0.3,0.2,0.3,0.3V27c0,0.6,0.5,1.1,1.1,1.1h3.4c0.2,0,0.3,0.2,0.3,0.3v2.1c0,0.2-0.2,0.3-0.3,0.3
	h-3.4c-0.6,0-1.1,0.5-1.1,1.1v3.4c0,0.2-0.2,0.3-0.3,0.3h-2.1c-0.2,0-0.3-0.2-0.3-0.3V32c0-0.6-0.5-1.1-1.1-1.1h-3.4
	c-0.2,0-0.3-0.2-0.3-0.3V28.4z"/>
<g>
	<g>
		<path class="st3" d="M385.7,59.5c0-3.9-3.1-7-7-7h-3.9V22.3c0-3.9-3.1-7-7-7h-9.3c-3.9,0-7,3.1-7,7V25c-2.7,1-4.7,3.6-4.7,6.6v0
			c-2.9,2.2-4.7,5.6-4.7,9.3v4.7c0,1.3,1,2.3,2.3,2.3h18.6c1.3,0,2.3-1,2.3-2.3v-4.7c0-3.6-1.8-7.1-4.7-9.3v0c0-3-1.9-5.6-4.7-6.6
			v-2.7c0-1.3,1-2.3,2.3-2.3h9.3c1.3,0,2.3,1,2.3,2.3v30.3h-30.3c-3.9,0-7,3.1-7,7v2.3h-1.3c0.8-1.4,1.3-3,1.3-4.7
			c0-5.1-4.2-9.3-9.3-9.3c-5.1,0-9.3,4.2-9.3,9.3c0,2.4,0.9,4.7,2.5,6.3c-1.5,1.3-2.5,3.2-2.5,5.3c0,3,1.9,5.6,4.7,6.6v7.4
			c0,1.3,1,2.3,2.3,2.3s2.3-1,2.3-2.3v-7h5.1c-1.2,3.3,0.3,7,3.5,8.6c3.4,1.7,7.6,0.4,9.4-3.1l2.7-5.5h32.2v7c0,1.3,1,2.3,2.3,2.3
			s2.3-1,2.3-2.3v-7.4c2.7-1,4.7-3.6,4.7-6.6c0-1.8-0.7-3.4-1.8-4.7C385,63,385.7,61.3,385.7,59.5z M357.4,34.9
			c2.2,1.3,3.5,3.5,3.5,6v2.3h-14v-2.3c0-2.5,1.3-4.7,3.5-6c0.7-0.4,1.2-1.2,1.2-2v-1.3c0-1.3,1-2.3,2.3-2.3c1.3,0,2.3,1,2.3,2.3
			v1.3C356.2,33.7,356.7,34.5,357.4,34.9z M323.6,52.6c2.6,0,4.7,2.1,4.7,4.7c0,2.6-2.1,4.7-4.7,4.7c-2.6,0-4.7-2.1-4.7-4.7
			C318.9,54.6,321,52.6,323.6,52.6z M330.9,71.2h-9.7c-1.3,0-2.3-1-2.3-2.3c0-1.3,1-2.3,2.3-2.3h11.6v0.7L330.9,71.2z M378.7,71.2
			h-32.2c0.3-0.7,0.4-1.5,0.4-2.3v-2.3h31.8c1.3,0,2.3,1,2.3,2.3C381.1,70.1,380,71.2,378.7,71.2z M378.7,61.9h-34.2
			c-1.3,0-2.3,1-2.3,2.3v4.7c0,0.4-0.1,0.7-0.2,1l-4.7,9.3c-0.6,1.2-2,1.6-3.1,1c-1.2-0.6-1.6-2-1-3.1l4.2-8.3
			c0.2-0.3,0.2-0.7,0.2-1v-8.2c0-1.3,1-2.3,2.3-2.3h38.8c1.3,0,2.3,1,2.3,2.3C381.1,60.8,380,61.9,378.7,61.9z"/>
	</g>
</g>
<g>
	<g>
		<g>
			<g>
				<path class="st4" d="M450.2,20.5c0.7,0,1.3-0.6,1.3-1.3v-2.4c0-0.7-0.6-1.3-1.3-1.3c-0.7,0-1.3,0.6-1.3,1.3v2.4
					C448.9,19.9,449.5,20.5,450.2,20.5z"/>
				<path class="st5" d="M450.2,20.6c-0.8,0-1.5-0.7-1.5-1.5v-2.4c0-0.8,0.7-1.5,1.5-1.5s1.5,0.7,1.5,1.5v2.4
					C451.7,19.9,451,20.6,450.2,20.6z M450.2,15.5c-0.7,0-1.2,0.5-1.2,1.2v2.4c0,0.7,0.5,1.2,1.2,1.2s1.2-0.5,1.2-1.2v-2.4
					C451.4,16,450.9,15.5,450.2,15.5z"/>
			</g>
			<g>
				<path class="st4" d="M461.7,23.7c0.2,0.1,0.4,0.2,0.7,0.2c0.5,0,0.9-0.2,1.2-0.7l1.3-2.3c0.4-0.6,0.1-1.5-0.5-1.8
					c-0.6-0.4-1.5-0.1-1.8,0.5l-1.3,2.3C460.9,22.5,461.1,23.4,461.7,23.7L461.7,23.7z"/>
				<path class="st5" d="M462.4,24c-0.2,0-0.5-0.1-0.7-0.2l0,0c-0.3-0.2-0.6-0.5-0.7-0.9c-0.1-0.4-0.1-0.8,0.1-1.1l1.3-2.3
					c0.4-0.7,1.3-0.9,2-0.6c0.3,0.2,0.6,0.5,0.7,0.9c0.1,0.4,0.1,0.8-0.1,1.1l-1.3,2.3C463.4,23.7,462.9,24,462.4,24z M463.7,19.1
					c-0.4,0-0.8,0.2-1.1,0.6l-1.3,2.3c-0.2,0.3-0.2,0.6-0.1,0.9c0.1,0.3,0.3,0.6,0.6,0.7l0,0c0.2,0.1,0.4,0.2,0.6,0.2
					c0.4,0,0.8-0.2,1.1-0.6l1.3-2.3c0.2-0.3,0.2-0.6,0.1-0.9c-0.1-0.3-0.3-0.6-0.6-0.7C464.1,19.1,463.9,19.1,463.7,19.1z"/>
			</g>
			<g>
				<path class="st4" d="M470.7,32.5c0.2,0,0.4-0.1,0.6-0.2l2.5-1.4c0.6-0.4,0.9-1.2,0.5-1.8c-0.4-0.6-1.2-0.9-1.8-0.5L470,30
					c-0.6,0.4-0.9,1.2-0.5,1.8C469.8,32.2,470.2,32.5,470.7,32.5z"/>
				<path class="st5" d="M470.7,32.6c-0.5,0-1-0.3-1.3-0.8c-0.4-0.7-0.1-1.6,0.6-2l2.5-1.4c0.3-0.2,0.7-0.2,1.1-0.1
					c0.4,0.1,0.7,0.4,0.9,0.7c0.4,0.7,0.1,1.6-0.6,2l-2.5,1.4C471.2,32.6,470.9,32.6,470.7,32.6z M473.1,28.6c-0.2,0-0.4,0-0.6,0.2
					l-2.5,1.4c-0.6,0.3-0.8,1.1-0.5,1.6c0.2,0.4,0.6,0.6,1.1,0.6c0.2,0,0.4-0.1,0.6-0.2l2.5-1.4c0.6-0.3,0.8-1.1,0.5-1.6
					C474,28.8,473.6,28.6,473.1,28.6z"/>
			</g>
			<g>
				<path class="st4" d="M476.7,41.9h-2.6c-0.7,0-1.3,0.6-1.3,1.3c0,0.7,0.6,1.3,1.3,1.3h2.6c0.7,0,1.3-0.6,1.3-1.3
					C478,42.5,477.4,41.9,476.7,41.9z"/>
				<path class="st5" d="M476.7,44.6h-2.6c-0.8,0-1.5-0.7-1.5-1.5s0.7-1.5,1.5-1.5h2.6c0.8,0,1.5,0.7,1.5,1.5S477.5,44.6,476.7,44.6
					z M474.1,42c-0.7,0-1.2,0.5-1.2,1.2c0,0.7,0.5,1.2,1.2,1.2h2.6c0.7,0,1.2-0.5,1.2-1.2c0-0.7-0.5-1.2-1.2-1.2H474.1z"/>
			</g>
			<g>
				<path class="st4" d="M436.9,23.2c0.2,0.4,0.7,0.7,1.2,0.7c0.2,0,0.4-0.1,0.7-0.2c0.6-0.4,0.9-1.2,0.5-1.8l-1.3-2.3
					c-0.4-0.6-1.2-0.9-1.8-0.5c-0.6,0.4-0.9,1.2-0.5,1.8L436.9,23.2z"/>
				<path class="st5" d="M438,24c-0.5,0-1-0.3-1.3-0.7l-1.3-2.3c-0.4-0.7-0.1-1.6,0.6-2c0.7-0.4,1.6-0.1,2,0.6l1.3,2.3
					c0.2,0.3,0.2,0.7,0.1,1.1c-0.1,0.4-0.3,0.7-0.7,0.9C438.5,23.9,438.3,24,438,24z M436.7,19.1c-0.2,0-0.4,0.1-0.6,0.2
					c-0.6,0.3-0.8,1.1-0.5,1.6l1.3,2.3c0.2,0.4,0.6,0.6,1.1,0.6c0.2,0,0.4-0.1,0.6-0.2c0.3-0.2,0.5-0.4,0.6-0.7s0-0.6-0.1-0.9
					l-1.3-2.3C437.6,19.3,437.2,19.1,436.7,19.1z"/>
			</g>
			<g>
				<path class="st4" d="M426.6,31l2.5,1.4c0.2,0.1,0.4,0.2,0.6,0.2c0.5,0,0.9-0.2,1.2-0.7c0.4-0.6,0.1-1.5-0.5-1.8l-2.5-1.4
					c-0.6-0.4-1.5-0.1-1.8,0.5C425.8,29.8,426,30.6,426.6,31L426.6,31z"/>
				<path class="st5" d="M429.7,32.6c-0.2,0-0.5-0.1-0.7-0.2l-2.5-1.4c-0.7-0.4-1-1.3-0.6-2c0.4-0.7,1.3-1,2-0.6l2.5,1.4
					c0.7,0.4,1,1.3,0.6,2C430.8,32.3,430.3,32.6,429.7,32.6z M426.7,30.9l2.5,1.4c0.2,0.1,0.4,0.2,0.6,0.2c0.4,0,0.8-0.2,1.1-0.6
					c0.3-0.6,0.1-1.3-0.5-1.6l-2.5-1.4c-0.6-0.3-1.3-0.1-1.6,0.5C425.9,29.8,426.1,30.5,426.7,30.9L426.7,30.9z"/>
			</g>
			<g>
				<path class="st4" d="M426.3,44.5c0.7,0,1.3-0.6,1.3-1.3c0-0.7-0.6-1.3-1.3-1.3h-2.6c-0.7,0-1.3,0.6-1.3,1.3
					c0,0.7,0.6,1.3,1.3,1.3H426.3z"/>
				<path class="st5" d="M426.3,44.6h-2.6c-0.8,0-1.5-0.7-1.5-1.5s0.7-1.5,1.5-1.5h2.6c0.8,0,1.5,0.7,1.5,1.5S427.1,44.6,426.3,44.6
					z M423.7,42c-0.7,0-1.2,0.5-1.2,1.2c0,0.7,0.5,1.2,1.2,1.2h2.6c0.7,0,1.2-0.5,1.2-1.2c0-0.7-0.5-1.2-1.2-1.2H423.7z"/>
			</g>
			<g>
				<path class="st4" d="M475.8,74.8h-3.3v-8.2c0-0.7-0.6-1.3-1.3-1.3h-2.8V42.5c0-10-8.2-18.2-18.2-18.2c-10,0-18.2,8.2-18.2,18.2
					v22.8h-2.8c-0.7,0-1.3,0.6-1.3,1.3v8.2h-3.3c-0.7,0-1.3,0.6-1.3,1.3v6c0,0.7,0.6,1.3,1.3,1.3h51.1c0.7,0,1.3-0.6,1.3-1.3v-6
					C477.1,75.4,476.5,74.8,475.8,74.8z M434.7,42.5c0-8.6,7-15.5,15.5-15.5c8.6,0,15.5,7,15.5,15.5v22.8h-11.5V52.8
					c1.9-1.3,3.1-3.5,3.1-5.9c0-3.9-3.2-7.1-7.1-7.1c-3.9,0-7.1,3.2-7.1,7.1c0,2.4,1.2,4.5,3.1,5.9v12.6h-11.5V42.5z M448.2,50.8
					c-1.5-0.8-2.4-2.3-2.4-3.9c0-2.4,2-4.4,4.4-4.4s4.4,2,4.4,4.4c0,1.7-0.9,3.2-2.4,3.9c-0.4,0.2-0.7,0.7-0.7,1.2v13.3h-2.7V52
					C448.9,51.5,448.6,51.1,448.2,50.8z M474.4,80.8H426v-3.4h18.2c0.7,0,1.3-0.6,1.3-1.3s-0.6-1.3-1.3-1.3h-13.6V68h39.3v6.8h-13.6
					c-0.7,0-1.3,0.6-1.3,1.3s0.6,1.3,1.3,1.3h18.2V80.8z"/>
				<path class="st5" d="M475.8,83.6h-51.1c-0.8,0-1.5-0.7-1.5-1.5v-6c0-0.8,0.7-1.5,1.5-1.5h3.1v-8c0-0.8,0.7-1.5,1.5-1.5h2.6V42.5
					c0-10.1,8.2-18.3,18.3-18.3c10.1,0,18.3,8.2,18.3,18.3v22.6h2.6c0.8,0,1.5,0.7,1.5,1.5v8h3.1c0.8,0,1.5,0.7,1.5,1.5v6
					C477.2,83,476.6,83.6,475.8,83.6z M424.7,74.9c-0.7,0-1.2,0.5-1.2,1.2v6c0,0.7,0.5,1.2,1.2,1.2h51.1c0.7,0,1.2-0.5,1.2-1.2v-6
					c0-0.7-0.5-1.2-1.2-1.2h-3.4v-8.3c0-0.7-0.5-1.2-1.2-1.2h-2.9V42.5c0-10-8.1-18.1-18.1-18.1c-10,0-18.1,8.1-18.1,18.1v22.9h-2.9
					c-0.7,0-1.2,0.5-1.2,1.2v8.3H424.7z M474.6,81h-48.7v-3.6h18.3c0.7,0,1.2-0.5,1.2-1.2c0-0.7-0.5-1.2-1.2-1.2h-13.7v-7.1H470v7.1
					h-13.7c-0.7,0-1.2,0.5-1.2,1.2c0,0.7,0.5,1.2,1.2,1.2h18.3V81z M426.1,80.7h48.2v-3.1h-18.1c-0.8,0-1.5-0.7-1.5-1.5
					s0.7-1.5,1.5-1.5h13.5v-6.6h-39v6.6h13.5c0.8,0,1.5,0.7,1.5,1.5s-0.7,1.5-1.5,1.5h-18.1V80.7z M465.9,65.4h-11.8V52.7l0.1,0
					c1.9-1.3,3-3.4,3-5.8c0-3.8-3.1-7-7-7s-7,3.1-7,7c0,2.3,1.1,4.5,3,5.8l0.1,0v12.7h-11.8V42.5c0-8.6,7-15.7,15.7-15.7
					c8.6,0,15.7,7,15.7,15.7V65.4z M454.3,65.2h11.3V42.5c0-8.5-6.9-15.4-15.4-15.4c-8.5,0-15.4,6.9-15.4,15.4v22.6h11.3V52.8
					c-1.9-1.3-3.1-3.6-3.1-5.9c0-4,3.2-7.2,7.2-7.2c4,0,7.2,3.2,7.2,7.2c0,2.4-1.2,4.6-3.1,5.9V65.2z M451.7,65.4h-2.9V52
					c0-0.5-0.2-0.9-0.6-1.1l0,0c-1.5-0.8-2.4-2.3-2.4-4c0-2.5,2-4.6,4.6-4.6c2.5,0,4.6,2,4.6,4.6c0,1.7-0.9,3.2-2.4,4
					c-0.4,0.2-0.6,0.6-0.6,1.1V65.4z M449,65.2h2.4V52c0-0.5,0.3-1,0.8-1.3c1.4-0.7,2.3-2.2,2.3-3.8c0-2.4-1.9-4.3-4.3-4.3
					c-2.4,0-4.3,1.9-4.3,4.3c0,1.6,0.9,3.1,2.3,3.8l0,0c0.5,0.3,0.8,0.7,0.8,1.3V65.2z"/>
			</g>
		</g>
	</g>
</g>
</svg>
