<?xml version="1.0" encoding="utf-8"?>
<!-- Generator: Adobe Illustrator 25.2.2, SVG Export Plug-In . SVG Version: 6.00 Build 0)  -->
<svg version="1.1" id="Layer_1" xmlns="http://www.w3.org/2000/svg" xmlns:xlink="http://www.w3.org/1999/xlink" x="0px" y="0px"
	 viewBox="0 0 100 100" style="enable-background:new 0 0 100 100;" xml:space="preserve">
<style type="text/css">
	.st0{fill:#0055FF;stroke:#0055FF;stroke-width:1.0003;stroke-miterlimit:4.001;}
</style>
<path id="패스_222" class="st0" d="M40.9,71.2c-5.3,1.5-10.8-0.7-13.6-5.4c-0.3-0.5-0.3-1-0.1-1.5c2.1-3.7,6.1-6.2,10.4-6.2l0,0
	c0.6,0,1.2,0,1.7,0.1l1,0.1l-0.5-0.9c-1-1.8-1.8-3.6-2.5-5.6l-0.2-0.5l-0.5,0.2c-0.4,0.1-0.7,0.3-1.1,0.4
	c-6.4,1.9-13.1-1.9-14.9-8.3c-0.3-1-0.4-2.1-0.4-3.2c-0.1-0.5,0.3-1,0.7-1.3c4.3-2.6,9.6-2.2,13.6,0.8l0.8,0.6l0-1
	c0-1.8,0.1-3.5,0.4-5.3l0-0.5l-0.5,0c-6.6-1.1-11-7.4-9.9-14c0.3-1.3,0.7-2.6,1.3-3.9c0.3-0.4,0.7-0.8,1.2-0.7
	c6.6-0.1,12.2,5.2,12.3,11.9c0,2-0.4,4-1.4,5.8l0,0.1l0,0.1c-1.1,5.2-0.9,10.7,0.6,15.8C44,65,60,75.2,76.5,72.7
	c0.8-0.1,1.6,0.4,1.7,1.2s-0.4,1.6-1.2,1.7c-3.6,0.6-7.3,0.6-10.9,0l-0.4-0.1l-0.2,0.4c-1.6,6.5-8.3,10.4-14.7,8.8
	c-2.1-0.5-3.9-1.6-5.4-3.1c-0.3-0.4-0.5-1-0.5-1.5c1-3.9,3.9-7.1,7.8-8.4l1-0.3l-0.9-0.5c-1.8-1.1-3.6-2.3-5.2-3.8l-0.3-0.4L47,67.3
	C45.4,69.1,43.3,70.4,40.9,71.2z M31.6,41.6c-2.5-1.4-5.4-1.6-8-0.4l-0.4,0.1l0,0.4c0.8,4.9,5.4,8.4,10.4,7.7c0.4,0,0.8-0.2,1.2-0.2
	c0.4-0.1,0.7-0.2,1.1-0.4l0.4-0.1l0-0.4C35.7,45.4,34,42.9,31.6,41.6z M36.6,31l0.2-0.3c1-2.6,0.7-5.6-0.7-8l0,0
	c-1.5-2.4-3.9-4-6.7-4.3l-0.4-0.2l-0.2,0.3c-1.8,4.7,0.5,10,5.2,11.8c0.7,0.2,1.5,0.5,2.2,0.6L36.6,31z M44.9,64.4
	c-3.1-3.9-8.9-4.5-12.8-1.4c-0.6,0.5-1.1,1-1.5,1.7L30.3,65l0.2,0.3c1.7,2.2,4.5,3.5,7.3,3.4c0.8,0,1.6-0.2,2.3-0.3
	c2-0.5,3.6-1.7,4.8-3.3l0.3-0.3L44.9,64.4z M54.3,74.4c-2.7,0.8-4.9,2.7-6,5.3l-0.2,0.4l0.3,0.3c4,3,9.8,2.1,12.8-1.9
	c0.4-0.6,0.8-1.3,1.1-2l0.2-0.3l-0.3-0.3C59.9,74.2,56.9,73.7,54.3,74.4L54.3,74.4z"/>
</svg>
