<?xml version="1.0" encoding="utf-8"?>
<!-- Generator: Adobe Illustrator 25.2.3, SVG Export Plug-In . SVG Version: 6.00 Build 0)  -->
<svg version="1.1" id="Layer_1" xmlns="http://www.w3.org/2000/svg" xmlns:xlink="http://www.w3.org/1999/xlink" x="0px" y="0px"
	 viewBox="0 0 100 100" style="enable-background:new 0 0 100 100;" xml:space="preserve">
<style type="text/css">
	.st0{fill:#0DAC15;}
</style>
<g id="icon">
	<path class="st0" d="M39.7,28.9l-4.1,6.4c-2,3.1-1.6,7.1,0.9,9.8l8.9,9.6l9.6,8.9c2.7,2.5,6.7,2.8,9.8,0.9l6.9-4.4L89,77.9l-7,8.9
		c-2.3,2.9-6.1,4.1-9.6,3.2c-14.2-3.8-26.5-12.2-38.1-24.1C22.3,54.2,13.9,41.9,10.1,27.7c-1-3.6,0.3-7.3,3.2-9.6l8.9-7L39.7,28.9z"
		/>
	<g>
		<path class="st0" d="M71.9,59.9l-1,0.7l17.8,17.8l0.4-0.5c1.8-2.3,1.6-5.5-0.5-7.6L79,60.6C77.1,58.7,74.1,58.4,71.9,59.9z"/>
		<path class="st0" d="M22.2,11l-0.5,0.4l17.8,17.8l0.7-1c1.4-2.3,1.1-5.2-0.8-7.1l-9.6-9.6C27.7,9.4,24.5,9.2,22.2,11L22.2,11z"/>
	</g>
</g>
</svg>
