<?xml version="1.0" encoding="utf-8"?>
<!-- Generator: Adobe Illustrator 25.2.1, SVG Export Plug-In . SVG Version: 6.00 Build 0)  -->
<svg version="1.1" id="Layer_1" xmlns="http://www.w3.org/2000/svg" xmlns:xlink="http://www.w3.org/1999/xlink" x="0px" y="0px"
	 viewBox="0 0 600 200" style="enable-background:new 0 0 600 200;" xml:space="preserve">
<style type="text/css">
	.st0{fill:#43434C;}
	.st1{fill:#323242;}
	.st2{fill:#F299AE;}
	.st3{fill:#FBEDE3;}
	.st4{fill:#FFFFFF;}
	.st5{fill:#F29990;}
	.st6{fill:none;}
	.st7{fill:#9FA0A0;}
	.st8{fill:#DCDDDD;}
	.st9{fill:#323242;stroke:#323242;stroke-width:0.65;stroke-miterlimit:10;}
	.st10{fill:#C9CACA;}
	.st11{fill:#EFEFEF;}
	.st12{clip-path:url(#SVGID_2_);}
	.st13{fill:#EA5514;}
</style>
<g id="그룹_827" transform="translate(207 862.097)">
	<g id="그룹_782" transform="translate(32.195 14.023)">
		
			<rect id="사각형_449" x="18.3" y="-814.6" transform="matrix(0.9997 -2.598926e-02 2.598926e-02 0.9997 20.4388 0.6715)" class="st0" width="35.5" height="57.3"/>
		<path id="패스_776" class="st1" d="M19-756c-0.5,0-0.8-0.4-0.8-0.8l-1.5-57.3c0-0.5,0.4-0.9,0.8-0.9l35.5-0.9l0,0
			c0.5,0,0.8,0.4,0.8,0.8l1.5,57.3c0,0.5-0.4,0.9-0.8,0.9l0,0L19-756L19-756z M18.4-813.3l1.4,55.6l33.8-0.9l-1.4-55.6L18.4-813.3z"
			/>
	</g>
	<g id="그룹_783" transform="translate(26.834 35.248)">
		<path id="패스_777" class="st2" d="M14.5-778.9c-0.5-11,10.4-22.1,21.8-23.8l15.4,0.3c10.6-1.6,18.9,5.3,24.2,14.2
			c3.7,6.1,20.8,37.7,20.8,37.7l-9.2,6.9c0,0-13.4-12.8-20.2-19.9l-0.3-2.7l-0.5,16.5H23.1L22-766.5"/>
		<path id="패스_778" class="st1" d="M66.5-749H23.1c-0.5,0-0.8-0.4-0.8-0.8l-1.1-16.8c0-0.5,0.3-0.9,0.8-0.9s0.9,0.3,0.9,0.8l0,0
			l1,16h41.8l0.4-15.7c0-0.5,0.4-0.8,0.9-0.8c0.4,0,0.8,0.3,0.8,0.8l0.3,2.5c6,6.2,17,16.8,19.5,19.2l8-6
			c-2.5-4.5-17.1-31.5-20.4-37c-3.6-5.9-11.4-15.6-23.4-13.8h-0.1l-15.4-0.3c-11.3,1.8-21.5,12.9-21,23c0,0.5-0.3,0.9-0.8,0.9l0,0
			c-0.5,0-0.9-0.3-0.9-0.8l0,0c-0.5-11,10.2-22.8,22.5-24.7h0.1l15.4,0.3c12.9-2,21.2,8.3,25,14.6c3.7,6.1,20.7,37.4,20.8,37.8
			c0.2,0.4,0.1,0.8-0.2,1.1l-9.2,6.9c-0.3,0.2-0.8,0.2-1.1-0.1c-0.1-0.1-12.2-11.6-19.2-18.8l-0.4,12.1C67.4-749.4,67-749,66.5-749z
			"/>
	</g>
	<g id="그룹_784" transform="translate(41.194 30.164)">
		<path id="사각형_450" class="st3" d="M30.4-789.9L30.4-789.9c-4.3-0.2-7.6-3.8-7.5-8.1l0,0l0.3-7.6l0,0l15.5,0.6l0,0l-0.3,7.6
			C38.3-793.1,34.7-789.8,30.4-789.9L30.4-789.9z"/>
		<path id="패스_779" class="st1" d="M30.7-789c-0.1,0-0.2,0-0.3,0l0,0c-4.8-0.2-8.6-4.2-8.4-9.1l0.3-7.6c0-0.5,0.5-0.9,1-0.9
			l15.5,0.6c0.5,0,0.9,0.5,0.9,1l-0.3,7.6C39.3-792.7,35.4-789,30.7-789z M24.1-804.6l-0.2,6.6c-0.1,3.8,2.8,6.9,6.6,7.1h0.3
			c3.7,0,6.7-2.9,6.8-6.6l0.2-6.6L24.1-804.6z"/>
	</g>
	<g id="그룹_785" transform="translate(31.196 15.404)">
		<path id="사각형_451" class="st3" d="M23.2-814.2l2.7-0.1l0,0l0.3,12.8l0,0l-2.7,0.1c-3.5,0.1-6.5-2.7-6.6-6.3l0,0l0,0
			C16.9-811.2,19.7-814.1,23.2-814.2L23.2-814.2z"/>
		<path id="패스_780" class="st1" d="M23.4-800.5c-4-0.1-7.2-3.5-7-7.5c0.1-3.8,3.1-6.8,6.9-7l2.7-0.1c0.5,0,0.9,0.4,0.9,0.8
			l0.3,12.8c0,0.5-0.4,0.9-0.8,0.9l-2.7,0.1H23.4z M25.1-813.4h-1.8c-3.1,0.1-5.5,2.6-5.4,5.7c0.1,3.1,2.6,5.5,5.7,5.4l0,0h1.8
			L25.1-813.4z"/>
	</g>
	<g id="그룹_786" transform="translate(35.305 3.172)">
		<path id="사각형_452" class="st3" d="M35.3-773.8L35.3-773.8c-8.3,0.2-15.3-6.4-15.5-14.7l-0.5-17.4
			c-0.2-8.3,6.4-15.3,14.7-15.5l0,0c8.3-0.2,15.3,6.4,15.5,14.7l0.5,17.4C50.2-780.9,43.6-774,35.3-773.8z"/>
		<path id="패스_781" class="st1" d="M34.9-773c-8.6,0-15.7-6.9-15.9-15.5l-0.4-17.4c-0.2-8.8,6.7-16.1,15.5-16.3
			c0.1,0,0.3,0,0.4,0c8.6,0,15.7,6.9,15.9,15.5l0.4,17.4c0.2,8.8-6.7,16.1-15.5,16.3v-0.8v0.8C35.2-773,35-773,34.9-773z
			 M34.5-820.5h-0.4c-7.9,0.2-14.1,6.7-13.9,14.6l0.4,17.4c0.4,7.9,7,13.9,14.9,13.6c7.6-0.4,13.6-6.7,13.6-14.3l-0.4-17.4
			C48.5-814.4,42.2-820.5,34.5-820.5L34.5-820.5z"/>
	</g>
	<g id="그룹_787" transform="translate(46.71 20.903)">
		<path id="패스_782" class="st1" d="M25.8-803.7c-0.3,0-0.6-0.3-0.6-0.6s0.2-0.6,0.5-0.6l1-0.2c0.3-0.1,0.6-0.4,0.5-0.7l0,0
			l-0.8-5.5c-0.1-0.3,0.2-0.6,0.5-0.7c0.3-0.1,0.6,0.2,0.7,0.5l0.8,5.5c0.2,1-0.5,1.9-1.5,2.1L25.8-803.7L25.8-803.7z"/>
	</g>
	<g id="그룹_788" transform="translate(43.318 27.335)">
		<path id="패스_783" class="st3" d="M33.3-807.3c0,0-3.4,4.2-9.3,0.9"/>
		<path id="패스_784" class="st1" d="M28.4-804.4c-1.7,0-3.3-0.5-4.8-1.4c-0.4-0.2-0.6-0.7-0.4-1.1c0.2-0.4,0.7-0.6,1.1-0.4l0,0
			c5.2,2.9,8.1-0.5,8.2-0.7c0.3-0.4,0.8-0.4,1.2-0.1c0.4,0.3,0.4,0.8,0.1,1.2C32.5-805.2,30.5-804.4,28.4-804.4z"/>
	</g>
	<g id="그룹_789" transform="translate(48.965 17.685)">
		<path id="사각형_453" class="st3" d="M34.5-805.2l-2.9,0.3c-2.1,0.2-4.1-1.3-4.3-3.4l0,0c-0.2-2.1,1.3-4.1,3.4-4.3l2.9-0.3
			c2.1-0.2,4.1,1.3,4.3,3.4l0,0C38.2-807.3,36.7-805.4,34.5-805.2z"/>
		<path id="패스_785" class="st1" d="M31.2-804c-2.6,0-4.7-2.2-4.7-4.8c0-2.4,1.8-4.3,4.1-4.6l2.9-0.3c2.6-0.3,4.9,1.6,5.2,4.2
			c0.3,2.6-1.6,4.9-4.2,5.2l-2.9,0.3l0,0C31.6-804,31.4-804,31.2-804z M34.1-812.1c-0.1,0-0.2,0-0.3,0l-2.9,0.3
			c-1.7,0.2-2.8,1.7-2.6,3.4c0.2,1.6,1.7,2.8,3.3,2.6l0,0l2.9-0.3c1.7-0.2,2.9-1.7,2.7-3.4c-0.1-0.8-0.5-1.5-1.1-2
			C35.5-811.9,34.8-812.1,34.1-812.1L34.1-812.1z"/>
	</g>
	<g id="그룹_790" transform="translate(45.528 20.304)">
		<path id="패스_786" class="st1" d="M25.3-809.9c-0.5,0-0.8-0.4-0.8-0.8c0-0.4,0.3-0.8,0.7-0.8l5.2-0.6c0.5-0.1,0.9,0.3,0.9,0.7
			c0.1,0.5-0.3,0.9-0.7,0.9l0,0l-5.2,0.6C25.4-809.9,25.3-809.9,25.3-809.9z"/>
	</g>
	<g id="그룹_791" transform="translate(38.609 18.606)">
		<path id="패스_787" class="st1" d="M25.2-803.5c-2.6-0.1-4.7-2.2-4.6-4.8c0-2.3,1.8-4.3,4.1-4.6l2.9-0.3c2.6-0.4,5,1.3,5.4,3.9
			c0.4,2.6-1.3,5-3.9,5.4c-0.2,0-0.3,0-0.5,0.1l-2.9,0.3l0,0C25.5-803.5,25.4-803.5,25.2-803.5z M28.1-811.6c-0.1,0-0.2,0-0.3,0
			l-2.9,0.3c-1.7,0.2-2.9,1.7-2.7,3.4c0.2,1.7,1.7,2.9,3.4,2.7l0,0l2.9-0.3c1.7-0.2,2.9-1.7,2.7-3.4
			C30.9-810.4,29.6-811.6,28.1-811.6L28.1-811.6z"/>
	</g>
	<g id="그룹_792" transform="translate(51.761 19.868)">
		<circle id="타원_70" class="st1" cx="29.6" cy="-811" r="1.3"/>
	</g>
	<g id="그룹_793" transform="translate(42.432 20.65)">
		
			<ellipse id="타원_71" transform="matrix(0.9999 -1.020295e-02 1.020295e-02 0.9999 8.2702 0.2047)" class="st1" cx="24.2" cy="-810.4" rx="1.3" ry="1.3"/>
	</g>
	<g id="그룹_794" transform="translate(31.906 2.224)">
		<path id="사각형_454" class="st0" d="M17.5-798.7L17.5-798.7L17.5-798.7l-0.1-4.9c-0.2-9.8,7.5-18,17.3-18.3l4.9-0.1l0,0l0,0
			C40-809.4,30.1-799,17.5-798.7L17.5-798.7z"/>
		<path id="패스_788" class="st1" d="M17.5-797.8c-0.5,0-0.8-0.4-0.8-0.8l-0.1-4.9c-0.3-10.3,7.9-18.8,18.2-19.1l4.9-0.1
			c0.2,0,0.4,0.1,0.6,0.2c0.2,0.2,0.3,0.4,0.3,0.6C40.8-809,30.5-798.2,17.5-797.8L17.5-797.8z M38.8-821.1l-4,0.1
			c-9.4,0.3-16.8,8-16.5,17.4l0.1,4C29.7-800.3,38.6-809.7,38.8-821.1L38.8-821.1z"/>
	</g>
	<g id="그룹_795" transform="translate(42.161 2.255)">
		<path id="사각형_455" class="st0" d="M23.4-821.8l4.6-0.1c9.2-0.2,16.9,7.1,17.1,16.3l0,0l0.1,4.6l0,0l0,0
			C33.4-800.7,23.7-810,23.4-821.8L23.4-821.8L23.4-821.8z"/>
		<path id="패스_789" class="st1" d="M44.6-800.2c-12,0-21.8-9.6-22.1-21.6c0-0.5,0.4-0.9,0.8-0.9l0,0l4.6-0.1
			c9.7-0.3,17.8,7.4,18,17.1l0,0l0.1,4.6c0,0.5-0.4,0.9-0.8,0.9l0,0C45-800.2,44.8-800.2,44.6-800.2z M24.2-821
			c0.7,10.6,9.5,18.9,20.1,19.1l-0.1-3.7c-0.2-8.8-7.5-15.7-16.2-15.5L24.2-821z"/>
	</g>
	<g id="그룹_796" transform="translate(48.827 34.056)">
		<path id="패스_790" class="st4" d="M37.7-797.3l0.3-4.2l-6.6-1.9l-4.1,8.2l3,1.9c0.6,0.4,1.3,0.6,2.1,0.7
			c2.7,0.2,5.1-1.8,5.4-4.5C37.7-797.2,37.7-797.3,37.7-797.3z"/>
		<path id="패스_791" class="st1" d="M32.9-791.8c-0.2,0-0.4,0-0.6,0c-0.9-0.1-1.7-0.4-2.4-0.8l-3-1.9c-0.4-0.2-0.5-0.7-0.3-1.1
			l4.1-8.2c0.2-0.4,0.6-0.5,1-0.4l6.6,1.9c0.4,0.1,0.6,0.5,0.6,0.9l-0.3,4.2l0,0c-0.1,1.6-0.9,3.2-2.1,4.2
			C35.5-792.2,34.2-791.8,32.9-791.8z M28.3-795.5l2.4,1.5c0.5,0.3,1.1,0.5,1.7,0.6c1.1,0.1,2.1-0.2,2.9-0.9c0.9-0.8,1.5-1.8,1.5-3
			l0.2-3.5l-5.3-1.5L28.3-795.5z"/>
	</g>
	<g id="그룹_797" transform="translate(35.879 34.523)">
		<path id="패스_792" class="st4" d="M28-791.9l-8.3-8.4l7.8-2.9l11.7,8.1l-2.8,3.1c-2.1,2.4-5.7,2.6-8.1,0.5
			C28.3-791.6,28.1-791.7,28-791.9z"/>
		<path id="패스_793" class="st1" d="M32.2-789.1c-1.9,0-3.6-0.8-4.9-2.2l-8.3-8.4c-0.3-0.3-0.3-0.9,0-1.2
			c0.1-0.1,0.2-0.2,0.3-0.2l7.8-2.9c0.3-0.1,0.5-0.1,0.8,0.1l11.7,8.1c0.4,0.3,0.5,0.8,0.2,1.2c0,0,0,0.1-0.1,0.1l-2.8,3.1
			C35.9-790,34.1-789.1,32.2-789.1L32.2-789.1z M21.2-799.9l7.3,7.5l0,0c0.9,1,2.3,1.6,3.6,1.6l0,0c1.4,0,2.7-0.6,3.6-1.7l2.1-2.4
			l-10.6-7.3L21.2-799.9z"/>
	</g>
	<g id="그룹_806" transform="translate(59.987 51.687)">
		<path id="패스_798" class="st1" d="M33.8-781.8c-0.5,0-1-0.4-1-1v-10.3c0-0.5,0.4-1,1-1c0.5,0,1,0.4,1,1l0,0v10.3
			C34.8-782.2,34.4-781.8,33.8-781.8z"/>
	</g>
	<g id="그룹_807" transform="translate(40.123 25.077)">
		
			<ellipse id="타원_73" transform="matrix(0.9965 -8.403274e-02 8.403274e-02 0.9965 67.9846 -0.8409)" class="st5" cx="24" cy="-808" rx="2.5" ry="1.3"/>
	</g>
	<g id="그룹_808" transform="translate(51.903 24.708)">
		
			<ellipse id="타원_74" transform="matrix(0.9965 -8.403274e-02 8.403274e-02 0.9965 68.0485 -0.3216)" class="st5" cx="30.2" cy="-808.5" rx="2" ry="1"/>
	</g>
	<g id="그룹_816" transform="translate(28.199 17.325)">
		<path id="패스_805" class="st3" d="M35.1-802.1c-0.4-1-1.5-1.5-2.5-1.3l-1.7,0.3c-0.7,0.1-1.4-0.2-1.8-0.7l0,0l0,0
			c-0.3-0.5-0.2-1.2,0.3-1.5l4.8-3.8c0.9-0.6,1.3-1.7,0.9-2.6c-0.4-1.1-1.7-1.7-2.8-1.2c-0.1,0.1-0.3,0.1-0.4,0.2l-9.4,6.8L17-795.1
			c-1.8,0.8-2.6,4.9-0.9,7.5c3.5,5.6,9.3-6.9,12.3-8.9c0.1-0.1,0.2-0.1,0.3-0.2c1.3-1.1,2.9-1.9,4.6-2.2h0.2
			c1.2-0.2,1.9-1.4,1.7-2.5C35.2-801.8,35.2-802,35.1-802.1z"/>
		<path id="패스_806" class="st1" d="M18.2-785.5L18.2-785.5c-1.2-0.1-2.3-0.8-2.8-1.8c-1.1-1.8-1.4-4-0.7-6
			c0.3-1,0.9-1.9,1.8-2.5c0.4-0.7,1.5-2.9,2.5-4.9c2.9-5.8,2.9-5.8,3.1-6l9.4-6.8c1.4-0.9,3.2-0.6,4.2,0.8c0.1,0.2,0.2,0.4,0.3,0.6
			c0.5,1.3,0,2.8-1.2,3.6l-4.8,3.8h-0.1c-0.1,0.1-0.2,0.3-0.1,0.4l-0.7,0.5l0.7-0.5c0.2,0.3,0.5,0.4,0.9,0.4l1.7-0.3
			c1.4-0.3,2.8,0.4,3.4,1.8l0,0c0.6,1.5-0.1,3.3-1.6,3.9c-0.2,0.1-0.4,0.1-0.6,0.2h-0.2c-1.6,0.3-3,1-4.2,2.1
			c-0.1,0.1-0.2,0.2-0.3,0.2c-1.2,1.1-2.3,2.4-3.2,3.8C23.3-788.9,20.8-785.5,18.2-785.5z M23.2-805.4c-0.3,0.7-1.6,3.2-2.8,5.5
			c-2.7,5.3-2.7,5.3-2.9,5.5c-0.1,0-0.1,0.1-0.2,0.1c-0.6,0.4-1,0.9-1.1,1.6c-0.5,1.5-0.3,3.2,0.5,4.6c0.6,1,1.2,1,1.3,1
			c1.7,0.1,4.3-3.5,6.2-6c1-1.6,2.2-3,3.6-4.2c0.1,0,0.1-0.1,0.2-0.2c1.4-1.2,3.1-2,5-2.4h0.2c0.7-0.1,1.2-0.8,1-1.5
			c0-0.1,0-0.2-0.1-0.3c-0.3-0.6-0.9-0.9-1.5-0.8l-1.7,0.3c-1,0.2-2.1-0.2-2.6-1.1v-0.1c-0.6-0.9-0.3-2.1,0.5-2.7l4.8-3.8h0.1
			c0.5-0.3,0.8-1,0.6-1.6c-0.3-0.7-1-1-1.7-0.7c-0.1,0-0.2,0.1-0.2,0.1L23.2-805.4z"/>
	</g>
	<g id="그룹_817" transform="translate(19.595 27.031)">
		<path id="패스_807" class="st2" d="M28.8-782.5l4.5-20.3l-9-4.7l-9.8,15.6c-4.1,6.5-6.6,18.6-1,23.9c0.9,0.8,1.9,1.6,2.9,2.2
			l13.4,7.4"/>
		<path id="패스_808" class="st1" d="M29.8-757.6c-0.1,0-0.3,0-0.4-0.1L16-765c-1.1-0.6-2.2-1.4-3.1-2.3c-6-5.7-3.4-18.1,0.9-24.9
			l9.8-15.6c0.2-0.4,0.7-0.5,1.1-0.3l9,4.7c0.3,0.2,0.5,0.6,0.4,0.9l-4.5,20.3c-0.1,0.5-0.6,0.7-1,0.6c-0.5-0.1-0.7-0.6-0.6-1
			l4.4-19.7l-7.7-4.1l-9.3,15c-3.8,6.1-6.4,17.8-1.1,22.8c0.8,0.8,1.8,1.5,2.8,2.1l13.4,7.4c0.4,0.2,0.6,0.7,0.3,1.1
			C30.4-757.7,30.1-757.6,29.8-757.6L29.8-757.6z"/>
	</g>
	<g id="그룹_820" transform="translate(67.127 3.205)">
		<g id="그룹_818" transform="translate(0.153 0.142)">
			<circle id="타원_75" class="st4" cx="40.1" cy="-819.1" r="3"/>
		</g>
		<g id="그룹_819" transform="translate(0 0)">
			<path id="패스_809" class="st1" d="M40.3-815.8c-0.1,0-0.2-0.1-0.2-0.2c-0.3-1.5-1.4-2.6-2.8-2.8c-0.1,0-0.2-0.2-0.1-0.3
				c0-0.1,0.1-0.1,0.1-0.1c1.5-0.3,2.6-1.4,2.8-2.8c0.1-0.1,0.2-0.2,0.3-0.1c0.1,0,0.1,0.1,0.1,0.1c0.3,1.5,1.4,2.6,2.8,2.8
				c0.1,0,0.2,0.2,0.1,0.3c0,0.1-0.1,0.1-0.1,0.1c-1.5,0.3-2.6,1.4-2.8,2.8C40.5-815.8,40.4-815.8,40.3-815.8z M38-819
				c0,1.3,1.1,2.3,2.3,2.2c1.2,0,2.2-1,2.2-2.2c0-1.3-1-2.3-2.2-2.3C39-821.3,38-820.3,38-819C38-819.1,38-819,38-819z"/>
		</g>
	</g>
	<g id="그룹_823" transform="translate(58.291 14.174)">
		<g id="그룹_821" transform="translate(0.305 0.305)">
			<circle id="타원_76" class="st4" cx="35.2" cy="-812.5" r="3.2"/>
		</g>
		<g id="그룹_822" transform="translate(0 0)">
			<path id="패스_810" class="st1" d="M35.5-808.5c-0.2,0-0.4-0.1-0.5-0.3c-0.3-1.5-1.4-2.6-2.9-2.9c-0.3-0.1-0.4-0.3-0.3-0.6
				c0-0.2,0.2-0.3,0.3-0.3c1.5-0.3,2.6-1.4,2.9-2.9c0.1-0.3,0.3-0.4,0.6-0.3c0.2,0,0.3,0.2,0.3,0.3c0.3,1.5,1.4,2.6,2.9,2.9
				c0.3,0.1,0.4,0.3,0.3,0.6c0,0.2-0.2,0.3-0.3,0.3c-1.5,0.3-2.6,1.4-2.9,2.9C35.9-808.7,35.7-808.5,35.5-808.5z M33.7-812.2
				c0,1,0.8,1.9,1.9,1.8c1,0,1.8-0.8,1.8-1.8s-0.8-1.9-1.9-1.8C34.5-814,33.7-813.2,33.7-812.2z"/>
		</g>
	</g>
	<g id="그룹_826" transform="translate(63.133)">
		<g id="그룹_824" transform="translate(0.153 0.142)">
			<circle id="타원_77" class="st4" cx="36.4" cy="-822.4" r="1.6"/>
		</g>
		<g id="그룹_825" transform="translate(0)">
			<path id="패스_811" class="st1" d="M36.5-820.4c-0.1,0-0.2-0.1-0.2-0.2c-0.1-0.7-0.7-1.3-1.4-1.4c-0.1,0-0.2-0.2-0.1-0.3
				c0-0.1,0.1-0.1,0.1-0.1c0.7-0.1,1.3-0.7,1.4-1.4c0.1-0.1,0.2-0.2,0.3-0.1c0.1,0,0.1,0.1,0.1,0.1c0.1,0.7,0.7,1.3,1.4,1.4
				c0.1,0,0.2,0.2,0.1,0.3c0,0.1-0.1,0.1-0.1,0.1c-0.7,0.1-1.3,0.7-1.4,1.4C36.7-820.5,36.6-820.4,36.5-820.4z M35.6-822.3
				c0,0.5,0.4,0.9,0.9,0.9s0.9-0.4,0.9-0.9l0,0c0-0.5-0.4-0.9-0.9-0.9C36-823.2,35.6-822.8,35.6-822.3L35.6-822.3z"/>
		</g>
	</g>
	<g id="그룹_781" transform="translate(0 74.694)">
		<line id="선_56" class="st6" x1="27.3" y1="-794.3" x2="122.3" y2="-794.3"/>
		<path id="패스_775" class="st1" d="M122.3-793.4h-95c-0.5,0-0.8-0.4-0.8-0.8c0-0.5,0.4-0.8,0.8-0.8l0,0h95
			c0.5,0,0.8,0.4,0.8,0.8C123.2-793.8,122.8-793.4,122.3-793.4z"/>
		<rect x="27.3" y="-793.4" class="st4" width="94.4" height="22"/>
	</g>
	<g>
		<g id="그룹_809" transform="translate(53.023 79.38)">
			<path id="패스_799" class="st7" d="M37.4-784.7h60.1V-799H19.8c-1,0-1.8,0.8-1.8,1.8c0,0.7,0.3,1.2,0.9,1.6L37.4-784.7z"/>
			<path id="패스_800" class="st1" d="M97.5-784.1H37.4c-0.2,0-0.2,0-0.3-0.1L18.5-795c-1.2-0.7-1.6-2.3-0.9-3.4
				c0.5-0.7,1.3-1.2,2.2-1.2h77.6c0.4,0,0.7,0.3,0.7,0.7l0,0v14.3C98.2-784.4,97.9-784.1,97.5-784.1L97.5-784.1z M37.6-785.5h59.3
				v-12.9h-77c-0.7,0-1.1,0.5-1.1,1.1c0,0.4,0.2,0.8,0.6,1L37.6-785.5z"/>
		</g>
		<g id="그룹_810" transform="translate(68.117 57.133)">
			<path id="사각형_456" class="st8" d="M87.4-762.5H22.4l0,0v-37.8c0-2.9,2.3-5.1,5.1-5.1H81c3.6,0,6.5,2.9,6.5,6.5V-762.5
				L87.4-762.5z"/>
			<path id="패스_801" class="st1" d="M87.4-761.8H22.4c-0.4,0-0.7-0.3-0.7-0.7l0,0V-800c0-3.4,2.7-6,6-6H82c3.4,0,6,2.7,6,6v37.6
				C88.2-762.1,87.9-761.9,87.4-761.8z M23.1-763.2h63.7v-36.9c0-2.6-2.1-4.7-4.7-4.7H27.8c-2.6,0-4.7,2.1-4.7,4.7L23.1-763.2
				L23.1-763.2z"/>
		</g>
	</g>
</g>
<g id="그룹_840" transform="translate(207 1017.625)">
	<g id="그룹_829" transform="translate(24.98)">
		<path id="패스_812" class="st1" d="M250.6-876.1c-6,0-11.2-4.1-12.6-9.9l-10.6-43.8c-1.7-7,2.6-14,9.6-15.7l0,0l83-20.2
			c7-1.7,14,2.6,15.7,9.6l0,0l10.6,43.8c1.7,7-2.6,14-9.6,15.7l0,0l-83,20.2C252.6-876.2,251.6-876.1,250.6-876.1z M323-963.6
			c-0.9,0-1.7,0.1-2.5,0.3l-83,20.2c-5.7,1.4-9.2,7.1-7.8,12.8l0,0l10.6,43.8c1.4,5.7,7.1,9.2,12.8,7.8l83-20.2
			c5.7-1.4,9.2-7.1,7.8-12.8l-10.6-43.8C332.1-960.2,327.9-963.6,323-963.6L323-963.6z"/>
	</g>
	<g id="그룹_830" transform="translate(25.973 8.559)">
		<path id="패스_813" class="st9" d="M286.5-914c-1.5,0-3-0.3-4.4-0.8l-52.8-19.5c-0.5-0.2-0.7-0.7-0.5-1.1
			c0.2-0.5,0.7-0.7,1.1-0.5l0,0l52.8,19.5c4.1,1.5,8.8,0.4,11.8-2.9l38-41.6c0.3-0.3,0.9-0.3,1.2,0c0.3,0.3,0.3,0.8,0.1,1.2
			l-38,41.6C293.4-915.5,290-914,286.5-914z"/>
	</g>
	<g id="그룹_836" transform="translate(7.181 41.038)">
		<path id="패스_817" class="st1" d="M218.9-935.8c-0.5,0-0.9-0.4-0.9-0.9c0-0.4,0.3-0.8,0.7-0.9l32.5-7.9c0.5-0.1,1,0.2,1.1,0.7
			s-0.2,0.9-0.6,1l-32.5,7.9C219.1-935.8,219-935.8,218.9-935.8z"/>
	</g>
	<g id="그룹_837" transform="translate(14.731 47.964)">
		<path id="패스_818" class="st1" d="M222.7-934.4c-0.5,0-0.9-0.4-0.9-0.9c0-0.4,0.3-0.8,0.7-0.9l23.7-5.8c0.5-0.2,1,0.1,1.2,0.5
			c0.2,0.5-0.1,1-0.5,1.2c-0.1,0-0.2,0-0.2,0.1l-23.7,5.8C222.9-934.4,222.8-934.4,222.7-934.4z"/>
	</g>
	<g id="그룹_838" transform="translate(16.011 56.229)">
		<path id="패스_819" class="st1" d="M223.4-934.8c-0.5,0-0.9-0.4-0.9-0.9c0-0.4,0.3-0.8,0.7-0.9l5.2-1.3c0.5-0.1,0.9,0.3,1,0.8
			c0,0.4-0.2,0.8-0.6,0.9l-5.2,1.3C223.5-934.8,223.4-934.8,223.4-934.8z"/>
	</g>
	<g id="그룹_839" transform="translate(0 57.861)">
		<path id="패스_820" class="st1" d="M215.3-930.6c-0.5,0-0.9-0.4-0.9-0.9c0-0.4,0.3-0.8,0.7-0.9l19.1-4.6c0.5-0.2,1,0,1.2,0.5
			s0,1-0.5,1.2c-0.1,0-0.2,0-0.2,0.1l-19.1,4.6C215.5-930.6,215.4-930.6,215.3-930.6z"/>
	</g>
</g>
<g id="그룹_779" transform="translate(208.871 715.083)">
	<g id="그룹_772" transform="translate(5.644 3.651)">
		<g id="그룹_770" transform="translate(0.607 0.607)">
			<path id="사각형_445" class="st10" d="M-172.5-664.1h117c7.7,0,14,6.3,14,14v53.7c0,7.7-6.3,14-14,14h-117
				c-7.7,0-14-6.3-14-14v-53.7C-186.4-657.8-180.2-664.1-172.5-664.1z"/>
		</g>
		<g id="그룹_771">
			<path id="패스_734" class="st1" d="M-53.7-662.6c6.6,0,11.9,5.3,11.9,11.9v56.2c0,6.6-5.3,11.9-11.9,11.9h-119.4
				c-6.6,0-11.9-5.3-11.9-11.9v-56.2c0-6.6,5.3-11.9,11.9-11.9H-53.7 M-53.7-664.3h-119.4c-7.5,0-13.6,6.1-13.6,13.6v56.2
				c0,7.5,6.1,13.6,13.6,13.6h119.4c7.5,0,13.6-6.1,13.6-13.6v-56.2C-40.1-658.2-46.2-664.3-53.7-664.3L-53.7-664.3z"/>
		</g>
	</g>
	<g id="그룹_773" transform="translate(6.858 6.672)">
		<path id="사각형_446" class="st4" d="M-173.6-663.1h115.3c6.9,0,12.6,5.6,12.6,12.6v52.3c0,6.9-5.6,12.6-12.6,12.6h-115.3
			c-6.9,0-12.6-5.6-12.6-12.6v-52.3C-186.2-657.5-180.6-663.1-173.6-663.1z"/>
	</g>
	<g id="그룹_776" transform="translate(12.676 19.692)">
		<circle id="타원_68-2" class="st11" cx="-164.6" cy="-638.7" r="19.3"/>
		<g>
			<g>
				<g>
					<defs>
						<circle id="SVGID_1_" cx="-164.6" cy="-638.7" r="19.3"/>
					</defs>
					<clipPath id="SVGID_2_">
						<use xlink:href="#SVGID_1_"  style="overflow:visible;"/>
					</clipPath>
					<g id="그룹_775" class="st12">
						<g id="그룹_774" transform="translate(3.066 4.066)">
							<path id="패스_735" class="st10" d="M-163.3-632.7c-0.5-0.1-1.1-0.1-1.6-0.1c0-0.4,0.1-0.8,0.1-1.2c2.7-1,3.8-3.7,4.2-6.6
								c4,0.5,5.1-3.2,3.4-5.1c0.2-3.6,0.1-6.9-4.1-6.6c-1.2-2.4-3.7-3.9-6.4-3.9c-2.7-0.2-5.2,1.4-6.2,3.9
								c-4.9-0.5-4.2,2.7-4.2,6.3c-2.2,1.8-1.1,6.1,3.2,5.4v-0.1c0,2.8,1.6,5.3,4.1,6.5c0,0.5,0,0.9,0,1.3
								c-6.1,0.4-11.6,2.6-11.8,10.4v14.2h29.5C-153.5-616.8-150.8-631.5-163.3-632.7z"/>
						</g>
					</g>
				</g>
			</g>
		</g>
	</g>
	<g id="그룹_777" transform="translate(46.732 19.472)">
		<path id="패스_736" d="M-167.3-655.3c-0.3-0.1-0.6-0.3-0.8-0.5s-0.4-0.5-0.5-0.8c-0.1,0.3-0.3,0.6-0.5,0.8s-0.5,0.4-0.9,0.5
			l-0.3-0.4c0.2-0.1,0.4-0.2,0.6-0.3c0.2-0.1,0.3-0.3,0.4-0.4c0.1-0.2,0.2-0.3,0.3-0.5s0.1-0.4,0.1-0.6v-0.4h0.5v0.4
			c0,0.2,0,0.4,0.1,0.6c0.1,0.2,0.2,0.3,0.3,0.5s0.3,0.3,0.4,0.4c0.2,0.1,0.4,0.2,0.6,0.3L-167.3-655.3z M-165.6-652.9v0.4h-3.8
			v-1.4h3.1v-0.6h-3.1v-0.4h3.6v1.3h-3.1v0.6L-165.6-652.9z M-165.8-655.1h-0.5v-2.9h0.5V-655.1z"/>
		<path id="패스_737" d="M-161.9-655.1h-2.5v-2.5h2.5v0.5h1.3v-0.9h0.5v3.3h-0.5v-0.9h-1.3V-655.1z M-162.4-657.1h-1.5v1.6h1.5
			V-657.1z M-162-654.5c0.5,0,0.9,0.1,1.3,0.3c0.3,0.1,0.5,0.4,0.5,0.8c0,0.2,0,0.3-0.1,0.4c-0.1,0.1-0.2,0.2-0.4,0.3
			s-0.4,0.2-0.6,0.2c-0.3,0-0.5,0.1-0.8,0.1s-0.5,0-0.8-0.1c-0.2,0-0.4-0.1-0.6-0.2c-0.1-0.1-0.3-0.2-0.4-0.3
			c-0.2-0.3-0.2-0.6,0-0.9c0.1-0.1,0.2-0.2,0.4-0.3s0.4-0.2,0.6-0.2C-162.5-654.5-162.2-654.5-162-654.5L-162-654.5z M-162-652.8
			c0.3,0,0.7,0,1-0.2c0.3-0.1,0.4-0.4,0.3-0.6c0-0.2-0.2-0.3-0.3-0.3c-0.3-0.1-0.7-0.2-1-0.2s-0.7,0-1,0.2c-0.3,0.1-0.4,0.4-0.3,0.6
			c0.1,0.2,0.2,0.3,0.3,0.3C-162.6-652.9-162.3-652.8-162-652.8L-162-652.8z M-161.9-656.7v0.7h1.3v-0.7H-161.9z"/>
		<path id="패스_738" d="M-157.5-656.5h0.6v0.6h-0.6V-656.5z M-157.5-653.8h0.6v0.6h-0.6V-653.8z"/>
		<path id="패스_739" d="M-149.8-654.9v0.4h-5v-0.4h2.2v-0.4c-0.4,0-0.8-0.1-1.1-0.2c-0.2-0.1-0.4-0.3-0.4-0.6s0.2-0.5,0.5-0.6
			c0.9-0.3,1.8-0.3,2.7,0c0.3,0.1,0.4,0.3,0.5,0.6c0,0.2-0.2,0.5-0.4,0.6c-0.4,0.2-0.7,0.2-1.1,0.2v0.4H-149.8z M-150.1-657.1h-4.4
			v-0.4h2v-0.5h0.5v0.5h2L-150.1-657.1z M-152.3-654.1c0.5,0,0.9,0.1,1.4,0.2c0.3,0.1,0.5,0.5,0.4,0.8c-0.1,0.2-0.2,0.4-0.4,0.4
			c-0.4,0.2-0.9,0.2-1.4,0.2s-1,0-1.4-0.2c-0.3-0.1-0.5-0.5-0.4-0.8c0.1-0.2,0.2-0.4,0.4-0.4C-153.3-654.1-152.8-654.2-152.3-654.1
			L-152.3-654.1z M-152.3-652.8c0.3,0,0.7,0,1-0.1c0.2-0.1,0.3-0.2,0.3-0.3s-0.1-0.3-0.3-0.4c-0.3-0.1-0.7-0.1-1-0.1s-0.7,0-1,0.1
			c-0.2,0.1-0.4,0.2-0.4,0.4s0.1,0.3,0.4,0.3C-153-652.9-152.6-652.8-152.3-652.8L-152.3-652.8z M-153.6-656.1
			c0,0.1,0.1,0.2,0.3,0.3c0.3,0.1,0.6,0.1,0.9,0.1c0.3,0,0.6,0,0.9-0.1c0.2-0.1,0.3-0.2,0.3-0.3s-0.1-0.2-0.3-0.3
			c-0.3-0.1-0.6-0.1-0.9-0.1c-0.3,0-0.6,0-0.9,0.1C-153.4-656.3-153.6-656.2-153.6-656.1L-153.6-656.1z"/>
		<path id="패스_740" d="M-144.9-657.7c0,0.3-0.1,0.6-0.2,0.9c-0.1,0.3-0.3,0.5-0.5,0.8c-0.2,0.2-0.5,0.4-0.8,0.6
			c-0.3,0.2-0.7,0.3-1.1,0.4l-0.2-0.4c0.6-0.1,1.1-0.3,1.6-0.7c0.4-0.3,0.6-0.7,0.6-1.1h-2v-0.4L-144.9-657.7z M-143-652.9v0.4h-3.8
			v-1.4h3.1v-0.6h-3.1v-0.4h3.6v1.3h-3.1v0.6h3.3V-652.9z M-143.2-655.2h-0.5v-2.8h0.5V-655.2z"/>
		<path id="패스_741" d="M-135.7-655.2v0.4h-5v-0.4h2.2v-0.6h-1.6v-1.8h3.7v0.4h-3.2v1h3.3v0.4h-1.7v0.6L-135.7-655.2
			L-135.7-655.2z M-138.2-654.4c0.5,0,0.9,0.1,1.4,0.3c0.4,0.2,0.6,0.6,0.4,1c-0.1,0.2-0.2,0.4-0.4,0.4c-0.4,0.2-0.9,0.3-1.4,0.3
			s-1-0.1-1.4-0.3s-0.6-0.6-0.4-1c0.1-0.2,0.2-0.4,0.4-0.4C-139.2-654.4-138.7-654.5-138.2-654.4z M-138.2-652.8c0.3,0,0.7,0,1-0.2
			c0.2-0.1,0.4-0.3,0.3-0.6c0-0.2-0.2-0.3-0.3-0.3c-0.3-0.1-0.7-0.2-1-0.2s-0.7,0-1,0.2c-0.2,0.1-0.4,0.3-0.3,0.6
			c0,0.2,0.2,0.3,0.3,0.3C-138.9-652.9-138.6-652.8-138.2-652.8L-138.2-652.8z"/>
		<path id="패스_742" d="M-167.4-644.2c-0.6-0.2-1.1-0.7-1.3-1.2c-0.2,0.6-0.7,1.2-1.4,1.4l-0.3-0.4c0.2-0.1,0.4-0.2,0.6-0.3
			c0.2-0.1,0.3-0.3,0.4-0.4c0.2-0.3,0.4-0.7,0.4-1.1v-0.6h0.5v0.6c0,0.2,0,0.4,0.1,0.5c0.1,0.2,0.2,0.3,0.3,0.5s0.3,0.3,0.4,0.4
			c0.2,0.1,0.3,0.2,0.5,0.3L-167.4-644.2z M-167.8-643.7c0.3,0,0.5,0,0.8,0.1c0.2,0,0.4,0.1,0.6,0.2c0.1,0.1,0.3,0.2,0.4,0.3
			c0.2,0.3,0.2,0.6,0,0.9c-0.1,0.1-0.2,0.2-0.4,0.3s-0.4,0.2-0.6,0.2c-0.2,0-0.5,0.1-0.8,0.1c-0.5,0-0.9-0.1-1.3-0.3
			c-0.3-0.1-0.5-0.4-0.5-0.7c0-0.2,0-0.3,0.1-0.4c0.1-0.1,0.2-0.2,0.4-0.3s0.4-0.2,0.6-0.2C-168.3-643.7-168.1-643.7-167.8-643.7
			L-167.8-643.7z M-167.8-642.1c0.3,0,0.7,0,1-0.2c0.2-0.1,0.3-0.2,0.3-0.5c0-0.2-0.1-0.4-0.3-0.5c-0.6-0.2-1.3-0.2-1.9,0
			c-0.2,0.1-0.3,0.2-0.4,0.5c0,0.2,0.1,0.4,0.4,0.5C-168.5-642.1-168.1-642.1-167.8-642.1L-167.8-642.1z M-165.2-645.8v0.4h-0.8v1.5
			h-0.5v-3.3h0.5v1.4L-165.2-645.8z"/>
		<path id="패스_743" d="M-159.7-642.7v0.4h-5v-0.4h2.2v-0.8c-0.4,0-0.8-0.1-1.2-0.3c-0.3-0.2-0.4-0.4-0.4-0.7
			c0-0.2,0-0.3,0.1-0.4c0.1-0.1,0.2-0.2,0.4-0.3s0.4-0.2,0.6-0.2c0.2,0,0.5-0.1,0.8-0.1c0.2,0,0.5,0,0.7,0.1c0.2,0,0.4,0.1,0.6,0.2
			c0.1,0.1,0.3,0.2,0.4,0.3c0.1,0.1,0.1,0.3,0.1,0.4c0,0.3-0.2,0.6-0.4,0.7c-0.3,0.2-0.7,0.3-1.1,0.3v0.8H-159.7z M-160-646h-4.5
			v-0.4h2v-0.7h0.5v0.7h2V-646z M-163.5-644.6c0,0.2,0.1,0.4,0.3,0.5c0.3,0.1,0.6,0.2,1,0.2c0.3,0,0.6,0,0.9-0.2
			c0.2-0.1,0.3-0.3,0.3-0.5s-0.1-0.4-0.3-0.5c-0.3-0.1-0.6-0.2-0.9-0.2c-0.3,0-0.7,0-1,0.2C-163.4-645-163.5-644.8-163.5-644.6
			L-163.5-644.6z"/>
		<path id="패스_744" d="M-157.5-645.7h0.6v0.6h-0.6V-645.7z M-157.5-643.1h0.6v0.6h-0.6V-643.1z"/>
		<path id="패스_745" d="M-149.8-642.8v0.4h-5v-0.4h2.2v-1.2h0.5v1.2H-149.8z M-152.4-644.4c-0.3,0.1-0.6,0.1-0.9,0.1
			c-0.3,0-0.5,0-0.8,0h-0.3v-2.4h1.9v0.4h-1.3v1.6c0.2,0,0.5,0,0.7,0s0.5-0.1,0.7-0.1L-152.4-644.4z M-150.2-644.2h-2v-2.5h1.9v0.4
			h-1.4v1.6h1.5V-644.2z"/>
		<path id="패스_746" d="M-144.9-646.6c0,0.4,0,0.8-0.1,1.1c-0.1,0.4-0.2,0.7-0.4,1.1c-0.2,0.3-0.5,0.7-0.8,0.9
			c-0.3,0.3-0.7,0.6-1.1,0.8l-0.3-0.4c0.6-0.3,1.2-0.7,1.6-1.3c0.4-0.5,0.6-1.1,0.6-1.8h-2v-0.4L-144.9-646.6z M-142.6-644.5h-0.9
			v2.9h-0.5v-5.5h0.5v2.2h0.9V-644.5z"/>
		<path id="패스_747" d="M-165.3-632.9h-2.3v2h-0.5v-2h-2.2v-0.4h5V-632.9z M-170-634.1c0.2,0,0.5-0.1,0.7-0.2
			c0.2-0.1,0.4-0.2,0.6-0.3c0.2-0.1,0.3-0.3,0.4-0.4c0.1-0.2,0.2-0.3,0.2-0.5l0,0h-1.7v-0.4h4v0.4h-1.7l0,0c0,0.2,0.1,0.4,0.2,0.5
			c0.1,0.2,0.3,0.3,0.4,0.4c0.2,0.1,0.4,0.3,0.6,0.3c0.2,0.1,0.5,0.2,0.7,0.2l-0.2,0.4c-0.2,0-0.4-0.1-0.6-0.2
			c-0.2-0.1-0.4-0.2-0.6-0.3c-0.2-0.1-0.3-0.2-0.5-0.4c-0.1-0.1-0.2-0.3-0.3-0.5c-0.1,0.2-0.2,0.3-0.3,0.5c-0.1,0.1-0.3,0.3-0.5,0.4
			c-0.2,0.1-0.4,0.2-0.6,0.3c-0.2,0.1-0.4,0.1-0.6,0.2L-170-634.1z"/>
		<path id="패스_748" d="M-161.8-633.4h-2.6v-2.6h2.6V-633.4z M-162.3-635.5h-1.6v1.8h1.6V-635.5z M-160-631.5v0.4h-3.7v-1.7h0.5
			v1.3H-160z M-160.2-632.4h-0.5v-4h0.5V-632.4z"/>
		<path id="패스_749" d="M-156.2-633.3h-2.5v-2.8h0.5v1h1.5v-1h0.5v1.2h1.3v-1.6h0.5v4.1h-0.5v-2.1h-1.3V-633.3z M-156.8-634.7
			h-1.5v1h1.5V-634.7z M-154.3-631.4v0.4h-3.7v-1.7h0.5v1.3H-154.3z"/>
		<path id="패스_750" d="M-148.3-631.9v0.4h-5v-0.4h2.2v-0.8c-0.4,0-0.8-0.1-1.2-0.3c-0.3-0.2-0.4-0.4-0.4-0.7
			c0-0.2,0-0.3,0.1-0.4c0.1-0.1,0.2-0.2,0.4-0.3s0.4-0.2,0.6-0.2c0.2,0,0.5-0.1,0.8-0.1c0.2,0,0.5,0,0.7,0.1c0.2,0,0.4,0.1,0.6,0.2
			c0.1,0.1,0.3,0.2,0.4,0.3c0.1,0.1,0.1,0.3,0.1,0.4c0,0.3-0.2,0.6-0.4,0.7c-0.3,0.2-0.7,0.3-1.1,0.3v0.8H-148.3z M-148.6-635.2
			h-4.5v-0.4h2v-0.7h0.5v0.7h2V-635.2z M-152.2-633.8c0,0.2,0.1,0.4,0.3,0.5c0.3,0.1,0.6,0.2,1,0.2c0.3,0,0.6,0,0.9-0.2
			c0.3-0.1,0.4-0.4,0.3-0.7c-0.1-0.2-0.2-0.3-0.3-0.3c-0.3-0.1-0.6-0.2-0.9-0.2c-0.3,0-0.7,0-1,0.2
			C-152-634.2-152.2-634-152.2-633.8L-152.2-633.8z"/>
		<path id="패스_751" d="M-146.2-634.9h0.6v0.6h-0.6V-634.9z M-146.2-632.3h0.6v0.6h-0.6V-632.3z"/>
		<path id="패스_752" d="M-140.6-631.8v0.5h-2.4v-0.5h1v-3.3c0,0,0,0,0-0.1l-0.8,0.7l-0.3-0.4l1.2-1h0.4v4.1H-140.6z"/>
		<path id="패스_753" d="M-136.8-631.9v0.5h-3v-0.4l1.6-1.5c0.1-0.1,0.2-0.2,0.3-0.4c0.1-0.1,0.2-0.2,0.3-0.3s0.1-0.2,0.2-0.3
			c0-0.1,0.1-0.2,0.1-0.4s-0.1-0.4-0.2-0.6c-0.2-0.1-0.4-0.2-0.6-0.2c-0.1,0-0.2,0-0.4,0.1c-0.1,0-0.2,0.1-0.3,0.2
			c-0.1,0.1-0.1,0.2-0.2,0.3c0,0.1-0.1,0.2-0.1,0.4l-0.6-0.1c0-0.2,0.1-0.4,0.2-0.6c0.1-0.2,0.2-0.3,0.3-0.4
			c0.1-0.1,0.3-0.2,0.4-0.2c0.2-0.1,0.4-0.1,0.5-0.1c0.2,0,0.4,0,0.5,0.1c0.2,0.1,0.3,0.1,0.4,0.2c0.1,0.1,0.2,0.2,0.3,0.4
			s0.1,0.4,0.1,0.5c0,0.2,0,0.3-0.1,0.5c-0.1,0.1-0.1,0.3-0.2,0.4c-0.1,0.1-0.2,0.3-0.3,0.4c-0.1,0.1-0.2,0.3-0.4,0.4l-1.3,1.3
			c0.1,0,0.2,0,0.3-0.1c0.1,0,0.2,0,0.2,0L-136.8-631.9z"/>
		<path id="패스_754" d="M-136-634.7c0-0.2,0.1-0.4,0.2-0.5c0.2-0.3,0.4-0.5,0.8-0.7c0.2-0.1,0.4-0.1,0.5-0.1c0.2,0,0.4,0,0.5,0.1
			c0.2,0.1,0.3,0.1,0.4,0.2c0.1,0.1,0.2,0.2,0.3,0.4c0.1,0.1,0.1,0.3,0.1,0.5s-0.1,0.5-0.2,0.7c-0.2,0.2-0.4,0.3-0.6,0.4
			c0.5,0.1,0.9,0.5,0.9,1.1c0,0.4-0.2,0.7-0.4,1c-0.1,0.1-0.3,0.2-0.5,0.3c-0.4,0.1-0.8,0.1-1.2,0c-0.3-0.1-0.6-0.3-0.7-0.6
			c-0.1-0.1-0.1-0.3-0.2-0.5l0.5-0.2c0,0.1,0.1,0.2,0.1,0.3c0.1,0.2,0.2,0.3,0.4,0.5c0.2,0.1,0.4,0.2,0.6,0.2c0.1,0,0.3,0,0.4-0.1
			c0.1,0,0.2-0.1,0.3-0.2c0.1-0.1,0.1-0.2,0.2-0.3c0-0.1,0.1-0.2,0.1-0.3s0-0.2,0-0.3s-0.1-0.2-0.2-0.3c-0.1-0.1-0.2-0.1-0.4-0.2
			c-0.2,0-0.4-0.1-0.6-0.1v-0.4c0.2,0,0.3,0,0.5-0.1c0.1,0,0.2-0.1,0.3-0.2c0.1-0.1,0.1-0.2,0.2-0.3c0-0.1,0.1-0.2,0.1-0.3
			c0-0.2-0.1-0.4-0.2-0.6c-0.2-0.1-0.4-0.2-0.6-0.2c-0.1,0-0.2,0-0.4,0.1c-0.1,0-0.2,0.1-0.3,0.2c-0.2,0.2-0.3,0.4-0.3,0.6
			L-136-634.7z"/>
		<path id="패스_755" d="M-129.2-633v0.4h-0.7v1.2h-0.5v-1.2h-2.3v-0.4l2.2-2.9h0.5v2.9H-129.2z M-130.4-633v-1.9
			c0-0.1,0-0.1,0-0.2c0-0.1,0-0.1,0-0.2l-1.7,2.3L-130.4-633L-130.4-633z"/>
		<path id="패스_756" d="M-127.9-634.2c0.2-0.1,0.4-0.1,0.6-0.1s0.4,0,0.6,0.1s0.3,0.2,0.5,0.3c0.1,0.1,0.2,0.3,0.3,0.4
			c0.1,0.2,0.1,0.4,0.1,0.5c0,0.2,0,0.4-0.1,0.7c-0.1,0.2-0.2,0.4-0.3,0.5c-0.2,0.1-0.3,0.2-0.5,0.3s-0.4,0.1-0.6,0.1
			c-0.3,0-0.5,0-0.7-0.1s-0.4-0.2-0.5-0.3l0.3-0.4c0.1,0.1,0.3,0.2,0.5,0.3s0.4,0.1,0.5,0.1s0.3,0,0.4-0.1c0.3-0.1,0.5-0.3,0.6-0.5
			c0.1-0.1,0.1-0.3,0.1-0.4c0-0.3-0.1-0.5-0.3-0.7c-0.2-0.2-0.5-0.3-0.8-0.2c-0.1,0-0.2,0-0.4,0c-0.1,0-0.3,0.1-0.4,0.1l-0.4-0.1
			l0.4-2.1h2.2v0.5h-1.8L-127.9-634.2z"/>
		<path id="패스_757" d="M-124-634.2l-0.1,0.2c0,0.1-0.1,0.1-0.1,0.1c0.1-0.1,0.2-0.1,0.4-0.2c0.1,0,0.3-0.1,0.4-0.1
			c0.2,0,0.4,0,0.5,0.1c0.2,0.1,0.3,0.1,0.4,0.3c0.1,0.1,0.2,0.3,0.3,0.4c0.1,0.2,0.1,0.4,0.1,0.6c0,0.2,0,0.4-0.1,0.6
			c-0.2,0.4-0.4,0.7-0.8,0.8c-0.2,0.1-0.4,0.1-0.6,0.1s-0.4,0-0.6-0.1s-0.3-0.2-0.5-0.3c-0.1-0.1-0.2-0.3-0.3-0.5
			c-0.2-0.4-0.1-0.9,0-1.3c0.1-0.3,0.3-0.5,0.4-0.7l1.3-1.7h0.7L-124-634.2z M-123.6-631.7c0.1,0,0.3,0,0.4-0.1
			c0.1,0,0.2-0.1,0.3-0.2c0.1-0.1,0.2-0.2,0.2-0.3c0.1-0.1,0.1-0.3,0.1-0.4c0-0.1,0-0.3-0.1-0.4c0-0.1-0.1-0.2-0.2-0.3
			s-0.2-0.1-0.3-0.2c-0.1,0-0.3-0.1-0.4-0.1s-0.3,0-0.4,0.1c-0.1,0-0.2,0.1-0.3,0.2c-0.2,0.2-0.3,0.4-0.3,0.7s0.1,0.5,0.2,0.7
			C-124.1-631.8-123.9-631.7-123.6-631.7L-123.6-631.7z"/>
		<path id="패스_758" d="M-120.1-633.8h2v0.4h-2V-633.8z"/>
		<path id="패스_759" d="M-113-635.9v0.4l-2,4.2h-0.6l1.8-3.7l0.2-0.3h-2.4v-0.5h3V-635.9z"/>
		<path id="패스_760" d="M-110.2-633.7c0.3,0.1,0.5,0.2,0.7,0.4s0.2,0.5,0.2,0.7s0,0.4-0.1,0.5c-0.1,0.2-0.2,0.3-0.3,0.4
			c-0.1,0.1-0.3,0.2-0.5,0.3s-0.4,0.1-0.6,0.1s-0.4,0-0.6-0.1s-0.3-0.1-0.5-0.3c-0.1-0.1-0.2-0.3-0.3-0.4c-0.1-0.2-0.1-0.4-0.1-0.5
			c0-0.3,0.1-0.5,0.2-0.7c0.2-0.2,0.4-0.3,0.7-0.4c-0.2-0.1-0.4-0.2-0.5-0.4s-0.2-0.4-0.2-0.7c0-0.2,0-0.3,0.1-0.5
			c0.1-0.1,0.2-0.3,0.3-0.4c0.1-0.1,0.3-0.2,0.4-0.3c0.2-0.1,0.4-0.1,0.6-0.1s0.4,0,0.6,0.1s0.3,0.1,0.4,0.3
			c0.1,0.1,0.2,0.2,0.3,0.4c0.1,0.1,0.1,0.3,0.1,0.5C-109.4-634.3-109.7-633.8-110.2-633.7z M-110.9-631.7c0.3,0,0.5-0.1,0.7-0.2
			c0.2-0.2,0.3-0.4,0.2-0.6c0-0.1,0-0.3-0.1-0.4c0-0.1-0.1-0.2-0.2-0.3s-0.2-0.1-0.3-0.2c-0.1,0-0.2-0.1-0.4-0.1
			c-0.1,0-0.2,0-0.4,0.1c-0.1,0-0.2,0.1-0.3,0.2c-0.1,0.1-0.2,0.2-0.2,0.3c-0.1,0.1-0.1,0.3-0.1,0.4c0,0.2,0.1,0.5,0.3,0.6
			C-111.4-631.8-111.1-631.7-110.9-631.7z M-110.9-635.5c-0.2,0-0.5,0.1-0.6,0.2c-0.1,0.2-0.2,0.4-0.2,0.6c0,0.1,0,0.2,0,0.3
			s0.1,0.2,0.1,0.3c0.1,0.1,0.2,0.1,0.3,0.2c0.1,0.1,0.3,0.1,0.4,0.1s0.3,0,0.4-0.1c0.1,0,0.2-0.1,0.3-0.2c0.1-0.1,0.1-0.2,0.1-0.3
			s0-0.2,0-0.3c0-0.2-0.1-0.4-0.2-0.6C-110.4-635.5-110.6-635.5-110.9-635.5L-110.9-635.5z"/>
		<path id="패스_761" d="M-106.8-633.1c0.1-0.1,0.1-0.2,0.2-0.2l0.1-0.1c-0.2,0.2-0.6,0.3-0.9,0.3c-0.2,0-0.3,0-0.5-0.1
			s-0.3-0.1-0.4-0.3c-0.1-0.1-0.2-0.3-0.3-0.4c-0.1-0.2-0.1-0.4-0.1-0.6c0-0.4,0.2-0.8,0.4-1c0.1-0.1,0.3-0.2,0.5-0.3
			s0.4-0.1,0.6-0.1s0.4,0,0.6,0.1s0.3,0.2,0.5,0.3c0.1,0.1,0.2,0.3,0.3,0.5c0.1,0.2,0.1,0.4,0.1,0.6c0,0.3,0,0.5-0.1,0.7
			s-0.2,0.5-0.4,0.7l-1.2,1.7h-0.7L-106.8-633.1z M-108.1-634.6c0,0.5,0.3,0.9,0.7,0.9c0.1,0,0.1,0,0.2,0s0.3,0,0.4-0.1
			c0.1,0,0.2-0.1,0.3-0.2c0.1-0.1,0.1-0.2,0.2-0.3c0-0.1,0.1-0.2,0.1-0.3s0-0.3-0.1-0.4c-0.1-0.2-0.3-0.4-0.5-0.5
			c-0.1,0-0.2-0.1-0.4-0.1c-0.3,0-0.5,0.1-0.7,0.3C-108-635.1-108.1-634.8-108.1-634.6L-108.1-634.6z"/>
		<path id="패스_762" d="M-102.1-631.8v0.5h-2.4v-0.5h1v-3.3c0,0,0,0,0-0.1l-0.8,0.7l-0.3-0.4l1.2-1h0.4v4.1H-102.1z"/>
		<path id="패스_763" d="M-98.2-633.6c0,0.4,0,0.7-0.1,1s-0.2,0.5-0.4,0.7c-0.1,0.2-0.3,0.3-0.5,0.4c-0.4,0.2-0.9,0.2-1.3,0
			c-0.2-0.1-0.4-0.2-0.5-0.4c-0.2-0.2-0.3-0.5-0.4-0.7c-0.2-0.7-0.2-1.4,0-2.1c0.1-0.3,0.2-0.5,0.4-0.7c0.1-0.2,0.3-0.3,0.5-0.4
			c0.4-0.2,0.9-0.2,1.3,0c0.2,0.1,0.4,0.2,0.5,0.4c0.2,0.2,0.3,0.5,0.4,0.7C-98.2-634.3-98.2-634-98.2-633.6z M-98.7-633.6
			c0-0.3,0-0.6-0.1-0.9c0-0.2-0.1-0.4-0.2-0.6c-0.1-0.1-0.2-0.2-0.3-0.3c-0.3-0.1-0.6-0.1-0.8,0c-0.1,0.1-0.3,0.2-0.3,0.3
			c-0.1,0.2-0.2,0.4-0.2,0.6c-0.1,0.6-0.1,1.2,0,1.8c0,0.2,0.1,0.4,0.2,0.6c0.1,0.1,0.2,0.2,0.3,0.3c0.3,0.1,0.6,0.1,0.8,0
			c0.1-0.1,0.3-0.2,0.3-0.3c0.1-0.2,0.2-0.4,0.2-0.6C-98.8-633-98.7-633.3-98.7-633.6L-98.7-633.6z"/>
		<path id="패스_764" d="M-94.8-631.8v0.5h-2.4v-0.5h1v-3.3c0,0,0,0,0-0.1l-0.8,0.7l-0.3-0.4l1.2-1h0.4v4.1H-94.8z"/>
		<path id="패스_765" d="M-91-631.9v0.5h-3v-0.4l1.6-1.5c0.1-0.1,0.2-0.2,0.3-0.4c0.1-0.1,0.2-0.2,0.3-0.3
			c0.1-0.1,0.1-0.2,0.2-0.3c0-0.1,0.1-0.2,0.1-0.4s-0.1-0.4-0.2-0.6c-0.2-0.1-0.4-0.2-0.6-0.2c-0.1,0-0.2,0-0.4,0.1
			c-0.1,0-0.2,0.1-0.3,0.2c-0.1,0.1-0.1,0.2-0.2,0.3c0,0.1-0.1,0.2-0.1,0.4l-0.6-0.1c0-0.2,0.1-0.4,0.2-0.6c0.1-0.2,0.2-0.3,0.3-0.4
			c0.1-0.1,0.3-0.2,0.4-0.2c0.2-0.1,0.4-0.1,0.5-0.1c0.2,0,0.4,0,0.5,0.1c0.2,0.1,0.3,0.1,0.4,0.2c0.1,0.1,0.2,0.2,0.3,0.4
			c0.1,0.2,0.1,0.4,0.1,0.5c0,0.2,0,0.3-0.1,0.5c-0.1,0.1-0.1,0.3-0.2,0.4c-0.1,0.1-0.2,0.3-0.3,0.4c-0.1,0.1-0.2,0.3-0.4,0.4
			l-1.3,1.3c0.1,0,0.2,0,0.3-0.1c0.1,0,0.2,0,0.2,0L-91-631.9z"/>
		<path id="패스_766" d="M-167.4-622.4c-0.3-0.1-0.6-0.3-0.8-0.5s-0.4-0.5-0.5-0.8c-0.1,0.3-0.3,0.6-0.5,0.8s-0.5,0.4-0.8,0.5
			l-0.3-0.4c0.4-0.1,0.7-0.4,1-0.7c0.1-0.2,0.2-0.3,0.3-0.5s0.1-0.4,0.1-0.6v-0.3h-1.2v-0.4h3v0.4h-1.2v0.3c0,0.2,0,0.4,0.1,0.5
			c0.1,0.2,0.2,0.3,0.3,0.5s0.3,0.3,0.4,0.4c0.2,0.1,0.4,0.2,0.5,0.3L-167.4-622.4z M-165.7-620.6v0.4h-3.7v-1.7h0.5v1.3H-165.7z
			 M-166.3-624.1v-1.5h0.5v4h-0.5v-2.1h-1.1v-0.4H-166.3z"/>
		<path id="패스_767" d="M-162.7-621.6c0.3,0,0.5,0,0.8,0s0.5,0,0.7-0.1v0.4c-0.3,0.1-0.6,0.1-0.9,0.1c-0.3,0-0.6,0.1-0.9,0.1
			c-0.3,0-0.6,0-0.9,0h-0.8l-0.1-0.4h0.7c0.3,0,0.5,0,0.8,0v-0.6c-0.3,0-0.6-0.1-0.8-0.3s-0.3-0.4-0.3-0.7c0-0.1,0-0.3,0.1-0.4
			c0.1-0.1,0.2-0.2,0.3-0.3s0.3-0.2,0.4-0.2c0.3-0.1,0.7-0.1,1.1,0c0.2,0,0.3,0.1,0.4,0.2c0.1,0.1,0.2,0.2,0.3,0.3s0.1,0.3,0.1,0.4
			c0,0.3-0.1,0.5-0.3,0.7s-0.5,0.3-0.8,0.3L-162.7-621.6z M-161.3-624.6h-3.3v-0.4h1.4v-0.7h0.5v0.7h1.4L-161.3-624.6z
			 M-163.8-623.2c0,0.2,0.1,0.4,0.2,0.5c0.4,0.2,0.8,0.2,1.2,0c0.1-0.1,0.2-0.3,0.2-0.5s-0.1-0.4-0.2-0.5c-0.4-0.2-0.8-0.2-1.2,0
			C-163.7-623.6-163.8-623.4-163.8-623.2L-163.8-623.2z M-159.6-622.9h-0.9v2.8h-0.5v-5.5h0.5v2.3h0.9V-622.9z"/>
		<path id="패스_768" d="M-156.2-622.5h-2.5v-2.8h0.5v1h1.5v-1h0.5v1.2h1.3v-1.6h0.5v4.1h-0.5v-2.1h-1.3V-622.5z M-156.8-623.9
			h-1.5v1h1.5V-623.9z M-154.3-620.7v0.4h-3.7v-1.7h0.5v1.3H-154.3z"/>
		<path id="패스_769" d="M-148.3-621.2v0.4h-5v-0.4h2.2v-0.8c-0.4,0-0.8-0.1-1.2-0.3c-0.3-0.2-0.4-0.4-0.4-0.7
			c0-0.2,0-0.3,0.1-0.4c0.1-0.1,0.2-0.2,0.4-0.3s0.4-0.2,0.6-0.2c0.2,0,0.5-0.1,0.8-0.1c0.2,0,0.5,0,0.7,0.1c0.2,0,0.4,0.1,0.6,0.2
			c0.1,0.1,0.3,0.2,0.4,0.3c0.1,0.1,0.1,0.3,0.1,0.4c0,0.3-0.2,0.6-0.4,0.7c-0.3,0.2-0.7,0.3-1.1,0.3v0.8H-148.3z M-148.6-624.4
			h-4.5v-0.4h2v-0.7h0.5v0.7h2V-624.4z M-152.2-623c0,0.2,0.1,0.4,0.3,0.5c0.3,0.1,0.6,0.2,1,0.2c0.3,0,0.6,0,0.9-0.2
			c0.3-0.1,0.4-0.4,0.3-0.7c-0.1-0.1-0.2-0.3-0.3-0.3c-0.3-0.1-0.6-0.2-0.9-0.2c-0.3,0-0.7,0-1,0.2
			C-152-623.4-152.2-623.2-152.2-623L-152.2-623z"/>
		<path id="패스_770" d="M-146.2-624.1h0.6v0.6h-0.6V-624.1z M-146.2-621.5h0.6v0.6h-0.6V-621.5z"/>
		<path id="패스_771" d="M-140.6-621v0.5h-2.4v-0.5h1v-3.3c0,0,0,0,0-0.1l-0.8,0.7l-0.3-0.4l1.2-1h0.4v4.1H-140.6z"/>
		<path id="패스_772" d="M-136.6-622.8c0,0.4,0,0.7-0.1,1s-0.2,0.5-0.4,0.7c-0.1,0.2-0.3,0.3-0.5,0.4c-0.4,0.2-0.9,0.2-1.3,0
			c-0.2-0.1-0.4-0.2-0.5-0.4c-0.2-0.2-0.3-0.5-0.4-0.7c-0.2-0.7-0.2-1.4,0-2.1c0.1-0.3,0.2-0.5,0.4-0.7c0.1-0.2,0.3-0.3,0.5-0.4
			c0.4-0.2,0.9-0.2,1.3,0c0.2,0.1,0.4,0.2,0.5,0.4c0.2,0.2,0.3,0.5,0.4,0.7C-136.7-623.5-136.6-623.2-136.6-622.8z M-137.2-622.8
			c0-0.3,0-0.6-0.1-0.9c0-0.2-0.1-0.4-0.2-0.6c-0.1-0.1-0.2-0.2-0.3-0.3c-0.3-0.1-0.6-0.1-0.8,0c-0.1,0.1-0.3,0.2-0.3,0.3
			c-0.1,0.2-0.2,0.4-0.2,0.6c-0.1,0.3-0.1,0.6-0.1,0.9c0,0.3,0,0.6,0.1,0.9c0,0.2,0.1,0.4,0.2,0.6c0.1,0.1,0.2,0.2,0.3,0.3
			c0.3,0.1,0.6,0.1,0.8,0c0.1-0.1,0.3-0.2,0.3-0.3c0.1-0.2,0.2-0.4,0.2-0.6C-137.2-622.2-137.2-622.5-137.2-622.8z"/>
		<path id="패스_773" d="M-132.9-622.8c0,0.4,0,0.7-0.1,1s-0.2,0.5-0.4,0.7c-0.1,0.2-0.3,0.3-0.5,0.4c-0.4,0.2-0.9,0.2-1.3,0
			c-0.2-0.1-0.4-0.2-0.5-0.4c-0.2-0.2-0.3-0.5-0.4-0.7c-0.2-0.7-0.2-1.4,0-2.1c0.1-0.3,0.2-0.5,0.4-0.7c0.1-0.2,0.3-0.3,0.5-0.4
			c0.4-0.2,0.9-0.2,1.3,0c0.2,0.1,0.4,0.2,0.5,0.4c0.2,0.2,0.3,0.5,0.4,0.7C-133-623.5-132.9-623.2-132.9-622.8z M-133.5-622.8
			c0-0.3,0-0.6-0.1-0.9c0-0.2-0.1-0.4-0.2-0.6c-0.1-0.1-0.2-0.2-0.3-0.3c-0.3-0.1-0.6-0.1-0.8,0c-0.1,0.1-0.3,0.2-0.3,0.3
			c-0.1,0.2-0.2,0.4-0.2,0.6c-0.1,0.3-0.1,0.6-0.1,0.9c0,0.3,0,0.6,0.1,0.9c0,0.2,0.1,0.4,0.2,0.6c0.1,0.1,0.2,0.2,0.3,0.3
			c0.3,0.1,0.6,0.1,0.8,0c0.1-0.1,0.3-0.2,0.3-0.3c0.1-0.2,0.2-0.4,0.2-0.6C-133.5-622.2-133.5-622.5-133.5-622.8z"/>
		<path id="패스_774" d="M-129.2-622.2v0.4h-0.7v1.2h-0.5v-1.2h-2.3v-0.4l2.2-2.9h0.5v2.9H-129.2z M-130.4-622.2v-1.9
			c0-0.1,0-0.1,0-0.2c0-0.1,0-0.1,0-0.2l-1.7,2.3L-130.4-622.2z"/>
	</g>
	<g id="그룹_778" transform="translate(2.129 1.987)">
		
			<rect id="사각형_447" x="-198.2" y="-622.4" transform="matrix(0.8758 -0.4826 0.4826 0.8758 285.905 -129.8972)" class="st13" width="177.4" height="3.6"/>
	</g>
</g>
</svg>
