<?xml version="1.0" encoding="utf-8"?>
<!-- Generator: Adobe Illustrator 25.2.1, SVG Export Plug-In . SVG Version: 6.00 Build 0)  -->
<svg version="1.1" id="Layer_1" xmlns="http://www.w3.org/2000/svg" xmlns:xlink="http://www.w3.org/1999/xlink" x="0px" y="0px"
	 viewBox="0 0 300 100" style="enable-background:new 0 0 300 100;" xml:space="preserve">
<style type="text/css">
	.st0{clip-path:url(#SVGID_1_);}
	.st1{fill:#C9CACA;}
	.st2{fill:#323242;}
	.st3{fill:#EA5514;}
	.st4{fill:#323242;stroke:#FFFFFF;stroke-width:0.3816;stroke-miterlimit:10;}
	.st5{fill:#323242;stroke:#323242;stroke-width:0.4293;stroke-miterlimit:10;}
</style>
<g id="그룹_1178" transform="translate(49 386.01)">
	<g id="그룹_1175" transform="translate(1.722 0.967)">
		<g>
			<defs>
				<circle id="SVGID_3_" cx="1.8" cy="-338.5" r="34.6"/>
			</defs>
			<clipPath id="SVGID_1_">
				<use xlink:href="#SVGID_3_"  style="overflow:visible;"/>
			</clipPath>
			<g id="그룹_1174" class="st0">
				<path id="패스_1068" class="st1" d="M9.5-320.6c-1-0.1-1.9-0.2-2.9-0.3c0.1-0.7,0.1-1.5,0.1-2.2c4.9-1.9,6.8-6.6,7.6-11.9
					c7.2,0.9,9.2-5.8,6.1-9.2c0.3-6.4,0.2-12.4-7.3-11.8c-2.2-4.3-6.6-6.9-11.4-6.9c-4.8-0.4-9.4,2.4-11.2,6.9
					c-8.8-1-7.5,4.8-7.5,11.3c-4,3.2-2.1,10.9,5.7,9.8v-0.1c0,5,2.9,9.5,7.3,11.6c0,0.8,0,1.6,0.1,2.4c-10.9,0.7-20.8,4.7-21.2,18.6
					v25.5l52.9,0.1C27.2-292,32.1-318.3,9.5-320.6z"/>
			</g>
		</g>
	</g>
	<g id="그룹_1176" transform="translate(0.756 0)">
		<path id="패스_1069" class="st2" d="M2.7-301.2c-20.1,0-36.4-16.3-36.4-36.4S-17.4-374,2.7-374c20.1,0,36.4,16.3,36.4,36.4l0,0
			C39.1-317.5,22.8-301.2,2.7-301.2z M2.7-370.3c-18.1,0-32.7,14.7-32.7,32.8c0,18.1,14.7,32.7,32.7,32.7s32.7-14.7,32.7-32.8l0,0
			C35.4-355.7,20.8-370.3,2.7-370.3L2.7-370.3z"/>
	</g>
	<g id="그룹_1177" transform="translate(0 4.582)">
		
			<rect id="사각형_491" x="-40.9" y="-344.9" transform="matrix(0.8175 -0.576 0.576 0.8175 197.7122 -60.4535)" class="st3" width="88.7" height="5.5"/>
	</g>
</g>
<g id="그룹_1192" transform="translate(158 385.986)">
	<g id="그룹_1187" transform="translate(0 0)">
		<path id="패스_1075" class="st2" d="M-9-299.5c-20.1,0-36.4-16.3-36.4-36.4c0-20.1,16.3-36.4,36.4-36.4s36.4,16.3,36.4,36.4
			c0,0,0,0,0,0c0,0.7,0,1.3-0.1,1.9c-0.1,1-0.9,1.8-1.9,1.7c-1-0.1-1.8-0.9-1.7-1.9c0-0.6,0-1.2,0-1.8c0-18.1-14.7-32.8-32.8-32.7
			c-18.1,0-32.8,14.7-32.7,32.8c0,18.1,14.7,32.8,32.8,32.7c13.7,0,25.9-8.5,30.7-21.3c0.4-0.9,1.4-1.4,2.3-1.1
			c0.9,0.4,1.4,1.4,1.1,2.3l0,0C19.7-309,6.2-299.6-9-299.5z"/>
	</g>
	<g id="그룹_1190" transform="translate(10.962 13.931)">
		<g id="그룹_1188">
			<path id="패스_1076" class="st2" d="M-21.5-353.9c0,2.1-1,3.9-4.5,7.5l-2.9,3h7.7v3.8h-14.2v-2.5l6.5-6.7c2.4-2.5,3-3.8,3-4.9
				c0-1.5-0.8-2.4-2.7-2.4c-1.5,0-2.8,1.3-2.8,2.8c0,0.1,0,0.1,0,0.2h-4.4c0-3.7,3-6.8,6.7-6.8c0.1,0,0.3,0,0.4,0
				C-24.2-360.1-21.5-357.5-21.5-353.9z"/>
		</g>
		<g id="그룹_1189" transform="translate(8.427 0.285)">
			<path id="패스_1077" class="st2" d="M-19.4-344h-8.9v-3.7l7.7-12.2h5.4v12.2h2.6v3.7h-2.6v4h-4.2V-344z M-19.4-347.6v-7.7
				l-4.7,7.7H-19.4z"/>
		</g>
	</g>
	<g id="그룹_1191" transform="translate(31.782 13.001)">
		<path id="패스_1078" class="st2" d="M-6.1-343.8c-0.6,0-1.1-0.3-1.5-0.8l-9.6-13.5c-0.6-0.8-0.4-2,0.4-2.5s2-0.4,2.5,0.4
			c0,0,0,0,0,0l8,11.4l7.9-11.4c0.6-0.8,1.7-1,2.5-0.5c0.8,0.6,1,1.7,0.5,2.5l-9.3,13.5C-4.9-344.1-5.4-343.8-6.1-343.8L-6.1-343.8z
			"/>
	</g>
</g>
<g id="그룹_1186" transform="translate(268 391.643)">
	<g id="그룹_1179" transform="translate(0 0)">
		<path id="패스_1070" class="st4" d="M-44.9-316.8c-5.2,0-9.4-4.2-9.4-9.4l0-30.3c0-5.2,4.2-9.4,9.4-9.4L8.9-366h0
			c5.2,0,9.4,4.2,9.4,9.4l0,30.3c0,5.2-4.2,9.4-9.4,9.4l0,0L-44.9-316.8L-44.9-316.8z M9-318.6 M8.9-362.5L8.9-362.5l-53.9,0.1
			c-3.3,0-5.9,2.7-5.9,6l0,30.3c0,3.3,2.7,5.9,5.9,5.9l0,0L9-320.3c3.3,0,5.9-2.7,5.9-6l0-30.3C14.9-359.9,12.2-362.5,8.9-362.5
			L8.9-362.5z"/>
	</g>
	<g id="그룹_1180" transform="translate(0.243 5.957)">
		<path id="패스_1071" class="st5" d="M-18.2-335.8c-1.8,0-3.5-0.6-5-1.6l-30.4-21.4c-0.6-0.4-0.8-1.2-0.4-1.8
			c0.4-0.6,1.2-0.8,1.8-0.4c0,0,0.1,0,0.1,0.1l30.4,21.4c2.1,1.5,4.9,1.5,7,0L15.6-361c0.6-0.4,1.4-0.3,1.8,0.2
			c0.4,0.6,0.3,1.4-0.2,1.8c0,0-0.1,0-0.1,0.1l-30.4,21.4C-14.7-336.4-16.4-335.8-18.2-335.8z"/>
	</g>
</g>
</svg>
