<?xml version="1.0" encoding="utf-8"?>
<!-- Generator: Adobe Illustrator 25.2.3, SVG Export Plug-In . SVG Version: 6.00 Build 0)  -->
<svg version="1.1" id="Layer_1" xmlns="http://www.w3.org/2000/svg" xmlns:xlink="http://www.w3.org/1999/xlink" x="0px" y="0px"
	 viewBox="0 0 300 100" style="enable-background:new 0 0 300 100;" xml:space="preserve">
<style type="text/css">
	.st0{fill:#FFFFFF;}
	.st1{fill:#323242;}
	.st2{fill:#FAE100;}
	.st3{fill:#00A582;}
</style>
<g id="그룹_1485" transform="translate(54 393.825)">
	<g id="그룹_1483">
		<g id="그룹_1482">
			<path id="패스_1375" class="st0" d="M-27.8-367.9v30c0,0.5,0,1,0.1,1.4c1.6,13.4,25,26.6,25,26.6s23.4-13.2,25-26.6
				c0.1-0.5,0.1-1,0.1-1.4v-30l-25.1-11.8L-27.8-367.9z"/>
			<path id="패스_1376" class="st1" d="M-2.7-308.1c-0.3,0-0.6-0.1-0.9-0.2c-1-0.6-24.2-13.8-25.9-27.9c-0.1-0.5-0.1-1.1-0.1-1.7
				v-30c0-0.7,0.4-1.3,1-1.6l25.1-11.8c0.5-0.2,1-0.2,1.5,0l25.1,11.8c0.6,0.3,1,0.9,1,1.6v30c0,0.6,0,1.1-0.1,1.7
				c-1.7,14.1-24.9,27.3-25.9,27.9C-2.1-308.2-2.4-308.1-2.7-308.1z M-26.1-366.8v28.9c0,0.4,0,0.8,0.1,1.2
				c1.3,11,19.2,22.3,23.3,24.8c4.1-2.5,22-13.8,23.3-24.8c0.1-0.4,0.1-0.8,0.1-1.2v-28.9l-23.4-11L-26.1-366.8z"/>
		</g>
	</g>
	<g id="그룹_1484" transform="translate(15.4 3.667)">
		<path id="패스_1377" class="st2" d="M-18.1-378.7v59.6c0,0,18.6-10.5,19.9-21.1c0-0.4,0.1-0.8,0.1-1.2v-28L-18.1-378.7z"/>
	</g>
</g>
<g id="그룹_1493" transform="translate(156 388.771)">
	<g id="그룹_1486" transform="translate(0 21.341)">
		<path id="패스_1378" class="st3" d="M-9.1-336.6c-3.3-3.4-8.8-3.5-12.2-0.2c0,0,0,0,0,0L-32.1-348c3.4-3.3,3.5-8.8,0.2-12.2
			c-3.3-3.4-8.8-3.5-12.2-0.2c-3.4,3.3-3.5,8.8-0.2,12.2l22.8,23.6c3.3,3.4,8.8,3.5,12.2,0.2C-5.9-327.7-5.8-333.1-9.1-336.6
			L-9.1-336.6z"/>
		<path id="패스_1379" class="st1" d="M-15.3-320.6c-2.7,0-5.3-1.1-7.1-3l-22.8-23.6c-3.8-3.9-3.7-10.2,0.2-14
			c1.9-1.8,4.3-2.8,6.9-2.8h0.2c5.5,0.1,9.8,4.6,9.8,10.1c0,2.2-0.8,4.3-2.2,6l9.1,9.4c1.8-1.3,3.9-2,6.1-2c2.6,0,5.1,1.1,7,3l0,0
			c3.8,3.9,3.7,10.2-0.2,14C-10.3-321.6-12.8-320.6-15.3-320.6L-15.3-320.6z M-38.1-361.5c-4.1,0-7.4,3.3-7.4,7.4
			c0,1.9,0.7,3.7,2.1,5.1l22.8,23.6c2.8,2.9,7.5,3,10.4,0.2c2.9-2.8,3-7.5,0.2-10.4l0,0c-1.4-1.4-3.2-2.2-5.2-2.3
			c-2,0-3.8,0.7-5.2,2.1c-0.3,0.2-0.6,0.4-0.9,0.4c-0.3,0-0.7-0.1-0.9-0.4L-33-347.1c-0.5-0.5-0.5-1.3,0-1.8c0,0,0,0,0,0
			c2.9-2.8,3-7.5,0.2-10.4c-1.4-1.4-3.2-2.2-5.2-2.3L-38.1-361.5z"/>
	</g>
	<g id="그룹_1492" transform="translate(15.9)">
		<g id="그룹_1487">
			<path id="패스_1380" class="st0" d="M-26.9-333.6c-10.3-9.5-10.9-25.5-1.5-35.8c9.5-10.3,25.5-10.9,35.8-1.5
				c10.3,9.5,10.9,25.5,1.5,35.8C2.1-327.7-8.4-325-18-328.3c-8.7,3.9-13.8-0.3-13.8-0.3C-29.3-329.3-27.4-330.3-26.9-333.6z"/>
			<path id="패스_1381" class="st1" d="M-25.2-324.9c-2.7,0.1-5.4-0.7-7.7-2.3c-0.7-0.6-0.8-1.7-0.2-2.4c0.2-0.3,0.5-0.4,0.8-0.5
				c1.9-0.6,3-1.2,3.5-2.9c-10.6-10.5-10.6-27.6-0.1-38.2c10.5-10.6,27.6-10.6,38.2-0.1c10.6,10.5,10.6,27.6,0.1,38.2
				c-7.1,7.2-17.7,9.8-27.3,6.7C-20.2-325.5-22.7-324.9-25.2-324.9z M-27.8-328.6c3.1,0.6,6.3,0.2,9.1-1.2c0.4-0.2,0.8-0.2,1.3-0.1
				c12.3,4.2,25.8-2.3,30-14.6c4.2-12.3-2.3-25.8-14.6-30c-12.3-4.2-25.8,2.3-30,14.6c-3.1,8.9-0.6,18.7,6.3,25
				c0.4,0.4,0.6,1,0.5,1.5C-25.4-331.5-26.3-329.8-27.8-328.6L-27.8-328.6z"/>
		</g>
		<g id="그룹_1491" transform="translate(3.942 12.428)">
			<g id="그룹_1488">
				<circle id="타원_114" class="st0" cx="-28" cy="-364.5" r="4.2"/>
				<path id="패스_1382" class="st1" d="M-28-358.6c-3.3,0-5.9-2.6-5.9-5.9c0-3.3,2.6-5.9,5.9-5.9s5.9,2.6,5.9,5.9l0,0
					C-22.1-361.3-24.8-358.6-28-358.6z M-28-367c-1.4,0-2.5,1.1-2.5,2.5c0,1.4,1.1,2.5,2.5,2.5c1.4,0,2.5-1.1,2.5-2.5l0,0
					C-25.5-365.9-26.6-367-28-367L-28-367z"/>
			</g>
			<g id="그룹_1489" transform="translate(8.321)">
				<circle id="타원_115" class="st0" cx="-22.1" cy="-364.5" r="4.2"/>
				<path id="패스_1383" class="st1" d="M-22.1-358.6c-3.3,0-5.9-2.6-5.9-5.9c0-3.3,2.6-5.9,5.9-5.9s5.9,2.6,5.9,5.9l0,0
					C-16.2-361.3-18.8-358.6-22.1-358.6z M-22.1-367c-1.4,0-2.5,1.1-2.5,2.5c0,1.4,1.1,2.5,2.5,2.5c1.4,0,2.5-1.1,2.5-2.5l0,0
					C-19.6-365.9-20.7-367-22.1-367L-22.1-367z"/>
			</g>
			<g id="그룹_1490" transform="translate(16.644)">
				<circle id="타원_116" class="st0" cx="-16.2" cy="-364.5" r="4.2"/>
				<path id="패스_1384" class="st1" d="M-16.2-358.6c-3.3,0-5.9-2.6-5.9-5.9c0-3.3,2.6-5.9,5.9-5.9s5.9,2.6,5.9,5.9l0,0
					C-10.3-361.3-12.9-358.6-16.2-358.6z M-16.2-367c-1.4,0-2.5,1.1-2.5,2.5c0,1.4,1.1,2.5,2.5,2.5c1.4,0,2.5-1.1,2.5-2.5l0,0
					C-13.7-365.9-14.8-367-16.2-367L-16.2-367z"/>
			</g>
		</g>
	</g>
</g>
<g id="그룹_1498" transform="translate(270.307 394.199)">
	<g id="그룹_1494">
		<path id="패스_1385" class="st0" d="M-4.5-378.2h-31.7c-6.8,0-12.3,5.5-12.3,12.3c0,0,0,0,0,0v31.7c0,6.8,5.5,12.3,12.3,12.3
			c0,0,0,0,0,0h8.2l7.7,10.8l7.7-10.8h8.2c6.8,0,12.3-5.5,12.3-12.3v-31.7C7.8-372.7,2.3-378.2-4.5-378.2
			C-4.5-378.2-4.5-378.2-4.5-378.2z"/>
		<path id="패스_1386" class="st1" d="M-20.3-309.7c-0.5,0-0.9-0.2-1.2-0.6l-7.2-10.1h-7.4c-7.6,0-13.8-6.2-13.8-13.8v-31.7
			c0-7.6,6.2-13.8,13.8-13.8h31.7c7.6,0,13.8,6.2,13.8,13.8v31.7c0,7.6-6.2,13.8-13.8,13.8h-7.4l-7.2,10.1
			C-19.4-309.9-19.8-309.6-20.3-309.7z M-36.2-376.7c-6,0-10.8,4.8-10.8,10.8v31.7c0,6,4.8,10.8,10.8,10.8h8.2
			c0.5,0,0.9,0.2,1.2,0.6l6.4,9l6.4-9c0.3-0.4,0.7-0.6,1.2-0.6h8.2c6,0,10.8-4.8,10.8-10.8v-31.7c0-6-4.8-10.8-10.8-10.8
			L-36.2-376.7z"/>
	</g>
	<g id="그룹_1497" transform="translate(7.69 7.831)">
		<g id="그룹_1496">
			<g id="그룹_1495">
				<path id="패스_1387" class="st2" d="M-20.4-353.5l2.4,7.4c0.3,0.9-0.2,1.8-1.1,2.1c-0.5,0.2-1.1,0.1-1.5-0.2l-6.4-4.5
					c-0.6-0.4-1.4-0.4-2,0l-6.6,4.6c-0.8,0.5-1.8,0.3-2.4-0.4c-0.3-0.4-0.4-1-0.2-1.5l2.5-7.4c0.2-0.7,0-1.5-0.6-1.9l-6.5-4.8
					c-0.7-0.6-0.9-1.6-0.3-2.4c0.3-0.4,0.8-0.7,1.4-0.7h7.9c0.7,0,1.4-0.5,1.6-1.1l2.6-7.4c0.3-0.9,1.3-1.4,2.2-1
					c0.5,0.2,0.9,0.6,1,1l2.6,7.4c0.2,0.7,0.9,1.1,1.6,1.1h7.7c0.9,0,1.7,0.8,1.7,1.7c0,0.5-0.2,1-0.7,1.3l-6.4,4.9
					C-20.4-354.9-20.6-354.1-20.4-353.5z"/>
				<path id="패스_1388" class="st1" d="M-36.5-342.3c-0.7,0-1.4-0.2-1.9-0.7c-1.1-0.8-1.6-2.3-1.1-3.6l2.5-7.4
					c0-0.1,0-0.2-0.1-0.2l-6.4-4.8c-1.4-1.1-1.7-3.1-0.6-4.5c0.6-0.8,1.6-1.3,2.6-1.3h7.9c0.1,0,0.1,0,0.2-0.1l2.6-7.4
					c0.4-1.3,1.7-2.2,3-2.2l0,0c1.4,0,2.6,0.9,3,2.2l2.6,7.4c0,0.1,0.1,0.1,0.2,0.1h7.7c1.8,0,3.2,1.4,3.2,3.2c0,1-0.5,1.9-1.3,2.6
					l-6.4,4.9c-0.1,0-0.1,0.1-0.1,0.2l0,0l2.4,7.4c0.5,1.7-0.4,3.5-2.1,4c-1,0.3-2,0.2-2.8-0.4l-6.4-4.5c-0.1,0-0.2,0-0.2,0
					l-6.6,4.6C-35.2-342.5-35.8-342.3-36.5-342.3z M-41.6-361.7c-0.1,0-0.2,0-0.2,0.1c0,0.1,0,0.2,0.1,0.2l6.5,4.8
					c1.1,0.8,1.6,2.3,1.1,3.6l-2.5,7.4c0,0.1,0,0.2,0.1,0.2c0.1,0.1,0.2,0.1,0.2,0l6.6-4.6c1.1-0.8,2.6-0.8,3.7,0l6.4,4.5
					c0.1,0.1,0.2,0.1,0.2,0c0.1,0,0.1-0.1,0.1-0.2l-2.4-7.4c-0.4-1.3,0-2.7,1.1-3.5l6.4-4.9c0.1,0,0.1-0.1,0.1-0.2
					c0-0.1-0.1-0.1-0.2-0.1h-7.7c-1.4,0-2.6-0.9-3-2.1l-2.6-7.4c0-0.1-0.1-0.1-0.2-0.1l0,0c-0.1,0-0.1,0-0.2,0.1l-2.6,7.4
					c-0.4,1.3-1.7,2.2-3,2.2H-41.6z"/>
			</g>
		</g>
	</g>
</g>
</svg>
