<?xml version="1.0" encoding="utf-8"?>
<!-- Generator: Adobe Illustrator 25.2.3, SVG Export Plug-In . SVG Version: 6.00 Build 0)  -->
<svg version="1.1" id="Layer_1" xmlns="http://www.w3.org/2000/svg" xmlns:xlink="http://www.w3.org/1999/xlink" x="0px" y="0px"
	 viewBox="0 0 600 200" style="enable-background:new 0 0 600 200;" xml:space="preserve">
<style type="text/css">
	.st0{fill:#323242;}
	.st1{fill:#EFEFEF;}
	.st2{clip-path:url(#SVGID_2_);}
	.st3{fill:#C9CACA;}
	.st4{fill:#FFFFFF;}
	.st5{fill:#FAE100;}
	.st6{fill:#00A582;}
	.st7{fill:none;}
</style>
<g id="그룹_1472_1_" transform="translate(-672.91 -1873.777)">
	<g id="그룹_1467_1_" transform="translate(0 4)">
		<g id="그룹_1454_1_">
			<g id="그룹_1452_1_">
				<path id="패스_1354_1_" class="st0" d="M765.8,2007.1h-40.3c-6.7,0-12.1-5.4-12.2-12.2v-69.8c0-6.7,5.4-12.1,12.2-12.2h40.3
					c6.7,0,12.1,5.4,12.2,12.2v69.8C778,2001.7,772.6,2007.1,765.8,2007.1z M725.6,1916c-5,0-9.1,4.1-9.1,9.1v69.8
					c0,5,4.1,9.1,9.1,9.1h40.3c5,0,9.1-4.1,9.1-9.1v-69.8c0-5-4.1-9.1-9.1-9.1H725.6z"/>
			</g>
			<g id="그룹_1453_1_">
				<path id="패스_1355_1_" class="st0" d="M754.6,1921.7h-17.8c-2.2,0-4-1.8-4-4v-3.1c0-0.9,0.7-1.5,1.5-1.5h22.7
					c0.9,0,1.5,0.7,1.5,1.5v3.1C758.6,1920,756.8,1921.7,754.6,1921.7z M735.9,1916.2v1.6c0,0.6,0.5,1,1,1h17.8c0.6,0,1-0.5,1-1
					v-1.6H735.9z"/>
			</g>
		</g>
		<g id="그룹_1463_1_">
			<g id="그룹_1455_1_">
				<path id="패스_1356_1_" d="M723.2,1985.5l2.1,1l-0.4,0.7l-2-1.2l0.1,2.4h-0.8l0.1-2.4l-2,1.2l-0.4-0.7l2.1-1l-2.1-1l0.4-0.7
					l2,1.2l-0.1-2.4h0.8l-0.1,2.4l2-1.2l0.4,0.7L723.2,1985.5z"/>
			</g>
			<g id="그룹_1456_1_">
				<path id="패스_1357_1_" d="M729.6,1985.5l2.1,1l-0.4,0.7l-2-1.2l0.1,2.4h-0.8l0.1-2.4l-2,1.2l-0.4-0.7l2.1-1l-2.1-1l0.4-0.7
					l2,1.2l-0.1-2.4h0.8l-0.1,2.4l2-1.2l0.4,0.7L729.6,1985.5z"/>
			</g>
			<g id="그룹_1457_1_">
				<path id="패스_1358_1_" d="M736,1985.5l2.1,1l-0.4,0.7l-2-1.2l0.1,2.4h-0.8l0.1-2.4l-2,1.2l-0.4-0.7l2.1-1l-2.1-1l0.4-0.7
					l2,1.2l-0.1-2.4h0.8l-0.1,2.4l2-1.2l0.4,0.7L736,1985.5z"/>
			</g>
			<g id="그룹_1458_1_">
				<path id="패스_1359_1_" d="M745.1,1985.2v0.7h-5.2v-0.7H745.1z"/>
			</g>
			<g id="그룹_1459_1_">
				<path id="패스_1360_1_" d="M749.8,1985.5l2.1,1l-0.4,0.7l-2-1.2l0.1,2.4h-0.8l0.1-2.4l-2,1.2l-0.4-0.7l2.1-1l-2.1-1l0.4-0.7
					l2,1.2l-0.1-2.4h0.8l-0.1,2.4l2-1.2l0.4,0.7L749.8,1985.5z"/>
			</g>
			<g id="그룹_1460_1_">
				<path id="패스_1361_1_" d="M756.3,1985.5l2.1,1l-0.4,0.7l-2-1.2l0.1,2.4h-0.8l0.1-2.4l-2,1.2l-0.4-0.7l2.1-1l-2.1-1l0.4-0.7
					l2,1.2l-0.1-2.4h0.8l-0.1,2.4l2-1.2l0.4,0.7L756.3,1985.5z"/>
			</g>
			<g id="그룹_1461_1_">
				<path id="패스_1362_1_" d="M762.8,1985.5l2.1,1l-0.4,0.7l-2-1.2l0.1,2.4h-0.8l0.1-2.4l-2,1.2l-0.4-0.7l2.1-1l-2.1-1l0.4-0.7
					l2,1.2l-0.1-2.4h0.8l-0.1,2.4l2-1.2l0.4,0.7L762.8,1985.5z"/>
			</g>
			<g id="그룹_1462_1_">
				<path id="패스_1363_1_" d="M769.2,1985.5l2.1,1l-0.4,0.7l-2-1.2l0.1,2.4h-0.7l0.1-2.4l-2,1.2l-0.4-0.7l2.1-1l-2.1-1l0.4-0.7
					l2,1.2l-0.1-2.4h0.8l-0.1,2.4l2-1.2l0.4,0.7L769.2,1985.5z"/>
			</g>
		</g>
		<g id="그룹_1466_1_">
			<circle id="타원_109_1_" class="st1" cx="745.7" cy="1952.5" r="19.1"/>
			<g>
				<g>
					<defs>
						<circle id="SVGID_1_" cx="745.7" cy="1952.5" r="19.1"/>
					</defs>
					<clipPath id="SVGID_2_">
						<use xlink:href="#SVGID_1_"  style="overflow:visible;"/>
					</clipPath>
					<g id="그룹_1465_1_" class="st2">
						<g id="그룹_1464_1_">
							<path id="패스_1364_1_" class="st3" d="M750,1962.4c-0.6-0.1-1-0.1-1.6-0.2c0-0.4,0.1-0.8,0.1-1.2c2.7-1,3.8-3.6,4.2-6.6
								c4,0.5,5-3.2,3.3-5.1c0.2-3.5,0.1-6.9-4.1-6.6c-1.2-2.4-3.7-3.8-6.4-3.8c-2.7-0.2-5.1,1.3-6.2,3.8c-4.9-0.6-4.2,2.7-4.2,6.2
								c-2.2,1.8-1.1,6.1,3.1,5.4v-0.1c0,2.8,1.6,5.2,4.1,6.5c0,0.5,0,0.9,0,1.3c-6,0.4-11.5,2.7-11.7,10.3v14.2h29.2
								C759.8,1978.2,762.5,1963.7,750,1962.4z"/>
						</g>
					</g>
				</g>
			</g>
		</g>
	</g>
	<g id="그룹_1471_1_">
		<g id="그룹_1469_1_">
			<g id="그룹_1468_1_">
				<path id="패스_1365_1_" class="st4" d="M759.6,1960.2v44.2c0,0.8,0.1,1.4,0.1,2.1c2.4,19.8,36.9,39.2,36.9,39.2
					s34.5-19.4,36.9-39.2c0.1-0.7,0.1-1.4,0.1-2.1v-44.2l-37-17.4L759.6,1960.2z"/>
				<path id="패스_1366_1_" class="st0" d="M796.8,2047.2c-0.3,0-0.5-0.1-0.8-0.2c-1.4-0.8-35.2-20.1-37.7-40.3
					c-0.1-0.8-0.2-1.5-0.2-2.3v-44.2c0-0.6,0.4-1.1,0.9-1.3l37-17.4c0.4-0.2,0.9-0.2,1.2,0l37,17.4c0.5,0.3,0.9,0.8,0.9,1.3v44.2
					c0,0.8-0.1,1.5-0.2,2.3c-2.5,20.3-36.3,39.5-37.7,40.3C797.2,2047.2,796.9,2047.2,796.8,2047.2z M761.2,1961.2v43.3
					c0,0.7,0.1,1.3,0.1,1.9c2.1,17.2,30.4,34.7,35.4,37.7c4.9-2.9,33.3-20.5,35.4-37.7c0.1-0.7,0.1-1.3,0.1-2v-43.3l-35.6-16.7
					L761.2,1961.2z"/>
			</g>
		</g>
		<g id="그룹_1470_1_">
			<path id="패스_1367_1_" class="st5" d="M796.8,1949.7v87.8c0,0,27.4-15.4,29.3-31.1c0.1-0.6,0.1-1.1,0.1-1.7v-41.2
				L796.8,1949.7z"/>
		</g>
	</g>
</g>
<g id="그룹_1480_1_" transform="translate(-775.052 -1684.777)">
	<g id="그룹_1473_1_">
		<path id="패스_1368_1_" class="st6" d="M1073.4,1821.8c-5.4-5.5-14.2-5.7-19.7-0.4l-17.3-18c5.5-5.4,5.7-14.2,0.4-19.7
			c-5.4-5.5-14.2-5.7-19.7-0.4c-5.5,5.4-5.7,14.2-0.4,19.7l0,0l36.7,38c5.4,5.5,14.2,5.7,19.7,0.4
			C1078.5,1836.2,1078.7,1827.3,1073.4,1821.8L1073.4,1821.8z"/>
		<path id="패스_1369_1_" class="st0" d="M1063.4,1846.8h-0.3c-4-0.1-7.9-1.8-10.7-4.7l-36.7-38c-5.9-6.1-5.7-15.8,0.4-21.6
			c2.8-2.7,6.7-4.3,10.6-4.3h0.3c8.5,0.2,15.2,7.1,15,15.6c-0.1,3.6-1.4,7.1-3.8,9.8l15.5,16.1c6.2-5,15.1-4.4,20.6,1.3l0,0
			c5.9,6.1,5.7,15.8-0.4,21.7C1071.1,1845.3,1067.3,1846.8,1063.4,1846.8L1063.4,1846.8z M1026.6,1781c-7,0-12.5,5.6-12.5,12.5
			c0,3.3,1.2,6.4,3.5,8.7l36.7,38c2.3,2.4,5.5,3.8,8.7,3.9s6.6-1.2,8.9-3.5c5-4.8,5.1-12.7,0.3-17.7c-4.8-5-12.7-5.1-17.7-0.3
			c-0.3,0.3-0.7,0.4-1,0.4s-0.8-0.2-0.9-0.5l-17.3-18c-0.6-0.6-0.6-1.4,0-2c5-4.8,5.1-12.7,0.3-17.7
			C1033.3,1782.4,1030.1,1781,1026.6,1781L1026.6,1781z"/>
	</g>
	<g id="그룹_1479_1_">
		<g id="그룹_1474_1_">
			<path id="패스_1370_1_" class="st4" d="M1070.3,1792.1c-16.5-15.3-17.6-41.1-2.4-57.6c15.3-16.5,41.1-17.6,57.6-2.4
				c16.5,15.3,17.6,41.1,2.4,57.6c-11,11.9-28,16.2-43.3,10.9c-14,6.3-22.2-0.4-22.2-0.4C1066.5,1799.1,1069.5,1797.5,1070.3,1792.1
				z"/>
			<path id="패스_1371_1_" class="st0" d="M1073.1,1804.9c-4.1,0.1-8.2-1-11.5-3.5c-0.6-0.5-0.7-1.4-0.2-2
				c0.2-0.2,0.4-0.4,0.7-0.5c3.8-1.1,5.9-2.4,6.7-6.3c-9.4-9.1-14.1-22-12.8-35.1c2.5-23.1,23.3-39.9,46.5-37.3
				c23.1,2.5,39.9,23.3,37.3,46.5c-2.5,23.1-23.3,39.9-46.5,37.3c-2.9-0.3-5.8-0.9-8.7-1.9
				C1081.1,1803.9,1077.1,1804.8,1073.1,1804.9z M1065.8,1800.6c3.2,1.4,9.5,2.8,18.3-1.1c0.3-0.2,0.7-0.2,1-0.1
				c2.7,0.9,5.6,1.6,8.6,1.9c21.6,2.4,41.1-13.3,43.4-34.9s-13.3-41.1-34.9-43.4c-21.6-2.4-41.1,13.3-43.4,34.9
				c-1.3,12.4,3.3,24.7,12.4,33.2c0.4,0.3,0.5,0.8,0.5,1.2C1071.4,1796,1069.1,1799.2,1065.8,1800.6L1065.8,1800.6z"/>
		</g>
		<g id="그룹_1478_1_">
			<g id="그룹_1475_1_">
				<circle id="타원_111_1_" class="st4" cx="1074.9" cy="1762.4" r="6.8"/>
				<path id="패스_1372_1_" class="st0" d="M1074.9,1770.6c-4.5,0-8.2-3.7-8.2-8.2c0-4.5,3.7-8.2,8.2-8.2s8.2,3.7,8.2,8.2
					C1083,1766.9,1079.4,1770.6,1074.9,1770.6z M1074.9,1757.1c-3,0-5.4,2.4-5.4,5.4c0,3,2.4,5.4,5.4,5.4c3,0,5.4-2.4,5.4-5.4
					C1080.2,1759.5,1077.9,1757.1,1074.9,1757.1z"/>
			</g>
			<g id="그룹_1476_1_">
				<circle id="타원_112_1_" class="st4" cx="1097.8" cy="1762.4" r="6.8"/>
				<path id="패스_1373_1_" class="st0" d="M1097.8,1770.6c-4.5,0-8.2-3.7-8.2-8.2c0-4.5,3.7-8.2,8.2-8.2s8.2,3.7,8.2,8.2
					C1106,1766.9,1102.3,1770.6,1097.8,1770.6z M1097.8,1757.1c-3,0-5.4,2.4-5.4,5.4c0,3,2.4,5.4,5.4,5.4c3,0,5.4-2.4,5.4-5.4
					C1103.2,1759.5,1100.7,1757.1,1097.8,1757.1z"/>
			</g>
			<g id="그룹_1477_1_">
				<circle id="타원_113_1_" class="st4" cx="1120.7" cy="1762.4" r="6.8"/>
				<path id="패스_1374_1_" class="st0" d="M1120.7,1770.6c-4.5,0-8.2-3.7-8.2-8.2c0-4.5,3.7-8.2,8.2-8.2c4.5,0,8.2,3.7,8.2,8.2
					C1128.9,1766.9,1125.3,1770.6,1120.7,1770.6z M1120.7,1757.1c-3,0-5.4,2.4-5.4,5.4c0,3,2.4,5.4,5.4,5.4c3,0,5.4-2.4,5.4-5.4
					C1126.1,1759.5,1123.7,1757.1,1120.7,1757.1z"/>
			</g>
		</g>
	</g>
</g>
<g id="그룹_1451_1_" transform="translate(-536.898 -1644.235)">
	<g id="그룹_1447_1_">
		<g id="그룹_1440_1_">
			<path id="패스_1345_1_" class="st4" d="M1061.7,1693.2h-52.1c-11.2,0-20.2,9.1-20.2,20.2v52.1c0,11.2,9.1,20.2,20.2,20.2l0,0
				h13.4l12.6,17.7l12.6-17.7h13.4c11.2,0,20.2-9.1,20.2-20.2l0,0v-52.1C1081.9,1702.3,1072.9,1693.2,1061.7,1693.2L1061.7,1693.2z"
				/>
			<path id="패스_1346_1_" class="st0" d="M1035.6,1804.8L1035.6,1804.8c-0.5,0-0.9-0.2-1.1-0.6l-12.2-17.1h-12.8
				c-11.9,0-21.6-9.7-21.6-21.6v-52.1c0-11.9,9.7-21.6,21.6-21.6h52.1c11.9,0,21.6,9.7,21.6,21.6v52.1c0,11.9-9.7,21.6-21.6,21.6
				h-12.7l-12.2,17.1C1036.5,1804.6,1036.1,1804.8,1035.6,1804.8z M1009.6,1694.6c-10.4,0-18.8,8.4-18.8,18.8v52.1
				c0,10.4,8.4,18.8,18.8,18.8h13.4c0.5,0,0.9,0.2,1.1,0.6l11.5,16.1l11.5-16.1c0.3-0.4,0.7-0.6,1.1-0.6h13.4
				c10.4,0,18.8-8.4,18.8-18.8v-52.1c0-10.4-8.4-18.8-18.8-18.8H1009.6z"/>
		</g>
		<g id="그룹_1446_1_">
			<g id="그룹_1442_1_">
				<g id="그룹_1441_1_">
					<path id="패스_1347_1_" class="st5" d="M1045.2,1736.4l3.1,9.3c0.4,1.1-0.3,2.3-1.4,2.7c-0.6,0.2-1.4,0.1-1.9-0.3l-8-5.7
						c-0.7-0.6-1.8-0.6-2.5,0l-8.3,5.8c-0.9,0.6-2.3,0.5-3-0.6c-0.4-0.6-0.5-1.3-0.3-1.9l3.1-9.3c0.3-0.8,0-1.8-0.7-2.4l-8.1-6.1
						c-0.9-0.7-1.1-2-0.5-3c0.4-0.6,1-0.8,1.7-0.8h10c0.9,0,1.8-0.6,2-1.5l3.2-9.3c0.4-1.1,1.6-1.7,2.7-1.3c0.6,0.2,1.1,0.7,1.3,1.3
						l3.2,9.3c0.3,0.8,1.1,1.5,2,1.5h9.7c1.2,0,2.1,0.9,2.1,2.1c0,0.6-0.3,1.3-0.8,1.7l-8.1,6.1
						C1045.2,1734.6,1044.9,1735.5,1045.2,1736.4z"/>
					<path id="패스_1348_1_" class="st0" d="M1025,1750.1c-0.7,0-1.5-0.3-2.1-0.7c-1.2-0.9-1.8-2.5-1.2-4l3.1-9.3
						c0.1-0.3,0-0.6-0.3-0.8l-8.1-6.1c-1.6-1.2-1.8-3.4-0.7-5c0.6-0.9,1.8-1.4,2.9-1.4h10c0.3,0,0.6-0.2,0.6-0.5l3.2-9.3
						c0.5-1.5,1.8-2.4,3.3-2.4l0,0c1.5,0,2.9,0.9,3.3,2.4l3.2,9.3c0.1,0.3,0.4,0.5,0.6,0.5h9.7c1.9,0,3.5,1.6,3.5,3.5
						c0,1.1-0.6,2.1-1.4,2.9l-8.1,6.1c-0.3,0.2-0.4,0.5-0.3,0.8l0,0l3.1,9.3c0.6,1.8-0.4,3.9-2.3,4.4c-1.1,0.4-2.2,0.2-3.1-0.5
						l-8-5.7c-0.3-0.2-0.6-0.2-0.8,0l-8.3,5.8C1026.4,1749.8,1025.7,1750.1,1025,1750.1z M1018.5,1725.5c-0.4,0-0.7,0.3-0.7,0.7
						c0,0.2,0.1,0.5,0.3,0.6l8.1,6.1c1.2,0.9,1.8,2.5,1.2,4l-3.1,9.3c-0.1,0.4,0.1,0.8,0.5,0.9c0.2,0.1,0.5,0,0.6-0.1l8.3-5.8
						c1.2-0.8,2.9-0.8,4.1,0l8,5.7c0.3,0.2,0.6,0.2,0.8,0c0.3-0.2,0.4-0.5,0.3-0.8l-3.1-9.3c-0.5-1.5,0-3.1,1.2-4l8.1-6.1
						c0.3-0.3,0.4-0.6,0.1-1c-0.1-0.2-0.4-0.3-0.6-0.3h-9.7c-1.5,0-2.9-0.9-3.3-2.4l-3.2-9.3c-0.1-0.3-0.4-0.5-0.6-0.5l0,0
						c-0.3,0-0.6,0.2-0.6,0.5l-3.2,9.3c-0.5,1.4-1.8,2.4-3.3,2.4L1018.5,1725.5z"/>
				</g>
			</g>
			<g id="그룹_1445_1_">
				<g id="그룹_1443_1_">
					<path id="패스_1349_1_" class="st0" d="M1052.2,1760.8H1019c-0.7,0-1.4-0.6-1.4-1.4s0.6-1.4,1.4-1.4h33.2
						c0.7,0,1.4,0.6,1.4,1.4C1053.6,1760.1,1053,1760.8,1052.2,1760.8z"/>
				</g>
				<g id="그룹_1444_1_">
					<path id="패스_1350_1_" class="st0" d="M1035.6,1769.7h-16.6c-0.7,0-1.4-0.6-1.4-1.4s0.6-1.4,1.4-1.4h16.6
						c0.7,0,1.4,0.6,1.4,1.4C1037.1,1769,1036.4,1769.7,1035.6,1769.7z"/>
				</g>
			</g>
		</g>
	</g>
	<g id="그룹_1450_1_">
		<g id="그룹_1448_1_">
			<path id="패스_1351_1_" class="st4" d="M1073.4,1765.2l-14.7,6.1l4.7-15.3l30.9-33.9c2.5-2.8,6.8-3,9.6-0.5l0,0l0,0
				c2.8,2.5,3,6.8,0.5,9.6L1073.4,1765.2z"/>
			<path id="패스_1352_1_" class="st0" d="M1058.7,1772.7c-0.7,0-1.4-0.6-1.4-1.4c0-0.2,0-0.3,0.1-0.5l4.7-15.3
				c0.1-0.2,0.2-0.4,0.3-0.6l30.9-33.9c3.1-3.4,8.2-3.7,11.6-0.6c3.4,3.1,3.7,8.2,0.6,11.6l-0.1,0.1l-30.9,33.9
				c-0.2,0.2-0.3,0.3-0.5,0.4l-14.7,6.1C1059.1,1772.7,1058.9,1772.7,1058.7,1772.7z M1064.7,1756.8l-3.7,12l11.7-4.8l30.7-33.7
				c2-2.2,1.8-5.5-0.4-7.6c-2.2-2-5.5-1.8-7.6,0.4l0,0L1064.7,1756.8z"/>
		</g>
		<g id="그룹_1449_1_">
			<line id="선_76_1_" class="st7" x1="1063.8" y1="1755.7" x2="1073.8" y2="1764.9"/>
			<path id="패스_1353_1_" class="st0" d="M1073.8,1766.2c-0.4,0-0.6-0.1-0.9-0.4l-10.1-9.2c-0.6-0.6-0.6-1.4-0.1-2
				c0.6-0.6,1.4-0.6,2-0.1l0,0l10.1,9.2c0.6,0.6,0.6,1.4,0.1,2C1074.6,1766.1,1074.2,1766.2,1073.8,1766.2L1073.8,1766.2z"/>
		</g>
	</g>
</g>
</svg>
