<?xml version="1.0" encoding="utf-8"?>
<!-- Generator: Adobe Illustrator 25.0.0, SVG Export Plug-In . SVG Version: 6.00 Build 0)  -->
<svg version="1.1" id="Layer_1" xmlns="http://www.w3.org/2000/svg" xmlns:xlink="http://www.w3.org/1999/xlink" x="0px" y="0px"
	 viewBox="0 0 500 100" style="enable-background:new 0 0 500 100;" xml:space="preserve">
<style type="text/css">
	.st0{stroke:#FFFFFF;stroke-width:1.1;stroke-miterlimit:10;}
	.st1{stroke:#000000;stroke-width:0.5;stroke-miterlimit:10;}
</style>
<g>
	<path class="st0" d="M184.2,24.6c-1.7-1.7-4.1-2.6-6.4-2.7c0-2.3-0.9-4.6-2.7-6.3c-3.5-3.5-9.3-3.5-12.8,0c-3,3-3.5,7.6-1.3,11.1
		l-33.9,34c-3.4-2.1-8.2-1.7-11.3,1.3c-3.5,3.5-3.5,9.3,0,12.8c1.7,1.7,4.1,2.6,6.5,2.7c0,2.4,0.9,4.7,2.7,6.5
		c3.5,3.5,9.3,3.5,12.8,0c3.4-3.4,3.5-8.7,0.7-12.2L172,38.1c3.5,2.8,8.9,2.7,12.2-0.7C187.8,33.9,187.8,28.2,184.2,24.6L184.2,24.6
		z M181.2,34.4c-1.9,1.9-5,1.9-6.9,0c-0.2-0.2-0.4-0.4-0.6-0.7c-0.8-1-2.3-1.1-3.2-0.3c0,0-36.7,36.9-36.9,37
		c-0.8,1-0.6,2.4,0.4,3.2c2.4,1.7,2.7,5.3,0.6,7.4c-1.9,1.9-4.9,1.9-6.7,0c-1.3-1.3-1.8-3.5-1.1-5.2c0.7-1.8-1.1-3.5-2.8-2.8
		c-1.8,0.7-3.9,0.3-5.2-1.1c-2.9-2.9-1-8.1,3.4-8.1c1.3,0,2.5,0.5,3.4,1.4c0.8,0.8,2.2,0.9,3.1,0c39.2-39.3,36.8-36.8,37-37.3
		c0.4-0.9,0.2-1.8-0.4-2.4c-1.9-1.9-1.9-4.9,0-6.7c1.9-1.9,4.9-1.9,6.7,0c1.3,1.3,1.8,3.3,1.1,5.1c-0.2,0.5-0.2,1.1,0,1.6
		c0.4,1.1,1.7,1.7,2.8,1.2c1.8-0.7,3.9-0.3,5.2,1.1C183,29.5,183,32.6,181.2,34.4z"/>
	<path class="st0" d="M137,39.7c0.8,0.8,2.2,0.8,3.1,0c0.8-0.8,0.8-2.2,0-3.1l-7.3-7.3c-0.8-0.8-2.2-0.8-3.1,0s-0.8,2.2,0,3.1
		L137,39.7z"/>
	<path class="st0" d="M121.2,47.4h10.4c1.2,0,2.2-1,2.2-2.2c0-1.2-1-2.2-2.2-2.2h-10.4c-1.2,0-2.2,1-2.2,2.2
		C119,46.5,120,47.4,121.2,47.4z"/>
	<path class="st0" d="M145.6,33.4c1.2,0,2.2-1,2.2-2.2V20.8c0-1.2-1-2.2-2.2-2.2c-1.2,0-2.2,1-2.2,2.2v10.4
		C143.5,32.4,144.4,33.4,145.6,33.4z"/>
	<path class="st0" d="M163.3,60.1c-0.8-0.8-2.2-0.8-3.1,0c-0.8,0.8-0.8,2.2,0,3.1l7.3,7.3c0.4,0.4,1,0.6,1.5,0.6
		c1.9,0,2.9-2.3,1.5-3.7L163.3,60.1z"/>
	<path class="st0" d="M179.1,52.3h-10.4c-1.2,0-2.2,1-2.2,2.2c0,1.2,1,2.2,2.2,2.2h10.4c1.2,0,2.2-1,2.2-2.2
		C181.2,53.3,180.2,52.3,179.1,52.3z"/>
	<path class="st0" d="M154.6,66.4c-1.2,0-2.2,1-2.2,2.2v10.4c0,1.2,1,2.2,2.2,2.2s2.2-1,2.2-2.2V68.6
		C156.8,67.4,155.8,66.4,154.6,66.4z"/>
</g>
<g>
	<path class="st1" d="M86.5,86.8H47.4c-0.7,0-1.3-0.6-1.3-1.3V35.9c0-0.7,0.6-1.3,1.3-1.3h39.2c0.7,0,1.3,0.6,1.3,1.3v49.7
		C87.8,86.3,87.3,86.8,86.5,86.8z M48.7,84.2h36.6V37.2H48.7V84.2z"/>
</g>
<g>
	<path class="st1" d="M67,67.4c-7.1,0-13-5.8-13-13c0-7.1,5.8-13,13-13c7.1,0,13,5.8,13,13C79.9,61.6,74.1,67.4,67,67.4z M67,44.1
		c-5.7,0-10.4,4.6-10.4,10.4S61.2,64.8,67,64.8s10.4-4.6,10.4-10.4S72.7,44.1,67,44.1z"/>
</g>
<g>
	<rect x="53.4" y="74.9" class="st1" width="27.1" height="2.6"/>
</g>
<g>
	<g>
		<path class="st1" d="M36.3,56.1H14c-0.7,0-1.3-0.6-1.3-1.3c0-6.9,5.6-12.5,12.5-12.5s12.5,5.6,12.5,12.5
			C37.6,55.5,37,56.1,36.3,56.1z M15.4,53.5h19.5c-0.6-4.8-4.8-8.5-9.8-8.5S16,48.7,15.4,53.5z"/>
	</g>
</g>
<g>
	<path class="st1" d="M36.3,87.1H14c-0.7,0-1.3-0.6-1.3-1.3v-31c0-0.7,0.6-1.3,1.3-1.3h22.3c0.7,0,1.3,0.6,1.3,1.3v31
		C37.6,86.5,37,87.1,36.3,87.1z M15.3,84.5H35V56.1H15.3V84.5z"/>
</g>
<g>
	<rect x="15.3" y="62.2" class="st1" width="4.8" height="2.6"/>
</g>
<g>
	<rect x="14.1" y="68.8" class="st1" width="8.4" height="2.6"/>
</g>
<g>
	<rect x="15.1" y="74.9" class="st1" width="4.2" height="2.6"/>
</g>
<g>
	<path class="st1" d="M26.1,43.7h-2.6v-9.9c0-12.9,10.5-23.4,23.3-23.4c11.1,0,20.1,8.1,21.9,19.8l-2.6,0.4
		C64.6,20,56.8,12.9,46.8,12.9c-11.4,0-20.7,9.3-20.7,20.8V43.7z"/>
</g>
<g>
	<path class="st1" d="M73.9,37.2H60c-0.7,0-1.3-0.6-1.3-1.3v-5.1c0-0.7,0.6-1.3,1.3-1.3h13.9c0.7,0,1.3,0.6,1.3,1.3v5.1
		C75.2,36.6,74.6,37.2,73.9,37.2z M61.3,34.6h11.3v-2.5H61.3V34.6z"/>
</g>
</svg>
