<svg xmlns="http://www.w3.org/2000/svg" width="63.941" height="61.94" viewBox="0 0 63.941 61.94"><defs><style>.a{fill:#323242;}.b{fill:#f5dcbe;}.c{fill:#05f;}</style></defs><g transform="translate(2061.176 -124.08)"><g transform="translate(-2061.176 124.08)"><path class="a" d="M-2012.889,158.75a1.888,1.888,0,0,1-.667-.576,2.321,2.321,0,0,1-.386-.79l-5.228-23.546a6.094,6.094,0,0,1-.08-.667c-.018-.239-.031-.5-.031-.778,0-.41.012-.814.031-1.224s.025-.771.025-1.084a5.759,5.759,0,0,0-.472-2.333,6.3,6.3,0,0,0-1.279-1.91,6.021,6.021,0,0,0-1.892-1.292,5.761,5.761,0,0,0-2.333-.471,5.883,5.883,0,0,0-2.155.4,5.9,5.9,0,0,0-1.849,1.12,5.944,5.944,0,0,0-1.849-1.12,5.9,5.9,0,0,0-2.155-.4,5.761,5.761,0,0,0-2.333.471,5.916,5.916,0,0,0-1.892,1.292,6.237,6.237,0,0,0-1.279,1.9,5.816,5.816,0,0,0-.471,2.339c0,.312.006.673.024,1.084s.031.814.031,1.224c0,.276-.012.533-.031.778-.019.22-.043.447-.079.667l-5.228,23.546a2.334,2.334,0,0,1-.392.79,1.835,1.835,0,0,1-.667.576l-15.649,7.812v19.457h19.629l12.006-11.981h.667l12.012,11.981h19.628V166.563Zm-30.3,23.265h-13.982V169.036l8.087-4.059,11.479,11.479Zm11.981-11.981-5.008,5.008-10.977-11.008c.588-.263,1.175-.539,1.75-.82s1.139-.582,1.7-.875a6.162,6.162,0,0,0,2.058-1.684,6.045,6.045,0,0,0,1.107-2.406q.918-4,1.795-7.965t1.769-7.965l1.139-5.143c.091-.484.2-.967.318-1.445s.219-.967.294-1.451a8.592,8.592,0,0,0,.067-.888q.018-.441.018-.918c0-.4-.006-.808-.018-1.206s-.012-.8-.012-1.182a1.913,1.913,0,0,1,.6-1.408,1.912,1.912,0,0,1,1.4-.594,1.912,1.912,0,0,1,1.414.582,1.941,1.941,0,0,1,.588,1.42Zm4,0V130.086a1.913,1.913,0,0,1,.582-1.42,1.927,1.927,0,0,1,1.42-.582,1.871,1.871,0,0,1,1.359.514,2.062,2.062,0,0,1,.612,1.316,10.748,10.748,0,0,1,.086,1.335c0,.373-.011.741-.03,1.1s-.025.716-.025,1.071a5.726,5.726,0,0,0,.037.649c.03.214.06.422.1.631l5.235,23.546a6,6,0,0,0,1.108,2.406,6.01,6.01,0,0,0,2.057,1.678l1.7.906a14.972,14.972,0,0,0,1.752.79l-10.984,11.014Zm25.965,11.987h-13.983l-5.59-5.565,11.485-11.479,8.088,4.059Z" transform="translate(2061.176 -124.08)"/><path class="b" d="M-1989.7,166.563l-10.984,11.014-5-5.008V132.621a1.915,1.915,0,0,1,.582-1.42,1.927,1.927,0,0,1,1.42-.582,1.871,1.871,0,0,1,1.359.514,2.064,2.064,0,0,1,.612,1.316,10.8,10.8,0,0,1,.086,1.335c0,.373-.012.741-.03,1.1s-.025.716-.025,1.071a5.812,5.812,0,0,0,.037.649c.03.214.061.422.1.631l5.235,23.546a6,6,0,0,0,1.108,2.406,6.011,6.011,0,0,0,2.057,1.677l1.7.906A15,15,0,0,0-1989.7,166.563Z" transform="translate(2039.659 -126.615)"/><path class="b" d="M-2022.35,132.622V172.57l-5.008,5.008-10.977-11.008c.588-.263,1.175-.539,1.75-.82s1.139-.582,1.7-.875a6.161,6.161,0,0,0,2.058-1.684,6.046,6.046,0,0,0,1.107-2.406q.918-4,1.794-7.965t1.769-7.965l1.14-5.143c.091-.484.2-.967.318-1.445s.22-.967.294-1.451a8.558,8.558,0,0,0,.067-.888q.018-.441.019-.918c0-.4-.006-.808-.019-1.206s-.011-.8-.011-1.182a1.913,1.913,0,0,1,.6-1.408,1.912,1.912,0,0,1,1.4-.594,1.912,1.912,0,0,1,1.414.582A1.942,1.942,0,0,1-2022.35,132.622Z" transform="translate(2052.319 -126.616)"/><path class="c" d="M-1976.553,194.338v12.985h-13.983l-6.979-6.979,10.983-11.014Z" transform="translate(2036.49 -149.382)"/><path class="c" d="M-2033.679,200.348l-6.973,6.973h-13.983V194.342l9.979-5Z" transform="translate(2058.64 -149.386)"/></g><path class="a" d="M-2005.929,169.663l-1.808-9.706a3.24,3.24,0,0,0-3.223-3.157,3.222,3.222,0,0,0-3.126,2.473,3.223,3.223,0,0,0-3.126-2.473,3.224,3.224,0,0,0-3.219,3.112l-1.738,9.757a.913.913,0,0,0,.151.686.909.909,0,0,0,.591.379.919.919,0,0,0,.162.014.916.916,0,0,0,.9-.757l1.75-9.834.011-.135a1.389,1.389,0,0,1,1.387-1.386,1.388,1.388,0,0,1,1.386,1.386v6.16a.919.919,0,0,0,.918.918.917.917,0,0,0,.822-.515.915.915,0,0,0,.821.515.92.92,0,0,0,.918-.918v-6.16a1.388,1.388,0,0,1,1.387-1.386,1.409,1.409,0,0,1,1.392,1.442l1.834,9.919a.917.917,0,0,0,.9.751.917.917,0,0,0,.168-.015.913.913,0,0,0,.589-.383A.913.913,0,0,0-2005.929,169.663Z" transform="translate(-15.121 -12.688)"/></g></svg>