<?xml version="1.0" encoding="utf-8"?>
<!-- Generator: Adobe Illustrator 25.0.0, SVG Export Plug-In . SVG Version: 6.00 Build 0)  -->
<svg version="1.1" id="Layer_1" xmlns="http://www.w3.org/2000/svg" xmlns:xlink="http://www.w3.org/1999/xlink" x="0px" y="0px"
	 viewBox="0 0 500 300" style="enable-background:new 0 0 500 300;" xml:space="preserve">
<style type="text/css">
	.st0{stroke:#FFFFFF;stroke-width:1.25;stroke-miterlimit:10;}
	.st1{stroke:#FFFFFF;stroke-width:1.4;stroke-miterlimit:10;}
	.st2{stroke:#FFFFFF;stroke-width:0.5;stroke-miterlimit:10;}
	.st3{stroke:#FFFFFF;stroke-width:0.3;stroke-miterlimit:10;}
	.st4{stroke:#FFFFFF;stroke-width:2;stroke-miterlimit:10;}
	.st5{stroke:#FFFFFF;stroke-miterlimit:10;}
</style>
<g>
	<path class="st0" d="M187,258.3c0-3.8-3-6.9-6.9-6.9h-56.5v-28.1c0-2.8,2.3-5,5-5h4.6c0.8,0,1.5,0.4,2,1l2.1,2.4
		c-0.1,0.6-0.2,1.2-0.2,1.9v2.8c-0.9,0.3-1.4,1-1.4,2c0,1.1,1,2.1,2.1,2.1h17.4c1.1,0,2.1-1,2.1-2.1c0-1-0.6-1.7-1.4-2v-2.8
		c0-5.1-4.2-9.4-9.4-9.4c-2.9,0-5.5,1.3-7.2,3.4l-1-1c-1.3-1.5-3.2-2.3-5.1-2.3h-4.6c-5,0-9.2,4.1-9.2,9.2v28.3c0,0.1,0,0.2,0,0.3
		c-2.5,1-4.3,3.5-4.3,6.4c0,2.9,1.7,5.3,4.2,6.4v3.8c0,7.5,6.1,13.6,13.6,13.6h1.2v1.7c0,1.1,1,2.1,2.1,2.1s2.1-1,2.1-2.1v-1.7h25.2
		v1.7c0,1.1,1,2.1,2.1,2.1s2.1-1,2.1-2.1v-1.7h1.2c7.5,0,13.6-6.1,13.6-13.6v-3.8C185.3,263.6,187,261.1,187,258.3L187,258.3z
		 M146.7,218.4c2.9,0,5.2,2.3,5.2,5.2v2.7h-10.5v-2.7C141.5,220.7,143.8,218.4,146.7,218.4z M169.1,277.8h-36
		c-5.2,0-9.4-4.2-9.4-9.4v-3.2h54.9v3.2C178.6,273.6,174.3,277.8,169.1,277.8L169.1,277.8z M180.1,261h-58c-1.4,0-2.7-1.2-2.7-2.7
		c0-1.4,1.2-2.7,2.7-2.7h58c1.4,0,2.7,1.2,2.7,2.7C182.8,259.7,181.6,261,180.1,261z"/>
	<path class="st0" d="M156.8,244.7c-0.2-0.9-0.9-1.5-1.7-1.7c-0.9-0.1-1.7,0.3-2.2,1c-0.4,0.8-0.3,1.7,0.3,2.4
		c0.6,0.7,1.5,0.9,2.4,0.6C156.5,246.7,157.1,245.7,156.8,244.7L156.8,244.7z"/>
	<path class="st0" d="M148.4,244.7c-0.2-0.9-0.9-1.5-1.7-1.7c-0.9-0.1-1.7,0.3-2.2,1c-0.4,0.8-0.3,1.7,0.3,2.4
		c0.6,0.7,1.5,0.9,2.4,0.6C148.1,246.7,148.6,245.7,148.4,244.7z"/>
	<path class="st0" d="M140.1,244.7c-0.2-0.9-0.9-1.5-1.7-1.7c-0.9-0.1-1.7,0.3-2.2,1c-0.4,0.8-0.3,1.7,0.3,2.4
		c0.6,0.7,1.5,0.9,2.4,0.6C139.7,246.7,140.2,245.7,140.1,244.7z"/>
	<path class="st0" d="M156.9,236.5c-0.1-0.9-0.8-1.6-1.6-1.8c-0.9-0.2-1.8,0.1-2.3,0.9c-0.5,0.8-0.5,1.7,0.1,2.4
		c0.6,0.7,1.4,1,2.3,0.8C156.3,238.5,157,237.5,156.9,236.5z"/>
	<path class="st0" d="M148.4,236.5c-0.1-0.9-0.8-1.6-1.6-1.8c-0.9-0.2-1.8,0.1-2.3,0.9c-0.5,0.8-0.5,1.7,0.1,2.4
		c0.5,0.7,1.4,1,2.3,0.8C148,238.5,148.6,237.5,148.4,236.5L148.4,236.5z"/>
	<path class="st0" d="M140.1,236.5c-0.1-0.9-0.8-1.6-1.6-1.8s-1.8,0.1-2.3,0.9c-0.5,0.8-0.5,1.7,0.1,2.4c0.5,0.7,1.4,1,2.3,0.8
		C139.6,238.5,140.1,237.5,140.1,236.5L140.1,236.5z"/>
</g>
<g>
	<g>
		<path class="st1" d="M79.1,257.2v-4.3c0-3.5-2.9-6.5-6.5-6.5H46.9c-0.8,0-1.5,0.1-2.2,0.4v-22.6c2.5-0.9,4.3-3.2,4.3-6.1
			c0-3.5-2.9-6.5-6.5-6.5H25.4c-1.1,0-2.2,1-2.2,2.2c0,4,0,35.3,0,39.1c0,2.8,1.8,5.2,4.3,6.1v6.9c0,3.9,1.5,7.7,4.3,10.6v6.7
			c0,1.1,1,2.2,2.2,2.2c2.5,0,36.6,0,38.8,0c1.1,0,2.2-1,2.2-2.2c0-1.1-1-2.2-2.2-2.2h-6.5v-2.6C74.2,274.2,79.1,266.1,79.1,257.2z
			 M46.9,250.7h25.8c1.1,0,2.2,1,2.2,2.2v2.2H44.7v-2.2C44.7,251.7,45.7,250.7,46.9,250.7z M27.5,216h15.1c1.1,0,2.2,1,2.2,2.2
			s-1,2.2-2.2,2.2H27.5V216z M29.7,255.1c-1.1,0-2.2-1-2.2-2.2v-28.3h13c0,2.5,0,28.8,0,30.4L29.7,255.1L29.7,255.1z M63.2,275
			c-0.8,0.4-1.3,1.1-1.3,2v3.9H36.1v-5.4c0-0.6-0.3-1.2-0.8-1.6c-2.3-2-3.6-5-3.6-8v-6.5c5,0,42.6,0,43,0
			C74,266.1,69.6,272.1,63.2,275z"/>
	</g>
</g>
<path class="st2" d="M87.5,51.4c-2.4-1.2-5.5-1.8-9.2-1.8H38.1c-0.3-1.4-0.9-2.8-1.9-3.8l-5.7-6.4c-1.4-1.6-3.4-2.5-5.7-2.7l-1-0.1
	c-0.5,0-1.1,0-1.6,0.2v-3.4c0-1.2-0.5-2.2-1.3-3c0.8-1,1.3-2.2,1.3-3.5c0-3.1-2.5-5.5-5.5-5.5S11,23.9,11,27c0,1.3,0.5,2.6,1.3,3.5
	c-0.8,0.8-1.3,1.8-1.3,3v50c0,0.9,0.7,1.6,1.6,1.6H18c0.8,0,1.5-0.6,1.6-1.4c0.2-2,1.2-7.4,3.8-9.8h18l0,0H79
	c2.6,2.4,3.6,7.9,3.8,9.8c0.1,0.8,0.8,1.4,1.6,1.4h5.4c0.9,0,1.6-0.7,1.6-1.6V57.7C91.3,55,89.9,52.6,87.5,51.4z M22.6,40.2
	c0.6-0.5,1.2-0.3,1.9-0.3c1.5,0.1,2.7,0.7,3.6,1.7l5.7,6.4c0.9,1,1.4,2.5,1.3,4c0,0.6,0,1.1-0.5,1.6c-0.5,0.4-1,0.3-1.5,0.3
	c-1.6,0-3-0.6-3.9-1.7l-5.7-6.4c-0.9-1-1.3-2.4-1.3-3.8C22.2,41.3,22.1,40.6,22.6,40.2z M22.1,49l4.3,4.8h-4.3
	C22.1,53.8,22.1,49,22.1,49z M16.6,24.6c1.3,0,2.4,1.1,2.4,2.4s-1.1,2.4-2.4,2.4s-2.4-1.1-2.4-2.4C14.2,25.6,15.2,24.6,16.6,24.6z
	 M14.2,33.5c0-0.5,0.4-1,1-1H18c0.5,0,1,0.4,1,1v20.3h-4.8V33.5z M16.6,82h-2.5v-8.1h5.3C17.7,76.7,17,80.1,16.6,82z M79.5,70.7
	L79.5,70.7H43.8l0,0H14.2V56.9h20.9V61c0,2.4,2,4.4,4.4,4.4l0,0h47.4c0.4,0,0.8-0.1,1.2-0.2v5.5C88.1,70.7,79.5,70.7,79.5,70.7z
	 M88.2,82h-2.5c-0.3-1.9-1.1-5.3-2.8-8.1h5.3V82z M88.2,61L88.2,61c0,0.7-0.6,1.3-1.2,1.3H39.5l0,0c-0.7,0-1.2-0.6-1.2-1.2v-8.3
	h40.1c3.2,0,5.8,0.5,7.8,1.5c1.3,0.7,2.1,2,2.1,3.5L88.2,61L88.2,61z"/>
<path class="st2" d="M186.3,51.4c-2.4-1.2-5.5-1.8-9.2-1.8h-40.3c-0.3-1.4-0.9-2.8-1.9-3.8l-5.7-6.4c-1.4-1.6-3.4-2.5-5.7-2.7
	l-1-0.1c-0.5,0-1.1,0-1.6,0.2v-3.4c0-1.2-0.5-2.2-1.3-3c0.8-1,1.3-2.2,1.3-3.5c0-3.1-2.5-5.5-5.5-5.5c-3.1,0-5.5,2.5-5.5,5.5
	c0,1.3,0.5,2.6,1.3,3.5c-0.8,0.8-1.3,1.8-1.3,3v50c0,0.9,0.7,1.6,1.6,1.6h5.4c0.8,0,1.5-0.6,1.6-1.4c0.2-2,1.2-7.4,3.8-9.8h18l0,0
	h37.6c2.6,2.4,3.6,7.9,3.8,9.8c0.1,0.8,0.8,1.4,1.6,1.4h5.4c0.9,0,1.6-0.7,1.6-1.6V57.7C190.1,55,188.7,52.6,186.3,51.4z
	 M121.4,40.2c0.6-0.5,1.2-0.3,1.9-0.3c1.5,0.1,2.7,0.7,3.6,1.7l5.7,6.4c0.9,1,1.4,2.5,1.3,4c0,0.6,0,1.1-0.5,1.6
	c-0.5,0.4-1,0.3-1.5,0.3c-1.6,0-3-0.6-3.9-1.7l-5.7-6.4c-0.9-1-1.3-2.4-1.3-3.8C121,41.3,120.9,40.6,121.4,40.2z M121,49l4.3,4.8
	H121V49z M115.4,24.6c1.3,0,2.4,1.1,2.4,2.4s-1.1,2.4-2.4,2.4S113,28.3,113,27C113,25.6,114.1,24.6,115.4,24.6z M113,33.5
	c0-0.5,0.4-1,1-1h2.8c0.5,0,1,0.4,1,1v20.3H113V33.5z M115.5,82H113v-8.1h5.3C116.6,76.7,115.8,80.1,115.5,82z M178.4,70.7
	L178.4,70.7h-35.7l0,0h-29.6V56.9H134V61c0,2.4,2,4.4,4.4,4.4l0,0h47.4c0.4,0,0.8-0.1,1.2-0.2v5.5C187,70.7,178.4,70.7,178.4,70.7z
	 M187,82h-2.5c-0.3-1.9-1.1-5.3-2.8-8.1h5.3V82z M187,61L187,61c0,0.7-0.6,1.3-1.2,1.3h-47.4l0,0c-0.7,0-1.2-0.6-1.2-1.2v-8.3h40.1
	c3.2,0,5.8,0.5,7.8,1.5c1.3,0.7,2.1,2,2.1,3.5V61H187z"/>
<path class="st2" d="M286.8,51.4c-2.4-1.2-5.5-1.8-9.2-1.8h-40.3c-0.3-1.4-0.9-2.8-1.9-3.8l-5.7-6.4c-1.4-1.6-3.4-2.5-5.7-2.7
	l-1-0.1c-0.5,0-1.1,0-1.6,0.2v-3.4c0-1.2-0.5-2.2-1.3-3c0.8-1,1.3-2.2,1.3-3.5c0-3.1-2.5-5.5-5.5-5.5c-3.1,0-5.5,2.5-5.5,5.5
	c0,1.3,0.5,2.6,1.3,3.5c-0.8,0.8-1.3,1.8-1.3,3v50c0,0.9,0.7,1.6,1.6,1.6h5.4c0.8,0,1.5-0.6,1.6-1.4c0.2-2,1.2-7.4,3.8-9.8h18l0,0
	h37.6c2.6,2.4,3.6,7.9,3.8,9.8c0.1,0.8,0.8,1.4,1.6,1.4h5.4c0.9,0,1.6-0.7,1.6-1.6V57.7C290.6,55,289.2,52.6,286.8,51.4z
	 M221.9,40.2c0.6-0.5,1.2-0.3,1.9-0.3c1.5,0.1,2.7,0.7,3.6,1.7l5.7,6.4c0.9,1,1.4,2.5,1.3,4c0,0.6,0,1.1-0.5,1.6
	c-0.5,0.4-1,0.3-1.5,0.3c-1.6,0-3-0.6-3.9-1.7l-5.7-6.4c-0.9-1-1.3-2.4-1.3-3.8C221.5,41.3,221.4,40.6,221.9,40.2z M221.5,49
	l4.3,4.8h-4.3V49z M215.9,24.6c1.3,0,2.4,1.1,2.4,2.4s-1.1,2.4-2.4,2.4c-1.3,0-2.4-1.1-2.4-2.4C213.5,25.6,214.6,24.6,215.9,24.6z
	 M213.5,33.5c0-0.5,0.4-1,1-1h2.8c0.5,0,1,0.4,1,1v20.3h-4.8V33.5z M216,82h-2.5v-8.1h5.3C217.1,76.7,216.3,80.1,216,82z
	 M278.9,70.7L278.9,70.7h-35.7l0,0h-29.6V56.9h20.9V61c0,2.4,2,4.4,4.4,4.4l0,0h47.4c0.4,0,0.8-0.1,1.2-0.2v5.5
	C287.5,70.7,278.9,70.7,278.9,70.7z M287.5,82H285c-0.3-1.9-1.1-5.3-2.8-8.1h5.3V82z M287.5,61L287.5,61c0,0.7-0.6,1.3-1.2,1.3
	h-47.4l0,0c-0.7,0-1.2-0.6-1.2-1.2v-8.3h40.1c3.2,0,5.8,0.5,7.8,1.5c1.3,0.7,2.1,2,2.1,3.5V61H287.5z"/>
<path class="st2" d="M387.7,51.4c-2.4-1.2-5.5-1.8-9.2-1.8h-40.3c-0.3-1.4-0.9-2.8-1.9-3.8l-5.7-6.4c-1.4-1.6-3.4-2.5-5.7-2.7
	l-1-0.1c-0.5,0-1.1,0-1.6,0.2v-3.4c0-1.2-0.5-2.2-1.3-3c0.8-1,1.3-2.2,1.3-3.5c0-3.1-2.5-5.5-5.5-5.5s-5.5,2.5-5.5,5.5
	c0,1.3,0.5,2.6,1.3,3.5c-0.8,0.8-1.3,1.8-1.3,3v50c0,0.9,0.7,1.6,1.6,1.6h5.4c0.8,0,1.5-0.6,1.6-1.4c0.2-2,1.2-7.4,3.8-9.8h18l0,0
	h37.6c2.6,2.4,3.6,7.9,3.8,9.8c0.1,0.8,0.8,1.4,1.6,1.4h5.4c0.9,0,1.6-0.7,1.6-1.6V57.7C391.5,55,390,52.6,387.7,51.4z M322.8,40.2
	c0.6-0.5,1.2-0.3,1.9-0.3c1.5,0.1,2.7,0.7,3.6,1.7L334,48c0.9,1,1.4,2.5,1.3,4c0,0.6,0,1.1-0.5,1.6c-0.5,0.4-1,0.3-1.5,0.3
	c-1.6,0-3-0.6-3.9-1.7l-5.7-6.4c-0.9-1-1.3-2.4-1.3-3.8C322.3,41.3,322.2,40.6,322.8,40.2z M322.3,49l4.3,4.8h-4.3V49z M316.7,24.6
	c1.3,0,2.4,1.1,2.4,2.4s-1.1,2.4-2.4,2.4s-2.4-1.1-2.4-2.4C314.3,25.6,315.4,24.6,316.7,24.6z M314.3,33.5c0-0.5,0.4-1,1-1h2.8
	c0.5,0,1,0.4,1,1v20.3h-4.8V33.5z M316.8,82h-2.5v-8.1h5.3C317.9,76.7,317.1,80.1,316.8,82z M379.7,70.7L379.7,70.7H344l0,0h-29.6
	V56.9h20.9V61c0,2.4,2,4.4,4.4,4.4l0,0h47.4c0.4,0,0.8-0.1,1.2-0.2v5.5C388.3,70.7,379.7,70.7,379.7,70.7z M388.3,82h-2.5
	c-0.3-1.9-1.1-5.3-2.8-8.1h5.3V82z M388.3,61L388.3,61c0,0.7-0.6,1.3-1.2,1.3h-47.4l0,0c-0.7,0-1.2-0.6-1.2-1.2v-8.3h40.1
	c3.2,0,5.8,0.5,7.8,1.5c1.3,0.7,2.1,2,2.1,3.5V61H388.3z"/>
<g>
	<path class="st0" d="M179.9,161.7l0.1-5.7l0,0c0-8.7-4.3-16.8-11.6-22c2.2-5.3,4.6-10.6,7.1-15.8c0.3-0.6,0.3-1.3,0-1.9
		s-0.9-1-1.6-1.2c-15.1-2.7-30.4-2.7-45.5,0c-0.7,0.1-1.2,0.6-1.6,1.2c-0.3,0.6-0.3,1.3,0,1.9c2.6,5.2,5,10.5,7.2,15.8
		c-7.3,5.2-11.6,13.2-11.6,21.9v5.7c-4.7,1-8.2,5.2-8.2,10.2c0,5.7,4.7,10.4,10.4,10.4h14.8c3.1,3.1,7.2,4.9,11.7,4.9h0.1h0.1
		c4.4,0,8.6-1.8,11.7-4.9h14.8c5.7,0,10.4-4.7,10.4-10.4C188.1,166.9,184.5,162.7,179.9,161.7L179.9,161.7z M170.3,118.9
		c-2.6,5.5-5.1,11-7.3,16.7c-4-0.5-8.1-0.7-12.1-0.7c-3.9,0-7.8,0.2-11.6,0.6c-0.2-0.5-4.9-11.6-7.3-16.6
		C144.7,116.9,157.6,116.9,170.3,118.9z M151.2,182.8L151.2,182.8c-0.1,0-0.2,0-0.2,0c-4.1,0-8-2.1-10.3-5.7l-0.8-1.2
		c-1.5-2.3-2.3-4.9-2.4-7.5c0-0.4,0-5.2,0-8.3v-2.9c0-3.7,3.4-7.8,10.8-8.6c0,0.1,0,0.3,0,0.4c0,6.5,5.3,11.8,11.8,11.8
		c1.6,0,3.1-0.3,4.5-0.9v0.2c0,3.2,0,7.9,0,8.3c-0.1,2.6-0.9,5.2-2.4,7.5l-0.8,1.2C159.2,180.6,155.4,182.8,151.2,182.8L151.2,182.8
		z M177.7,177.9h-11.6c1.8-2.9,2.8-6.1,2.9-9.4c0-0.1,0-0.2,0-8.5v-2.9c0-0.5,0-1-0.1-1.5c-0.1-0.8-0.7-1.5-1.4-1.8
		c-0.8-0.3-1.6-0.1-2.2,0.5c-1.4,1.3-3.2,2.1-5.1,2.1c-4.1,0-7.4-3.3-7.4-7.4c0-0.7,0.1-1.4,0.3-2.1c0.2-0.7,0.1-1.4-0.3-1.9
		c-0.4-0.5-1.1-0.9-1.7-0.9l0,0c-4.5,0-8.7,1.1-11.8,3.1c-3.8,2.4-5.9,5.9-5.9,10v2.9c0,8.3,0,8.4,0,8.5c0.1,3.3,1.1,6.5,2.9,9.4
		h-11.6c-3.3,0-6-2.7-6-6s2.7-6,6-6c0.6,0,1.1-0.2,1.5-0.6c0.4-0.4,0.6-1,0.6-1.5v-7.6c0-6.9,3.3-13.4,8.9-17.8
		c0.1,0.1,0.1,0.3,0.2,0.4c0.4,0.9,1.3,1.5,2.3,1.4c8.6-1.1,17.4-1.1,26,0.1c0.1,0,0.2,0,0.3,0c0.9,0,1.7-0.5,2-1.4
		c0.1-0.2,0.1-0.4,0.2-0.5c5.6,4.4,8.9,10.9,9,17.8l-0.1,7.6c0,0.6,0.2,1.1,0.6,1.6s1,0.6,1.5,0.6c3.3,0,6,2.7,6,6
		C183.7,175.2,181,177.9,177.7,177.9L177.7,177.9z"/>
	<path class="st0" d="M156.1,171.5c-0.9-0.7-2.3-0.6-3.1,0.3c-0.5,0.6-1.2,0.9-1.9,0.9c-0.8,0-1.5-0.3-1.9-0.9
		c-0.7-0.9-2.1-1.1-3.1-0.3c-0.9,0.7-1.1,2.1-0.3,3.1c1.3,1.6,3.2,2.6,5.3,2.6s4-0.9,5.3-2.6C157.2,173.6,157,172.3,156.1,171.5z"/>
	<path class="st0" d="M148.2,128.6h0.7v0.7c0,1.2,1,2.2,2.2,2.2s2.2-1,2.2-2.2v-0.7h0.7c1.2,0,2.2-1,2.2-2.2s-1-2.2-2.2-2.2h-0.7
		v-0.7c0-1.2-1-2.2-2.2-2.2s-2.2,1-2.2,2.2v0.7h-0.7c-1.2,0-2.2,1-2.2,2.2S147,128.6,148.2,128.6z"/>
</g>
<g>
	<g id="_x30_28---Hospital-Bed">
		<path id="Shape" class="st3" d="M486.3,45.6c-2.4,0-4.4,2-4.4,4.4v4.4H443c0.3-0.7,0.5-1.4,0.5-2.2c0-2.8-2.3-5.2-5.2-5.2H428
			c-2.8,0-5.2,2.3-5.2,5.2c0,0.8,0.2,1.5,0.5,2.2H420V38.3c0-2.4-2-4.4-4.4-4.4s-4.4,2-4.4,4.4v41.2c0,2.1,1.5,4,3.7,4.4
			c2.1,0.4,4.2-0.9,4.9-2.9h62.4c0.7,2,2.8,3.2,4.9,2.9c2.1-0.4,3.7-2.2,3.7-4.4V50C490.7,47.6,488.7,45.6,486.3,45.6L486.3,45.6z
			 M481.8,70.7h-42.7c-0.8,0-1.5-0.7-1.5-1.5V57.4h44.2V70.7z M425.9,52.3c0-1.2,1-2.2,2.2-2.2h10.3c1.2,0,2.2,1,2.2,2.2
			s-1,2.2-2.2,2.2h-10.3C426.9,54.5,425.9,53.5,425.9,52.3z M415.6,81c-0.8,0-1.5-0.7-1.5-1.5V38.3c0-0.8,0.7-1.5,1.5-1.5
			s1.5,0.7,1.5,1.5v41.2C417.1,80.3,416.4,81,415.6,81z M420,57.4h14.7v11.8c0,2.4,2,4.4,4.4,4.4h42.7V78H420V57.4z M487.7,79.5
			c0,0.8-0.7,1.5-1.5,1.5s-1.5-0.7-1.5-1.5V50c0-0.8,0.7-1.5,1.5-1.5s1.5,0.7,1.5,1.5V79.5z"/>
	</g>
	<path d="M446.7,40.9c1.3,0.4,2.6,0.6,3.9,0.6c2.1,0,4.3-0.5,6.2-1.6c6.4-3.4,8.9-11.5,5.5-17.9c-1.7-3.1-4.4-5.4-7.8-6.4
		s-7-0.7-10.1,1l0,0c-6.4,3.4-8.9,11.5-5.5,17.9C440.5,37.5,443.3,39.8,446.7,40.9L446.7,40.9z M445.3,18.3L445.3,18.3
		c2.6-1.4,5.7-1.7,8.5-0.8c2.9,0.9,5.2,2.8,6.6,5.5c2.9,5.5,0.8,12.2-4.6,15.1c-2.6,1.4-5.7,1.7-8.5,0.8c-2.9-0.9-5.2-2.8-6.6-5.5
		C437.7,28,439.8,21.2,445.3,18.3L445.3,18.3z"/>
	<path d="M445.2,31.5h2.1v2.1c0,1.3,1,2.3,2.3,2.3h1.9c1.3,0,2.3-1.1,2.3-2.3v-2.1h2.1c1.3,0,2.3-1.1,2.3-2.3v-1.9
		c0-1.3-1.1-2.3-2.3-2.3h-2.1v-2.1c0-1.3-1.1-2.3-2.3-2.3h-1.9c-1.3,0-2.3,1.1-2.3,2.3V25h-2.1c-1.3,0-2.3,1.1-2.3,2.3v1.9
		C442.8,30.5,443.9,31.5,445.2,31.5L445.2,31.5z M444.8,27.2c0-0.2,0.1-0.3,0.3-0.3h3.1c0.6,0,1-0.5,1-1v-3.1c0-0.2,0.1-0.3,0.3-0.3
		h1.9c0.2,0,0.3,0.1,0.3,0.3v3.1c0,0.6,0.5,1,1,1h3.1c0.2,0,0.3,0.1,0.3,0.3v1.9c0,0.2-0.1,0.3-0.3,0.3h-3.1c-0.6,0-1,0.5-1,1v3.1
		c0,0.2-0.1,0.3-0.3,0.3h-1.9c-0.2,0-0.3-0.1-0.3-0.3v-3.1c0-0.6-0.5-1-1-1h-3.1c-0.2,0-0.3-0.1-0.3-0.3V27.2z"/>
</g>
<g>
	<g>
		<path class="st4" d="M289.2,129.6c-1.5-2-3.8-3.2-6.3-3.2l0,0h-19.5c-1.2-6-6.5-10.5-12.9-10.5s-11.7,4.5-12.9,10.5h-19.5l0,0
			c-2.5,0-4.8,1.2-6.3,3.2c-1.7,2.3-1.6,4.4-1.6,6v14.5c0,1.5,1.2,2.6,2.6,2.6c1.5,0,2.6-1.2,2.6-2.6v-7.9l21.9,15.9v18.4
			c0,1.5,1.2,2.6,2.6,2.6h21c1.5,0,2.6-1.2,2.6-2.6V158l21.9-15.9v7.9c0,1.5,1.2,2.6,2.6,2.6c1.5,0,2.6-1.2,2.6-2.6v-14.5
			C290.8,134,291,131.9,289.2,129.6z M250.5,121.2c4.3,0,7.9,3.5,7.9,7.9c0,4.3-3.5,7.9-7.9,7.9c-4.3,0-7.9-3.5-7.9-7.9
			S246.2,121.2,250.5,121.2z M237.6,131.7c1.2,6,6.5,10.5,12.9,10.5c6.3,0,11.7-4.5,12.9-10.5h9.7l-14.6,10.5h-15.8l-14.6-10.5
			H237.6z M284.5,136.4l-25,18.1c-0.7,0.5-1.1,1.3-1.1,2.1v17.1h-15.8v-17.1c0-0.8-0.4-1.6-1.1-2.1l-25-18.1
			c-1.1-0.9-1.4-2.5-0.5-3.7c0.8-1.1,2.4-1.5,3.7-0.5l20.5,14.7c0.4,0.3,1,0.5,1.5,0.5h17.5c0.6,0,1.1-0.2,1.5-0.5l20.5-14.7l0,0
			c1.1-0.9,2.8-0.7,3.7,0.5l0,0C285.9,133.9,285.7,135.5,284.5,136.4z"/>
	</g>
</g>
<g>
	<path class="st0" d="M479.8,143.7c-1.6,0-57.9-0.1-59.7-0.1c-3.5,0-6.3,2.8-6.3,6.3c0,5.1,3.6,9.4,8.5,10.5v15.4
		c0,5.9,4.8,10.6,10.6,10.6l34.2,0.1c5.9,0,10.6-4.8,10.6-10.6v-15.4c4.9-0.9,8.5-5.2,8.5-10.4C486.2,146.6,483.3,143.7,479.8,143.7
		L479.8,143.7z M418,149.9c0-1.2,0.9-2.1,2.1-2.1h2.1v8.1C419.7,155.1,417.9,152.7,418,149.9L418,149.9z M473.3,175.8
		c0,3.5-2.9,6.3-6.3,6.3l-34.2-0.1c-3.5,0-6.3-2.9-6.3-6.3l0.1-27.9l46.9,0.1L473.3,175.8z M477.6,156.1V148h2.1
		c1.2,0,2.1,0.9,2.1,2.1C481.9,152.8,480.1,155.2,477.6,156.1z"/>
	<path class="st0" d="M422.6,138.1c0.5,1,1.8,1.5,2.8,1l46.3-21.2c1-0.5,1.5-1.8,1-2.8c-0.5-1-1.8-1.5-2.8-1l-15.4,7l0,0
		c-2-4.3-7-6.2-11.3-4.2c-4.3,2-6.2,7-4.2,11.3l0,0l-15.5,7.1C422.6,135.8,422.1,137,422.6,138.1L422.6,138.1z M442.9,126.5
		c-0.9-2.1,0-4.7,2.1-5.6c2.1-0.9,4.7,0,5.6,2.1l0,0L442.9,126.5L442.9,126.5z"/>
	<path class="st0" d="M472.6,125.3c0-1.2-0.9-2.1-2.1-2.1c-0.4,0-3.9,0.1-6,2.1c-2.1,2.1-2.1,5.6-2.1,6c0,0.7-0.3,2.4-0.8,3
		c-0.6,0.6-2.1,0.8-3,0.8c-1.2,0-2.1,0.9-2.1,2.1c0,1.2,0.9,2.1,2.1,2.1c0.4,0,3.9-0.1,6-2.1c2.1-2.1,2.1-5.6,2.1-6
		c0-0.8,0.3-2.4,0.8-3c0.6-0.6,2.1-0.8,3-0.8C471.6,127.4,472.6,126.5,472.6,125.3L472.6,125.3z"/>
	<path class="st0" d="M471.2,139.5c0.4,0,3.9-0.1,6-2.1s2.1-5.6,2.1-6c0-0.8,0.3-2.4,0.8-3c0.6-0.6,2.1-0.8,3-0.8
		c1.2,0,2.1-0.9,2.1-2.1c0-1.2-0.9-2.1-2.1-2.1c-0.4,0-3.9,0.1-6,2.1c-2.1,2.1-2.1,5.6-2.1,6c0,0.7-0.3,2.4-0.8,3
		c-0.6,0.6-2.1,0.8-3,0.8c-1.2,0-2.1,0.9-2.1,2.1C469,138.5,470,139.5,471.2,139.5L471.2,139.5z"/>
</g>
<g>
	<path class="st0" d="M277.4,213.5H225c-3.4,0-6.2,2.8-6.2,6.2v59.4c0,3.4,2.8,6.2,6.2,6.2h52.4c3.4,0,6.2-2.8,6.2-6.2v-59.4
		C283.6,216.3,280.8,213.5,277.4,213.5z M222.9,219.8c0-1.1,0.9-2.1,2.1-2.1h52.4c1.1,0,2.1,0.9,2.1,2.1v8.3h-56.5L222.9,219.8
		L222.9,219.8z M279.5,279.1c0,1.1-0.9,2.1-2.1,2.1H225c-1.1,0-2.1-0.9-2.1-2.1v-46.9h56.5V279.1z"/>
	<path class="st0" d="M264.9,220.9h-4.1c-1.1,0-2.1,0.9-2.1,2.1c0,1.1,0.9,2.1,2.1,2.1h4.1c1.1,0,2.1-0.9,2.1-2.1
		C267,221.7,266.1,220.9,264.9,220.9z"/>
	<path class="st0" d="M276,220.9h-4.1c-1.1,0-2.1,0.9-2.1,2.1c0,1.1,0.9,2.1,2.1,2.1h4.1c1.1,0,2.1-0.9,2.1-2.1
		C278.1,221.7,277.1,220.9,276,220.9z"/>
	<path class="st0" d="M231.2,256.6c0,11,9,20,20,20s20-9,20-20c0-0.6,0-1-0.1-1.6l0,0c-0.8-10.2-9.5-18.4-19.9-18.4
		c-10.5,0-19.2,8.1-19.9,18.4l0,0C231.2,255.6,231.2,256.2,231.2,256.6z M251.2,272.5c-8.4,0-15.3-6.6-15.9-14.8
		c0.5,0.2,0.8,0.5,1.3,0.7c1.2,0.8,2.7,1.7,5.5,1.7s4.3-0.9,5.5-1.7c1-0.7,1.8-1,3.4-1c1.6,0,2.3,0.5,3.4,1c1.2,0.8,2.7,1.7,5.5,1.7
		c2.8,0,4.3-0.9,5.5-1.7c0.5-0.3,0.8-0.6,1.3-0.8C266.4,266,259.6,272.5,251.2,272.5z M251.2,240.8c7.7,0,14.1,5.4,15.5,12.7
		c-1.4,0.4-2.3,0.9-3.2,1.4c-1,0.7-1.8,1-3.4,1c-1.7,0-2.3-0.5-3.4-1c-1.2-0.8-2.7-1.7-5.5-1.7s-4.3,0.9-5.5,1.7c-1,0.7-1.8,1-3.4,1
		c-1.7,0-2.3-0.5-3.4-1c-0.8-0.5-1.8-1.1-3.2-1.4C237.1,246.3,243.5,240.8,251.2,240.8z"/>
</g>
<g>
	<g>
		<g>
			<path d="M87.8,144.4H31.2L25.1,131c0.3-0.5,0.6-1.1,0.6-1.7l0,0l13.1-7.6l-0.9,2.6c-0.2,0.5-0.1,1,0.2,1.4s0.7,0.6,1.2,0.6h12.1
				c0.5,0,0.9-0.2,1.2-0.6s0.4-0.9,0.2-1.4l-3-8.9c-0.1-2.4-2.1-4.3-4.5-4.3s-4.4,1.9-4.5,4.3l-0.7,2H40l-16,9.3
				c-0.4-0.2-0.9-0.4-1.5-0.4c-1.7,0-3,1.4-3,3c0,1.6,1.2,2.8,2.7,3l5.5,12.2h-9.8c-0.8,0-1.5,0.7-1.5,1.5v36.4
				c0,0.8,0.7,1.5,1.5,1.5s1.5-0.7,1.5-1.5v-22.7H59v22.7c0,0.8,0.7,1.5,1.5,1.5h27.3c0.8,0,1.5-0.7,1.5-1.5V146
				C89.3,145.1,88.6,144.4,87.8,144.4z M43.8,116.1c0.1-0.2,0.1-0.3,0.1-0.5c0-0.8,0.7-1.5,1.5-1.5s1.5,0.7,1.5,1.5
				c0,0.2,0,0.3,0.1,0.5l2.4,7.1h-7.9L43.8,116.1z M59,156.6H19.6v-9.1H59V156.6L59,156.6z M86.3,180.8H62v-9.1h24.2v9.1H86.3z
				 M86.3,168.7H62v-9.1h24.2v9.1H86.3z M86.3,156.6H62v-9.1h24.2v9.1H86.3z"/>
		</g>
	</g>
	<g>
		<g>
			<path d="M75.9,163.7h-2.6c-0.7,0-1.3,0.6-1.3,1.3s0.6,1.3,1.3,1.3h2.6c0.7,0,1.3-0.6,1.3-1.3C77.3,164.3,76.7,163.7,75.9,163.7z"
				/>
		</g>
	</g>
	<g>
		<g>
			<path d="M75.9,174.1h-2.6c-0.7,0-1.3,0.6-1.3,1.3s0.6,1.3,1.3,1.3h2.6c0.7,0,1.3-0.6,1.3-1.3C77.3,174.7,76.7,174.1,75.9,174.1z"
				/>
		</g>
	</g>
</g>
<path d="M59.5,35.9v1.8h-9.8v-1.8h4V23.6c0-0.2,0-0.4,0-0.6s0-0.4,0-0.6l-3.3,2.9l-1.2-1.5l4.9-4.2h1.8v16.3
	C55.9,35.9,59.5,35.9,59.5,35.9z"/>
<path d="M160,35.8v2h-12.1v-1.6l6.2-6c0.5-0.5,0.9-1,1.3-1.4c0.4-0.5,0.7-0.9,1-1.4s0.5-0.9,0.7-1.4s0.2-1,0.2-1.5s-0.1-1-0.3-1.4
	s-0.4-0.7-0.7-1s-0.7-0.5-1.1-0.6c-0.4-0.1-0.8-0.2-1.3-0.2s-0.9,0.1-1.3,0.2c-0.4,0.1-0.7,0.3-1,0.6c-0.3,0.2-0.5,0.5-0.8,0.8
	c-0.2,0.3-0.3,0.7-0.4,1.1c-0.1,0.3-0.1,0.6-0.1,0.9l-2.2-0.4c0.1-0.8,0.3-1.6,0.7-2.2c0.3-0.6,0.8-1.2,1.3-1.6s1.1-0.8,1.8-1
	s1.4-0.3,2.2-0.3s1.5,0.1,2.1,0.3s1.3,0.6,1.8,1s0.9,1,1.2,1.6s0.4,1.3,0.4,2.1c0,0.7-0.1,1.3-0.3,1.9s-0.5,1.1-0.8,1.7
	c-0.3,0.5-0.8,1-1.2,1.5c-0.5,0.5-0.9,1-1.4,1.5l-5.1,5c0.3-0.1,0.7-0.2,1-0.2c0.4,0,0.7-0.1,1-0.1L160,35.8L160,35.8z"/>
<path d="M246.7,24.5c0.1-0.8,0.3-1.6,0.7-2.2c0.3-0.6,0.8-1.2,1.3-1.6s1.1-0.8,1.8-1s1.4-0.3,2.2-0.3s1.5,0.1,2.2,0.3
	c0.6,0.2,1.2,0.6,1.7,1s0.8,0.9,1.1,1.5c0.3,0.6,0.4,1.2,0.4,1.9c0,0.6-0.1,1.1-0.2,1.6s-0.4,0.9-0.6,1.2c-0.3,0.3-0.6,0.6-1,0.9
	c-0.4,0.2-0.8,0.4-1.3,0.6c1.2,0.3,2.1,0.8,2.7,1.6c0.6,0.7,0.9,1.7,0.9,2.8c0,0.8-0.2,1.6-0.5,2.2s-0.8,1.2-1.3,1.7
	c-0.6,0.5-1.2,0.8-1.9,1.1s-1.5,0.4-2.4,0.4c-1,0-1.8-0.1-2.5-0.4c-0.7-0.2-1.3-0.6-1.7-1c-0.5-0.4-0.9-0.9-1.2-1.5
	s-0.6-1.2-0.8-1.9l2-0.8c0,0.3,0.2,0.6,0.4,1.1s0.5,1,0.9,1.3c0.3,0.4,0.7,0.7,1.2,0.9s1,0.3,1.7,0.3c0.6,0,1.2-0.1,1.7-0.3
	s0.9-0.5,1.2-0.8s0.6-0.7,0.7-1.1c0.1-0.4,0.2-0.8,0.2-1.2c0-0.5-0.1-0.9-0.2-1.4c-0.1-0.4-0.4-0.8-0.7-1.1
	c-0.3-0.3-0.8-0.5-1.4-0.7c-0.6-0.2-1.4-0.3-2.4-0.3v-1.6c0.8,0,1.5-0.1,2-0.3c0.5-0.2,1-0.4,1.3-0.7c0.3-0.3,0.6-0.6,0.7-1
	c0.1-0.4,0.2-0.8,0.2-1.3s-0.1-1-0.2-1.4c-0.2-0.4-0.4-0.7-0.7-1c-0.3-0.2-0.6-0.4-1-0.6c-0.4-0.1-0.8-0.2-1.3-0.2s-0.9,0.1-1.3,0.2
	c-0.4,0.1-0.7,0.3-1,0.6c-0.3,0.2-0.6,0.5-0.8,0.9c-0.2,0.3-0.3,0.7-0.4,1.1c-0.1,0.3-0.1,0.6-0.1,0.8L246.7,24.5z"/>
<path d="M360.5,31.2v1.7h-2.7v4.8h-2v-4.8h-9v-1.7l8.9-11.8h2.1v11.7L360.5,31.2L360.5,31.2z M355.8,31.2v-7.6c0-0.2,0-0.5,0-0.7
	c0-0.3,0-0.5,0.1-0.8l-6.7,9.1H355.8z"/>
<g>
	<g>
		<path class="st5" d="M380.8,160v-37.5c0-3.3-2.6-5.9-5.9-5.9h-43.1c-3.3,0-5.9,2.6-5.9,5.9v2.1h-2.1c-3.3,0-5.9,2.6-5.9,5.9
			c0,3.3,2.6,5.9,5.9,5.9h2.1v7.8h-2.1c-3.3,0-5.9,2.6-5.9,5.9s2.6,5.9,5.9,5.9h2.1v7.8h-2.1c-3.3,0-5.9,2.6-5.9,5.9
			c0,3.3,2.6,5.9,5.9,5.9h2.1v2c0,1.6,0.6,3.1,1.7,4.2c1.1,1.2,2.6,1.8,4.2,1.8H371c7.6,0,13.7-6.2,13.7-13.8
			C384.7,165.9,383.2,162.4,380.8,160z M323.9,132.4c-1.1,0-2-0.8-2-2s0.8-2,2-2h4c1.1,0,2,0.8,2,2c0,1.1-0.8,2-2,2H323.9z
			 M323.9,152c-1.1,0-2-0.8-2-2s0.8-2,2-2h4c1.1,0,2,0.8,2,2s-0.8,2-2,2H323.9z M327.9,171.5h-4c-1.1,0-2-0.8-2-2s0.8-2,2-2h4
			c1.1,0,2,0.8,2,2C329.8,170.6,329,171.5,327.9,171.5z M331.8,179.5c-1,0-2-0.9-2-2.1v-2.3c2.2-0.8,3.9-3,3.9-5.5s-1.7-4.8-3.9-5.5
			v-8.5c2.2-0.8,3.9-3,3.9-5.5s-1.7-4.8-3.9-5.5V136c2.2-0.8,3.9-3,3.9-5.5c0-2.5-1.7-4.8-3.9-5.5v-2.4c0-1.1,0.8-2,2-2h43.1
			c1.1,0,2,0.8,2,2v34.7c-1.8-0.8-3.7-1.3-5.9-1.3c-7.6,0-13.7,6.2-13.7,13.7c0,3.9,1.6,7.4,4.2,9.9L331.8,179.5L331.8,179.5z
			 M371,179.5c-5.4,0-9.8-4.5-9.8-9.9s4.4-9.8,9.8-9.8c5.4,0,9.8,4.4,9.8,9.8S376.4,179.5,371,179.5z"/>
	</g>
</g>
<g>
	<g>
		<path class="st5" d="M371,132.4h-11.8c-1.1,0-2,0.8-2,2c0,1.1,0.8,2,2,2H371c1.1,0,2-0.8,2-2C373,133.2,372.1,132.4,371,132.4z"/>
	</g>
</g>
<g>
	<g>
		<path class="st5" d="M371,148h-11.8c-1.1,0-2,0.8-2,2s0.8,2,2,2H371c1.1,0,2-0.8,2-2S372.1,148,371,148z"/>
	</g>
</g>
<g>
	<g>
		<path class="st5" d="M374.9,167.6h-2v-2c0-1.1-0.8-2-2-2c-1.1,0-2,0.8-2,2v3.9c0,1.1,0.8,2,2,2h3.9c1.1,0,2-0.8,2-2
			C376.9,168.5,376,167.6,374.9,167.6z"/>
	</g>
</g>
<g>
	<g>
		<path class="st5" d="M352.7,129.1c-0.7-0.7-2-0.7-2.8,0l-6.4,6.4l-3.1-3.1c-0.7-0.7-2-0.7-2.8,0c-0.8,0.7-0.7,2,0,2.8l4.5,4.5
			c0.4,0.4,0.8,0.6,1.4,0.6c0.5,0,1-0.2,1.4-0.6l7.8-7.8C353.4,131.1,353.4,129.8,352.7,129.1z"/>
	</g>
</g>
<g>
	<g>
		<path class="st5" d="M352.7,144.7c-0.7-0.7-2-0.7-2.8,0l-6.4,6.4l-3.1-3.1c-0.7-0.7-2-0.7-2.8,0c-0.8,0.7-0.7,2,0,2.8l4.5,4.5
			c0.4,0.4,0.8,0.6,1.4,0.6c0.5,0,1-0.2,1.4-0.6l7.8-7.8C353.4,146.7,353.4,145.4,352.7,144.7z"/>
	</g>
</g>
<g>
	<g>
		<path class="st5" d="M352.7,160.4c-0.7-0.7-2-0.7-2.8,0l-6.3,6.4l-3.1-3.1c-0.7-0.7-2-0.7-2.8,0c-0.8,0.7-0.7,2,0,2.8l4.5,4.5
			c0.4,0.4,0.8,0.6,1.4,0.6c0.5,0,1-0.2,1.4-0.6l7.8-7.8C353.4,162.3,353.4,161.1,352.7,160.4z"/>
	</g>
</g>
</svg>
