<?xml version="1.0" encoding="utf-8"?>
<!-- Generator: Adobe Illustrator 25.3.1, SVG Export Plug-In . SVG Version: 6.00 Build 0)  -->
<svg version="1.1" id="Capa_1" xmlns="http://www.w3.org/2000/svg" xmlns:xlink="http://www.w3.org/1999/xlink" x="0px" y="0px"
	 viewBox="0 0 200 100" style="enable-background:new 0 0 200 100;" xml:space="preserve">
<style type="text/css">
	.st0{stroke:#000000;stroke-miterlimit:10;}
	.st1{fill:#0DAC4A;stroke:#0DAC4A;stroke-miterlimit:10;}
</style>
<g>
	<g>
		<path class="st0" d="M87,11.8H13c-1.6,0-2.8,1.3-2.8,2.8v14.2c0,0.8,0.3,1.6,0.9,2.1l27.5,24.7v32.9c0,1.6,1.3,2.8,2.8,2.8
			c0.4,0,0.9-0.1,1.3-0.3l17.1-8.5c1-0.5,1.6-1.5,1.6-2.5V55.7L88.9,31c0.6-0.5,0.9-1.3,0.9-2.1V14.6C89.8,13.1,88.5,11.8,87,11.8z
			 M84.1,27.6L56.6,52.3c-0.6,0.5-0.9,1.3-0.9,2.1v23.8l-11.4,5.7V54.4c0-0.8-0.3-1.6-0.9-2.1L15.9,27.6V17.5h68.2V27.6z"/>
	</g>
</g>
<g>
	<g>
		<path class="st1" d="M187,11.8h-74c-1.6,0-2.8,1.3-2.8,2.8v14.2c0,0.8,0.3,1.6,0.9,2.1l27.5,24.7v32.9c0,1.6,1.3,2.8,2.8,2.8
			c0.4,0,0.9-0.1,1.3-0.3l17.1-8.5c1-0.5,1.6-1.5,1.6-2.5V55.7L188.9,31c0.6-0.5,0.9-1.3,0.9-2.1V14.6
			C189.8,13.1,188.5,11.8,187,11.8z M184.1,27.6l-27.5,24.7c-0.6,0.5-0.9,1.3-0.9,2.1v23.8l-11.4,5.7V54.4c0-0.8-0.3-1.6-0.9-2.1
			l-27.5-24.7V17.5h68.2V27.6z"/>
	</g>
</g>
</svg>
