<?xml version="1.0" encoding="utf-8"?>
<!-- Generator: Adobe Illustrator 25.4.1, SVG Export Plug-In . SVG Version: 6.00 Build 0)  -->
<svg version="1.1" id="Layer_1" xmlns="http://www.w3.org/2000/svg" xmlns:xlink="http://www.w3.org/1999/xlink" x="0px" y="0px"
	 viewBox="0 0 400 100" style="enable-background:new 0 0 400 100;" xml:space="preserve">
<style type="text/css">
	.st0{fill:#A1A1A9;}
	.st1{fill:#FFFFFF;}
</style>
<g>
	<path class="st0" d="M49.5,26.6c-13.9,0-25.1,8.9-25.1,19.8c0,7.2,4.8,13.4,11.9,16.9c-0.5,1.9-1.9,7.1-2.2,8.2
		c-0.4,1.3,0.5,1.3,1.1,1c0.5-0.3,6.9-4.7,9.7-6.6c1.5,0.2,3.1,0.4,4.7,0.4c13.9,0,25.1-8.9,25.1-19.8
		C74.6,35.5,63.4,26.6,49.5,26.6z M37.1,52c0,0.3-0.2,0.7-0.4,0.9c-0.2,0.3-0.6,0.4-0.9,0.4h-0.3c-0.3,0-0.7-0.2-0.9-0.4
		c-0.3-0.2-0.4-0.6-0.4-0.9v-8.8h-2.4c-0.7,0-1.2-0.6-1.2-1.2s0.6-1.2,1.2-1.2h7.4c0.8,0,1.3,0.5,1.3,1.2s-0.6,1.2-1.2,1.2H37
		L37.1,52L37.1,52z M49,53c-0.6,0.2-1.3-0.1-1.5-0.8l-0.6-1.8h-5l-0.7,1.8c-0.2,0.7-0.9,1-1.5,0.8c-0.7-0.2-1-0.9-0.8-1.5l3.6-9.7
		c0-0.1,0.1-0.1,0.1-0.2c0.2-0.7,1-1.2,1.8-1.2c0.9,0,1.5,0.5,1.7,1.1l3.6,10.1C50.1,52.2,49.7,52.8,49,53z M57,53h-5
		c-0.7,0-1.2-0.5-1.2-1.2c0-0.1,0-0.1,0-0.2c0,0,0-0.1,0-0.2v-9.7c0-0.8,0.6-1.3,1.3-1.3c0.8,0,1.3,0.6,1.3,1.3v9H57
		c0.6,0,1.2,0.5,1.2,1.1C58.2,52.5,57.7,53,57,53z M67.8,52.8c-0.6,0.4-1.3,0.3-1.7-0.3l-3.6-4.7l-0.8,0.8v3.1
		c0,0.8-0.6,1.3-1.3,1.3c-0.8,0-1.3-0.6-1.3-1.3v-10c0-0.8,0.6-1.3,1.3-1.3c0.8,0,1.3,0.6,1.3,1.3v3.5l4.2-4.2
		c0.5-0.5,1.2-0.5,1.7,0s0.5,1.2,0,1.7l-3.5,3.5l3.8,5C68.3,51.8,68.2,52.5,67.8,52.8z"/>
	<path class="st0" d="M44.5,43.5l-1.7,4.8h3.5L44.5,43.5L44.5,43.5z"/>
</g>
<g>
	<path class="st0" d="M163.9,46.5c-1.1,0-2,0.9-2,2s0.9,2,2,2s2-0.9,2-2S165,46.5,163.9,46.5z"/>
	<path class="st0" d="M134.1,46.5c-1.1,0-2,0.9-2,2s0.9,2,2,2s2-0.9,2-2S135.2,46.5,134.1,46.5z"/>
	<path class="st0" d="M151.9,46.5c-1.1,0-2,0.9-2,2s0.9,2,2,2s2-0.9,2-2S153,46.5,151.9,46.5z"/>
	<path class="st0" d="M166.3,29.6h-34.9c-4.4,0-8,3.6-8,8.1v19.2c0,4.5,3.6,8.1,8,8.1h12l4.1,6.7c0,0,0,0.1,0.1,0.2
		c0.2,0.4,0.7,0.7,1.2,0.7s0.9-0.3,1.2-0.7c0.1-0.1,0.1-0.2,0.1-0.2l4.1-6.7h12c4.4,0,8-3.6,8-8.1V37.7
		C174.4,33.2,170.8,29.6,166.3,29.6z M134.7,53.2c-1.9,0-2.6-1.3-2.6-1.3v1H129v-13h3.1v4.9c1.3-1.2,2.7-1.2,2.7-1.2
		c4.2,0,4.4,4.8,4.4,4.8C139.1,53.1,134.7,53.2,134.7,53.2z M144.6,44.5v8.4h-3v-7.7c0-2.7-1.4-2.6-1.4-2.6v-3
		C144.7,39.6,144.6,44.5,144.6,44.5z M157.2,48.5c0,4.7-5.3,4.7-5.3,4.7c-5.3,0-5.2-4.7-5.2-4.7c0-4.8,5.2-4.8,5.2-4.8
		C157.4,43.7,157.2,48.5,157.2,48.5z M168.8,52.8c0,4.9-4.6,4.9-4.6,4.9H163v-2.8h0.8c2.2,0,2-2.3,2-2.3v-0.7
		c-1,1.3-2.7,1.2-2.7,1.2c-4.3,0-4.3-4.6-4.3-4.6c0-5,4.4-4.8,4.4-4.8c1.7,0,2.6,1.2,2.6,1.2V44h3V52.8z"/>
</g>
<g id="XMLID_35_">
	<path id="XMLID_38_" class="st0" d="M260.2,28.4H236c-4.7,0-8.5,3.8-8.5,8.5v24.2c0,4.7,3.8,8.5,8.5,8.5h24.2
		c4.7,0,8.5-3.8,8.5-8.5V36.9C268.7,32.2,264.9,28.4,260.2,28.4z"/>
	<path id="XMLID_41_" class="st1" d="M248.1,37.4c-6.4,0-11.7,5.2-11.7,11.7c0,6.4,5.2,11.7,11.7,11.7c6.4,0,11.7-5.2,11.7-11.7
		C259.8,42.7,254.5,37.4,248.1,37.4z M248.1,56.7c-4.2,0-7.6-3.4-7.6-7.6s3.4-7.6,7.6-7.6c4.2,0,7.6,3.4,7.6,7.6
		S252.3,56.7,248.1,56.7z"/>
	<circle id="XMLID_42_" class="st1" cx="261" cy="35.8" r="2.9"/>
</g>
<path class="st0" d="M335.6,51.3h6.3l0,19.2h8.5l0-19.2h7.8l1-8.7h-8.8v-5.3c0-2.4,0.7-4,4.1-4l4.4,0v-7.7h-6.3
	c-6.3,0-10.6,3.8-10.6,10.9v6.1h-6.3L335.6,51.3z"/>
</svg>
