<?xml version="1.0" encoding="utf-8"?>
<!-- Generator: Adobe Illustrator 25.3.0, SVG Export Plug-In . SVG Version: 6.00 Build 0)  -->
<svg version="1.1" id="Layer_1" xmlns="http://www.w3.org/2000/svg" xmlns:xlink="http://www.w3.org/1999/xlink" x="0px" y="0px"
	 viewBox="0 0 300 100" style="enable-background:new 0 0 300 100;" xml:space="preserve">
<style type="text/css">
	.st0{fill:#00C300;}
	.st1{fill:#FAE300;}
	.st2{fill:#EAEAEF;}
	.st3{fill:#FFFFFF;}
	.st4{fill:#391B1B;}
	.st5{fill:#FAE100;}
	.st6{fill:#0055FF;}
</style>
<circle class="st0" cx="50" cy="49.6" r="37.9"/>
<circle class="st1" cx="150" cy="49.6" r="37.9"/>
<circle class="st2" cx="250" cy="49.6" r="37.9"/>
<polygon class="st3" points="55.6,51.1 44,34.5 34.4,34.5 34.4,65.5 44.4,65.5 44.4,48.9 56,65.5 65.6,65.5 65.6,34.5 55.6,34.5 "/>
<g>
	<path class="st4" d="M150,29.6c-13.1,0-23.7,8.4-23.7,18.7c0,6.8,4.5,12.6,11.2,15.9c-0.5,1.8-1.8,6.7-2.1,7.8
		c-0.4,1.3,0.5,1.3,1,0.9c0.5-0.3,6.5-4.4,9.1-6.2c1.4,0.2,2.9,0.4,4.4,0.4c13.1,0,23.7-8.4,23.7-18.7S163.1,29.6,150,29.6"/>
	<g>
		<path class="st1" d="M140.4,42.9h-7c-0.6,0-1.2,0.5-1.2,1.2c0,0.6,0.5,1.2,1.2,1.2h2.3v8.3c0,0.3,0.1,0.6,0.4,0.8
			c0.2,0.2,0.5,0.4,0.8,0.4h0.3c0.3,0,0.6-0.1,0.8-0.4c0.2-0.2,0.4-0.5,0.4-0.8v-8.3h2.2c0.6,0,1.2-0.5,1.2-1.2
			C141.7,43.4,141.2,42.9,140.4,42.9z"/>
		<path class="st1" d="M157.1,52.5h-3.3V44c0-0.7-0.5-1.3-1.3-1.3s-1.3,0.5-1.3,1.3v9.1c0,0.1,0,0.2,0,0.2c0,0.1,0,0.1,0,0.2
			c0,0.6,0.5,1.1,1.1,1.1h4.7c0.6,0,1.1-0.5,1.1-1.1C158.2,52.9,157.7,52.5,157.1,52.5z"/>
		<path class="st1" d="M167.4,52.8l-3.6-4.7l3.3-3.3c0.5-0.5,0.5-1.2,0-1.6s-1.2-0.5-1.6,0l-4,4v-3.3c0-0.7-0.5-1.3-1.3-1.3
			s-1.3,0.5-1.3,1.3v9.4c0,0.7,0.5,1.3,1.3,1.3c0.7,0,1.3-0.5,1.3-1.3v-2.9l0.7-0.7l3.4,4.4c0.4,0.5,1.1,0.6,1.6,0.3
			C167.7,54.1,167.8,53.4,167.4,52.8z"/>
		<path class="st1" d="M150.4,53.1l-3.4-9.5l0,0c-0.2-0.5-0.8-1-1.6-1c-0.8,0-1.5,0.5-1.7,1.2c0,0.1-0.1,0.1-0.1,0.2l-3.4,9.1
			c-0.2,0.6,0.1,1.3,0.7,1.4s1.3-0.1,1.4-0.7l0.6-1.7h4.7l0.5,1.7c0.2,0.6,0.9,0.9,1.4,0.7C150.3,54.4,150.6,53.7,150.4,53.1z
			 M143.7,50.1l1.6-4.5c0,0,0,0,0.1,0l1.6,4.5H143.7z"/>
	</g>
</g>
<g>
	<g>
		<path class="st5" d="M247.3,33.2L232,45.1v13.1v1.6c0,1.6,1.3,2.9,2.9,2.9h18.5V71l9.1-7.1l0,0V45.2L247.3,33.2z"/>
	</g>
	<path class="st6" d="M266.9,40l-12.2-9.6c-1.1-0.9-2.6-0.9-3.6,0l-3.8,2.9l15.2,12v18.6l4.4-3.4c0.7-0.6,1.1-1.4,1.1-2.4V42.3
		C268.1,41.4,267.6,40.5,266.9,40z"/>
	<path class="st6" d="M252.3,71.5v-7.6h-17.4c-2.3,0-4.1-1.8-4.1-4.1V44.5l19.4-15.1c1.5-1.1,3.6-1.1,5.1,0l12.8,10
		c0.8,0.6,1.1,1.5,1.1,2.4v16.4c0,0.9-0.3,1.9-1.1,2.7l-14.3,11.3C253.2,72.7,252.3,72.3,252.3,71.5z M233.2,45.7v14.1
		c0,1,0.8,1.8,1.8,1.8H255v6.1l11.9-9.3V41.5L254,31.2c-0.6-0.5-1.6-0.5-2.2,0l-3.8,2.9L233.2,45.7z"/>
</g>
</svg>
