<?xml version="1.0" encoding="utf-8"?>
<!-- Generator: Adobe Illustrator 25.2.1, SVG Export Plug-In . SVG Version: 6.00 Build 0)  -->
<svg version="1.1" id="Layer_1" xmlns="http://www.w3.org/2000/svg" xmlns:xlink="http://www.w3.org/1999/xlink" x="0px" y="0px"
	 viewBox="0 0 1400 100" style="enable-background:new 0 0 1400 100;" xml:space="preserve">
<style type="text/css">
	.st0{fill:#323242;}
	.st1{fill:#FFFFFF;}
	.st2{fill:#0055FF;}
	.st3{fill:#5B5B68;}
	.st4{fill:#FBEDE3;}
	.st5{fill:#B5B5B6;}
	.st6{fill:#FFE100;}
	.st7{fill:#E1D7C7;}
	.st8{fill:#FAE100;}
	.st9{fill:none;stroke:#0055FF;stroke-width:4.8098;stroke-linecap:round;stroke-linejoin:round;}
	.st10{fill:none;}
	.st11{fill:none;stroke:#0055FF;stroke-width:4.8098;}
</style>
<g id="그룹_337" transform="translate(-395.359 114.794)">
	<g id="패스_320">
		<path class="st0" d="M1125.4-52c-0.6,0-1.1-0.5-1.1-1.1v-22.7c0-0.6,0.5-1.1,1.1-1.1h9.5c2.3,0,4.1,1.8,4.1,4.1v2.2
			c0,0.6-0.5,1.1-1.1,1.1c-0.6,0-1.1-0.5-1.1-1.1v-2.2c0-1-0.8-1.9-1.9-1.9h-8.4v21.6C1126.5-52.5,1126-52,1125.4-52z"/>
	</g>
	<g id="선_27">
		<path class="st0" d="M1158.4-32.9c-0.6,0-1.1-0.5-1.1-1.1v-4.5c0-0.6,0.5-1.1,1.1-1.1c0.6,0,1.1,0.5,1.1,1.1v4.5
			C1159.5-33.4,1159-32.9,1158.4-32.9z"/>
	</g>
	<g id="선_28">
		<path class="st0" d="M1134.5-32.9c-0.6,0-1.1-0.5-1.1-1.1v-4.5c0-0.6,0.5-1.1,1.1-1.1c0.6,0,1.1,0.5,1.1,1.1v4.5
			C1135.6-33.4,1135.1-32.9,1134.5-32.9z"/>
	</g>
	<g id="그룹_336">
		<g id="패스_321">
			<path class="st1" d="M1150.8-57.5l-4.5,4.4h-22.5l3.8,10.8c0.8,2.3,3,3.8,5.4,3.8h26.7c2.4,0,4.6-1.5,5.4-3.8l5.3-15.2
				L1150.8-57.5z"/>
			<path class="st0" d="M1159.6-37.4C1159.6-37.4,1159.6-37.4,1159.6-37.4h-26.7c-2.9,0-5.5-1.8-6.4-4.5l-3.8-10.8
				c-0.1-0.3-0.1-0.7,0.1-1c0.2-0.3,0.5-0.5,0.9-0.5h22.1l4.2-4.1c0.2-0.2,0.5-0.3,0.8-0.3l19.6,0c0.4,0,0.7,0.2,0.9,0.5
				c0.2,0.3,0.3,0.7,0.1,1l-5.3,15.2C1165.1-39.2,1162.5-37.4,1159.6-37.4z M1125.3-52l3.3,9.3c0.6,1.8,2.4,3.1,4.3,3.1h26.7
				c0,0,0,0,0,0c1.9,0,3.7-1.2,4.3-3.1l4.8-13.7l-17.6,0l-4.2,4.1c-0.2,0.2-0.5,0.3-0.8,0.3H1125.3z"/>
		</g>
	</g>
	<g id="타원_22">
		<circle class="st2" cx="1134.8" cy="-66.5" r="1.5"/>
	</g>
	<g id="타원_23">
		<circle class="st2" cx="1131.6" cy="-61.2" r="1.5"/>
	</g>
	<g id="타원_24">
		<circle class="st2" cx="1137.8" cy="-61.2" r="1.5"/>
	</g>
	<g id="타원_25">
		<circle class="st2" cx="1144.1" cy="-61.2" r="1.5"/>
	</g>
	<g id="타원_26">
		<circle class="st2" cx="1140.9" cy="-66.5" r="1.5"/>
	</g>
</g>
<g id="그룹_342" transform="translate(-395.485 114.175)">
	<g id="타원_27">
		<circle class="st3" cx="1258.7" cy="-59.3" r="3.6"/>
		<path class="st0" d="M1258.7-55c-2.4,0-4.3-1.9-4.3-4.3c0-2.4,1.9-4.3,4.3-4.3c2.4,0,4.3,1.9,4.3,4.3C1262.9-57,1261-55,1258.7-55
			z M1258.7-62.3c-1.6,0-3,1.3-3,3c0,1.6,1.3,3,3,3c1.6,0,3-1.3,3-3C1261.6-61,1260.3-62.3,1258.7-62.3z"/>
	</g>
	<g id="그룹_340">
		<g id="그룹_339">
			<g id="사각형_304">
				<path class="st1" d="M1250-49.7h1.1c9.8,0,17.8,8,17.8,17.8v0h-36.7C1232.2-41.7,1240.2-49.7,1250-49.7z"/>
				<path class="st0" d="M1268.9-30.8h-36.7c-0.6,0-1.1-0.5-1.1-1.1c0-10.4,8.5-18.9,18.9-18.9l0,0h1.1c10.4,0,18.9,8.5,18.9,18.9
					C1270-31.3,1269.5-30.8,1268.9-30.8z M1233.3-33h34.4c-0.6-8.7-7.8-15.6-16.7-15.6h-1.1C1241.2-48.6,1233.9-41.7,1233.3-33z"/>
			</g>
			<g id="그룹_338">
				<g id="사각형_307">
					<path class="st4" d="M1250.4-75.6L1250.4-75.6c4.5,0,8.2,3.7,8.2,8.2c0,0,0,0,0,0l0,0v6.1c0,4.5-3.7,8.2-8.2,8.2c0,0,0,0,0,0
						l0,0c-4.5,0-8.2-3.7-8.2-8.2v0l0,0v-6.1C1242.2-71.9,1245.9-75.6,1250.4-75.6C1250.4-75.6,1250.4-75.6,1250.4-75.6L1250.4-75.6
						z"/>
					<path class="st0" d="M1250.4-51.9c-5.1,0-9.3-4.2-9.3-9.3v-6.1c0-2.5,1-4.8,2.7-6.6c1.8-1.8,4.1-2.7,6.6-2.7h0c0,0,0,0,0,0
						c2.5,0,4.8,1,6.6,2.7c1.8,1.8,2.7,4.1,2.7,6.6v6.1c0,2.5-1,4.8-2.7,6.6C1255.3-52.9,1252.9-51.9,1250.4-51.9z M1250.4-74.5
						c-1.9,0-3.7,0.7-5,2.1c-1.3,1.3-2.1,3.1-2.1,5v6.1c0,3.9,3.2,7.1,7.1,7.1c1.9,0,3.7-0.7,5-2.1c1.3-1.3,2.1-3.1,2.1-5v-6.1
						c0-1.9-0.7-3.7-2.1-5C1254.1-73.7,1252.3-74.5,1250.4-74.5C1250.4-74.5,1250.4-74.5,1250.4-74.5L1250.4-74.5L1250.4-74.5z"/>
				</g>
			</g>
		</g>
	</g>
	<g id="사각형_308">
		<path class="st3" d="M1249.5-77.1h2.3c4.7,0,8.5,3.8,8.5,8.5v2.3l0,0C1254.3-66.2,1249.5-71.1,1249.5-77.1L1249.5-77.1z"/>
		<path class="st0" d="M1260.3-65.6c-6.3,0-11.5-5.1-11.5-11.4c0-0.2,0-0.4,0.2-0.5l0,0c0.1-0.1,0.3-0.2,0.5-0.2h2.3
			c5.1,0,9.2,4.1,9.2,9.2v2.3C1261-65.9,1260.7-65.6,1260.3-65.6z M1250.2-76.4c0.3,5.1,4.4,9.2,9.5,9.5v-1.7c0-4.3-3.5-7.9-7.9-7.9
			H1250.2z"/>
	</g>
	<g id="사각형_309">
		<path class="st3" d="M1240.5-66.2L1240.5-66.2v-2.3c0-4.7,3.8-8.5,8.5-8.5h2.3C1251.4-71.1,1246.5-66.2,1240.5-66.2L1240.5-66.2z"
			/>
		<path class="st0" d="M1240.5-65.6c-0.1,0-0.2,0-0.3-0.1l0,0c-0.2-0.1-0.4-0.4-0.4-0.6v-2.3c0-5.1,4.1-9.2,9.2-9.2h2.3
			c0.4,0,0.7,0.3,0.7,0.7C1252-70.8,1246.9-65.6,1240.5-65.6C1240.6-65.6,1240.6-65.6,1240.5-65.6z M1249.1-76.4
			c-4.3,0-7.9,3.5-7.9,7.9v1.7c5.1-0.3,9.2-4.4,9.5-9.5H1249.1z"/>
	</g>
	<g id="선_29">
		<path class="st0" d="M1261-38.4h-6.2c-0.4,0-0.6-0.3-0.6-0.7c0-0.4,0.3-0.6,0.6-0.6h6.2c0.4,0,0.6,0.3,0.6,0.6
			C1261.6-38.7,1261.3-38.4,1261-38.4z"/>
	</g>
	<g id="그룹_341">
		<g id="사각형_310">
			<rect x="1222.1" y="-50.8" class="st1" width="15.5" height="19.1"/>
			<path class="st0" d="M1237.6-30.8h-15.5c-0.5,0-0.8-0.4-0.8-0.8v-19.1c0-0.5,0.4-0.8,0.8-0.8h15.5c0.5,0,0.8,0.4,0.8,0.8v19.1
				C1238.4-31.2,1238-30.8,1237.6-30.8z M1222.9-32.5h13.8v-17.4h-13.8V-32.5z"/>
		</g>
		<g id="패스_322">
			<path class="st1" d="M1231.4-51.5C1231.4-51.5,1231.4-51.6,1231.4-51.5c0-1-0.7-1.7-1.6-1.7c-0.9,0-1.6,0.7-1.6,1.6
				c0,0,0,0.1,0,0.1h-2.4v2.2h8v-2.2L1231.4-51.5z"/>
			<path class="st0" d="M1233.8-48.7h-8c-0.4,0-0.7-0.3-0.7-0.7v-2.2c0-0.4,0.3-0.6,0.7-0.6h1.8c0.2-0.9,1.1-1.7,2.1-1.7
				c1,0,1.9,0.7,2.1,1.7l1.8,0c0.2,0,0.3,0.1,0.5,0.2c0.1,0.1,0.2,0.3,0.2,0.5v2.2C1234.5-49,1234.2-48.7,1233.8-48.7z M1226.5-50
				h6.7v-0.9l-1.8,0c-0.2,0-0.3-0.1-0.5-0.2c-0.1-0.1-0.2-0.3-0.2-0.5c0,0,0-0.1,0-0.2c0-0.4-0.4-0.9-0.9-0.9s-0.9,0.4-0.9,0.9
				c0,0.2,0,0.4-0.1,0.5c-0.1,0.2-0.3,0.2-0.5,0.2h-1.8V-50z"/>
		</g>
		<g id="패스_323">
			<path class="st2" d="M1233.6-42.2h-2.5v-2.5h-2.5v2.5h-2.5v2.5h2.5v2.5h2.5v-2.5h2.5L1233.6-42.2z"/>
		</g>
	</g>
</g>
<g id="그룹_413" transform="translate(-395.485 114.637)">
	<g id="그룹_367">
		<g id="그룹_365">
			<g id="그룹_364">
				<g id="그룹_363">
					<g id="패스_336">
						<path class="st0" d="M1055-52.6h-8.8c-0.6,0-1.1-0.5-1.1-1.1V-61c0-3.9,3.2-7.1,7.1-7.1h9.9c3.9,0,7.1,3.2,7.1,7.1
							c0,0.6-0.5,1.1-1.1,1.1c-0.6,0-1.1-0.5-1.1-1.1c0-2.7-2.2-4.9-4.9-4.9h-9.9c-2.7,0-4.9,2.2-4.9,4.9v6.2h7.7
							c0.6,0,1.1,0.5,1.1,1.1C1056.1-53.1,1055.6-52.6,1055-52.6z"/>
					</g>
					<g id="패스_337">
						<path class="st0" d="M1065.1-27.7h-13.2c-0.6,0-1.1-0.5-1.1-1.1v-19.3c0-0.6,0.5-1.1,1.1-1.1s1.1,0.5,1.1,1.1v18.2h11v-22.4
							c0-0.6,0.5-1.1,1.1-1.1c0.6,0,1.1,0.5,1.1,1.1v23.5C1066.2-28.2,1065.7-27.7,1065.1-27.7z"/>
					</g>
					<g id="선_40">
						<path class="st0" d="M1058.5-28.2c-0.4,0-0.7-0.3-0.7-0.6v-13.9c0-0.4,0.3-0.6,0.7-0.6s0.7,0.3,0.7,0.6v13.9
							C1059.1-28.5,1058.8-28.2,1058.5-28.2z"/>
					</g>
					<g id="사각형_336">
						<path class="st0" d="M1037.7-27.7h-7.4c-0.6,0-1.1-0.5-1.1-1.1v-5.9c0-0.6,0.5-1.1,1.1-1.1h7.4c0.6,0,1.1,0.5,1.1,1.1v5.9
							C1038.8-28.2,1038.4-27.7,1037.7-27.7z M1031.5-29.9h5.1v-3.7h-5.1V-29.9z"/>
					</g>
					<g id="패스_338">
						<path class="st0" d="M1040.9-33.6h-13.8c-0.6,0-1.1-0.5-1.1-1.1v-19.5c0-4,1.6-7.7,4.4-10.6c2.8-2.8,6.6-4.4,10.6-4.4
							c0,0,0,0,0,0c0.6,0,1.1,0.5,1.1,1.1v13.3h8.9c0.5,0,1,0.4,1.1,0.8l1.5,6.1c0.1,0.3,0,0.7-0.2,0.9c-0.2,0.3-0.5,0.4-0.9,0.4
							H1042v11.7C1042-34.1,1041.5-33.6,1040.9-33.6z M1028.2-35.8h11.6v-10.6h-2.5c-2.6,0-4.7-2.1-4.7-4.7v-2.6
							c0-0.6,0.5-1.1,1.1-1.1s1.1,0.5,1.1,1.1v2.6c0,1.4,1.1,2.5,2.5,2.5h13.7l-0.9-3.9h-9.1c-0.6,0-1.1-0.5-1.1-1.1V-67
							c-3,0.3-5.8,1.5-7.9,3.7c-2.4,2.4-3.7,5.6-3.7,9V-35.8z"/>
					</g>
					<g id="패스_339">
						<path class="st1" d="M1060.9-60.8c0,0,1.1,6.9-8.5,7.7c0,0-2.6,0-2.6,2.3c0,1.5,1.1,2.8,2.6,2.9c1.6,0.3,15.8,0.1,15.8-13.1"
							/>
						<path class="st0" d="M1053.5-46.8c-0.5,0-1,0-1.3-0.1c-2-0.2-3.6-1.9-3.6-4c0-0.9,0.3-1.7,0.9-2.3c1.1-1.1,2.7-1.1,2.8-1.1
							c2.9-0.2,5.1-1.1,6.3-2.6c1.4-1.7,1.1-3.7,1.1-3.8c-0.1-0.6,0.3-1.2,0.9-1.2c0.6-0.1,1.2,0.3,1.3,0.9c0,0.1,0.4,3-1.6,5.4
							c-1.6,2-4.3,3.2-8,3.5c-0.5,0-1.6,0.1-1.6,1.2c0,0.9,0.7,1.7,1.6,1.8c0,0,0.1,0,0.1,0c0.7,0.1,6.6,0.2,10.7-3.1
							c2.5-2.1,3.8-5,3.8-8.8c0-0.6,0.5-1.1,1.1-1.1s1.1,0.5,1.1,1.1c0,4.5-1.5,8-4.6,10.5C1061-47.5,1056-46.8,1053.5-46.8z"/>
					</g>
				</g>
				<g id="선_41">
					<path class="st0" d="M1052.3-53c-0.4,0-0.7-0.3-0.7-0.6v-6.7c0-0.4,0.3-0.7,0.7-0.7c0.4,0,0.6,0.3,0.6,0.7v6.7
						C1053-53.3,1052.7-53,1052.3-53z"/>
				</g>
			</g>
		</g>
	</g>
	<g id="사각형_370">
		<path class="st1" d="M1057-80.7L1057-80.7c2.2,0,4,1.8,4,4l0,0l0,0v2.3c0,2.2-1.8,4-4,4l0,0c-2.2,0-4-1.8-4-4v-2.3
			C1052.9-78.9,1054.7-80.7,1057-80.7z"/>
		<path class="st0" d="M1057-69.2c-2.8,0-5.1-2.3-5.1-5.1v-2.3c0-2.8,2.3-5.1,5.1-5.1c2.8,0,5.1,2.3,5.1,5.1v2.3
			C1062.1-71.5,1059.8-69.2,1057-69.2z M1057-79.6c-1.6,0-2.9,1.3-2.9,2.9v2.3c0,1.6,1.3,2.9,2.9,2.9c1.6,0,2.9-1.3,2.9-2.9v-2.3
			C1059.9-78.2,1058.6-79.6,1057-79.6z"/>
	</g>
	<g id="사각형_371">
		<path class="st1" d="M1043.7-72.9L1043.7-72.9c2.2,0,4,1.8,4,4c0,0,0,0,0,0v2.3c0,2.2-1.8,4-4,4c0,0,0,0,0,0l0,0c-2.2,0-4-1.8-4-4
			c0,0,0,0,0,0v-2.3C1039.7-71.1,1041.5-72.9,1043.7-72.9z"/>
		<path class="st0" d="M1043.7-61.5c-2.8,0-5.1-2.3-5.1-5.1v-2.3c0-2.8,2.3-5.1,5.1-5.1h0c2.8,0,5.1,2.3,5.1,5.1v2.3
			C1048.8-63.8,1046.5-61.5,1043.7-61.5C1043.7-61.5,1043.7-61.5,1043.7-61.5z M1043.7-71.8c-1.6,0-2.9,1.3-2.9,2.9v2.3
			c0,0.8,0.3,1.5,0.9,2.1c0.6,0.6,1.3,0.9,2.1,0.9c0,0,0,0,0,0c1.6,0,2.9-1.3,2.9-2.9v-2.3C1046.6-70.5,1045.3-71.8,1043.7-71.8z"/>
	</g>
	<g id="패스_369">
		<path class="st5" d="M1048.4-72.7c-0.1-1.5-1.4-2.6-2.9-2.5l0,0c-0.7,0.1-1.3,0.4-1.8,1c-0.5-0.6-1.4-0.9-2.2-0.9
			c-1.3,0.2-2.3,1.3-2.3,2.7c-1.5,0.4-2.4,1.9-2.1,3.4c0.3,1.3,1.5,2.2,2.8,2.1c1.3-0.2,2.3-1.3,2.3-2.7c0.6-0.1,1.2-0.5,1.6-1
			c0.5,0.6,1.3,0.9,2.2,0.9C1047.6-69.9,1048.6-71.2,1048.4-72.7L1048.4-72.7L1048.4-72.7z"/>
		<path class="st0" d="M1040-66.2c-1.6,0-3-1.1-3.4-2.6c-0.4-1.7,0.5-3.4,2.1-4c0.2-1.5,1.3-2.6,2.8-2.9c0.8-0.1,1.6,0.1,2.2,0.6
			c0.5-0.4,1.1-0.7,1.7-0.8c1.8-0.1,3.4,1.2,3.6,3c0,0,0,0,0,0c0.3,1.8-1,3.5-2.9,3.8c-0.8,0.1-1.6-0.1-2.2-0.6
			c-0.3,0.3-0.6,0.4-1,0.6c-0.2,1.4-1.3,2.6-2.8,2.8C1040.1-66.2,1040-66.2,1040-66.2z M1041.8-74.4c-0.1,0-0.1,0-0.2,0
			c-1,0.1-1.7,1-1.7,2c0,0.3-0.2,0.6-0.5,0.6c-1.1,0.3-1.9,1.4-1.6,2.6c0.2,1,1.2,1.7,2.2,1.6c0.9-0.1,1.7-1,1.7-2
			c0-0.3,0.2-0.6,0.5-0.7c0.5-0.1,0.9-0.3,1.2-0.7c0.1-0.2,0.3-0.3,0.5-0.3c0.2,0,0.4,0.1,0.5,0.2c0.4,0.5,1,0.7,1.6,0.6
			c1.1-0.2,1.8-1.2,1.7-2.3c0,0,0-0.1,0-0.1c-0.1-1.1-1.1-2-2.2-1.9c-0.5,0.1-1,0.3-1.3,0.8c-0.1,0.2-0.3,0.3-0.5,0.3
			c-0.2,0-0.4-0.1-0.5-0.2C1042.9-74.2,1042.4-74.4,1041.8-74.4z"/>
	</g>
</g>
<g id="그룹_383" transform="translate(-395.485 114.126)">
	<g id="그룹_378">
		<g id="사각형_338">
			<path class="st6" d="M931.2-70.6h34.5c2.4,0,4.3,1.9,4.3,4.3v2.2h-43v-2.2C927-68.6,928.9-70.6,931.2-70.6z"/>
		</g>
		<g id="사각형_339">
			<path class="st0" d="M965.7-33h-34.4c-3,0-5.4-2.4-5.4-5.4v-27.9c0-3,2.4-5.4,5.4-5.4h34.4c3,0,5.4,2.4,5.4,5.4v27.9
				C971-35.4,968.6-33,965.7-33z M931.2-69.4c-1.7,0-3.2,1.4-3.2,3.2v27.9c0,1.7,1.4,3.2,3.2,3.2h34.4c1.7,0,3.2-1.4,3.2-3.2v-27.9
				c0-1.7-1.4-3.2-3.2-3.2H931.2z"/>
		</g>
		<g id="그룹_373">
			<g id="사각형_340">
				<path class="st1" d="M933.9-74.8L933.9-74.8c1,0,1.8,0.8,1.8,1.8l0,0v4.8c0,1-0.8,1.8-1.8,1.8l0,0c-1,0-1.8-0.8-1.8-1.8
					c0,0,0,0,0,0l0,0V-73C932.1-74,932.9-74.8,933.9-74.8L933.9-74.8L933.9-74.8z"/>
				<path class="st0" d="M933.9-65.9c-1.3,0-2.4-1.1-2.4-2.4V-73c0-1.3,1-2.4,2.3-2.4c0,0,0.1,0,0.1,0c1.3,0,2.4,1.1,2.4,2.4v4.8
					c0,0.6-0.3,1.3-0.7,1.7C935.1-66.1,934.5-65.9,933.9-65.9C933.9-65.9,933.9-65.9,933.9-65.9z M934-74.2
					C933.9-74.1,933.9-74.1,934-74.2c-0.7,0-1.2,0.5-1.2,1.1v4.8c0,0.6,0.5,1.1,1.1,1.1c0,0,0,0,0,0c0.3,0,0.6-0.1,0.8-0.3
					c0.2-0.2,0.3-0.5,0.3-0.8V-73C935-73.6,934.5-74.1,934-74.2z"/>
			</g>
			<g id="사각형_341">
				<path class="st1" d="M963.1-74.8L963.1-74.8c1,0,1.8,0.8,1.8,1.8l0,0v4.8c0,1-0.8,1.8-1.8,1.8c0,0,0,0,0,0l0,0
					c-1,0-1.8-0.8-1.8-1.8l0,0l0,0V-73C961.3-74,962.1-74.8,963.1-74.8L963.1-74.8z"/>
				<path class="st0" d="M963.1-65.9c-1.3,0-2.4-1.1-2.4-2.4V-73c0-1.3,1-2.4,2.3-2.4c0,0,0.1,0,0.1,0c1.3,0,2.4,1.1,2.4,2.4v4.8
					C965.5-66.9,964.4-65.9,963.1-65.9z M963.1-74.2C963.1-74.1,963.1-74.1,963.1-74.2c-0.7,0-1.2,0.5-1.2,1.1v4.8
					c0,0.6,0.5,1.1,1.1,1.1c0.6,0,1.1-0.5,1.1-1.1V-73C964.2-73.6,963.7-74.1,963.1-74.2z"/>
			</g>
		</g>
		<g id="그룹_377">
			<g id="그룹_374">
				<g id="사각형_342">
					<rect x="936.6" y="-58.8" class="st2" width="5.2" height="3.9"/>
				</g>
				<g id="사각형_343">
					<rect x="945.9" y="-58.8" class="st2" width="5.2" height="3.9"/>
				</g>
				<g id="사각형_344">
					<rect x="955.1" y="-58.8" class="st2" width="5.2" height="3.9"/>
				</g>
			</g>
			<g id="그룹_375">
				<g id="사각형_347">
					<rect x="936.6" y="-51" class="st2" width="5.2" height="3.9"/>
				</g>
				<g id="사각형_348">
					<rect x="945.9" y="-51" class="st2" width="5.2" height="3.9"/>
				</g>
				<g id="사각형_349">
					<rect x="955.1" y="-51" class="st2" width="5.2" height="3.9"/>
				</g>
			</g>
			<g id="그룹_376">
				<g id="사각형_352">
					<rect x="936.6" y="-43.2" class="st7" width="5.2" height="3.9"/>
				</g>
				<g id="사각형_353">
					<rect x="945.9" y="-43.2" class="st7" width="5.2" height="3.9"/>
				</g>
				<g id="사각형_354">
					<rect x="955.1" y="-43.2" class="st7" width="5.2" height="3.9"/>
				</g>
			</g>
		</g>
	</g>
</g>
<g id="그룹_398" transform="translate(-394.994 115.513)">
	<g id="그룹_394">
		<g id="그룹_392">
			<g id="패스_359">
				<path class="st8" d="M861.3-46.2c6.7-9.5,4.5-22.8-5.1-29.5c-3.6-2.5-7.8-3.9-12.2-3.9h0v21.3L861.3-46.2z"/>
			</g>
			<g id="패스_360">
				<path class="st1" d="M844-58.3v-21.3c-11.7,0-21.1,9.5-21.1,21.2c0,11.7,9.5,21.1,21.2,21.1c6.9,0,13.3-3.4,17.3-9L844-58.3z"/>
			</g>
		</g>
		<g id="그룹_393">
			<g id="선_45">
				<path class="st0" d="M865-57.8h-4.5c-0.4,0-0.6-0.3-0.6-0.7s0.3-0.7,0.6-0.7h4.5c0.4,0,0.7,0.3,0.7,0.7S865.4-57.8,865-57.8z"/>
			</g>
			<g id="선_46">
				<path class="st0" d="M827.5-57.8h-4.5c-0.4,0-0.6-0.3-0.6-0.7s0.3-0.7,0.6-0.7h4.5c0.4,0,0.7,0.3,0.7,0.7S827.9-57.8,827.5-57.8
					z"/>
			</g>
		</g>
		<g id="선_47">
			<path class="st0" d="M844-36.6c-0.4,0-0.7-0.3-0.7-0.6v-4.5c0-0.4,0.3-0.7,0.7-0.7c0.4,0,0.6,0.3,0.6,0.7v4.5
				C844.6-36.9,844.4-36.6,844-36.6z"/>
		</g>
		<g id="선_48">
			<path class="st0" d="M844-73.5c-0.4,0-0.7-0.3-0.7-0.7v-4.5c0-0.4,0.3-0.7,0.7-0.7c0.4,0,0.6,0.3,0.6,0.7v4.5
				C844.6-73.8,844.4-73.5,844-73.5z"/>
		</g>
		<g id="타원_46">
			<path class="st0" d="M844-36.2c-12.3,0-22.3-10-22.3-22.3c0-12.3,10-22.3,22.3-22.3c12.3,0,22.3,10,22.3,22.3
				C866.3-46.1,856.3-36.2,844-36.2z M844-78.5c-11.1,0-20.1,9-20.1,20.1s9,20.1,20.1,20.1c11.1,0,20.1-9,20.1-20.1
				S855.1-78.5,844-78.5z"/>
		</g>
	</g>
</g>
<g id="그룹_420" transform="translate(-395.485 116.164)">
	<g id="선_50">
		<path class="st2" d="M734.7-79.1c-0.6,0-1.1-0.5-1.1-1.1v-5.7c0-0.6,0.5-1.1,1.1-1.1c0.6,0,1.1,0.5,1.1,1.1v5.7
			C735.8-79.6,735.3-79.1,734.7-79.1z"/>
	</g>
	<g id="사각형_373">
		<rect x="723.8" y="-80" class="st1" width="21.7" height="47.7"/>
		<path class="st0" d="M745.5-31.2h-21.7c-0.6,0-1.1-0.5-1.1-1.1V-80c0-0.6,0.5-1.1,1.1-1.1h21.7c0.6,0,1.1,0.5,1.1,1.1v47.7
			C746.7-31.7,746.2-31.2,745.5-31.2z M724.9-33.4h19.5v-45.5h-19.5V-33.4z"/>
	</g>
	<g id="패스_316">
		<path class="st1" d="M745.6-62.4l21.9-12.2v42.2h-21.9V-62.4z"/>
		<path class="st0" d="M767.4-31.2h-21.9c-0.6,0-1.1-0.5-1.1-1.1v-30.1c0-0.4,0.2-0.8,0.6-1l21.9-12.2c0.3-0.2,0.8-0.2,1.1,0
			c0.3,0.2,0.5,0.6,0.5,1v42.2C768.5-31.7,768-31.2,767.4-31.2z M746.7-33.4h19.7v-39.3l-19.7,10.9V-33.4z"/>
	</g>
	<g id="사각형_374">
		<rect x="734.4" y="-52.9" class="st1" width="22.4" height="20.6"/>
		<path class="st0" d="M756.9-31.6h-22.4c-0.4,0-0.7-0.3-0.7-0.7v-20.6c0-0.4,0.3-0.7,0.7-0.7h22.4c0.4,0,0.6,0.3,0.6,0.7v20.6
			C757.5-31.9,757.2-31.6,756.9-31.6z M735.1-32.9h21.1v-19.3h-21.1V-32.9z"/>
	</g>
	<g id="사각형_283">
		<rect x="741.5" y="-41.1" class="st6" width="8.2" height="8.8"/>
		<path class="st0" d="M749.8-31.6h-8.2c-0.4,0-0.7-0.3-0.7-0.7v-8.8c0-0.4,0.3-0.7,0.7-0.7h8.2c0.4,0,0.7,0.3,0.7,0.7v8.8
			C750.4-31.9,750.1-31.6,749.8-31.6z M742.2-32.9h6.9v-7.5h-6.9V-32.9z"/>
	</g>
</g>
<g>
	<g id="그룹_388" transform="translate(-395.485 110.993)">
		<g id="패스_353">
			<path class="st0" d="M1561.4-26.7h-20.1c-0.6,0-1.1-0.5-1.1-1.1v-6.8h-3.8c-2.3,0-4.1-1.9-4.1-4.1v-7h-3.5
				c-0.4,0-0.7-0.2-0.9-0.5c-0.2-0.3-0.2-0.7-0.1-1l3.5-7.8c-1.1-4.7-0.3-9.6,2.2-13.8c2.6-4.3,6.7-7.3,11.5-8.5
				c10-2.5,20.2,3.6,22.7,13.6c1.6,6.5-0.3,13.4-5.1,18v18C1562.5-27.2,1562-26.7,1561.4-26.7z M1542.4-28.9h17.9v-17.4
				c0-0.3,0.1-0.6,0.4-0.8c4.5-4.1,6.3-10.3,4.9-16.2c-2.2-8.8-11.2-14.2-20-12c-4.3,1.1-7.9,3.7-10.2,7.5
				c-2.3,3.8-2.9,8.2-1.9,12.5c0.1,0.2,0,0.5-0.1,0.7l-2.9,6.6h2.9c0.3,0,0.6,0.1,0.8,0.3c0.2,0.2,0.3,0.5,0.3,0.8l0,8.1
				c0,1.1,0.9,1.9,1.9,1.9h4.9c0.6,0,1.1,0.5,1.1,1.1V-28.9z"/>
		</g>
	</g>
	<g id="그룹_389" transform="translate(-395.485 110.993)">
		<g id="패스_354">
			<path class="st6" d="M1559.9-68.2v7h-3.1c0.3-0.9-0.2-1.8-1.1-2.1c-0.9-0.3-1.8,0.2-2.1,1.1c-0.1,0.3-0.1,0.7,0,1h-1.5
				c-0.9,0-1.5-0.7-1.5-1.5c0,0,0,0,0,0v-1.5c0.3,0.1,0.7,0.1,1,0c0.9-0.3,1.4-1.2,1.1-2.1c-0.3-0.9-1.1-1.4-2-1.1l-0.1,0v-3.1h7
				C1558.9-70.5,1559.9-69.5,1559.9-68.2z"/>
			<path class="st0" d="M1559.9-60.5h-3.1c-0.2,0-0.4-0.1-0.5-0.3c-0.1-0.2-0.2-0.4-0.1-0.6c0.1-0.3,0.1-0.5-0.1-0.8
				c-0.1-0.2-0.3-0.4-0.6-0.5c-0.5-0.2-1.1,0.1-1.3,0.7c-0.1,0.2-0.1,0.4,0,0.6c0.1,0.2,0,0.4-0.1,0.6c-0.1,0.2-0.3,0.3-0.5,0.3
				h-1.5c-1.2,0-2.2-1-2.2-2.2v-1.5c0-0.2,0.1-0.4,0.3-0.5c0.2-0.1,0.4-0.2,0.6-0.1c0.2,0.1,0.4,0.1,0.6,0c0.3-0.1,0.5-0.3,0.6-0.5
				s0.2-0.5,0.1-0.8c-0.2-0.5-0.7-0.8-1.2-0.7c-0.2,0.1-0.4,0-0.6-0.1c-0.2-0.1-0.3-0.3-0.3-0.5v-3.1c0-0.4,0.3-0.6,0.6-0.6h7
				c1.6,0,3,1.3,3,3c0,0,0,0,0,0v7C1560.5-60.8,1560.3-60.5,1559.9-60.5z M1557.5-61.8h1.7v-6.4c0-0.9-0.8-1.7-1.7-1.7h-6.4v1.7
				c1,0.1,1.8,0.7,2.1,1.6c0.2,0.6,0.1,1.2-0.2,1.8c-0.3,0.5-0.8,0.9-1.4,1.1c-0.2,0-0.3,0.1-0.5,0.1v0.8c0,0.5,0.4,0.9,0.9,0.9h0.8
				c0-0.2,0-0.4,0.1-0.5c0.4-1.2,1.7-1.9,2.9-1.5c0.6,0.2,1.1,0.6,1.4,1.1C1557.4-62.5,1557.5-62.2,1557.5-61.8z"/>
		</g>
		<g id="패스_355">
			<path class="st0" d="M1552.2-56.3h-3.2c-0.3,0-0.5-0.2-0.6-0.5c-0.4-1.2,0.3-2.5,1.5-2.9c1.2-0.4,2.5,0.3,2.9,1.5
				c0.1,0.2,0.1,0.5,0.1,0.7h0c0,0.2,0,0.5-0.1,0.7C1552.7-56.5,1552.4-56.3,1552.2-56.3z M1549.5-57.6h2c0-0.1,0-0.1,0-0.2
				c-0.2-0.5-0.7-0.8-1.3-0.7C1549.9-58.3,1549.6-58,1549.5-57.6z"/>
		</g>
		<g id="패스_356">
			<path class="st0" d="M1545.9-56.3h-9.3c-0.4,0-0.7-0.3-0.7-0.6v-7c0-1.6,1.3-3,3-3h7c0.4,0,0.7,0.3,0.7,0.7v2.3
				c0.9,0,1.8,0.6,2.1,1.6c0.1,0.4,0.2,0.8,0.1,1.2c0,0,0,0,0,0c-0.2,0.8-0.8,1.5-1.6,1.7c-0.2,0-0.3,0.1-0.5,0.1v2.3
				C1546.5-56.6,1546.2-56.3,1545.9-56.3z M1537.2-57.6h8V-60c0-0.2,0.1-0.4,0.3-0.5c0.2-0.1,0.4-0.2,0.6-0.1c0.2,0.1,0.4,0.1,0.6,0
				c0.4-0.1,0.6-0.4,0.7-0.8c0,0,0,0,0,0c0-0.2,0-0.4,0-0.5c-0.2-0.5-0.8-0.8-1.3-0.6c-0.2,0.1-0.4,0-0.6-0.1
				c-0.2-0.1-0.3-0.3-0.3-0.5v-2.4h-6.4c-0.9,0-1.7,0.8-1.7,1.7V-57.6z"/>
		</g>
		<g id="패스_357">
			<path class="st1" d="M1542.8-56.9c0.1-0.3,0.1-0.6,0-0.9c-0.3-0.9-1.2-1.4-2.1-1.1c-0.8,0.3-1.3,1.2-1.1,2h-3.1v7
				c0,1.3,1,2.3,2.3,2.3c0,0,0,0,0,0h7v-9.3L1542.8-56.9z"/>
			<path class="st0" d="M1545.9-47h-7c-1.6,0-3-1.3-3-3v-7c0-0.4,0.3-0.6,0.7-0.6h2.4c0.1-0.9,0.7-1.7,1.6-2
				c0.6-0.2,1.2-0.1,1.8,0.2c0.6,0.3,1,0.8,1.1,1.4c0,0.2,0.1,0.3,0.1,0.5h2.4c0.4,0,0.7,0.3,0.7,0.6v9.3
				C1546.5-47.3,1546.2-47,1545.9-47z M1537.2-56.3v6.4c0,0.9,0.8,1.7,1.7,1.7h6.4v-8h-2.4c-0.2,0-0.4-0.1-0.5-0.3s-0.2-0.4-0.1-0.6
				c0.1-0.2,0.1-0.4,0-0.6c-0.1-0.2-0.3-0.4-0.5-0.6c-0.2-0.1-0.5-0.1-0.8-0.1c-0.5,0.2-0.8,0.7-0.7,1.2c0.1,0.2,0,0.4-0.1,0.6
				c-0.1,0.2-0.3,0.3-0.5,0.3H1537.2z"/>
		</g>
		<g id="패스_358">
			<path class="st1" d="M1555.2-56.9v7c0,1.3-1,2.3-2.3,2.3l0,0h-7v-3.2c-0.8,0.4-1.8,0.1-2.2-0.8c-0.1-0.1-0.1-0.2-0.1-0.4
				c-0.2-0.9,0.4-1.8,1.3-2c0.4-0.1,0.8,0,1.1,0.1v-3.2h3.1c-0.3-0.9,0.2-1.8,1.1-2.1c0.9-0.3,1.8,0.2,2.1,1.1c0,0.1,0,0.2,0.1,0.2
				c0,0.3,0,0.5-0.1,0.8L1555.2-56.9z"/>
			<path class="st0" d="M1552.9-47h-7c-0.4,0-0.7-0.3-0.7-0.6V-50c-0.9,0-1.8-0.5-2.2-1.3c-0.1-0.2-0.1-0.3-0.2-0.5
				c-0.1-0.6,0-1.2,0.3-1.8c0.3-0.5,0.8-0.9,1.5-1c0.2,0,0.4-0.1,0.6-0.1v-2.4c0-0.4,0.3-0.6,0.7-0.6h2.4c0.1-0.9,0.7-1.8,1.6-2.1
				c0.6-0.2,1.2-0.1,1.8,0.2c0.5,0.3,1,0.8,1.1,1.4c0,0.1,0.1,0.2,0.1,0.3c0,0.1,0,0.1,0,0.2l2.4,0c0.4,0,0.6,0.3,0.6,0.6v7
				C1555.9-48.3,1554.5-47,1552.9-47z M1546.5-48.3h6.4c0.9,0,1.7-0.8,1.7-1.7v-6.4l-2.4,0c-0.2,0-0.4-0.1-0.5-0.3
				c-0.1-0.2-0.2-0.4-0.1-0.6c0-0.1,0.1-0.3,0-0.5c0-0.1,0-0.1,0-0.2c-0.1-0.3-0.3-0.5-0.5-0.6c-0.2-0.1-0.5-0.2-0.8-0.1
				c-0.5,0.2-0.8,0.7-0.7,1.3c0.1,0.2,0,0.4-0.1,0.6c-0.1,0.2-0.3,0.3-0.5,0.3h-2.4v2.5c0,0.2-0.1,0.4-0.3,0.6s-0.4,0.1-0.6,0
				c-0.2-0.1-0.4-0.1-0.7-0.1c-0.3,0.1-0.5,0.2-0.6,0.4c-0.1,0.2-0.2,0.5-0.1,0.8c0,0.1,0,0.1,0.1,0.2c0.2,0.5,0.9,0.7,1.4,0.5
				c0.2-0.1,0.4-0.1,0.6,0c0.2,0.1,0.3,0.3,0.3,0.6V-48.3z"/>
		</g>
	</g>
</g>
<g id="그룹_625">
	<g id="패스_370">
		<path class="st1" d="M954.2,50.2L954.2,50.2c-2,0-3.7,1.4-4,3.3l-1.8,9.1h-1.6c-4.4,0-8.2,3.2-9,7.6l-1.9,10.9h17.3l5-26.1
			c0.4-2.2-1-4.4-3.3-4.8C954.8,50.2,954.5,50.2,954.2,50.2L954.2,50.2z"/>
		<path class="st0" d="M953.2,82.5h-17.3c-0.4,0-0.7-0.2-1-0.5c-0.2-0.3-0.4-0.7-0.3-1.1l1.9-10.9c0.9-5,5.2-8.6,10.3-8.6
			c0,0,0,0,0,0h0.5l1.6-8.1c0.5-2.5,2.7-4.4,5.3-4.4c0,0,0,0,0,0c0.3,0,0.7,0,1,0.1c1.4,0.3,2.6,1.1,3.5,2.3
			c0.8,1.2,1.1,2.6,0.8,4.1l-5,26.1C954.4,82,953.9,82.5,953.2,82.5z M937.5,79.9h14.7l4.8-25c0.1-0.7,0-1.5-0.4-2.1
			c-0.4-0.6-1.1-1-1.8-1.2c-0.2,0-0.4-0.1-0.5-0.1h0c0,0,0,0,0,0c-1.4,0-2.5,1-2.8,2.3l-1.8,9.2c-0.1,0.6-0.7,1.1-1.3,1.1h-1.6
			c0,0,0,0,0,0c-3.8,0-7.1,2.7-7.7,6.5L937.5,79.9z"/>
	</g>
	<g id="타원_53">
		<circle class="st1" cx="934.5" cy="81.2" r="3.8"/>
		<path class="st0" d="M934.5,86.3c-2.8,0-5.1-2.3-5.1-5.1s2.3-5.1,5.1-5.1c2.8,0,5.1,2.3,5.1,5.1S937.3,86.3,934.5,86.3z
			 M934.5,78.7c-1.4,0-2.5,1.1-2.5,2.5s1.1,2.5,2.5,2.5c1.4,0,2.5-1.1,2.5-2.5S935.9,78.7,934.5,78.7z"/>
	</g>
	<g id="그룹_415" transform="translate(-395.485 111.104)">
		<g id="그룹_414">
			<g id="타원_54">
				<circle class="st1" cx="1352.8" cy="-36.1" r="10"/>
				<path class="st0" d="M1352.8-24.8c-6.2,0-11.3-5-11.3-11.3s5-11.3,11.3-11.3c6.2,0,11.3,5,11.3,11.3S1359-24.8,1352.8-24.8z
					 M1352.8-44.7c-4.8,0-8.7,3.9-8.7,8.7s3.9,8.7,8.7,8.7c4.8,0,8.7-3.9,8.7-8.7S1357.6-44.7,1352.8-44.7z"/>
			</g>
		</g>
		<g id="타원_55">
			<circle class="st2" cx="1352.8" cy="-36.1" r="3.6"/>
		</g>
	</g>
	<g id="사각형_372">
		<path class="st1" d="M952.3,36.8l0.6-0.1c2.2-0.3,4.2,1.3,4.5,3.5l0.4,3c0.3,2.2-1.3,4.2-3.5,4.5l-0.6,0.1
			c-2.2,0.3-4.2-1.3-4.5-3.5l-0.4-3C948.5,39.1,950.1,37.1,952.3,36.8z"/>
		<path class="st0" d="M953.2,49.1c-2.6,0-4.9-2-5.3-4.6l-0.4-3c-0.4-2.9,1.7-5.6,4.6-6c0,0,0,0,0,0l0.6-0.1c2.9-0.4,5.6,1.7,6,4.6
			l0.4,3c0.4,2.9-1.7,5.6-4.6,6l-0.6,0.1C953.7,49.1,953.4,49.1,953.2,49.1z M952.5,38.1c-1.5,0.2-2.5,1.6-2.3,3.1l0.4,3
			c0.2,1.5,1.6,2.5,3,2.3l0.6-0.1c1.5-0.2,2.5-1.6,2.3-3.1l-0.4-3c-0.2-1.5-1.6-2.5-3-2.3L952.5,38.1z"/>
	</g>
	<g id="패스_371">
		<path class="st5" d="M947.6,37.6c-0.1-1.6,1.1-3,2.7-3c0.8,0,1.5,0.3,2,0.8c0.5-0.7,1.3-1.2,2.2-1.2c1.5,0,2.7,1.1,2.8,2.5
			c1.6,0.2,2.8,1.6,2.7,3.3c-0.2,1.4-1.3,2.5-2.7,2.7c-1.5,0-2.7-1.1-2.8-2.5c-0.9-1-2.5-1.1-3.5-0.2c-0.2,0.2-0.3,0.4-0.5,0.6
			C948.9,40.5,947.6,39.2,947.6,37.6z"/>
		<path class="st0" d="M957.4,43.3c-1.8,0-3.2-1.2-3.5-2.9c-0.7-0.6-1.8-0.6-2.5,0c-0.1,0.1-0.3,0.3-0.3,0.4
			c-0.1,0.2-0.3,0.3-0.6,0.3c-1.9,0-3.5-1.6-3.5-3.6c-0.1-1.9,1.4-3.6,3.4-3.7c0.7,0,1.4,0.2,2,0.6c0.6-0.6,1.4-0.9,2.3-1
			c1.6,0,3,1.1,3.4,2.6c1.7,0.4,2.9,2.1,2.8,3.9C960.5,41.8,959.1,43.2,957.4,43.3z M952.6,38.7c0.9,0,1.7,0.4,2.3,1
			c0.1,0.1,0.1,0.2,0.2,0.4c0.1,1.1,1.1,2,2.2,2c1.1-0.1,2-1,2.1-2.1c0.1-1.3-0.8-2.4-2.1-2.6c-0.3,0-0.5-0.3-0.6-0.6
			c-0.1-1.1-1.1-2-2.2-2c-0.6,0-1.3,0.4-1.6,0.9c-0.1,0.2-0.3,0.3-0.5,0.3c-0.2,0-0.4-0.1-0.5-0.2c-0.4-0.4-0.9-0.7-1.5-0.6
			c-1.2,0.1-2.2,1.1-2.1,2.4c0,0,0,0,0,0c0,1.1,0.8,2.1,1.9,2.2c0.1-0.1,0.2-0.3,0.4-0.4C951.1,38.9,951.9,38.7,952.6,38.7z"/>
	</g>
	<g id="선_49">
		<path class="st0" d="M967.2,58.5h-8.4c-0.6,0-1.1-0.5-1.1-1.1s0.5-1.1,1.1-1.1h8.4c0.6,0,1.1,0.5,1.1,1.1S967.8,58.5,967.2,58.5z"
			/>
	</g>
</g>
<g>
	<g id="그룹_425-2" transform="translate(-394.794 110.966)">
		<g id="패스_353-2">
			<path class="st0" d="M1454.2-26.6H1434c-0.6,0-1.1-0.5-1.1-1.1v-6.9h-3.8c-2.3,0-4.2-1.9-4.2-4.1v-7h-3.5c-0.4,0-0.7-0.2-0.9-0.5
				c-0.2-0.3-0.2-0.7-0.1-1l3.5-7.9c-2.3-9.9,3.8-20,13.8-22.4c4.9-1.2,9.9-0.5,14.2,2.1c4.3,2.6,7.4,6.7,8.6,11.6
				c1.6,6.5-0.3,13.4-5.2,18.1v18.1C1455.3-27.1,1454.8-26.6,1454.2-26.6z M1435.1-28.8h18v-17.5c0-0.3,0.1-0.6,0.4-0.8
				c4.5-4.1,6.3-10.3,4.9-16.2c-1.1-4.3-3.8-7.9-7.6-10.2c-3.8-2.3-8.3-2.9-12.6-1.9c-8.9,2.2-14.3,11.3-12.1,20.1
				c0.1,0.2,0,0.5-0.1,0.7l-2.9,6.7h2.9c0.3,0,0.6,0.1,0.8,0.3c0.2,0.2,0.3,0.5,0.3,0.8l0,8.1c0,1.1,0.9,1.9,1.9,1.9h4.9
				c0.6,0,1.1,0.5,1.1,1.1V-28.8z M1426.1-45.7L1426.1-45.7L1426.1-45.7z"/>
		</g>
	</g>
	<g id="그룹_424" transform="translate(-394.794 110.966)">
		<g id="그룹_388-2">
			<g id="패스_353-2-2">
				<path class="st1" d="M1440.8-46.8h-4.6l3.6-8.2c-2.4-9.5,3.4-19.1,12.9-21.5c9.5-2.4,19.1,3.4,21.5,12.9
					c1.6,6.3-0.4,12.9-5.2,17.3v18.6h-20.2v-8h-4.9c-1.7,0-3-1.4-3-3c0,0,0,0,0,0l0,0L1440.8-46.8z"/>
				<path class="st0" d="M1469-26.6h-20.2c-0.6,0-1.1-0.5-1.1-1.1v-6.9h-3.8c-2.3,0-4.2-1.9-4.2-4.2l0-7h-3.5
					c-0.4,0-0.7-0.2-0.9-0.5c-0.2-0.3-0.2-0.7-0.1-1l3.5-7.9c-2.3-9.9,3.8-20,13.8-22.5c4.9-1.2,9.9-0.5,14.2,2.1
					c4.3,2.6,7.4,6.7,8.6,11.6c1.6,6.5-0.3,13.4-5.2,18.1v18.1C1470.1-27.1,1469.6-26.6,1469-26.6z M1449.8-28.8h18v-17.5
					c0-0.3,0.1-0.6,0.4-0.8c4.5-4.1,6.4-10.4,4.9-16.3c-2.2-8.9-11.3-14.3-20.1-12.1c-8.9,2.2-14.3,11.3-12.1,20.1
					c0.1,0.2,0,0.5-0.1,0.7l-2.9,6.7h2.9c0.3,0,0.6,0.1,0.8,0.3c0.2,0.2,0.3,0.5,0.3,0.8l0,8.1c0,1.1,0.9,1.9,1.9,1.9h4.9
					c0.6,0,1.1,0.5,1.1,1.1V-28.8z"/>
			</g>
		</g>
		<g id="그룹_389-2">
			<g id="패스_354-2">
				<path class="st6" d="M1467.4-68.2v7h-3.1c0.1-0.3,0.1-0.6,0-0.9c-0.2-0.9-1.2-1.4-2.1-1.2c-0.9,0.2-1.4,1.2-1.2,2.1l0,0l0,0
					l0,0.1h-1.5c-0.9,0-1.6-0.7-1.6-1.6v-1.6c0.3,0.1,0.7,0.1,1,0c0.9-0.2,1.4-1.2,1.2-2.1c-0.2-0.9-1.2-1.4-2.1-1.2l0,0l-0.1,0
					v-3.1h7C1466.4-70.6,1467.4-69.5,1467.4-68.2L1467.4-68.2L1467.4-68.2z"/>
				<path class="st0" d="M1461.2-60.5h-1.5c-1.2,0-2.2-1-2.2-2.2v-1.6c0-0.2,0.1-0.4,0.3-0.5c0.2-0.1,0.4-0.2,0.6-0.1
					c0.2,0.1,0.4,0.1,0.6,0c0.6-0.1,0.9-0.7,0.7-1.3c-0.1-0.5-0.7-0.9-1.3-0.7c-0.2,0.1-0.5,0-0.6-0.1c-0.2-0.1-0.3-0.3-0.3-0.5
					v-3.1c0-0.4,0.3-0.6,0.7-0.6h7c1.6,0,3,1.3,3,3c0,0,0,0.1,0,0.1v6.9c0,0.4-0.3,0.6-0.7,0.6h-3.1c-0.2,0-0.4-0.1-0.5-0.3
					c-0.1-0.2-0.2-0.4-0.1-0.6c0.1-0.2,0.1-0.4,0-0.6c-0.1-0.3-0.2-0.5-0.5-0.6c-0.2-0.1-0.5-0.2-0.8-0.1c-0.5,0.1-0.9,0.7-0.7,1.3
					c0.1,0.2,0,0.4-0.1,0.6C1461.5-60.7,1461.4-60.5,1461.2-60.5z M1458.7-63.6v0.8c0,0.5,0.4,0.9,0.9,0.9h0.8
					c0.1-1,0.7-1.9,1.7-2.1c0.6-0.2,1.2-0.1,1.8,0.2c0.5,0.3,0.9,0.8,1.1,1.4c0,0.1,0.1,0.3,0.1,0.5h1.7v-6.4c0,0,0-0.1,0-0.1
					c0-0.9-0.8-1.6-1.7-1.6h-6.4v1.7c0.4,0,0.7,0.1,1,0.3c0.5,0.3,0.9,0.8,1.1,1.4c0.2,0.6,0.1,1.2-0.2,1.8s-0.8,0.9-1.4,1.1
					C1459.1-63.6,1458.9-63.6,1458.7-63.6z"/>
			</g>
			<g id="패스_355-2">
				<path class="st0" d="M1459.7-56.3h-3.2c-0.3,0-0.5-0.2-0.6-0.5c-0.4-1.2,0.3-2.5,1.5-2.9c0.6-0.2,1.2-0.1,1.8,0.1
					c0.6,0.3,1,0.8,1.1,1.4c0.1,0.3,0.1,0.5,0.1,0.7c0,0,0,0,0,0c0,0.2,0,0.4-0.1,0.7C1460.2-56.5,1460-56.3,1459.7-56.3z
					 M1459.7-57.4L1459.7-57.4L1459.7-57.4z M1457-57.6h2c0,0,0-0.1,0-0.1c-0.1-0.3-0.3-0.5-0.5-0.6c-0.2-0.1-0.5-0.2-0.8-0.1
					C1457.4-58.3,1457.1-58,1457-57.6z"/>
			</g>
			<g id="패스_356-2">
				<path class="st0" d="M1453.4-56.3h-9.4c-0.4,0-0.7-0.3-0.7-0.6v-7c0-1.6,1.3-3,3-3h7c0.4,0,0.7,0.3,0.7,0.7v2.4
					c0.3,0,0.6,0.1,0.9,0.2c0.6,0.3,1,0.7,1.2,1.3c0.1,0.4,0.2,0.8,0.1,1.2c0,0,0,0.1,0,0.1c-0.2,0.8-0.8,1.4-1.6,1.7
					c-0.2,0-0.3,0.1-0.5,0.1v2.4C1454-56.6,1453.7-56.3,1453.4-56.3z M1444.7-57.6h8.1V-60c0-0.2,0.1-0.4,0.3-0.5
					c0.2-0.1,0.4-0.2,0.6-0.1c0.2,0.1,0.4,0.1,0.6,0c0.4-0.1,0.7-0.4,0.7-0.8c0,0,0,0,0-0.1c0-0.2,0-0.3,0-0.5
					c-0.1-0.3-0.3-0.5-0.5-0.6c-0.2-0.1-0.5-0.1-0.8,0c-0.2,0.1-0.4,0-0.6-0.1c-0.2-0.1-0.3-0.3-0.3-0.5v-2.4h-6.4
					c-0.9,0-1.7,0.8-1.7,1.7V-57.6z"/>
			</g>
			<g id="패스_357-2">
				<path class="st1" d="M1450.3-56.9c0.3-0.9-0.2-1.8-1.1-2.1c-0.9-0.3-1.8,0.2-2.1,1.1l0,0c0,0.2-0.1,0.3-0.1,0.5
					c0,0.2,0,0.3,0.1,0.5h-3.1v7c0,1.3,1,2.3,2.3,2.3h7v-9.4L1450.3-56.9z"/>
				<path class="st0" d="M1453.4-46.9h-7c-1.6,0-3-1.3-3-3v-7c0-0.4,0.3-0.6,0.7-0.6h2.4c0-0.2,0-0.4,0.1-0.5
					c0.4-1.2,1.7-1.9,2.9-1.5c1,0.3,1.6,1.1,1.7,2.1l2.4,0c0.4,0,0.6,0.3,0.6,0.7v9.4C1454-47.2,1453.7-46.9,1453.4-46.9z
					 M1444.7-56.3v6.4c0,0.9,0.8,1.7,1.7,1.7h6.4v-8.1l-2.4,0c-0.2,0-0.4-0.1-0.5-0.3c-0.1-0.2-0.2-0.4-0.1-0.6
					c0.2-0.5-0.2-1.1-0.7-1.3c-0.5-0.2-1.1,0.1-1.3,0.7c0,0.1,0,0.2,0,0.3c0,0.1,0,0.2,0,0.3c0.1,0.2,0,0.4-0.1,0.6
					s-0.3,0.3-0.5,0.3H1444.7z"/>
			</g>
			<g id="패스_358-2">
				<path class="st1" d="M1462.8-56.9v7c0,1.3-1,2.3-2.3,2.3h-7v-3.2c-0.8,0.4-1.8,0.1-2.2-0.8c-0.1-0.1-0.1-0.2-0.1-0.4
					c-0.2-0.9,0.4-1.8,1.3-2c0.4-0.1,0.8,0,1.1,0.1v-3.2h3.1c-0.3-0.9,0.2-1.8,1.1-2.1c0.9-0.3,1.8,0.2,2.1,1.1l0,0
					c0,0.2,0.1,0.3,0.1,0.5c0,0.2,0,0.3-0.1,0.5L1462.8-56.9z"/>
				<path class="st0" d="M1460.4-46.9h-7c-0.4,0-0.7-0.3-0.7-0.6v-2.4c-0.9,0-1.8-0.5-2.2-1.3c-0.1-0.2-0.1-0.3-0.2-0.5
					c-0.1-0.6,0-1.2,0.3-1.8c0.3-0.5,0.9-0.9,1.5-1c0.2,0,0.4-0.1,0.6-0.1v-2.4c0-0.4,0.3-0.7,0.7-0.7h2.4c0.1-0.9,0.7-1.8,1.6-2.1
					c0.6-0.2,1.2-0.1,1.8,0.1c0.6,0.3,1,0.8,1.1,1.4c0.1,0.2,0.1,0.4,0.1,0.6l2.4,0h0c0.2,0,0.3,0.1,0.5,0.2s0.2,0.3,0.2,0.5v7
					C1463.4-48.3,1462.1-46.9,1460.4-46.9z M1454-48.2h6.4c0.9,0,1.7-0.8,1.7-1.7v-6.4l-2.4,0h0c-0.2,0-0.4-0.1-0.5-0.3
					s-0.2-0.4-0.1-0.6c0-0.1,0-0.2,0-0.3c0-0.1,0-0.2,0-0.3c-0.1-0.3-0.3-0.5-0.5-0.6c-0.2-0.1-0.5-0.2-0.8-0.1
					c-0.3,0.1-0.5,0.3-0.6,0.5c-0.1,0.2-0.1,0.5-0.1,0.8c0.1,0.2,0,0.4-0.1,0.6c-0.1,0.2-0.3,0.3-0.5,0.3h-2.4v2.5
					c0,0.2-0.1,0.4-0.3,0.5c-0.2,0.1-0.4,0.1-0.6,0c-0.2-0.1-0.4-0.1-0.7-0.1c-0.3,0.1-0.5,0.2-0.6,0.5c-0.1,0.2-0.2,0.5-0.1,0.8
					c0,0.1,0,0.1,0.1,0.2c0.2,0.5,0.9,0.7,1.4,0.5c0.2-0.1,0.4-0.1,0.6,0c0.2,0.1,0.3,0.3,0.3,0.6V-48.2z"/>
			</g>
		</g>
	</g>
</g>
<g id="그룹_469" transform="translate(-395.485 127.544)">
	<g id="패스_376">
		<path class="st1" d="M1632.9-63.4h-4.6l3.6-8.2c-2.4-9.4,3.4-19,12.8-21.4c9.4-2.4,19,3.4,21.4,12.8c1.6,6.3-0.4,12.9-5.2,17.3
			v18.5h-20.1v-7.9h-4.9c-1.7,0-3-1.4-3-3c0,0,0,0,0,0l0,0L1632.9-63.4z"/>
		<path class="st0" d="M1660.9-43.3h-20.1c-0.6,0-1.1-0.5-1.1-1.1v-6.8h-3.8c0,0,0,0,0,0c-1.1,0-2.1-0.4-2.9-1.2
			c-0.8-0.8-1.2-1.8-1.2-2.9v-7h-3.5c-0.4,0-0.7-0.2-0.9-0.5c-0.2-0.3-0.2-0.7-0.1-1l3.5-7.8c-1.1-4.7-0.3-9.6,2.2-13.8
			c2.6-4.3,6.7-7.3,11.5-8.5c10-2.5,20.2,3.6,22.7,13.6c1.6,6.5-0.3,13.4-5.1,18v18C1662.1-43.8,1661.6-43.3,1660.9-43.3z
			 M1641.9-45.5h17.9v-17.4c0-0.3,0.1-0.6,0.4-0.8c4.5-4.1,6.3-10.3,4.9-16.2c-2.2-8.8-11.2-14.2-20-12c-4.3,1.1-7.9,3.7-10.2,7.5
			c-2.3,3.8-2.9,8.2-1.9,12.5c0.1,0.2,0,0.5-0.1,0.7l-2.9,6.6h2.9c0.6,0,1.1,0.5,1.1,1.1v8.1c0,0.5,0.2,1,0.6,1.4
			c0.4,0.4,0.8,0.6,1.4,0.6c0,0,0,0,0,0h4.9c0.6,0,1.1,0.5,1.1,1.1V-45.5z"/>
	</g>
	<g id="패스_377">
		<path class="st6" d="M1660.6-81.1c0-2.8-2.3-5.1-5.1-5.1c-2.8,0-5,2.2-5.1,4.9v0.2c0-2.8-2.3-5.1-5.1-5.1c-2.8,0-5.1,2.3-5.1,5.1
			l0,0v0c0,0-0.4,9.1,10.2,12.7C1661-72,1660.6-81.1,1660.6-81.1z"/>
		<path class="st0" d="M1650.4-67.7c-0.1,0-0.1,0-0.2,0c-11-3.8-10.6-13.3-10.6-13.4c0-1.5,0.6-3,1.7-4.1c1.1-1.1,2.5-1.7,4.1-1.7
			c0,0,0,0,0,0c2.2,0,4.1,1.3,5.1,3.1c1-1.8,2.9-3.1,5.1-3.1c0,0,0,0,0,0c1.5,0,3,0.6,4.1,1.7c1.1,1.1,1.7,2.5,1.7,4.1
			c0,0.5,0,9.7-10.6,13.4C1650.6-67.7,1650.5-67.7,1650.4-67.7z M1645.3-85.5c-1.2,0-2.3,0.5-3.1,1.3c-0.8,0.8-1.3,2-1.3,3.1
			c0,0.4-0.2,8.6,9.6,12.1c9.8-3.5,9.6-11.9,9.6-12c0,0,0,0,0,0c0-1.2-0.5-2.3-1.3-3.2c-0.8-0.8-2-1.3-3.1-1.3c0,0,0,0,0,0
			c-2.4,0-4.4,1.9-4.5,4.3l0,0.1c0,0,0,0,0,0.1v0v0c0,0.4-0.3,0.6-0.7,0.6h0c-0.4,0-0.6-0.3-0.6-0.7v0
			C1649.8-83.5,1647.8-85.5,1645.3-85.5C1645.3-85.5,1645.3-85.5,1645.3-85.5z"/>
	</g>
	<g id="패스_378">
		<path class="st0" d="M1651.9-71.8c-0.3,0-0.5-0.2-0.6-0.4l-1.8-4.8l-1.3,2.1c-0.1,0.2-0.3,0.3-0.6,0.3c-0.2,0-0.4-0.1-0.5-0.3
			l-1.6-2.9l-0.8,1.4c-0.1,0.2-0.3,0.3-0.6,0.3h-3.2c-0.4,0-0.7-0.3-0.7-0.7s0.3-0.7,0.7-0.7h2.8l1.1-2.1c0.1-0.2,0.4-0.3,0.6-0.3
			c0.2,0,0.5,0.1,0.6,0.3l1.7,3l1.5-2.2c0.1-0.2,0.4-0.3,0.6-0.3c0.2,0,0.5,0.2,0.5,0.4l1.6,4.3l1.1-3.1c0.1-0.3,0.3-0.4,0.6-0.4
			h6.3c0.4,0,0.6,0.3,0.6,0.7s-0.3,0.7-0.6,0.7h-5.9l-1.5,4.4C1652.4-72,1652.2-71.8,1651.9-71.8
			C1651.9-71.8,1651.9-71.8,1651.9-71.8z"/>
	</g>
</g>
<g id="그룹_423" transform="translate(-395.485 118.253)">
	<g id="그룹_418">
		<g id="합치기_1">
			<path class="st1" d="M426.8-75.2h43.2v37.3h-43.2V-75.2z"/>
			<path class="st0" d="M470.1-36.8h-43.2c-0.6,0-1.1-0.5-1.1-1.1v-37.3c0-0.6,0.5-1.1,1.1-1.1h43.2c0.6,0,1.1,0.5,1.1,1.1v37.3
				C471.2-37.3,470.7-36.8,470.1-36.8z M427.9-39h41v-35.1h-41V-39z"/>
		</g>
		<g id="그룹_417">
			<g id="사각형_283-2">
				<rect x="442.3" y="-50.7" class="st6" width="12.2" height="12.8"/>
				<path class="st0" d="M454.5-37.2h-12.2c-0.4,0-0.7-0.3-0.7-0.7v-12.8c0-0.4,0.3-0.7,0.7-0.7h12.2c0.4,0,0.7,0.3,0.7,0.7v12.8
					C455.2-37.5,454.9-37.2,454.5-37.2z M443-38.5h10.9V-50H443V-38.5z"/>
			</g>
		</g>
	</g>
	<g id="그룹_421">
		<g id="사각형_375">
			<path class="st1" d="M442.1-84.4h12.7c2.7,0,4.8,2.2,4.8,4.8v12.7c0,2.7-2.2,4.8-4.8,4.8h-12.7c-2.7,0-4.8-2.2-4.8-4.8v-12.7
				C437.3-82.3,439.4-84.4,442.1-84.4z"/>
			<path class="st0" d="M454.8-61h-12.7c-3.3,0-5.9-2.7-5.9-5.9v-12.7c0-3.3,2.7-5.9,5.9-5.9h12.7c3.3,0,5.9,2.7,5.9,5.9v12.7
				C460.7-63.6,458.1-61,454.8-61z M442.1-83.3c-2,0-3.7,1.7-3.7,3.7v12.7c0,2,1.7,3.7,3.7,3.7h12.7c2,0,3.7-1.7,3.7-3.7v-12.7
				c0-2-1.7-3.7-3.7-3.7H442.1z"/>
		</g>
		<g id="패스_304">
			<path class="st2" d="M454.8-75.4h-4.3v-4.3h-4.3v4.3h-4.3v4.3h4.3v4.3h4.3v-4.3h4.3L454.8-75.4z"/>
		</g>
	</g>
</g>
<g id="그룹_455" transform="translate(-395.208 117.1)">
	<g id="패스_305">
		<path class="st1" d="M572.8-39.1h-16.7V-54l8.4-5.2l8.4,5.2L572.8-39.1z"/>
		<path class="st0" d="M572.8-38h-16.7c-0.6,0-1.1-0.5-1.1-1.1V-54c0-0.4,0.2-0.7,0.5-0.9l8.4-5.2c0.4-0.2,0.8-0.2,1.2,0l8.4,5.2
			c0.3,0.2,0.5,0.6,0.5,0.9l0,14.9C573.9-38.5,573.4-38,572.8-38z M557.2-40.2h14.5l0-13.2l-7.3-4.5l-7.2,4.5V-40.2z"/>
	</g>
	<g id="패스_306">
		<path class="st0" d="M576-50.9c-0.2,0-0.4-0.1-0.6-0.2l-11-6.9l-11,6.9c-0.5,0.3-1.2,0.2-1.5-0.3c-0.3-0.5-0.2-1.2,0.4-1.5
			l11.6-7.3c0.4-0.2,0.8-0.2,1.2,0l11.6,7.3c0.5,0.3,0.7,1,0.4,1.5C576.8-51,576.4-50.9,576-50.9z"/>
	</g>
	<g id="그룹_419">
		<g id="패스_305-2">
			<path class="st1" d="M556.1-39.1h-31.3v-32.1l15.6-9.8l15.6,9.8L556.1-39.1z"/>
			<path class="st0" d="M556.1-38h-31.3c-0.6,0-1.1-0.5-1.1-1.1v-32.1c0-0.4,0.2-0.7,0.5-0.9l15.6-9.8c0.4-0.2,0.8-0.2,1.2,0
				l15.6,9.8c0.3,0.2,0.5,0.6,0.5,0.9l0,32.1c0,0.3-0.1,0.6-0.3,0.8C556.6-38.1,556.3-38,556.1-38z M525.9-40.2h29.1l0-30.4
				l-14.5-9.1l-14.5,9.1V-40.2z"/>
		</g>
		<g id="패스_306-2">
			<path class="st0" d="M518.7-66.3c-0.4,0-0.7-0.2-0.9-0.5c-0.3-0.5-0.2-1.2,0.4-1.5l21.8-13.5c0.4-0.2,0.8-0.2,1.2,0l21.8,13.5
				c0.5,0.3,0.7,1,0.4,1.5c-0.3,0.5-1,0.7-1.5,0.4l-21.2-13.2l-21.2,13.2C519.1-66.3,518.9-66.3,518.7-66.3z"/>
		</g>
		<g id="패스_305-2-2">
			<path class="st2" d="M545.1-52.8h-9.7c-0.4,0-0.6-0.3-0.6-0.6v-7.3c0-0.2,0.1-0.4,0.3-0.5l4.9-3.4c0.2-0.2,0.5-0.2,0.7,0l4.9,3.4
				c0.2,0.1,0.3,0.3,0.3,0.5l0,7.3C545.7-53.1,545.4-52.8,545.1-52.8z M536-54.1h8.4l0-6.3l-4.2-2.9l-4.2,2.9V-54.1z"/>
		</g>
	</g>
	<g id="사각형_283-3">
		<rect x="561.3" y="-46.9" class="st6" width="6.2" height="7.8"/>
		<path class="st0" d="M567.5-38.4h-6.2c-0.4,0-0.7-0.3-0.7-0.7v-7.8c0-0.4,0.3-0.6,0.7-0.6h6.2c0.4,0,0.6,0.3,0.6,0.6v7.8
			C568.1-38.7,567.9-38.4,567.5-38.4z M562-39.7h4.9v-6.5H562V-39.7z"/>
	</g>
</g>
<g id="그룹_456" transform="translate(-395.485 117.828)">
	<g id="패스_305-3">
		<path class="st1" d="M661.1-44h-27.8v-24.8l13.9-8.7l13.9,8.7L661.1-44z"/>
		<path class="st0" d="M661.1-42.9h-27.8c-0.6,0-1.1-0.5-1.1-1.1v-24.8c0-0.4,0.2-0.7,0.5-0.9l13.9-8.7c0.4-0.2,0.8-0.2,1.2,0
			l13.9,8.7c0.3,0.2,0.5,0.6,0.5,0.9l0,24.8c0,0.3-0.1,0.6-0.3,0.8C661.6-43,661.3-42.9,661.1-42.9z M634.4-45.1h25.6l0-23.1
			l-12.8-8l-12.8,8V-45.1z"/>
	</g>
	<g id="패스_306-3">
		<path class="st0" d="M627.9-64.3c-0.4,0-0.7-0.2-0.9-0.5c-0.3-0.5-0.2-1.2,0.4-1.5l19.3-12.1c0.4-0.2,0.8-0.2,1.2,0l19.3,12.1
			c0.5,0.3,0.7,1,0.4,1.5c-0.3,0.5-1,0.7-1.5,0.4l-18.7-11.7l-18.7,11.7C628.3-64.3,628.1-64.3,627.9-64.3z"/>
	</g>
	<g id="사각형_283-4">
		<rect x="642" y="-56.9" class="st6" width="10.2" height="12.9"/>
		<path class="st0" d="M652.3-43.3H642c-0.4,0-0.6-0.3-0.6-0.7v-12.9c0-0.4,0.3-0.7,0.6-0.7h10.2c0.4,0,0.7,0.3,0.7,0.7V-44
			C652.9-43.6,652.6-43.3,652.3-43.3z M642.7-44.6h8.9v-11.6h-8.9V-44.6z"/>
	</g>
</g>
<g id="그룹_404" transform="translate(0 2)">
	<g id="그룹_302" transform="translate(-1605.447 254.472) rotate(-45)">
		<line id="선_13" class="st9" x1="2234.9" y1="1958.1" x2="2234.9" y2="1972.4"/>
	</g>
	<g id="타원_52" transform="translate(304 66)">
		<circle class="st10" cx="1043" cy="-21.4" r="20.4"/>
		<circle class="st11" cx="1043" cy="-21.4" r="18"/>
	</g>
</g>
</svg>
