<?xml version="1.0" encoding="utf-8"?>
<!-- Generator: Adobe Illustrator 25.2.1, SVG Export Plug-In . SVG Version: 6.00 Build 0)  -->
<svg version="1.1" id="Layer_1" xmlns="http://www.w3.org/2000/svg" xmlns:xlink="http://www.w3.org/1999/xlink" x="0px" y="0px"
	 viewBox="0 0 500 200" style="enable-background:new 0 0 500 200;" xml:space="preserve">
<style type="text/css">
	.st0{fill:#323242;}
	.st1{fill:#323242;stroke:#000000;stroke-miterlimit:10;}
	.st2{fill:#333333;stroke:#000000;stroke-width:0.9338;stroke-miterlimit:10;}
	.st3{fill:#0055FF;}
	.st4{fill:#0055FF;stroke:#0055FF;stroke-miterlimit:10;}
	.st5{fill:#0055FF;stroke:#0055FF;stroke-width:0.9338;stroke-miterlimit:10;}
</style>
<g id="그룹_629" transform="translate(-161 -753)">
	<g id="그룹_359" transform="translate(-908.371 40.314)">
		<g id="패스_334">
			<path class="st0" d="M1298.5,785.1c-1,0-1.8-0.8-1.8-1.8v-43.1c0-3.4,2.8-6.2,6.2-6.2l39.3,0c0.5,0,0.9,0.2,1.2,0.5
				c0.3,0.3,0.5,0.8,0.5,1.2v43.6c0,1-0.8,1.8-1.8,1.8h-39.3c0,0,0,0,0,0c-1.4,0-2.5,1-2.6,2.4
				C1300.2,784.4,1299.4,785.1,1298.5,785.1z M1302.9,737.5c-1.5,0-2.7,1.2-2.7,2.7v38c0.8-0.4,1.7-0.6,2.7-0.6c0,0,0,0,0,0h37.5
				v-40.1L1302.9,737.5L1302.9,737.5z"/>
		</g>
		<g id="패스_335">
			<path class="st0" d="M1342.2,790h-39.3c-3.4,0-6.2-2.8-6.2-6.2c0-0.3,0-0.6,0.1-0.8c0.3-3,3-5.4,6.1-5.4c0,0,0,0,0,0h39.3
				c1,0,1.8,0.8,1.8,1.8v8.9C1343.9,789.2,1343.1,790,1342.2,790z M1302.9,781.2c-1.4,0-2.5,1-2.6,2.4l-1.8,0.3h1.8
				c0,1.5,1.2,2.7,2.7,2.7h37.5v-5.3H1302.9C1302.9,781.2,1302.9,781.2,1302.9,781.2C1302.9,781.2,1302.9,781.2,1302.9,781.2z"/>
		</g>
	</g>
	<g id="i-2" transform="translate(-908.371 40.314)">
		<g id="패스_419">
			<path class="st0" d="M1318,771.5V755h4.7v16.5H1318z M1320.5,750.5h-0.2c-1.6,0-2.9-1.3-2.9-2.9l0,0c0-1.6,1.3-2.9,2.9-2.9h0.2
				c1.6,0,2.9,1.3,2.9,2.9c0,0,0,0,0,0l0,0C1323.4,749.2,1322.1,750.5,1320.5,750.5C1320.5,750.5,1320.5,750.5,1320.5,750.5
				L1320.5,750.5z"/>
		</g>
	</g>
</g>
<g id="그룹_406" transform="translate(-1197.371 -711.686)">
	<g id="그룹_442">
		<g id="사각형_332">
			<path class="st0" d="M1669,790.7h-42.3c-1,0-1.8-0.8-1.8-1.8c0-11.3,9.2-20.6,20.6-20.6h4.8c11.3,0,20.6,9.2,20.6,20.6
				C1670.9,789.9,1670,790.7,1669,790.7z M1628.7,787h38.4c-0.9-8.5-8.1-15-16.8-15h-4.8C1636.8,772,1629.6,778.6,1628.7,787z"/>
		</g>
		<g id="사각형_335">
			<path class="st0" d="M1647.9,765.2c-3.6,0-7.1-1.4-9.6-4c-2.6-2.6-4-6-4-9.6v-2c0-3.6,1.4-7.1,4-9.6c2.6-2.6,6-4,9.6-4
				c0,0,0,0,0,0v1.8l0-1.8c7.5,0,13.6,6.1,13.6,13.6v1.9C1661.5,759.1,1655.4,765.2,1647.9,765.2
				C1647.9,765.2,1647.9,765.2,1647.9,765.2z M1647.9,739.7c-5.5,0-9.9,4.5-9.9,9.9v2c0,5.5,4.5,9.9,9.9,9.9c0,0,0,0,0,0
				c5.5,0,9.9-4.5,9.9-9.9v-1.9C1657.8,744.1,1653.4,739.7,1647.9,739.7L1647.9,739.7C1647.9,739.7,1647.9,739.7,1647.9,739.7z"/>
		</g>
	</g>
</g>
<g id="그룹_532" transform="translate(-1003.371 -715.686)">
	<g id="선_37">
		<path class="st1" d="M1077.2,748.8h-46.8c-1,0-1.8-0.8-1.8-1.8s0.8-1.8,1.8-1.8h46.8c1,0,1.8,0.8,1.8,1.8
			S1078.2,748.8,1077.2,748.8z"/>
	</g>
	<g id="선_38">
		<path class="st1" d="M1077.2,767.9h-45.9c-1,0-1.8-0.8-1.8-1.8s0.8-1.8,1.8-1.8h45.9c1,0,1.8,0.8,1.8,1.8
			S1078.2,767.9,1077.2,767.9z"/>
	</g>
	<g id="선_39">
		<path class="st1" d="M1077.2,786.9h-45.9c-1,0-1.8-0.8-1.8-1.8s0.8-1.8,1.8-1.8h45.9c1,0,1.8,0.8,1.8,1.8
			S1078.2,786.9,1077.2,786.9z"/>
	</g>
</g>
<g id="패스_333">
	<path class="st2" d="M169.7,76.4h-37.5c-3.8,0-6.9-3.1-6.9-6.9V46c0-2.1,1-4.1,2.6-5.4l18.7-14.8c2.5-2,6-2,8.5,0L174,40.7
		c1.7,1.3,2.6,3.3,2.6,5.4v23.5C176.6,73.4,173.5,76.4,169.7,76.4z M151,27.7c-0.8,0-1.6,0.3-2.2,0.8L130,43.2
		c-0.9,0.7-1.4,1.7-1.4,2.8v23.5c0,2,1.6,3.6,3.6,3.6h37.5c2,0,3.6-1.6,3.6-3.6V46.1c0-1.1-0.5-2.1-1.4-2.8l-18.7-14.8
		C152.6,27.9,151.8,27.7,151,27.7z"/>
</g>
<g id="그룹_553" transform="translate(-1135.372 -712.686)">
	<g id="패스_332">
		<path class="st0" d="M1494.7,791.2c-0.2,0-0.5,0-0.7-0.2c-0.6-0.3-1-0.9-1-1.6v-10.8h-25.7c-1.9,0-3.7-0.8-5.1-2.1
			c-1.3-1.4-2.1-3.2-2.1-5.1v-29c0-4,3.2-7.2,7.1-7.2h36.3c4,0,7.2,3.3,7.1,7.2v32c0,2.1-0.9,4-2.4,5.4l-12.3,10.9
			C1495.5,791.1,1495.1,791.2,1494.7,791.2z M1494.7,775.2c1,0,1.8,0.8,1.8,1.8v8.6l9.4-8.3c0.8-0.7,1.3-1.7,1.3-2.8v-32
			c0-2-1.6-3.7-3.6-3.7h-36.3c-2,0-3.6,1.7-3.6,3.7c0,0,0,0,0,0c0,0,0,0,0,0v29c0,1,0.4,1.9,1.1,2.6c0.7,0.7,1.6,1.1,2.6,1.1H1494.7
			z"/>
	</g>
	<g id="_2">
		<g id="_2-2">
			<g id="_2-2-2">
				<g id="_2-2-3">
					<g id="그룹_589">
						<g id="패스_420">
							<path class="st0" d="M1483.2,762.2c-0.2-1.2-0.2-2.3,0-3.5c0.1-0.8,0.4-1.6,0.8-2.3c0.3-0.6,0.7-1.1,1.2-1.6
								c0.5-0.4,0.9-0.8,1.3-1.2c0.4-0.4,0.7-0.8,1-1.3c0.3-0.5,0.4-1.1,0.4-1.7c0-0.8-0.2-1.5-0.6-2.1c-0.5-0.6-1.2-0.9-2-0.9
								c-0.8,0-1.7,0.3-2.2,0.9c-0.6,0.8-1,1.8-1,2.9h-4c0-1.2,0.3-2.5,0.9-3.6c0.4-0.9,1-1.7,1.8-2.3c0.7-0.6,1.5-1,2.3-1.2
								c0.8-0.2,1.6-0.3,2.4-0.3c0.9,0,1.8,0.2,2.7,0.5c0.8,0.3,1.5,0.7,2.1,1.2c0.6,0.5,1.1,1.2,1.4,1.9c0.4,0.8,0.5,1.7,0.5,2.6
								c0,1-0.1,1.9-0.5,2.8c-0.3,0.7-0.7,1.3-1.1,1.8c-0.4,0.5-0.9,0.9-1.4,1.3c-0.5,0.4-1,0.8-1.3,1.3c-0.4,0.5-0.7,1.2-0.9,1.9
								c-0.2,1-0.2,2-0.1,3L1483.2,762.2z M1485,769.4h-0.1c-1.3,0-2.3-1-2.3-2.3l0,0l0,0c0-1.3,1-2.3,2.3-2.3h0.1
								c1.3,0,2.3,1,2.3,2.3l0,0C1487.3,768.4,1486.3,769.4,1485,769.4z"/>
						</g>
					</g>
				</g>
			</g>
		</g>
	</g>
</g>
<g id="그룹_629_1_" transform="translate(-161 -753)">
	<g id="그룹_359_1_" transform="translate(-908.371 40.314)">
		<g id="패스_334_1_">
			<path class="st3" d="M1298.5,885.1c-1,0-1.8-0.8-1.8-1.8v-43.1c0-3.4,2.8-6.2,6.2-6.2l39.3,0c0.5,0,0.9,0.2,1.2,0.5
				c0.3,0.3,0.5,0.8,0.5,1.2v43.6c0,1-0.8,1.8-1.8,1.8h-39.3c0,0,0,0,0,0c-1.4,0-2.5,1-2.6,2.4
				C1300.2,884.4,1299.4,885.1,1298.5,885.1z M1302.9,837.5c-1.5,0-2.7,1.2-2.7,2.7v38c0.8-0.4,1.7-0.6,2.7-0.6c0,0,0,0,0,0h37.5
				v-40.1L1302.9,837.5L1302.9,837.5z"/>
		</g>
		<g id="패스_335_1_">
			<path class="st3" d="M1342.2,890h-39.3c-3.4,0-6.2-2.8-6.2-6.2c0-0.3,0-0.6,0.1-0.8c0.3-3,3-5.4,6.1-5.4c0,0,0,0,0,0h39.3
				c1,0,1.8,0.8,1.8,1.8v8.9C1343.9,889.2,1343.1,890,1342.2,890z M1302.9,881.2c-1.4,0-2.5,1-2.6,2.4l-1.8,0.3h1.8
				c0,1.5,1.2,2.7,2.7,2.7h37.5v-5.3H1302.9C1302.9,881.2,1302.9,881.2,1302.9,881.2C1302.9,881.2,1302.9,881.2,1302.9,881.2z"/>
		</g>
	</g>
	<g id="i-2_1_" transform="translate(-908.371 40.314)">
		<g id="패스_419_1_">
			<path class="st3" d="M1318,871.5V855h4.7v16.5H1318z M1320.5,850.5h-0.2c-1.6,0-2.9-1.3-2.9-2.9l0,0c0-1.6,1.3-2.9,2.9-2.9h0.2
				c1.6,0,2.9,1.3,2.9,2.9c0,0,0,0,0,0l0,0C1323.4,849.2,1322.1,850.5,1320.5,850.5C1320.5,850.5,1320.5,850.5,1320.5,850.5
				L1320.5,850.5z"/>
		</g>
	</g>
</g>
<g id="그룹_406_1_" transform="translate(-1197.371 -711.686)">
	<g id="그룹_442_1_">
		<g id="사각형_332_1_">
			<path class="st3" d="M1669,890.7h-42.3c-1,0-1.8-0.8-1.8-1.8c0-11.3,9.2-20.6,20.6-20.6h4.8c11.3,0,20.6,9.2,20.6,20.6
				C1670.9,889.9,1670,890.7,1669,890.7z M1628.7,887h38.4c-0.9-8.5-8.1-15-16.8-15h-4.8C1636.8,872,1629.6,878.6,1628.7,887z"/>
		</g>
		<g id="사각형_335_1_">
			<path class="st3" d="M1647.9,865.2c-3.6,0-7.1-1.4-9.6-4c-2.6-2.6-4-6-4-9.6v-2c0-3.6,1.4-7.1,4-9.6c2.6-2.6,6-4,9.6-4
				c0,0,0,0,0,0v1.8l0-1.8c7.5,0,13.6,6.1,13.6,13.6v1.9C1661.5,859.1,1655.4,865.2,1647.9,865.2
				C1647.9,865.2,1647.9,865.2,1647.9,865.2z M1647.9,839.7c-5.5,0-9.9,4.5-9.9,9.9v2c0,5.5,4.5,9.9,9.9,9.9c0,0,0,0,0,0
				c5.5,0,9.9-4.5,9.9-9.9v-1.9C1657.8,844.1,1653.4,839.7,1647.9,839.7L1647.9,839.7C1647.9,839.7,1647.9,839.7,1647.9,839.7z"/>
		</g>
	</g>
</g>
<g id="그룹_532_1_" transform="translate(-1003.371 -715.686)">
	<g id="선_37_1_">
		<path class="st4" d="M1077.2,848.8h-46.8c-1,0-1.8-0.8-1.8-1.8s0.8-1.8,1.8-1.8h46.8c1,0,1.8,0.8,1.8,1.8
			S1078.2,848.8,1077.2,848.8z"/>
	</g>
	<g id="선_38_1_">
		<path class="st4" d="M1077.2,867.9h-45.9c-1,0-1.8-0.8-1.8-1.8s0.8-1.8,1.8-1.8h45.9c1,0,1.8,0.8,1.8,1.8
			S1078.2,867.9,1077.2,867.9z"/>
	</g>
	<g id="선_39_1_">
		<path class="st4" d="M1077.2,886.9h-45.9c-1,0-1.8-0.8-1.8-1.8s0.8-1.8,1.8-1.8h45.9c1,0,1.8,0.8,1.8,1.8
			S1078.2,886.9,1077.2,886.9z"/>
	</g>
</g>
<g id="패스_333_1_">
	<path class="st5" d="M169.7,176.4h-37.5c-3.8,0-6.9-3.1-6.9-6.9V146c0-2.1,1-4.1,2.6-5.4l18.7-14.8c2.5-2,6-2,8.5,0l18.7,14.8
		c1.7,1.3,2.6,3.3,2.6,5.4v23.5C176.6,173.4,173.5,176.4,169.7,176.4z M151,127.7c-0.8,0-1.6,0.3-2.2,0.8L130,143.2
		c-0.9,0.7-1.4,1.7-1.4,2.8v23.5c0,2,1.6,3.6,3.6,3.6h37.5c2,0,3.6-1.6,3.6-3.6v-23.5c0-1.1-0.5-2.1-1.4-2.8l-18.7-14.8
		C152.6,127.9,151.8,127.7,151,127.7z"/>
</g>
<g id="그룹_553_1_" transform="translate(-1135.372 -712.686)">
	<g id="패스_332_1_">
		<path class="st3" d="M1494.7,891.2c-0.2,0-0.5,0-0.7-0.2c-0.6-0.3-1-0.9-1-1.6v-10.8h-25.7c-1.9,0-3.7-0.8-5.1-2.1
			c-1.3-1.4-2.1-3.2-2.1-5.1v-29c0-4,3.2-7.2,7.1-7.2h36.3c4,0,7.2,3.3,7.1,7.2v32c0,2.1-0.9,4-2.4,5.4l-12.3,10.9
			C1495.5,891.1,1495.1,891.2,1494.7,891.2z M1494.7,875.2c1,0,1.8,0.8,1.8,1.8v8.6l9.4-8.3c0.8-0.7,1.3-1.7,1.3-2.8v-32
			c0-2-1.6-3.7-3.6-3.7h-36.3c-2,0-3.6,1.7-3.6,3.7c0,0,0,0,0,0c0,0,0,0,0,0v29c0,1,0.4,1.9,1.1,2.6c0.7,0.7,1.6,1.1,2.6,1.1H1494.7
			z"/>
	</g>
	<g id="_2_1_">
		<g id="_2-2_1_">
			<g id="_2-2-2_1_">
				<g id="_2-2-3_1_">
					<g id="그룹_589_1_">
						<g id="패스_420_1_">
							<path class="st3" d="M1483.2,862.2c-0.2-1.2-0.2-2.3,0-3.5c0.1-0.8,0.4-1.6,0.8-2.3c0.3-0.6,0.7-1.1,1.2-1.6
								c0.5-0.4,0.9-0.8,1.3-1.2c0.4-0.4,0.7-0.8,1-1.3c0.3-0.5,0.4-1.1,0.4-1.7c0-0.8-0.2-1.5-0.6-2.1c-0.5-0.6-1.2-0.9-2-0.9
								c-0.8,0-1.7,0.3-2.2,0.9c-0.6,0.8-1,1.8-1,2.9h-4c0-1.2,0.3-2.5,0.9-3.6c0.4-0.9,1-1.7,1.8-2.3c0.7-0.6,1.5-1,2.3-1.2
								c0.8-0.2,1.6-0.3,2.4-0.3c0.9,0,1.8,0.2,2.7,0.5c0.8,0.3,1.5,0.7,2.1,1.2c0.6,0.5,1.1,1.2,1.4,1.9c0.4,0.8,0.5,1.7,0.5,2.6
								c0,1-0.1,1.9-0.5,2.8c-0.3,0.7-0.7,1.3-1.1,1.8c-0.4,0.5-0.9,0.9-1.4,1.3c-0.5,0.4-1,0.8-1.3,1.3c-0.4,0.5-0.7,1.2-0.9,1.9
								c-0.2,1-0.2,2-0.1,3L1483.2,862.2z M1485,869.4h-0.1c-1.3,0-2.3-1-2.3-2.3l0,0l0,0c0-1.3,1-2.3,2.3-2.3h0.1
								c1.3,0,2.3,1,2.3,2.3l0,0C1487.3,868.4,1486.3,869.4,1485,869.4z"/>
						</g>
					</g>
				</g>
			</g>
		</g>
	</g>
</g>
</svg>
