<?xml version="1.0" encoding="utf-8"?>
<!-- Generator: Adobe Illustrator 25.0.0, SVG Export Plug-In . SVG Version: 6.00 Build 0)  -->
<svg version="1.1" id="Layer_1" xmlns="http://www.w3.org/2000/svg" xmlns:xlink="http://www.w3.org/1999/xlink" x="0px" y="0px"
	 viewBox="0 0 100 100" style="enable-background:new 0 0 100 100;" xml:space="preserve">
<style type="text/css">
	.st0{fill:none;stroke:#000000;stroke-width:2.25;stroke-miterlimit:10;}
	.st1{fill:none;stroke:#000000;stroke-width:2.25;stroke-miterlimit:10;stroke-dasharray:9.2961,5.1645;}
	.st2{fill:none;stroke:#000000;stroke-width:2.25;stroke-miterlimit:10;stroke-dasharray:5.6453,6.0796;}
	.st3{fill:none;stroke:#000000;stroke-width:2.25;stroke-miterlimit:10;stroke-dasharray:5.7049,6.1437;}
	.st4{fill:none;stroke:#000000;stroke-width:1.35;stroke-miterlimit:10;}
	.st5{fill:none;stroke:#000000;stroke-width:1.8;stroke-miterlimit:10;stroke-dasharray:12;}
	.st6{fill:none;stroke:#000000;stroke-width:2.25;stroke-miterlimit:10;stroke-dasharray:7.6,5;}
</style>
<g>
	<g>
		<line class="st0" x1="27" y1="83.1" x2="27" y2="78.6"/>
		<line class="st1" x1="27" y1="73.4" x2="27" y2="61.5"/>
		<line class="st0" x1="27" y1="59" x2="27" y2="54.5"/>
	</g>
</g>
<g>
	<g>
		<line class="st0" x1="75.2" y1="54.5" x2="75.2" y2="59"/>
		<line class="st1" x1="75.2" y1="64.1" x2="75.2" y2="76"/>
		<line class="st0" x1="75.2" y1="78.6" x2="75.2" y2="83.1"/>
	</g>
</g>
<g>
	<g>
		<line class="st0" x1="85.4" y1="50.9" x2="83.1" y2="48.6"/>
		<line class="st2" x1="78.8" y1="44.3" x2="55.9" y2="21.7"/>
		<polyline class="st0" points="53.7,19.6 51.4,17.3 49.1,19.6 		"/>
		<line class="st3" x1="44.7" y1="23.9" x2="21.6" y2="46.8"/>
		<line class="st0" x1="19.4" y1="48.9" x2="17.1" y2="51.2"/>
	</g>
</g>
<line class="st4" x1="18.3" y1="83.6" x2="83.8" y2="83.6"/>
<line class="st5" x1="26.9" y1="16.1" x2="29.4" y2="23.2"/>
<line class="st5" x1="16.3" y1="27.1" x2="23.8" y2="29"/>
<path class="st6" d="M43.7,83.2V66.6c0-4.4,3.6-7.9,7.9-7.9h0c4.4,0,7.9,3.6,7.9,7.9v16.6"/>
</svg>
