<?xml version="1.0" encoding="utf-8"?>
<!-- Generator: Adobe Illustrator 25.2.3, SVG Export Plug-In . SVG Version: 6.00 Build 0)  -->
<svg version="1.1" id="Layer_1" xmlns="http://www.w3.org/2000/svg" xmlns:xlink="http://www.w3.org/1999/xlink" x="0px" y="0px"
	 viewBox="0 0 100 100" style="enable-background:new 0 0 100 100;" xml:space="preserve">
<style type="text/css">
	.st0{fill:#0055FF;}
</style>
<path d="M60.9,71.9c0.2,1.2,1.3,2.1,2.6,2c8.5-1.1,15.9-3.3,21.4-6.5c6-3.5,9.2-7.9,9.2-12.7c0-4.2-2.5-8.2-7.3-11.4
	c-0.4-0.3-0.8-0.4-1.3-0.4c-0.7,0-1.4,0.3-1.9,1c-0.7,1-0.5,2.5,0.6,3.2c2.4,1.7,5.3,4.4,5.3,7.7c0,3-2.5,6.1-7,8.7
	c-4.9,2.8-11.8,5-19.6,5.9C61.7,69.5,60.8,70.6,60.9,71.9z"/>
<path d="M38.8,82.1c0.6,0,1.2-0.2,1.6-0.7l6.5-6.5c0.9-0.9,0.9-2.3,0-3.2l-6.5-6.5c-0.9-0.9-2.3-0.9-3.2,0s-0.9,2.3,0,3.2l2.2,2.2
	h-0.5c-7.4-0.8-14.1-2.5-19.2-5c-5.9-2.8-9.2-6.4-9.2-9.9c0-2.9,2.4-6,6.8-8.6c0.5-0.3,0.9-0.8,1.1-1.4c0.2-0.6,0.1-1.2-0.2-1.7
	c-0.4-0.7-1.2-1.1-2-1.1c-0.4,0-0.8,0.1-1.2,0.3c-7.5,4.4-9,9.3-9,12.5c0,5.4,4.2,10.4,11.8,14c5.9,2.9,13.6,4.8,22,5.5H40l-2.9,2.9
	c-0.9,0.9-0.9,2.3,0,3.2C37.5,81.9,38.2,82.1,38.8,82.1z"/>
<path class="st0" d="M34.7,48.5v-0.6c0-2.1-1.3-2.5-3-2.5c-1.1,0-1.4-0.9-1.4-1.9c0-0.9,0.3-1.9,1.4-1.9c1.2,0,2.4-0.2,2.4-2.7
	c0-1.8-1-2.2-2.3-2.2c-1.5,0-2.3,0.4-2.3,1.6c0,1.1-0.5,1.8-2.3,1.8c-2.2,0-2.5-0.5-2.5-2c0-2.4,1.7-5.6,7.1-5.6
	c4,0,6.9,1.4,6.9,5.6c0,2.3-0.8,4.4-2.4,5.1c1.8,0.7,3.2,2.1,3.2,4.6v0.6c0,5.1-3.5,7-7.9,7c-5.3,0-7.4-3.3-7.4-5.9
	c0-1.4,0.6-1.8,2.3-1.8c2,0,2.5,0.4,2.5,1.6c0,1.5,1.4,1.8,2.8,1.8C34,51.3,34.7,50.5,34.7,48.5z"/>
<path class="st0" d="M58.5,47.9v0.3c0,5.3-3.3,7.3-7.6,7.3s-7.7-2-7.7-7.3V40c0-5.3,3.5-7.3,7.9-7.3c5.3,0,7.3,3.3,7.3,5.8
	c0,1.5-0.7,2-2.3,2c-1.3,0-2.5-0.3-2.5-1.8c0-1.2-1.2-1.8-2.7-1.8c-1.8,0-2.9,1-2.9,3.1v2.8c1-1.1,2.4-1.4,3.9-1.4
	C55.5,41.3,58.5,42.9,58.5,47.9z M48,48.5c0,2.1,1.1,3.1,2.8,3.1s2.8-0.9,2.8-3.1v-0.3c0-2.3-1-3.1-2.8-3.1C49,45.1,48,45.9,48,48
	V48.5z"/>
<path class="st0" d="M62.2,48.2V40c0-5.3,3.3-7.3,7.6-7.3s7.7,2,7.7,7.3v8.2c0,5.3-3.4,7.3-7.7,7.3C65.6,55.5,62.2,53.5,62.2,48.2z
	 M72.7,39.9c0-2.1-1.1-3.1-2.8-3.1c-1.7,0-2.8,1-2.8,3.1v8.2c0,2.1,1,3.1,2.8,3.1c1.7,0,2.8-1,2.8-3.1V39.9z"/>
<path class="st0" d="M83.4,32.6c-4.1,0-7.4-3.3-7.4-7.4s3.3-7.4,7.4-7.4s7.4,3.3,7.4,7.4S87.5,32.6,83.4,32.6z M83.4,22.7
	c-1.4,0-2.5,1.1-2.5,2.5s1.1,2.5,2.5,2.5s2.5-1.1,2.5-2.5C85.9,23.8,84.8,22.7,83.4,22.7z"/>
</svg>
