<?xml version="1.0" encoding="utf-8"?>
<!-- Generator: Adobe Illustrator 25.2.2, SVG Export Plug-In . SVG Version: 6.00 Build 0)  -->
<svg version="1.1" id="Layer_1" xmlns="http://www.w3.org/2000/svg" xmlns:xlink="http://www.w3.org/1999/xlink" x="0px" y="0px"
	 viewBox="0 0 300 100" style="enable-background:new 0 0 300 100;" xml:space="preserve">
<style type="text/css">
	.st0{fill:none;stroke:#FFFFFF;stroke-width:0.1678;stroke-miterlimit:10;}
	.st1{stroke:#FFFFFF;stroke-width:0.1678;stroke-miterlimit:10;}
	.st2{stroke:#FFFFFF;stroke-width:0.1342;stroke-miterlimit:10;}
	.st3{stroke:#000000;stroke-width:0.3356;stroke-miterlimit:9.9999;}
	.st4{stroke:#000000;stroke-width:0.3356;stroke-miterlimit:10;}
</style>
<g>
	<path class="st0" d="M61.1,63.9c-2.8,3.6-7.2,6-12.1,6c-1.1,0-2.3-0.1-3.4-0.4c0.6,1.9,2.4,3.4,4.6,3.4h6.1c2.6,0,4.8-2.1,4.8-4.8
		l0,0L61.1,63.9L61.1,63.9z"/>
	<path class="st0" d="M70.6,27.2c0.2,0.2,0.3,0.5,0.3,0.7s-0.1,0.6-0.3,0.7c-0.1,0-0.1,0.1-0.1,0.1l-4.4,5.4
		c-0.2,0.2-0.4,0.3-0.7,0.3l-3,0.3l0,0l-2.7,0.3c-0.2,0-0.4,0.1-0.5,0.3l-3.4,4.2c-0.2,0.2-0.4,0.3-0.7,0.3l-5.7,0.6
		c-0.4,0.1-0.7,0.4-0.7,0.8c0.1,0.4,0.4,0.7,0.8,0.7l6.4-0.6c0.2,0,0.4-0.1,0.5-0.3l3.4-4.2c0.2-0.2,0.4-0.3,0.7-0.3l5.7-0.5
		c0.2,0,0.4-0.1,0.5-0.3l4.8-5.9c0-0.1,0.1-0.1,0.1-0.1c0.1-0.3,0.4-0.5,0.7-0.5c0.3-0.1,0.6,0,0.8,0.2l0.3,0.3l0.1-3.5l-3.4,0.7
		L70.6,27.2z"/>
	<path class="st1" d="M40.8,55.3c0,0.5,0.5,1,1,1h3.5c0.5,0,1-0.4,1.1-0.9c0-0.6-0.4-1.1-1-1.1h-2.6v-5.9c0-0.5-0.5-1-1-1l0,0
		c-0.5,0-1,0.5-1,1V55.3z"/>
	<path class="st1" d="M75.3,24.2c-0.2-0.2-0.5-0.3-0.8-0.2l-6.6,1.4c-0.4,0.1-0.7,0.3-0.7,0.7c-0.1,0.4,0.1,0.7,0.3,1l1.1,0.9
		l-3.8,4.5l-2,0.2c-3.2-3.6-7.7-5.6-12.4-5.6c-4.4,0-8.5,1.7-11.7,4.8c-3.2,3.1-4.8,7.2-4.8,11.5V55c0,6.3,4,11.7,9.5,13.9
		c0.3,3.4,3.2,6.1,6.7,6.1h6.1c3.8,0,6.8-3,6.8-6.8v-7.9c0.5-1.3,0.9-2.8,0.9-4.4h1.9c2.1,0,3.8-1.7,3.8-3.8v-0.7
		c0-1.7-1.2-3.2-2.8-3.7v-4.2c0-1.9-0.3-3.8-1-5.5l0.6-0.1c0.7-0.1,1.4-0.4,1.9-1l4.4-5.4l1.1,0.9c0.3,0.3,0.7,0.3,1.1,0.1
		c0.3-0.1,0.6-0.5,0.6-0.9l0.1-6.8C75.7,24.7,75.6,24.4,75.3,24.2z M56.3,73h-6.1c-2.1,0-4-1.5-4.6-3.4c1.1,0.3,2.2,0.4,3.4,0.4
		c5,0,9.3-2.3,12.1-6v4.3l0,0C61.1,70.8,58.9,73,56.3,73z M67.7,51.4v0.7c0,1-0.8,1.8-1.8,1.8h-2.8c-0.5,0-1,0.5-1,1
		c0,1.7-0.3,3.2-0.9,4.7c0,0.1-0.1,0.1-0.1,0.1C59.2,64.6,54.5,68,49,68c-1.5,0-2.9-0.3-4.2-0.7c-0.1,0-0.1-0.1-0.1-0.1
		c-5.1-1.7-8.8-6.6-8.8-12.2v-5.4l0,0v-2v-2.5v-1.6c0-7.9,6.5-14.4,14.6-14.4c3.7,0,7.2,1.4,9.9,3.9l-0.7,0.1
		c-0.7,0.1-1.4,0.4-1.9,1l-3.2,3.8l-5.3,0.5c-1.5,0.1-2.6,1.5-2.5,3c0.1,1.4,1.3,2.5,2.8,2.5c0.1,0,0.2,0,0.3,0l6.4-0.6
		c0.7-0.1,1.4-0.4,1.9-1l3.2-3.8l2.6-0.3c0.7,1.7,1.1,3.5,1.1,5.4v4.2h-1.8c-0.5,0-1,0.5-1,1c0,0.5,0.5,1,1,1H66
		C66.9,49.7,67.7,50.5,67.7,51.4z M73.6,29.7l-0.3-0.3c-0.2-0.2-0.5-0.3-0.8-0.2s-0.5,0.3-0.7,0.5c0,0.1-0.1,0.1-0.1,0.1l-4.8,5.9
		c-0.1,0.1-0.3,0.3-0.5,0.3l-5.7,0.5c-0.3,0-0.5,0.1-0.7,0.3L56.6,41c-0.1,0.1-0.3,0.3-0.5,0.3l-6.4,0.6c-0.4,0.1-0.8-0.3-0.8-0.7
		c-0.1-0.4,0.3-0.8,0.7-0.8l5.8-0.5c0.3,0,0.5-0.1,0.7-0.3l3.4-4.2c0.1-0.1,0.3-0.3,0.5-0.3l2.7-0.3l0,0l3-0.3
		c0.3,0,0.5-0.1,0.7-0.3l4.4-5.4c0-0.1,0.1-0.1,0.1-0.1c0.2-0.2,0.3-0.5,0.3-0.7s-0.1-0.6-0.3-0.7L70.4,27l3.4-0.7L73.6,29.7z"/>
</g>
<path class="st2" d="M173.1,55.5h-1.2v-1.3c0-0.9-0.3-1.9-0.8-2.6c0.9-2.3,1.3-4.4,1.2-6.8c-0.1-3.4-1.5-6.6-3.6-9
	c-2.2-2.5-5.2-3.8-8.3-3.8c-4.7,0-8.6,2.9-10.1,4.4c-1.5-1.4-5.3-4.4-10.2-4.4c-3.1,0-6,1.3-8.3,3.8c-2.1,2.4-3.5,5.6-3.6,9
	c-0.1,2.4,0.3,4.6,1.2,6.8c-0.5,0.7-0.8,1.6-0.8,2.6v1.3h-1.2c-2.3,0-4.1,1.9-4.1,4.2c0,2.3,1.9,4.2,4.1,4.2h1.2v1.3
	c0,2.5,2,4.6,4.5,4.6c1.1,0,2.1-0.4,2.9-1.1c0.7,1.5,2.3,2.5,4,2.5c2.5,0,4.5-2,4.5-4.6v-0.3c2.9,2.1,5.1,3.6,5.2,3.6
	c0.2,0.1,0.4,0.2,0.6,0.2c0.2,0,0.4-0.1,0.6-0.2c0,0,2.2-1.5,5.1-3.6v0.2c0,2.5,2,4.6,4.5,4.6c1.7,0,3.3-1,4-2.5
	c0.8,0.7,1.8,1.1,2.9,1.1c2.5,0,4.5-2,4.5-4.6v-1.3h1.2c2.3,0,4.1-1.9,4.1-4.2C177.2,57.3,175.4,55.5,173.1,55.5z M130.2,44.8
	c0.3-6,4.7-10.8,9.8-10.8c5.4,0,9.3,4.4,9.4,4.4c0.2,0.2,0.5,0.3,0.8,0.3c0.3,0,0.6-0.1,0.8-0.3c0.1-0.1,4.2-4.4,9.4-4.4
	c5.1,0,9.5,4.8,9.8,10.8c0.1,1.9-0.1,3.6-0.8,5.3c-0.6-0.3-1.3-0.5-2-0.5c-1.1,0-2.1,0.4-2.9,1.1c-0.7-1.5-2.3-2.5-4-2.5
	c-2.5,0-4.5,2-4.5,4.6v2.8h-11.4v-2.8c0-2.5-2-4.6-4.5-4.6c-1.7,0-3.3,1-4,2.5c-0.8-0.7-1.8-1.1-2.9-1.1c-0.7,0-1.4,0.2-2,0.5
	C130.4,48.4,130.1,46.7,130.2,44.8z M144.5,57.5h11.4v4h-11.4V57.5z M127.3,61.6c-1.1,0-2-0.9-2-2c0-1.1,0.9-2,2-2h1.2v4H127.3
	L127.3,61.6z M133,67.5c-1.3,0-2.4-1.1-2.4-2.4V54.1c0-1.3,1.1-2.4,2.4-2.4c1.3,0,2.4,1.1,2.4,2.4V65
	C135.5,66.3,134.4,67.5,133,67.5z M142.4,66.5c0,1.3-1.1,2.4-2.4,2.4c-1.3,0-2.4-1.1-2.4-2.4V52.6c0-1.3,1.1-2.4,2.4-2.4
	c1.3,0,2.4,1.1,2.4,2.4V66.5z M150.2,67.7c-1-0.7-3.2-2.1-5.6-4h11.3C153.4,65.5,151.2,67,150.2,67.7L150.2,67.7z M162.8,66.5
	c0,1.3-1.1,2.4-2.4,2.4c-1.3,0-2.4-1.1-2.4-2.4V52.6c0-1.3,1.1-2.4,2.4-2.4c1.3,0,2.4,1.1,2.4,2.4V66.5z M169.8,65.1
	c0,1.3-1.1,2.4-2.4,2.4c-1.3,0-2.4-1.1-2.4-2.4V54.1c0-1.3,1.1-2.4,2.4-2.4c1.3,0,2.4,1.1,2.4,2.4V65.1z M173.1,61.6h-1.2v-4h1.2
	c1.1,0,2,0.9,2,2C175.1,60.7,174.2,61.6,173.1,61.6L173.1,61.6z"/>
<g>
	<g>
		
			<rect x="237.3" y="59.4" transform="matrix(0.7071 -0.7071 0.7071 0.7071 25.2181 186.7575)" class="st3" width="1.4" height="7.1"/>
	</g>
</g>
<g>
	<g>
		<path class="st4" d="M242.8,53.9c-2.3,0-4.3,1.9-4.3,4.3s1.9,4.3,4.3,4.3c2.3,0,4.3-1.9,4.3-4.3S245.1,53.9,242.8,53.9z
			 M242.8,61.1c-1.6,0-2.9-1.3-2.9-2.9c0-1.6,1.3-2.9,2.9-2.9c1.6,0,2.9,1.3,2.9,2.9C245.6,59.8,244.3,61.1,242.8,61.1z"/>
	</g>
</g>
<g>
	<g>
		<path class="st4" d="M273.4,33.3l-5.8-5.8c-0.3-0.3-0.7-0.3-1,0l-1.7,1.7l-1.7-1.7l-1,1l1.6,1.7l-2.6,2.6l-1.7-1.7l-1,1l1.7,1.7
			l-1.7,1.7c-0.3,0.3-0.3,0.7,0,1l0.9,0.9l-7.8,7.8c-1-0.5-2.1-0.8-3.4-0.9h-0.1L234,28.6c-0.7-0.7-1.6-1.2-2.6-1.2
			s-1.9,0.4-2.7,1.1c-1.4,1.4-1.4,3.8,0,5.2l13.2,13.2c-0.5,0.5-0.9,1-1.2,1.5c-1.2,1.9-2.9,3.2-4.8,3.7c-2.3,0.5-4.3,1.7-5.8,3.6
			c-3.4,4.1-3.4,10.1,0.3,14.2c2,2.2,4.8,3.5,7.7,3.6c0.1,0,0.2,0,0.3,0c2.9,0,5.6-1.1,7.6-3.2c1.4-1.4,2.4-3.2,2.9-5.1
			c0.5-2,1.7-3.7,3.5-4.7c0.7-0.4,1.2-0.8,1.7-1.3l9.3,9.3c-0.5,1.5-0.4,2.9,0.5,3.8c0.5,0.5,1.3,0.8,2.1,0.8c0.3,0,0.5,0,0.9-0.1
			c1.1-0.2,2.2-0.9,3.1-1.7c2-2,2.4-4.7,1-6.1c-0.9-0.9-2.2-1.1-3.6-0.5l-10.6-11.1c0.1-1.4-0.3-2.8-0.9-4.1l7.8-7.8l0.9,0.9
			c0.1,0.1,0.1,0.1,0.2,0.1s0.1,0.1,0.2,0.1c0.3,0,0.7-0.3,2.2-1.9l1.6,1.6l1-1l-1.6-1.6c0.4-0.4,0.8-0.8,1.3-1.3
			c0.4-0.4,0.9-0.9,1.3-1.3l1.6,1.6l1-1l-1.6-1.6c0.9-0.9,1.6-1.7,1.6-1.7C273.6,34.1,273.6,33.6,273.4,33.3z M229.7,32.6
			c-0.9-0.9-0.9-2.3,0-3.2c0.5-0.5,1-0.7,1.6-0.7s1.2,0.3,1.6,0.7l13.6,14.9c-1.3,0.2-2.6,0.7-3.6,1.5L229.7,32.6z M254,56.9
			c-0.6,0.9-1.4,1.6-2.3,2.1c-2.1,1.2-3.6,3.2-4.2,5.6c-0.4,1.7-1.3,3.2-2.5,4.4c-1.8,1.8-4.2,2.8-6.8,2.8c-2.6-0.1-5-1.1-6.7-3.1
			c-3.1-3.4-3.2-8.7-0.2-12.2c1.3-1.5,3.1-2.6,5-3.1c2.3-0.5,4.2-2.1,5.6-4.3c0.3-0.5,0.7-0.9,1-1.3c1.3-1.3,3.2-2.1,5.1-2.1
			c0.1,0,0.3,0,0.4,0c2.1,0.1,3.9,1.1,5.2,2.7c1.2,1.5,1.7,3.4,1.5,5.2l-0.1,0.1l0,0C255,54.9,254.6,56,254,56.9z M256.4,55
			l10.2,10.7c0.2,0.2,0.5,0.3,0.8,0.1c1.1-0.5,2-0.5,2.6,0.1c0.8,0.8,0.3,2.7-1,4c-0.7,0.7-1.5,1.2-2.3,1.3
			c-0.4,0.1-1.2,0.1-1.7-0.3c-0.5-0.5-0.5-1.5,0-2.6c0.1-0.3,0.1-0.6-0.1-0.8l-9.7-9.7c0.1-0.1,0.1-0.1,0.1-0.1
			C255.7,56.9,256.2,56,256.4,55z M255,47.8c-0.1-0.1-0.1-0.2-0.2-0.3c-0.5-0.6-1.1-1.1-1.7-1.6l7.5-7.5l1.9,1.9L255,47.8z
			 M265,40.7l-0.9-0.9l-2.9-2.9l-0.9-0.9l6.8-6.8l4.7,4.7C269.4,36.3,266.2,39.6,265,40.7z"/>
	</g>
</g>
<g>
	<g>
		<g>
			
				<rect x="262.5" y="34.6" transform="matrix(0.7071 -0.7071 0.7071 0.7071 52.2314 196.6392)" class="st3" width="2" height="1.4"/>
			
				<rect x="265.4" y="31.7" transform="matrix(0.7071 -0.7071 0.7071 0.7071 55.0983 197.8695)" class="st3" width="2" height="1.4"/>
			
				<rect x="267.5" y="33.9" transform="matrix(0.7071 -0.7071 0.7071 0.7071 54.2036 200.0169)" class="st3" width="2" height="1.4"/>
			
				<rect x="264.7" y="36.7" transform="matrix(0.7071 -0.7071 0.7071 0.7071 51.3844 198.8067)" class="st3" width="2" height="1.4"/>
		</g>
	</g>
</g>
</svg>
