<?xml version="1.0" encoding="utf-8"?>
<!-- Generator: Adobe Illustrator 25.3.1, SVG Export Plug-In . SVG Version: 6.00 Build 0)  -->
<svg version="1.1" id="Layer_1" xmlns="http://www.w3.org/2000/svg" xmlns:xlink="http://www.w3.org/1999/xlink" x="0px" y="0px"
	 viewBox="0 0 600 100" style="enable-background:new 0 0 600 100;" xml:space="preserve">
<style type="text/css">
	.st0{fill:#C1C1C9;}
	.st1{fill:#15BD1D;}
	.st2{fill:none;stroke:#0055FF;stroke-width:4.8098;stroke-linecap:round;stroke-linejoin:round;}
	.st3{fill:none;}
	.st4{fill:none;stroke:#0055FF;stroke-width:4.8098;}
</style>
<g>
	<g>
		<path class="st0" d="M145,46.6h-18.8c-0.8,0-1.4-0.6-1.4-1.4V26.5c0-0.8,0.6-1.4,1.4-1.4H145c0.8,0,1.4,0.6,1.4,1.4v18.8
			C146.4,46,145.8,46.6,145,46.6z"/>
	</g>
	<g>
		<path class="st0" d="M173.5,46.6h-18.8c-0.8,0-1.4-0.6-1.4-1.4V26.5c0-0.8,0.6-1.4,1.4-1.4h18.8c0.8,0,1.4,0.6,1.4,1.4v18.8
			C174.8,46,174.2,46.6,173.5,46.6z"/>
	</g>
	<g>
		<path class="st0" d="M145,75.1h-18.8c-0.8,0-1.4-0.6-1.4-1.4V55c0-0.8,0.6-1.4,1.4-1.4H145c0.8,0,1.4,0.6,1.4,1.4v18.8
			C146.4,74.5,145.8,75.1,145,75.1z"/>
	</g>
	<g>
		<path class="st0" d="M173.5,75.1h-18.8c-0.8,0-1.4-0.6-1.4-1.4V55c0-0.8,0.6-1.4,1.4-1.4h18.8c0.8,0,1.4,0.6,1.4,1.4v18.8
			C174.8,74.5,174.2,75.1,173.5,75.1z"/>
	</g>
</g>
<g>
	<g>
		<path class="st1" d="M345.3,46.6h-18.8c-0.8,0-1.4-0.6-1.4-1.4V26.5c0-0.8,0.6-1.4,1.4-1.4h18.8c0.8,0,1.4,0.6,1.4,1.4v18.8
			C346.7,46,346,46.6,345.3,46.6z"/>
	</g>
	<g>
		<path class="st1" d="M373.7,46.6H355c-0.8,0-1.4-0.6-1.4-1.4V26.5c0-0.8,0.6-1.4,1.4-1.4h18.8c0.8,0,1.4,0.6,1.4,1.4v18.8
			C375.1,46,374.5,46.6,373.7,46.6z"/>
	</g>
	<g>
		<path class="st1" d="M345.3,75.1h-18.8c-0.8,0-1.4-0.6-1.4-1.4V55c0-0.8,0.6-1.4,1.4-1.4h18.8c0.8,0,1.4,0.6,1.4,1.4v18.8
			C346.7,74.5,346,75.1,345.3,75.1z"/>
	</g>
	<g>
		<path class="st1" d="M373.7,75.1H355c-0.8,0-1.4-0.6-1.4-1.4V55c0-0.8,0.6-1.4,1.4-1.4h18.8c0.8,0,1.4,0.6,1.4,1.4v18.8
			C375.1,74.5,374.5,75.1,373.7,75.1z"/>
	</g>
</g>
<g id="그룹_404" transform="translate(0 2)">
	<g id="그룹_302" transform="translate(-1605.447 254.472) rotate(-45)">
		<line id="선_13" class="st2" x1="1598.6" y1="1324.3" x2="1598.6" y2="1338.6"/>
	</g>
	<g id="타원_52" transform="translate(304 66)">
		<circle class="st3" cx="144.9" cy="-19.6" r="20.4"/>
		<circle class="st4" cx="144.9" cy="-19.6" r="18"/>
	</g>
</g>
<g id="그룹_404_1_" transform="translate(0 2)">
	<g id="그룹_302_1_" transform="translate(-1605.447 254.472) rotate(-45)">
		<line id="선_13_1_" class="st2" x1="1669.3" y1="1395" x2="1669.3" y2="1409.3"/>
	</g>
	<g id="타원_52_1_" transform="translate(304 66)">
		<circle class="st3" cx="244.9" cy="-19.6" r="20.4"/>
		<circle class="st4" cx="244.9" cy="-19.6" r="18"/>
	</g>
</g>
<path class="st1" d="M274,36.8h-48.1c-0.6,0-1-0.5-1-1v-8.7c0-0.5,0.4-1,1-1H274c0.6,0,1,0.5,1,1v8.7C275,36.4,274.6,36.8,274,36.8z
	"/>
<path class="st1" d="M274,55.5h-48.1c-0.6,0-1-0.5-1-1v-8.8c0-0.5,0.4-1,1-1H274c0.6,0,1,0.5,1,1v8.8C275,55,274.6,55.5,274,55.5z"
	/>
<path class="st1" d="M274,74.1h-48.1c-0.6,0-1-0.5-1-1v-8.8c0-0.5,0.4-1,1-1H274c0.6,0,1,0.5,1,1v8.8C275,73.6,274.6,74.1,274,74.1z
	"/>
<path class="st0" d="M74.2,36.8H26.1c-0.5,0-1-0.5-1-1v-8.7c0-0.5,0.5-1,1-1h48.1c0.5,0,1,0.5,1,1v8.7
	C75.2,36.4,74.8,36.8,74.2,36.8z"/>
<path class="st0" d="M74.2,55.5H26.1c-0.5,0-1-0.5-1-1v-8.8c0-0.5,0.5-1,1-1h48.1c0.5,0,1,0.5,1,1v8.8C75.2,55,74.8,55.5,74.2,55.5z
	"/>
<path class="st0" d="M74.2,74.1H26.1c-0.5,0-1-0.5-1-1v-8.8c0-0.5,0.5-1,1-1h48.1c0.5,0,1,0.5,1,1v8.8
	C75.2,73.6,74.8,74.1,74.2,74.1z"/>
</svg>
