<?xml version="1.0" encoding="utf-8"?>
<!-- Generator: Adobe Illustrator 25.3.0, SVG Export Plug-In . SVG Version: 6.00 Build 0)  -->
<svg version="1.1" id="Layer_1" xmlns="http://www.w3.org/2000/svg" xmlns:xlink="http://www.w3.org/1999/xlink" x="0px" y="0px"
	 viewBox="0 0 200 100" style="enable-background:new 0 0 200 100;" xml:space="preserve">
<style type="text/css">
	.st0{fill:#333333;}
</style>
<path class="st0" d="M73.2,86.5H29c-5.8,0-10.6-4.7-10.6-10.6V24.1c0-5.8,4.7-10.6,10.6-10.6h32.7c3.8,0,7.5,1.5,10.2,4.2l7.7,7.7
	c2.7,2.7,4.2,6.3,4.2,10.2V76C83.8,81.8,79.1,86.5,73.2,86.5z M29,19.3c-2.6,0-4.8,2.2-4.8,4.8V76c0,2.6,2.2,4.8,4.8,4.8h44.2
	c2.6,0,4.8-2.2,4.8-4.8V35.6c0-2.3-0.9-4.5-2.5-6.1l-7.7-7.7c-1.6-1.6-3.8-2.5-6.1-2.5H29z"/>
<path class="st0" d="M65.5,46.2H36.7c-1.6,0-2.9-1.3-2.9-2.9c0-1.6,1.3-2.9,2.9-2.9h28.8c1.6,0,2.9,1.3,2.9,2.9S67.1,46.2,65.5,46.2
	z"/>
<path class="st0" d="M65.5,57.7H36.7c-1.6,0-2.9-1.3-2.9-2.9c0-1.6,1.3-2.9,2.9-2.9h28.8c1.6,0,2.9,1.3,2.9,2.9S67.1,57.7,65.5,57.7
	z"/>
<path class="st0" d="M65.5,69.2H36.7c-1.6,0-2.9-1.3-2.9-2.9s1.3-2.9,2.9-2.9h28.8c1.6,0,2.9,1.3,2.9,2.9
	C68.4,67.9,67.1,69.2,65.5,69.2z"/>
<g>
	<path class="st0" d="M141.3,42.1l-2.8,7.8h5.8l-2.8-7.8C141.3,42.1,141.3,42.1,141.3,42.1z"/>
	<path class="st0" d="M149.5,14.3c-22.7,0-41.1,14.6-41.1,32.5c0,11.8,7.8,22,19.4,27.6c-0.8,3.1-3.1,11.6-3.6,13.5
		c-0.6,2.2,0.8,2.2,1.7,1.6c0.8-0.5,11.3-7.7,15.8-10.8c2.5,0.3,5,0.6,7.7,0.6c22.7,0,41.1-14.6,41.1-32.5
		C190.5,28.9,172.2,14.3,149.5,14.3z M129.2,55.9c0,0.5-0.3,1.1-0.6,1.4c-0.3,0.5-0.9,0.6-1.4,0.6h-0.5c-0.5,0-1.1-0.3-1.4-0.6
		c-0.5-0.3-0.6-0.9-0.6-1.4V41.4h-3.9c-1.1,0-2-0.9-2-2s0.9-2,2-2h12.1c1.3,0,2.2,0.8,2.2,2c0,1.1-0.9,2-2,2h-3.8V55.9z M148.7,57.6
		c-0.9,0.3-2.2-0.2-2.5-1.3l-0.9-3h-8.2l-1.1,3c-0.3,1.1-1.4,1.6-2.5,1.3c-1.1-0.3-1.6-1.4-1.3-2.5l6-15.8c0-0.2,0.2-0.2,0.2-0.3
		c0.3-1.1,1.6-2,3-2c1.4,0,2.5,0.8,2.8,1.7l6,16.5C150.5,56.2,149.9,57.3,148.7,57.6z M161.8,57.6h-8.2c-1.1,0-1.9-0.8-1.9-1.9
		c0-0.2,0-0.2,0-0.3c0,0,0-0.2,0-0.3V39.2c0-1.3,0.9-2.2,2.2-2.2c1.3,0,2.2,0.9,2.2,2.2V54h5.6c0.9,0,1.9,0.8,1.9,1.7
		C163.7,56.8,162.9,57.6,161.8,57.6z M179.4,57.3c-0.9,0.6-2.2,0.5-2.8-0.5l-6-7.7l-1.3,1.3v5c0,1.3-0.9,2.2-2.2,2.2
		c-1.3,0-2.2-0.9-2.2-2.2V39.1c0-1.3,0.9-2.2,2.2-2.2c1.3,0,2.2,0.9,2.2,2.2v5.8l6.9-6.9c0.8-0.8,2-0.8,2.8,0c0.8,0.8,0.8,2,0,2.8
		l-5.6,5.6l6.3,8.2C180.3,55.5,180.2,56.8,179.4,57.3z"/>
</g>
</svg>
