<?xml version="1.0" encoding="utf-8"?>
<!-- Generator: Adobe Illustrator 25.3.0, SVG Export Plug-In . SVG Version: 6.00 Build 0)  -->
<svg version="1.1" id="Layer_1" xmlns="http://www.w3.org/2000/svg" xmlns:xlink="http://www.w3.org/1999/xlink" x="0px" y="0px"
	 viewBox="0 0 200 100" style="enable-background:new 0 0 200 100;" xml:space="preserve">
<style type="text/css">
	.st0{fill:#FFFFFF;}
	.st1{fill:#391B1B;}
	.st2{fill:#FAE300;}
</style>
<polygon class="st0" points="63.3,13.4 63.3,50.7 37.8,13.4 10.1,13.4 10.1,87.4 37.7,87.4 37.7,50.1 63.2,87.4 91,87.4 91,13.4 "/>
<path class="st1" d="M149.7,9.2c-24.2,0-43.9,15.5-43.9,34.7c0,12.5,8.3,23.4,20.8,29.5c-0.9,3.4-3.3,12.4-3.8,14.3
	c-0.6,2.4,0.9,2.4,1.8,1.7c0.8-0.5,12-8.2,16.9-11.5c2.6,0.4,5.4,0.6,8.1,0.6c24.2,0,43.9-15.5,43.9-34.7
	C193.6,24.7,174,9.2,149.7,9.2"/>
<g>
	<path class="st2" d="M132.1,33.7h-12.8c-1.2,0-2.2,1-2.2,2.2c0,1.2,1,2.2,2.2,2.2h4.2v15.4c0,0.6,0.2,1.1,0.6,1.5
		c0.4,0.4,0.9,0.6,1.5,0.6h0.5c0.6,0,1.1-0.2,1.5-0.6c0.4-0.4,0.6-0.9,0.6-1.5V38h3.9c1.2,0,2.2-1,2.2-2.2
		C134.3,34.7,133.3,33.7,132.1,33.7z"/>
	<path class="st2" d="M162.9,51.4h-6V35.7c0-1.3-1.1-2.4-2.4-2.4c-1.3,0-2.4,1.1-2.4,2.4v16.9c0,0.1,0,0.3,0,0.4c0,0.1,0,0.3,0,0.4
		c0,1.1,0.9,2,2,2h8.7c1.1,0,2-0.9,2-2C164.9,52.3,164,51.4,162.9,51.4z"/>
	<path class="st2" d="M182,52.2l-6.7-8.7l6-6c0.8-0.8,0.8-2.1,0-2.9c-0.8-0.8-2.1-0.8-2.9,0l-7.4,7.4v-6.2c0-1.3-1.1-2.4-2.4-2.4
		c-1.3,0-2.4,1.1-2.4,2.4v17.4c0,1.3,1.1,2.4,2.4,2.4c1.3,0,2.4-1.1,2.4-2.4v-5.4l1.4-1.4l6.3,8.3c0.7,0.9,2,1.1,3,0.4
		C182.5,54.4,182.7,53.1,182,52.2z"/>
	<path class="st2" d="M150.5,52.7l-6.4-17.5c0,0,0,0,0,0c-0.4-1.1-1.6-1.8-3-1.8c-1.6,0-2.9,1-3.1,2.2c0,0.1-0.1,0.2-0.1,0.3
		l-6.3,16.9c-0.4,1.1,0.2,2.3,1.3,2.7c1.1,0.4,2.3-0.2,2.7-1.3l1.1-3.1h8.8l1.1,3.1c0.4,1.1,1.6,1.7,2.7,1.3
		C150.3,55,150.8,53.8,150.5,52.7z M138,47.1l2.9-8.4c0,0,0.1,0,0.1,0l2.9,8.4H138z"/>
</g>
</svg>
