<?xml version="1.0" encoding="utf-8"?>
<!-- Generator: Adobe Illustrator 25.2.1, SVG Export Plug-In . SVG Version: 6.00 Build 0)  -->
<svg version="1.1" id="Layer_1" xmlns="http://www.w3.org/2000/svg" xmlns:xlink="http://www.w3.org/1999/xlink" x="0px" y="0px"
	 viewBox="0 0 100 100" style="enable-background:new 0 0 100 100;" xml:space="preserve">
<style type="text/css">
	.st0{fill:#D1D1D9;}
</style>
<path class="st0" d="M53.6,9.6l10.3,20.9c0.6,1.3,1.8,2.1,3.2,2.2L90,36.1c3.4,0.5,4.8,4.7,2.4,7.2L75.8,59.4c-1,1-1.4,2.4-1.2,3.7
	l4,22.8c0.6,3.4-3,6-6.1,4.4L52,79.5c-1.2-0.6-2.7-0.6-4,0L27.5,90.3c-3.1,1.6-6.6-1-6.1-4.4l4-22.8c0.2-1.4-0.2-2.8-1.2-3.7
	L7.6,43.2c-2.5-2.5-1.1-6.6,2.4-7.2l22.8-3.3c1.4-0.2,2.6-1.1,3.1-2.2L46.3,9.6C47.6,6.5,52.1,6.5,53.6,9.6z"/>
</svg>
