<?xml version="1.0" encoding="utf-8"?>
<!-- Generator: Adobe Illustrator 25.2.2, SVG Export Plug-In . SVG Version: 6.00 Build 0)  -->
<svg version="1.1" id="Layer_1" xmlns="http://www.w3.org/2000/svg" xmlns:xlink="http://www.w3.org/1999/xlink" x="0px" y="0px"
	 viewBox="0 0 500 700" style="enable-background:new 0 0 500 700;" xml:space="preserve">
<style type="text/css">
	.st0{fill:none;}
	.st1{stroke:#FFFFFF;stroke-width:0.5;stroke-miterlimit:10;}
	.st2{fill:#FFFFFF;}
	.st3{stroke:#FFFFFF;stroke-miterlimit:10;}
	.st4{stroke:#FFFFFF;stroke-width:0.45;stroke-miterlimit:10;}
	.st5{stroke:#FFFFFF;stroke-width:0.3;stroke-miterlimit:10;}
	.st6{stroke:#FFFFFF;stroke-width:0.35;stroke-miterlimit:10;}
	.st7{stroke:#FFFFFF;stroke-width:0.75;stroke-miterlimit:10;}
	.st8{stroke:#000000;stroke-width:0.35;stroke-miterlimit:10;}
	.st9{stroke:#FFFFFF;stroke-width:0.55;stroke-miterlimit:10;}
	.st10{stroke:#FFFFFF;stroke-width:0.2;stroke-miterlimit:10;}
	.st11{stroke:#FFFFFF;stroke-width:0.6;stroke-miterlimit:10;}
	.st12{fill:#FFFFFF;stroke:#FFFFFF;stroke-width:0.6;stroke-miterlimit:10;}
	.st13{stroke:#FFFFFF;stroke-width:0.65;stroke-miterlimit:10;}
	.st14{stroke:#000000;stroke-width:0.6025;stroke-miterlimit:10;}
	.st15{stroke:#000000;stroke-width:0.7928;stroke-miterlimit:10;}
	.st16{fill:#FFFFFF;stroke:#000000;stroke-width:0.7928;stroke-miterlimit:10;}
	.st17{stroke:#000000;stroke-width:0.5374;stroke-miterlimit:10;}
	.st18{stroke:#000000;stroke-width:0.2;stroke-miterlimit:10;}
	.st19{stroke:#000000;stroke-width:0.3507;stroke-miterlimit:10;}
	.st20{stroke:#000000;stroke-width:0.2663;stroke-miterlimit:10;}
	.st21{stroke:#000000;stroke-width:0.6;stroke-miterlimit:10;}
	.st22{stroke:#FFFFFF;stroke-width:0.1;stroke-miterlimit:10;}
	.st23{stroke:#000000;stroke-width:0.5;stroke-miterlimit:10;}
	.st24{stroke:#FFFFFF;stroke-width:0.8;stroke-miterlimit:10;}
</style>
<path class="st0" d="M42.6,537.3h-0.9c-7,0-12.7,5.7-12.7,12.7v17c0,0.5,0.4,0.9,0.9,0.9h3.4c5.6,0,10.2-4.6,10.2-10.2v-10v-7.8
	v-1.6C43.5,537.7,43.1,537.3,42.6,537.3z"/>
<path class="st0" d="M60.5,537.3h-0.9c-0.5,0-0.9,0.4-0.9,0.9v1.6v7.8v10c0,5.6,4.6,10.2,10.2,10.2h3.4c0.5,0,0.9-0.4,0.9-0.9v-17
	C73.2,543,67.5,537.3,60.5,537.3z"/>
<path class="st1" d="M60.5,534.4h-0.9c-2.1,0-3.9,1.7-3.9,3.9v0.4V551l0,0v6.8c0,7.3,5.9,13.2,13.2,13.2h3.4c2.1,0,3.9-1.7,3.9-3.9
	v-17C76.2,541.4,69.2,534.4,60.5,534.4z M73.2,567c0,0.5-0.4,0.9-0.9,0.9h-3.4c-5.6,0-10.2-4.6-10.2-10.2v-10v-7.8v-1.6
	c0-0.5,0.4-0.9,0.9-0.9h0.9c7,0,12.7,5.7,12.7,12.7V567z"/>
<path class="st1" d="M46.4,538.3c0-2.1-1.7-3.9-3.9-3.9h-0.9c-8.6,0-15.6,7-15.6,15.6v17c0,2.1,1.7,3.9,3.9,3.9h3.4
	c7.3,0,13.2-5.9,13.2-13.2v-6.8v-3.6L46.4,538.3L46.4,538.3z M43.5,539.9v7.8v10c0,5.6-4.6,10.2-10.2,10.2h-3.4
	c-0.5,0-0.9-0.4-0.9-0.9v-17c0-7,5.7-12.7,12.7-12.7h0.9c0.5,0,0.9,0.4,0.9,0.9C43.5,538.2,43.5,539.9,43.5,539.9z"/>
<path d="M55.8,545.3c-1.4-0.4-2.6-1.2-3.6-2.3l-1.1-1.2L50,543c-1,1.1-2.2,1.9-3.6,2.3v-2.1c2.2-0.9,3.7-3.1,3.7-5.6V527h2v10.6
	c0,2.5,1.5,4.7,3.7,5.6L55.8,545.3L55.8,545.3z"/>
<path d="M56.3,546l-0.6-0.2c-1.5-0.5-2.8-1.3-3.8-2.4l-0.7-0.8l-0.7,0.8c-1,1.1-2.3,2-3.8,2.4l-0.6,0.2v-3.1l0.3-0.1
	c2.1-0.9,3.4-2.9,3.4-5.1v-11.1h2.9v11c0,2.2,1.3,4.3,3.4,5.1l0.3,0.1L56.3,546L56.3,546z M46.9,543.5v1.1c1-0.4,2-1.1,2.7-1.9
	l1.5-1.6l1.5,1.6c0.8,0.8,1.7,1.5,2.7,1.9v-1.1c-2.3-1.1-3.7-3.4-3.7-5.9v-10.1h-1v10.1C50.6,540.1,49.2,542.4,46.9,543.5z"/>
<circle class="st2" cx="60.3" cy="565.5" r="7.2"/>
<path class="st3" d="M245.6,21.3c-3.9,0-7.2,3.2-7.2,7.2s3.2,7.2,7.2,7.2s7.2-3.2,7.2-7.2S249.6,21.3,245.6,21.3z M245.6,32
	c-2,0-3.6-1.6-3.6-3.6s1.6-3.6,3.6-3.6s3.6,1.6,3.6,3.6C249.2,30.4,247.6,32,245.6,32z"/>
<path class="st3" d="M263.2,65.5c0.2-0.6,0.3-1.2,0.3-1.9v-8.5c0-3-2.4-5.4-5.4-5.4H249c0.1-1.3,0.1-2.6,0.1-3.8v-5
	c0-4.7-5.8-7.2-9.1-3.8l-7.2,7.2c-2.1,2.1-2.1,5.5,0,7.6l4.3,4.3c-1.1,4.3-2.8,8.3-5,11.6c-1.6,2.5-1,5.8,1.5,7.4s5.8,1,7.4-1.5
	c2.5-3.8,4.6-8.3,5.9-13.1h5.7v3c0,0.7,0.1,1.3,0.4,1.9c-4.2,0.7-7.5,4.4-7.5,8.8c0,1,0.8,1.8,1.8,1.8h21.5c1,0,1.8-0.8,1.8-1.8
	C270.7,69.9,267.4,66.2,263.2,65.5z M238.2,71.8c-0.5,0.8-1.7,1-2.5,0.5s-1-1.7-0.5-2.5c2-3.1,3.7-6.7,4.9-10.7
	c0.9,0.9,2,1.4,3.3,1.5C242.1,64.7,240.3,68.5,238.2,71.8z M245.6,46L245.6,46c0,1.1,0,2.3-0.1,3.4l-2.5-2.5c-0.7-0.7-1.8-0.7-2.5,0
	s-0.7,1.8,0,2.5l4.6,4.6c0.3,0.3,0.5,0.8,0.5,1.3s-0.2,0.9-0.5,1.3c-0.7,0.7-1.8,0.7-2.5,0l-7.2-7.2c-0.7-0.7-0.7-1.8,0-2.5
	c8.1-8.1,7-7,7.2-7.2c1.1-1.1,3-0.3,3,1.3V46z M248.9,57.1c0.4-1.2,0.4-2.5,0-3.7h9.3c1,0,1.8,0.8,1.8,1.8v8.5c0,1-0.8,1.8-1.8,1.8
	s-1.8-0.8-1.8-1.8v-4.8c0-1-0.8-1.8-1.8-1.8L248.9,57.1L248.9,57.1z M249.5,72.6c0.7-2.1,2.7-3.6,5.1-3.6h7.2c2.3,0,4.3,1.5,5.1,3.6
	H249.5L249.5,72.6z"/>
<path class="st4" d="M75.6,50c0-2.6-1.1-5.1-3.3-6.9c1.3-5.8-2.8-11.7-8.9-12.5c-0.7-3.5-3.8-6.3-7.4-6.3c-2.4,0-4.6,1.2-6,3
	c-1.4-1.8-3.5-3-6-3c-3.6,0-6.7,2.8-7.4,6.3c-6.1,0.8-10.2,6.7-8.9,12.5c-2.1,1.7-3.3,4.3-3.3,6.9c0,2.6,1.2,5.1,3.3,6.9
	c-1.2,6,2.9,11.7,8.9,12.5c0.7,3.5,3.7,6.1,7.4,6.1c2.4,0,4.6-1.2,6-3c1.4,1.8,3.5,3,6,3c3.7,0,6.7-2.6,7.4-6.1
	c6-0.8,10.1-6.5,8.9-12.5C74.4,55.1,75.6,52.6,75.6,50L75.6,50z M44,72.5c-4,0-6-4.9-3.2-7.7c0.6-0.6,0.6-1.5,0-2.1s-1.5-0.6-2.1,0
	c-1,1-1.7,2.3-2,3.7c-5.9-1.1-8.3-8.4-4-12.7c0.6-0.6,0.6-1.5,0-2.1s-1.5-0.6-2.1,0c-0.7,0.7-1.3,1.4-1.7,2.2
	c-0.9-1.1-1.5-2.4-1.5-3.8c0-3,2.7-6,6.1-6c0.8,0,1.5-0.7,1.5-1.5S34.4,41,33.5,41c-1,0-2,0.2-3,0.5c-0.3-4.1,3-8,7.5-8
	c0.8,0,1.5-0.7,1.5-1.5c0-2.5,2.1-4.7,4.5-4.7c2.5,0,4.5,2,4.5,4.5v7c-1.2-1-2.6-1.8-4.2-2.1c-0.8-0.2-1.6,0.4-1.8,1.2
	s0.4,1.6,1.2,1.8c2.8,0.6,4.8,3,4.8,5.9v11.3c-1.2-1-2.6-1.8-4.2-2.1c-0.8-0.2-1.6,0.4-1.8,1.2s0.4,1.6,1.2,1.8
	c2.8,0.6,4.8,3,4.8,5.9V68C48.5,70.5,46.5,72.5,44,72.5L44,72.5z M71.2,53.8c-0.5-0.8-1-1.6-1.7-2.2c-0.6-0.6-1.5-0.6-2.1,0
	s-0.6,1.5,0,2.1c4.3,4.3,1.9,11.6-4,12.7c-0.3-1.4-1-2.7-2-3.7c-0.6-0.6-1.5-0.6-2.1,0s-0.6,1.5,0,2.1c2.8,2.8,0.8,7.7-3.2,7.7
	c-2.5,0-4.5-2-4.5-4.5v-4.5c0-2.8,2-5.3,4.8-5.9c0.8-0.2,1.3-1,1.2-1.8c-0.2-0.8-1-1.3-1.8-1.2c-1.6,0.3-3,1.1-4.2,2.1V45.5
	c0-2.8,2-5.3,4.8-5.9c0.8-0.2,1.3-1,1.2-1.8c-0.2-0.8-1-1.3-1.8-1.2c-1.6,0.3-3,1.1-4.2,2.1v-7c0-2.5,2-4.5,4.5-4.5
	c2.4,0,4.5,2.2,4.5,4.7c0,0.8,0.7,1.5,1.5,1.5c4.4,0,7.8,3.9,7.5,8c-0.9-0.3-1.9-0.5-3-0.5c-0.8,0-1.5,0.7-1.5,1.5s0.7,1.5,1.5,1.5
	c3.3,0,6.1,2.8,6.1,6C72.6,51.4,72.1,52.7,71.2,53.8L71.2,53.8z"/>
<path class="st5" d="M128,69.6h-3.2V49.2c0-4.1,1.3-7.4,3.7-9.8c4.2-4.1,10.5-3.9,10.7-3.8h21.5c1.2,0,2.1-0.9,2.1-2.1v-9.6h3.2v9.6
	c0,2.9-2.4,5.3-5.3,5.3h-21.5c-0.1,0-5.2-0.2-8.5,3c-1.8,1.8-2.8,4.3-2.8,7.5v20.3C127.9,69.6,128,69.6,128,69.6z"/>
<path class="st5" d="M135.6,74.3h-3.2v-9.4c0-2.3,1.9-4.1,4.1-4.1h25.2c0.1,0,3.9,0.1,6.5-2.4c1.7-1.6,2.5-4,2.5-7V27.8h3.2v23.5
	c0,4-1.2,7.1-3.5,9.3c-3.6,3.4-8.5,3.3-8.7,3.2h-25.2c-0.5,0-1,0.4-1,1L135.6,74.3L135.6,74.3z"/>
<path class="st5" d="M162.1,54.4c-2.4,0-3.5-1.5-4.4-2.6c-0.8-1-1.2-1.4-2-1.4s-1.1,0.4-2,1.4c-0.9,1.1-2.1,2.6-4.4,2.6
	c-2.3,0-3.5-1.5-4.4-2.6c-0.8-1-1.2-1.4-2-1.4s-1.1,0.4-2,1.4c-0.9,1.1-2.1,2.6-4.4,2.6c-2.3,0-3.5-1.5-4.4-2.6
	c-0.8-1-1.2-1.4-2-1.4v-3.2c2.3,0,3.5,1.5,4.4,2.6c0.8,1,1.2,1.4,2,1.4s1.1-0.4,2-1.4c0.9-1.1,2.1-2.6,4.4-2.6
	c2.3,0,3.5,1.5,4.4,2.6c0.8,1,1.2,1.4,2,1.4s1.1-0.4,2-1.4c0.9-1.1,2.1-2.6,4.4-2.6c2.3,0,3.5,1.5,4.4,2.6c0.8,1,1.2,1.4,2,1.4
	s1.1-0.4,2-1.4c0.9-1.1,2.1-2.6,4.4-2.6v3.2c-0.8,0-1.1,0.4-2,1.4C165.7,52.9,164.5,54.4,162.1,54.4z"/>
<path class="st6" d="M372.4,46.7l-5.1-4.9v-0.1V28.9c0-0.9-0.7-1.6-1.6-1.6H359c-0.9,0-1.6,0.7-1.6,1.6V32c0,0.1-0.1,0.2-0.2,0.1
	l-6.6-6.4c-0.6-0.5-1.5-0.5-2,0l-21.9,21c-0.9,1-1.1,2.6,0.2,3.7c0.5,0.4,1.1,0.6,1.8,0.6h4.7c0.1,0,0.1,0.1,0.1,0.1v17
	c0,2.5,2,4.6,4.6,4.6h23c2.5,0,4.6-2,4.6-4.6v-17c0-0.1,0.1-0.1,0.1-0.1h4.8c0.9,0,1.7-0.4,2.2-1.1
	C373.5,48.9,373.3,47.6,372.4,46.7z M364.1,48c-0.8,0-1.5,0.7-1.5,1.5v18.7c0,0.8-0.7,1.5-1.5,1.5h-23.3c-0.8,0-1.5-0.7-1.5-1.5
	V49.5c0-0.8-0.7-1.5-1.5-1.5h-5.4l20-19.1l8.3,8c0.4,0.4,1.1,0.5,1.6,0.3s0.9-0.8,0.9-1.4v-5.5h3.9v12.1c0,0.4,0.2,0.8,0.5,1.1
	l4.7,4.5H364.1z"/>
<path d="M356,51.4h-5.5v-5.5c0-0.6-0.5-1-1-1c-0.6,0-1,0.5-1,1v5.5H343c-0.6,0-1,0.5-1,1c0,0.6,0.5,1,1,1h5.5v5.5c0,0.6,0.5,1,1,1
	c0.6,0,1-0.5,1-1v-5.5h5.5c0.6,0,1-0.5,1-1C357.1,51.8,356.6,51.4,356,51.4z"/>
<path d="M349.5,60.3c-0.8,0-1.4-0.6-1.4-1.4v-5.1H343c-0.8,0-1.4-0.6-1.4-1.4c0-0.8,0.6-1.4,1.4-1.4h5.1v-5.1c0-0.8,0.6-1.4,1.4-1.4
	s1.4,0.6,1.4,1.4V51h5.1c0.8,0,1.4,0.6,1.4,1.4c0,0.8-0.6,1.4-1.4,1.4h-5v5.1C351,59.7,350.3,60.3,349.5,60.3z M343,51.8
	c-0.3,0-0.6,0.3-0.6,0.6s0.3,0.6,0.6,0.6h5.9v5.9c0,0.3,0.3,0.6,0.6,0.6c0.3,0,0.6-0.3,0.6-0.6V53h5.9c0.3,0,0.6-0.3,0.6-0.6
	s-0.3-0.6-0.6-0.6h-5.9v-5.9c0-0.3-0.3-0.6-0.6-0.6c-0.3,0-0.6,0.3-0.6,0.6v5.9C348.9,51.8,343,51.8,343,51.8z"/>
<path class="st5" d="M468.7,30c-2.9-2.9-7.6-2.9-10.5,0c-1.4,1.4-2.2,3.2-2.2,5.2s0.8,3.8,2.2,5.2c0.1,0.1,0.1,0.1,0.2,0.2
	c-0.6,0.5-1.1,1.2-1.4,2h-1.7c-2.4,0-4.4,2-4.4,4.4v10.4c-0.5-0.1-1-0.1-1.5-0.1s-1,0-1.5,0.1V47c0-2.4-2-4.4-4.4-4.4h-1.7
	c-0.3-0.8-0.8-1.5-1.4-2c0.1-0.1,0.1-0.1,0.2-0.2c1.4-1.4,2.2-3.2,2.2-5.2s-0.8-3.8-2.2-5.2c-2.9-2.9-7.6-2.9-10.5,0
	c-7.7,7.7-7.7,20.3,0,28.1c2.8,2.8,7.5,3,10.5,0c1.4-1.4,2.2-3.2,2.2-5.2s-0.8-3.8-2.2-5.2c-0.1-0.1-0.1-0.1-0.2-0.2
	c0.6-0.5,1.1-1.2,1.4-2h1.7c0.8,0,1.5,0.7,1.5,1.5v11.2c-3.5,1.4-5.9,4.5-5.9,8c0,3.4,2.3,6.5,5.9,8v2.5c0,0.8,0.7,1.5,1.5,1.5h5.9
	c0.8,0,1.5-0.7,1.5-1.5v-2.5c3.6-1.4,5.9-4.5,5.9-8s-2.4-6.6-5.9-8V47c0-0.8,0.7-1.5,1.5-1.5h1.7c0.3,0.8,0.8,1.5,1.4,2
	c-0.1,0.1-0.1,0.1-0.2,0.2c-1.4,1.4-2.2,3.2-2.2,5.2s0.8,3.8,2.2,5.2c3,3,7.7,2.8,10.5,0C476.5,50.4,476.5,37.8,468.7,30z M438.5,56
	c-1.8,1.8-4.7,1.6-6.3,0c-3.2-3.2-4.9-7.4-4.9-12s1.8-8.8,4.9-12c1.7-1.7,4.6-1.7,6.3,0c0.8,0.8,1.3,1.9,1.3,3.1
	c0,1.2-0.5,2.3-1.3,3.1c-0.6,0.6-1.2,1.4-1.6,2.2c-0.2,0.4-0.2,0.9,0,1.3c0.2,0.4,0.6,0.7,1,0.8c0.7,0.1,1.1,0.8,1.1,1.4
	c0,0.7-0.5,1.3-1.1,1.4c-0.4,0.1-0.8,0.4-1,0.8c-0.2,0.4-0.2,0.9,0,1.3c0.4,0.8,0.9,1.6,1.6,2.2c0.8,0.8,1.3,1.9,1.3,3.1
	C439.8,54.1,439.3,55.2,438.5,56z M456.7,66.2c0,2.4-1.9,4.6-4.8,5.5c-0.6,0.2-1.1,0.8-1.1,1.4v2.1h-2.9v-2.1c0-0.7-0.4-1.2-1.1-1.4
	c-2.9-0.9-4.8-3.1-4.8-5.5c0-3.2,3.3-5.9,7.4-5.9C453.4,60.3,456.7,62.9,456.7,66.2z M466.6,56c-1.6,1.6-4.5,1.8-6.3,0
	c-0.8-0.8-1.3-1.9-1.3-3.1s0.5-2.3,1.3-3.1c0.6-0.6,1.2-1.4,1.6-2.2c0.2-0.4,0.2-0.9,0-1.3s-0.6-0.7-1-0.8c-0.7-0.1-1.1-0.8-1.1-1.4
	c0-0.7,0.5-1.3,1.1-1.4c0.4-0.1,0.8-0.4,1-0.8c0.2-0.4,0.2-0.9,0-1.3c-0.4-0.8-0.9-1.6-1.6-2.2c-0.8-0.8-1.3-1.9-1.3-3.1
	c0-1.2,0.5-2.3,1.3-3.1c1.7-1.7,4.6-1.7,6.3,0c3.2,3.2,4.9,7.4,4.9,12S469.8,52.8,466.6,56z"/>
<path class="st7" d="M58.9,157.2c4.1-0.9,6.9-4.9,6.2-9.2c-0.3-1.5,0.1-3,1.1-4.1l6.2-7.2c0.6-0.7,0.5-1.7-0.2-2.3l-9.7-8.4
	c-0.7-0.6-1.7-0.5-2.3,0.2l-6.2,7.2c-0.9,1.1-2.4,1.7-3.9,1.6c-4.4-0.1-7.9,3.3-8.2,7.5c-4.2,0.9-6.9,4.9-6.2,9.2
	c0.3,1.5-0.1,3-1.1,4.1l-8.2,9.4c-0.6,0.7-0.5,1.7,0.2,2.3l9.7,8.4c0.7,0.6,1.7,0.5,2.3-0.2l8.2-9.4c0.9-1.1,2.4-1.7,3.9-1.6
	C55,164.7,58.6,161.4,58.9,157.2L58.9,157.2z M50,138.2c2.5,0.1,4.9-0.9,6.4-2.8l5.1-6l7.3,6.3l-5.1,6c-1.6,1.8-2.2,4.3-1.8,6.8
	c0.7,3.8-3.4,7-6.9,5.1c-1.6-0.9-2.6-2.4-2.6-4.3c0-1-0.9-1.7-1.8-1.6c-1.8,0.3-3.5-0.5-4.6-2C43.6,142.6,46.1,138.1,50,138.2z
	 M50.7,161.4c-2.5-0.1-4.9,0.9-6.4,2.8l-7.1,8.2l-7.3-6.3l7.1-8.2c1.6-1.8,2.2-4.3,1.8-6.8s1.1-4.8,3.5-5.5c1,2.9,3.7,5.1,7.1,5.3
	c0.7,3.3,3.3,5.6,6.3,6.2C55.3,159.7,53.2,161.5,50.7,161.4z"/>
<path d="M166.9,153c-2.3,0-4.2,1.7-4.6,3.9h-3.2c-2.6,0-4.6,2.1-4.6,4.6v13.2h1.5v-13.2c0-1.7,1.4-3.1,3.1-3.1h3.2
	c0.4,2.2,2.3,3.9,4.6,3.9c2.6,0,4.6-2.1,4.6-4.6C171.5,155.1,169.4,153,166.9,153z M166.9,160.7c-1.7,0-3.1-1.4-3.1-3.1
	s1.4-3.1,3.1-3.1s3.1,1.4,3.1,3.1S168.6,160.7,166.9,160.7z"/>
<path d="M156.6,175.3h-2.7v-13.8c0-2.9,2.3-5.2,5.2-5.2h2.7c0.6-2.3,2.7-3.9,5-3.9c2.9,0,5.2,2.3,5.2,5.2s-2.3,5.2-5.2,5.2
	c-2.4,0-4.4-1.6-5-3.9h-2.7c-1.4,0-2.5,1.1-2.5,2.5V175.3z M155.1,174.1h0.4v-12.6c0-2,1.7-3.7,3.7-3.7h3.7l0.1,0.5
	c0.3,2,2,3.4,4,3.4c2.2,0,4-1.8,4-4s-1.8-4-4-4c-2,0-3.6,1.4-4,3.4l-0.1,0.5h-3.7c-2.2,0-4,1.8-4,4L155.1,174.1L155.1,174.1z
	 M166.9,161.3c-2,0-3.7-1.7-3.7-3.7s1.7-3.7,3.7-3.7s3.7,1.7,3.7,3.7C170.5,159.6,168.9,161.3,166.9,161.3z M166.9,155.1
	c-1.4,0-2.5,1.1-2.5,2.5s1.1,2.5,2.5,2.5s2.5-1.1,2.5-2.5S168.2,155.1,166.9,155.1z"/>
<path d="M146,141.4h-3.1c0-2.6-2.1-4.6-4.6-4.6c-2.6,0-4.6,2.1-4.6,4.6c0,2.6,2.1,4.6,4.6,4.6c2,0,3.7-1.3,4.4-3.1h3.4
	c1.7,0,3.1,1.4,3.1,3.1v33.2h1.5V146C150.6,143.5,148.6,141.4,146,141.4z M138.3,144.5c-1.7,0-3.1-1.4-3.1-3.1s1.4-3.1,3.1-3.1
	c1.7,0,3.1,1.4,3.1,3.1S140,144.5,138.3,144.5z"/>
<path d="M151.2,179.9h-2.7V146c0-1.4-1.1-2.5-2.5-2.5h-3c-0.8,1.9-2.7,3.1-4.8,3.1c-2.9,0-5.2-2.3-5.2-5.2s2.3-5.2,5.2-5.2
	c2.7,0,4.9,2,5.2,4.6h2.5c2.9,0,5.2,2.3,5.2,5.2v33.9L151.2,179.9L151.2,179.9z M149.7,178.7h0.4V146c0-2.2-1.8-4-4-4h-3.7v-0.6
	c0-2.2-1.8-4-4-4s-4,1.8-4,4s1.8,4,4,4c1.7,0,3.2-1.1,3.8-2.7l0.1-0.4h3.8c2,0,3.7,1.7,3.7,3.7v32.7H149.7z M138.3,145.1
	c-2,0-3.7-1.7-3.7-3.7s1.7-3.7,3.7-3.7s3.7,1.7,3.7,3.7S140.3,145.1,138.3,145.1z M138.3,138.9c-1.4,0-2.5,1.1-2.5,2.5
	s1.1,2.5,2.5,2.5s2.5-1.1,2.5-2.5S139.7,138.9,138.3,138.9z"/>
<path d="M140.6,153h-3.2c-0.4-2.2-2.3-3.9-4.6-3.9c-2.6,0-4.6,2.1-4.6,4.6s2.1,4.6,4.6,4.6c2.3,0,4.2-1.7,4.6-3.9h3.2
	c1.7,0,3.1,1.4,3.1,3.1v17.1h1.5v-17.1C145.2,155.1,143.2,153,140.6,153z M132.9,156.8c-1.7,0-3.1-1.4-3.1-3.1s1.4-3.1,3.1-3.1
	s3.1,1.4,3.1,3.1S134.6,156.8,132.9,156.8z"/>
<path d="M145.8,175.3h-2.7v-17.7c0-1.4-1.1-2.5-2.5-2.5h-2.7c-0.6,2.3-2.7,3.9-5,3.9c-2.9,0-5.2-2.3-5.2-5.2s2.3-5.2,5.2-5.2
	c2.4,0,4.4,1.6,5,3.9h2.7c2.9,0,5.2,2.3,5.2,5.2V175.3z M144.3,174.1h0.4v-16.5c0-2.2-1.8-4-4-4H137l-0.1-0.5c-0.3-2-2-3.4-4-3.4
	c-2.2,0-4,1.8-4,4s1.8,4,4,4c2,0,3.6-1.4,4-3.4l0.1-0.5h3.7c2,0,3.7,1.7,3.7,3.7L144.3,174.1L144.3,174.1z M132.9,157.4
	c-2,0-3.7-1.7-3.7-3.7s1.7-3.7,3.7-3.7s3.7,1.7,3.7,3.7S134.9,157.4,132.9,157.4z M132.9,151.3c-1.4,0-2.5,1.1-2.5,2.5
	s1.1,2.5,2.5,2.5s2.5-1.1,2.5-2.5S134.3,151.3,132.9,151.3z"/>
<path d="M159.8,147.6h2.5c0.4,2.2,2.3,3.9,4.6,3.9c2.6,0,4.6-2.1,4.6-4.6c0-2.6-2.1-4.6-4.6-4.6c-2.3,0-4.2,1.7-4.6,3.9h-2.5
	c-1.2,0-2.2-1-2.2-2.2v-21.1h-1.5V144C156.1,145.9,157.7,147.6,159.8,147.6z M166.9,143.7c1.7,0,3.1,1.4,3.1,3.1s-1.4,3.1-3.1,3.1
	s-3.1-1.4-3.1-3.1S165.2,143.7,166.9,143.7z"/>
<path d="M166.9,152c-2.4,0-4.4-1.6-5-3.9h-2c-2.4,0-4.3-1.9-4.3-4.3v-21.7h2.7v21.7c0,0.9,0.7,1.6,1.6,1.6h2c0.6-2.3,2.7-3.9,5-3.9
	c2.9,0,5.2,2.3,5.2,5.2C172.1,149.7,169.7,152,166.9,152z M156.6,123.3v20.5c0,1.7,1.4,3.2,3.2,3.2h3l0.1,0.5c0.3,2,2,3.4,4,3.4
	c2.2,0,4-1.8,4-4s-1.8-4-4-4c-2,0-3.6,1.4-4,3.4l-0.1,0.5h-3c-1.5,0-2.8-1.3-2.8-2.8v-20.5h-0.4V123.3z M166.9,150.5
	c-2,0-3.7-1.7-3.7-3.7s1.7-3.7,3.7-3.7s3.7,1.7,3.7,3.7C170.5,148.8,168.9,150.5,166.9,150.5z M166.9,144.3c-1.4,0-2.5,1.1-2.5,2.5
	s1.1,2.5,2.5,2.5s2.5-1.1,2.5-2.5C169.4,145.4,168.2,144.3,166.9,144.3z"/>
<path d="M244.6,170c1.7-2.3,1.2-5.4-1.1-7.1c-0.9-0.7-2.1-1-3.2-1l7.2-9.8c2.8-3.8,3.9-8.5,3.1-13.1c0.8,0,1.6,0.1,2.4,0.2
	c0.4,0.1,0.7-0.1,0.9-0.4l7.6-10.4c0.3-0.4,0.2-1-0.2-1.3s-1-0.2-1.3,0.2l-7.3,10c-0.8-0.1-1.7-0.2-2.6-0.2
	c-0.2-0.8-0.5-1.6-0.9-2.4l7.3-10c0.3-0.4,0.2-1-0.2-1.3s-1-0.2-1.3,0.2l-7.6,10.4c-0.2,0.3-0.2,0.7-0.1,1c0.4,0.7,0.7,1.4,0.9,2.2
	c-4.7,0.6-8.8,3.1-11.6,6.8l-7.2,9.8c-0.7-2.7-3.5-4.3-6.2-3.6c-1.1,0.3-2.1,1-2.8,1.9c-1.7,2.3-1.2,5.4,1.1,7.1
	c2,1.4,4.7,1.3,6.5-0.4l1.5,1.1c0.4,0.3,1,0.2,1.3-0.2s0.2-1-0.2-1.3l-1.4-1l9-12.2c2.5-3.4,6.3-5.7,10.5-6.1
	c0.8,4.2-0.2,8.5-2.7,11.9l-9,12.2l-1.4-1c-0.4-0.3-1-0.2-1.3,0.2s-0.2,1,0.2,1.3l1.5,1.1c-1.2,2.5-0.1,5.6,2.4,6.8
	C240.5,172.6,243.2,171.9,244.6,170z M224.9,158.3c-1.7,0.3-3.3-0.9-3.6-2.6s0.9-3.3,2.6-3.6c1.7-0.3,3.3,0.9,3.6,2.6
	C227.8,156.4,226.7,158,224.9,158.3z M238.6,169.5c-1.4-1-1.7-3-0.7-4.4s3-1.7,4.4-0.7s1.7,3,0.7,4.4S240,170.6,238.6,169.5z"/>
<path d="M240.5,172.3c-0.8,0-1.6-0.2-2.3-0.5c-2.6-1.2-3.7-4.3-2.6-6.9l-1.3-0.9c-0.5-0.4-0.7-1.2-0.3-1.7c0.4-0.6,1.2-0.7,1.7-0.3
	l1.2,0.9l8.8-12c2.4-3.3,3.4-7.4,2.7-11.4c-4,0.5-7.7,2.7-10.1,6l-8.8,12l1.1,0.9c0.3,0.2,0.4,0.5,0.5,0.8s0,0.7-0.2,0.9
	c-0.4,0.6-1.2,0.7-1.7,0.3l-1.3-0.9c-1.9,1.6-4.7,1.7-6.7,0.2c-1.2-0.9-1.9-2.1-2.1-3.5c-0.2-1.4,0.1-2.8,1-4c0.7-1,1.8-1.7,2.9-2
	c2.7-0.7,5.4,0.7,6.4,3.2l6.9-9.3c2.8-3.7,6.9-6.2,11.5-6.9c-0.2-0.6-0.5-1.2-0.8-1.8c-0.2-0.4-0.2-0.9,0.1-1.3l7.6-10.4
	c0.2-0.3,0.5-0.4,0.8-0.5s0.7,0,0.9,0.2c0.3,0.2,0.4,0.5,0.5,0.8s0,0.7-0.2,0.9l-7.2,9.8c0.3,0.7,0.6,1.4,0.8,2.1
	c0.7,0,1.5,0,2.2,0.1l7.2-9.8c0.4-0.6,1.2-0.7,1.7-0.3c0.6,0.4,0.7,1.2,0.3,1.7l-7.6,10.4c-0.3,0.4-0.8,0.6-1.2,0.5
	c-0.6-0.1-1.3-0.2-2-0.2c0.7,4.6-0.4,9.3-3.2,13l-6.9,9.3c1,0.1,2,0.4,2.8,1c2.4,1.8,2.9,5.1,1.1,7.5l0,0
	C243.8,171.5,242.2,172.3,240.5,172.3z M235,162.3c-0.2,0-0.4,0.1-0.5,0.3c-0.2,0.3-0.1,0.7,0.1,0.9l1.7,1.2l-0.1,0.2
	c-1.1,2.4-0.1,5.2,2.3,6.4c2.1,1,4.6,0.4,5.9-1.5c1.5-2.1,1.1-5.1-1-6.7c-0.9-0.6-2-1-3-0.9h-0.6l7.6-10.3c2.7-3.7,3.8-8.4,3-12.9
	l-0.1-0.4h0.4c0.8,0,1.6,0.1,2.4,0.2c0.2,0,0.5-0.1,0.6-0.3l7.6-10.4c0.2-0.3,0.2-0.7-0.1-0.9c-0.3-0.2-0.7-0.2-0.9,0.1l-7.4,10.1
	h-0.2c-0.8-0.1-1.7-0.2-2.5-0.1H250l-0.1-0.2c-0.2-0.8-0.5-1.6-0.9-2.3l-0.1-0.2l7.4-10.1c0.1-0.1,0.1-0.3,0.1-0.5s-0.1-0.3-0.3-0.4
	s-0.3-0.1-0.5-0.1s-0.3,0.1-0.4,0.3l-7.6,10.4c-0.1,0.2-0.2,0.5-0.1,0.7c0.4,0.7,0.7,1.5,0.9,2.2l0.1,0.3h-0.4
	c-4.5,0.6-8.7,3-11.4,6.7l-7.6,10.3l-0.2-0.6c-0.7-2.5-3.3-4.1-5.9-3.4c-1,0.3-2,0.9-2.6,1.8c-0.8,1-1.1,2.3-0.9,3.6
	c0.2,1.3,0.9,2.4,1.9,3.1c1.8,1.4,4.4,1.2,6.1-0.4l0.2-0.2l1.7,1.2c0.3,0.2,0.7,0.1,0.9-0.1c0.1-0.1,0.1-0.3,0.1-0.5
	s-0.1-0.3-0.3-0.4l-1.6-1.2l9.2-12.5c2.5-3.5,6.4-5.8,10.7-6.2h0.3l0.1,0.3c0.8,4.3-0.2,8.7-2.7,12.1l-9.2,12.5l-1.6-1.2
	C235.3,162.3,235.2,162.3,235,162.3z M240.5,170.4c-0.7,0-1.4-0.2-2-0.7c-0.7-0.5-1.2-1.4-1.4-2.3c-0.1-0.9,0.1-1.8,0.6-2.6
	c1.1-1.5,3.3-1.9,4.8-0.7c0.7,0.5,1.2,1.4,1.4,2.3c0.1,0.9-0.1,1.8-0.6,2.6c-0.5,0.7-1.4,1.2-2.3,1.4
	C240.9,170.4,240.7,170.4,240.5,170.4z M240.5,164.1c-0.9,0-1.8,0.4-2.3,1.2c-0.5,0.6-0.6,1.4-0.5,2.1c0.1,0.8,0.5,1.4,1.1,1.9l0,0
	c0.6,0.5,1.4,0.6,2.1,0.5c0.8-0.1,1.4-0.5,1.9-1.1s0.6-1.4,0.5-2.1c-0.1-0.8-0.5-1.4-1.1-1.9C241.7,164.3,241.1,164.1,240.5,164.1z
	 M224.4,158.6c-1.7,0-3.2-1.2-3.4-2.9c-0.3-1.9,1-3.7,2.9-3.9c0.9-0.1,1.8,0.1,2.6,0.6c0.7,0.5,1.2,1.4,1.4,2.3
	c0.1,0.9-0.1,1.8-0.6,2.6c-0.5,0.7-1.4,1.2-2.3,1.4C224.8,158.6,224.6,158.6,224.4,158.6z M224.5,152.3c-0.2,0-0.3,0-0.5,0
	c-1.6,0.2-2.6,1.7-2.4,3.3c0.2,1.6,1.7,2.6,3.3,2.4c0.8-0.1,1.4-0.5,1.9-1.1s0.6-1.4,0.5-2.1c-0.1-0.8-0.5-1.4-1.1-1.9
	C225.6,152.5,225.1,152.3,224.5,152.3z"/>
<path d="M250.4,178.9l16.1-21.9c0.3-0.4,0.2-1-0.2-1.3l-0.3-0.2l12-16.4c0.1-0.2,0.2-0.5,0.2-0.7s-0.2-0.5-0.4-0.6
	c-3.3-2.4-7.9-1.7-10.3,1.6l-4.7,6.4c-0.2,0.3-0.2,0.8,0,1.2c1.1,1.4,1.2,3.4,0.3,4.9l-0.7,1.1l-0.1-0.1c-0.4-0.3-1-0.2-1.3,0.2
	L244.9,175c-1.1,1.5-0.8,3.7,0.7,4.8l0,0C247.1,180.7,249.3,180.4,250.4,178.9z M264,153.9l0.8-1.3c1.2-2,1.2-4.5,0-6.4l4.3-5.8
	c1.6-2.1,4.5-2.8,6.8-1.7l-11.4,15.6L264,153.9z M246.7,178.1c-0.7-0.5-0.8-1.4-0.3-2.1l0,0l15.5-21.2l0.2,0.1l0,0l1.9,1.4l0.3,0.2
	l-15.5,21.2C248.4,178.4,247.4,178.6,246.7,178.1z"/>
<path d="M247.6,180.6c-0.8,0-1.5-0.2-2.2-0.7c-0.8-0.6-1.3-1.5-1.5-2.4c-0.1-1,0.1-2,0.7-2.8l16.1-21.9c0.2-0.3,0.5-0.4,0.8-0.5
	c0.3,0,0.6,0,0.8,0.1l0.5-0.8c0.9-1.4,0.7-3.3-0.3-4.6c-0.3-0.4-0.4-1.1,0-1.5l4.7-6.4c1.2-1.7,3-2.7,5-3s4.1,0.2,5.7,1.4
	c0.3,0.2,0.4,0.5,0.5,0.8s0,0.7-0.2,0.9l-11.9,16.1l0.1,0.1c0.3,0.2,0.4,0.5,0.5,0.8s0,0.7-0.2,0.9L250.6,179l0,0
	C249.9,180,248.8,180.6,247.6,180.6z M261.7,152.8h-0.1c-0.2,0-0.3,0.1-0.4,0.3L245.1,175c-0.5,0.7-0.7,1.5-0.6,2.3
	c0.1,0.8,0.6,1.5,1.2,2c1.4,1,3.4,0.7,4.4-0.7l0,0l16.1-21.9c0.1-0.1,0.1-0.3,0.1-0.5s-0.1-0.3-0.3-0.4l-0.6-0.4l12.2-16.6
	c0.1-0.1,0.1-0.3,0.1-0.5s-0.1-0.3-0.3-0.4c-1.5-1.1-3.4-1.6-5.3-1.3s-3.5,1.3-4.6,2.8l-4.7,6.4c-0.2,0.2-0.2,0.6,0,0.8
	c1.2,1.5,1.3,3.6,0.3,5.2l-0.8,1.4l-0.4-0.3C262,152.9,261.9,152.8,261.7,152.8z M247.6,178.7c-0.4,0-0.8-0.1-1.1-0.4l0,0
	c-0.8-0.6-1-1.7-0.4-2.5l15.7-21.4l2.9,2.1L249,177.9c-0.3,0.4-0.7,0.7-1.2,0.7C247.8,178.7,247.7,178.7,247.6,178.7z M246.9,177.8
	c0.3,0.2,0.6,0.3,0.9,0.2c0.3-0.1,0.6-0.2,0.8-0.5l15.4-20.9l-2-1.4l-15.4,20.9C246.2,176.7,246.4,177.4,246.9,177.8L246.9,177.8z
	 M264.5,154.7l-0.9-0.7l0.9-1.5c1.1-1.9,1.1-4.2,0-6.1l-0.1-0.2l4.4-6c1.7-2.3,4.7-3,7.2-1.8l0.3,0.2L264.5,154.7z M264.4,153.9
	L264.4,153.9l11-15c-2.2-0.9-4.7-0.2-6.1,1.7l-4.2,5.7c1.1,2,1.1,4.5-0.1,6.6L264.4,153.9z"/>
<path class="st1" d="M371.7,151.3c-1.2-0.4-2.4-0.3-3.5,0.3c-0.6,0.3-1.2,0.8-1.6,1.4l-6.2-2c0.8-1.9,1.3-4,1.4-6.1h4.2
	c0.6,1.8,2.3,3.2,4.4,3.2l0,0l0,0c2.5,0,4.6-2.1,4.6-4.6c0-1.2-0.5-2.4-1.3-3.3c-0.9-0.9-2-1.4-3.3-1.4l0,0c-2,0-3.8,1.3-4.4,3.1
	h-4.2c-0.1-2.2-0.6-4.2-1.5-6.1l6.3-2c0.4,0.6,1,1,1.6,1.4c0.7,0.3,1.4,0.5,2.1,0.5c0.5,0,1-0.1,1.4-0.2c1.2-0.4,2.1-1.2,2.7-2.3
	s0.7-2.4,0.3-3.5c-0.4-1.2-1.2-2.1-2.3-2.7c-1.1-0.6-2.4-0.7-3.5-0.3c-1.9,0.6-3.2,2.4-3.2,4.4l-6.9,2.2c-2.9-4.1-7.8-6.8-13.2-6.8
	c-8.9,0-16.2,7.3-16.2,16.2v23.7c0,5.5,4.5,10,10,10c2.1,0,4.2-0.7,5.9-1.9c1.7-1.3,3-3,3.6-5.1l1.6-5.1c0.4-1.2,1-2.2,1.9-3.1
	l3.3-3.2c1.3-1.3,2.5-2.7,3.4-4.3l6.6,2.1c0,1.9,1.3,3.7,3.2,4.4c0.5,0.2,1,0.2,1.4,0.2c0.7,0,1.4-0.2,2.1-0.5
	c1.1-0.6,1.9-1.5,2.3-2.7C375.4,154.7,374.1,152.1,371.7,151.3z M369.7,129.5c0.2-0.1,0.3-0.1,0.5-0.1c0.3,0,0.5,0.1,0.8,0.2
	c0.4,0.2,0.7,0.6,0.8,1c0.1,0.4,0.1,0.9-0.1,1.3s-0.6,0.7-1,0.8s-0.9,0.1-1.3-0.1c-0.4-0.2-0.7-0.6-0.8-1
	C368.4,130.7,368.8,129.8,369.7,129.5z M370.3,141.7L370.3,141.7c0.5,0,0.9,0.2,1.2,0.5s0.5,0.7,0.5,1.2c0,0.9-0.8,1.7-1.7,1.7l0,0
	c-0.9,0-1.7-0.8-1.7-1.7C368.6,142.5,369.4,141.7,370.3,141.7z M353.6,155.8l-3.3,3.2c-1.2,1.2-2.2,2.7-2.7,4.3l-1.6,5.1
	c-0.9,3-3.6,4.9-6.7,4.9c-3.9,0-7-3.2-7-7v-23.7c0-7.3,6-13.3,13.3-13.3s13.3,6,13.3,13.3v0.8C358.9,148.1,356.9,152.6,353.6,155.8z
	 M371.9,156.3c-0.1,0.4-0.4,0.8-0.8,1s-0.9,0.2-1.3,0.1c-0.9-0.3-1.4-1.2-1.1-2.1c0.1-0.4,0.4-0.8,0.8-1c0.2-0.1,0.5-0.2,0.8-0.2
	c0.2,0,0.4,0,0.5,0.1C371.7,154.4,372.2,155.4,371.9,156.3z"/>
<path class="st1" d="M345.5,131.7c-2.8,0-5.4,1-7.4,3s-3.1,4.6-3.1,7.4v4h3.4c1.1,0,1.9,0.9,1.9,1.9c0,1.1-0.9,1.9-1.9,1.9h-3.2v2.9
	h3.2c2.7,0,4.9-2.2,4.9-4.9s-2.2-4.9-4.9-4.9h-0.5v-1.1c0-2,0.8-3.9,2.2-5.3c1.4-1.4,3.3-2.2,5.2-2.2c0,0,0,0,0.1,0
	c4.1,0,7.4,3.4,7.4,7.6v0.7c0,3-1.3,6-3.4,8.1l-3.3,3.2c-1.9,1.9-3.4,4.2-4.2,6.8l-1.6,5.1c-0.2,0.5-0.6,0.8-1.1,0.8
	c-0.3,0-0.6-0.1-0.8-0.3c-0.2-0.2-0.4-0.6-0.4-0.9v-4h-2.9v4c0,1.1,0.5,2.2,1.3,3s1.8,1.2,2.9,1.2h0.1c1.8,0,3.3-1.2,3.9-2.9
	l1.6-5.1c0.7-2.1,1.8-4,3.4-5.6l3.3-3.2c2.8-2.7,4.3-6.4,4.3-10.2V142C355.7,136.5,351.1,131.8,345.5,131.7z"/>
<path class="st8" d="M277.9,249.4c-0.4-0.7-11.2-15.9-28.2-15.9c-14.6,0-27.6,15.2-28.1,15.8c-0.4,0.4-0.4,1.1,0,1.5
	c0.5,0.6,13.6,15.8,28.1,15.8c14.6,0,27.6-15.2,28.1-15.8C278.2,250.4,278.2,249.9,277.9,249.4z M249.7,264.3
	c-11.7,0-22.8-11.2-25.6-14.2c2.8-3.1,13.9-14.2,25.6-14.2c13.7,0,23.3,11.1,25.7,14.1C272.7,253,261.5,264.3,249.7,264.3z"/>
<path class="st8" d="M249.7,240.6c-5.2,0-9.5,4.2-9.5,9.5s4.2,9.5,9.5,9.5c5.2,0,9.5-4.2,9.5-9.5S254.9,240.6,249.7,240.6z
	 M249.7,257.2c-3.9,0-7.1-3.2-7.1-7.1s3.2-7.1,7.1-7.1c3.9,0,7.1,3.2,7.1,7.1S253.6,257.2,249.7,257.2z"/>
<path class="st9" d="M329.2,258.8c2.4,9.2,10.7,15.8,20.4,15.8c9.6,0,18-6.6,20.4-15.8c2.5-0.4,4.4-2.6,4.4-5.3
	c0-2.6-1.9-4.8-4.4-5.3c-2.1-8.3-9.1-14.4-17.5-15.6l0,0c1.5-1.6,2.3-3.4,2.3-5.1c0-2.8-1.9-5.3-5.8-7.4c-0.8-0.4-1.7-0.2-2.2,0.6
	c-0.4,0.8-0.2,1.7,0.6,2.2c1.9,1.1,4.1,2.7,4.1,4.6c0,2.1-2.7,4.2-3.9,5c-8.8,0.8-16.2,7.1-18.4,15.7c-2.5,0.4-4.4,2.6-4.4,5.3
	C324.8,256.2,326.7,258.4,329.2,258.8L329.2,258.8z M330.3,251.4c0.8,0.1,1.6-0.5,1.7-1.3c1.6-8.3,9-14.4,17.5-14.4
	s15.9,6.1,17.5,14.4c0.2,0.8,0.9,1.4,1.7,1.3c1.3-0.1,2.4,0.9,2.4,2.1c0,1.2-1,2.3-2.4,2.1c-0.8-0.1-1.6,0.5-1.7,1.3
	c-1.6,8.3-9,14.4-17.5,14.4s-15.9-6.1-17.5-14.4c-0.1-0.8-0.9-1.4-1.7-1.3c-1.3,0.1-2.4-0.9-2.4-2.1
	C328,252.3,329,251.3,330.3,251.4z"/>
<path class="st9" d="M343.6,261.6c-0.7,0.6-0.8,1.6-0.2,2.2c1.5,1.9,3.8,3,6.2,3c2.4,0,4.7-1.1,6.2-3c0.6-0.7,0.4-1.7-0.2-2.2
	c-0.7-0.6-1.7-0.4-2.2,0.2c-0.9,1.1-2.3,1.8-3.7,1.8c-1.5,0-2.8-0.7-3.7-1.8C345.2,261.1,344.2,261,343.6,261.6L343.6,261.6z"/>
<path class="st10" d="M33.9,253.4c-0.3,0.4-0.5,0.9-0.3,1.4l2.1,7.7l-8.2,8.7c-0.5,0.6-0.5,1.5,0.1,2c0.3,0.3,0.7,0.4,1,0.4
	c0.4,0,0.7-0.2,1-0.5l8.1-8.7l7.8,1.5c0.1,0,0.2,0,0.3,0c0.4,0,0.7-0.2,1-0.5l16.4-17.5l2,1.8c0.3,0.3,0.7,0.4,1,0.4
	c0.4,0,0.7-0.2,1-0.5c0.5-0.6,0.5-1.5-0.1-2l-2-1.8l6.3-6.7c0.3-0.3,0.4-0.7,0.4-1c0-0.4-0.2-0.7-0.5-1l-4.4-4.1l2.1-2.2l3.6,3.4
	c0.3,0.3,0.7,0.4,1,0.4c0.4,0,0.7-0.2,1-0.5c0.5-0.6,0.5-1.5-0.1-2l-9.3-8.7c-0.6-0.5-1.5-0.5-2,0.1s-0.5,1.5,0.1,2l3.6,3.4
	l-2.1,2.2l-4.4-4.1c-0.6-0.5-1.5-0.5-2,0.1l-6.3,6.7l-2-1.8c-0.6-0.5-1.5-0.5-2,0.1s-0.5,1.5,0.1,2l2,1.8L33.9,253.4z M45.3,263
	l-6.9-1.4l-1.9-6.9l2.6-2.7l1.7,1.6c0.3,0.3,0.7,0.4,1,0.4c0.4,0,0.7-0.2,1-0.5c0.5-0.6,0.5-1.5-0.1-2l-1.7-1.6l2.6-2.8l2.8,2.7
	c0.3,0.3,0.7,0.4,1,0.4c0.4,0,0.7-0.2,1-0.5c0.5-0.6,0.5-1.5-0.1-2l-2.8-2.7l2.6-2.8l1.7,1.6c0.3,0.3,0.7,0.4,1,0.4
	c0.4,0,0.7-0.2,1-0.5c0.5-0.6,0.5-1.5-0.1-2l-1.7-1.6l2.1-2.3l8.8,8.2L45.3,263z M63.1,244l-8.8-8.2l5.3-5.7l8.8,8.2L63.1,244z"/>
<path class="st5" d="M458.7,260.3h3.1v3.1h-3.1V260.3z"/>
<path class="st5" d="M461.9,263.5h-3.3v-3.3h3.3V263.5z M458.8,263.3h2.9v-2.9h-2.9V263.3z"/>
<path class="st5" d="M452.5,279c5.2,0,9.3-4.2,9.3-9.3v-0.2c3.6-0.7,6.2-3.9,6.2-7.6c0-4.3-3.5-7.8-7.8-7.8s-7.8,3.5-7.8,7.8
	c0,3.8,2.7,6.9,6.2,7.6v0.2c0,3.4-2.8,6.2-6.2,6.2s-6.2-2.8-6.2-6.2V254c7-0.8,12.5-6.7,12.5-13.9v-9.6c0-2.6-2.1-4.7-4.7-4.7h-4.7
	v3.1h4.7c0.9,0,1.6,0.7,1.6,1.6v9.6c0,6-4.9,10.9-10.9,10.9s-10.9-4.9-10.9-10.9v-9.6c0-0.9,0.7-1.6,1.6-1.6h4.7v-3.1h-4.7
	c-2.6,0-4.7,2.1-4.7,4.7v9.6c0,7.2,5.5,13.2,12.5,13.9v15.7C443.1,274.8,447.3,279,452.5,279z M455.6,261.8c0-2.6,2.1-4.7,4.7-4.7
	s4.7,2.1,4.7,4.7s-2.1,4.7-4.7,4.7S455.6,264.4,455.6,261.8z"/>
<path class="st5" d="M452.5,279.1c-5.2,0-9.4-4.2-9.4-9.4V254c-7.1-0.8-12.5-6.8-12.5-14v-9.6c0-2.6,2.1-4.8,4.8-4.8h4.8v3.3h-4.8
	c-0.8,0-1.5,0.7-1.5,1.5v9.6c0,6,4.8,10.8,10.8,10.8s10.8-4.8,10.8-10.8v-9.6c0-0.8-0.7-1.5-1.5-1.5h-4.8v-3.3h4.8
	c2.6,0,4.8,2.1,4.8,4.8v9.6c0,7.2-5.4,13.2-12.5,14v15.6c0,3.4,2.8,6.1,6.1,6.1c3.4,0,6.1-2.8,6.1-6.1v-0.1c-3.6-0.8-6.2-4-6.2-7.7
	c0-4.3,3.5-7.9,7.9-7.9s7.9,3.5,7.9,7.9c0,3.7-2.6,6.9-6.2,7.7v0.1C461.9,274.8,457.7,279.1,452.5,279.1z M435.4,225.9
	c-2.5,0-4.6,2.1-4.6,4.6v9.6c0,7.1,5.3,13.1,12.4,13.8h0.1v15.8c0,5.1,4.1,9.2,9.2,9.2s9.2-4.1,9.2-9.2v-0.2h0.1
	c3.6-0.7,6.2-3.9,6.2-7.5c0-4.2-3.4-7.7-7.7-7.7s-7.7,3.4-7.7,7.7c0,3.6,2.6,6.8,6.2,7.5h0.1v0.2c0,3.5-2.8,6.3-6.3,6.3
	s-6.3-2.8-6.3-6.3v-15.8h0.1c7.1-0.8,12.4-6.7,12.4-13.8v-9.6c0-2.5-2.1-4.6-4.6-4.6h-4.6v2.9h4.6c0.9,0,1.7,0.7,1.7,1.7v9.6
	c0,6.1-4.9,11-11,11s-11-4.9-11-11v-9.6c0-0.9,0.7-1.7,1.7-1.7h4.6v-2.9H435.4z M460.3,266.6c-2.6,0-4.8-2.1-4.8-4.8
	c0-2.6,2.1-4.8,4.8-4.8s4.8,2.1,4.8,4.8C465.1,264.5,462.9,266.6,460.3,266.6z M460.3,257.3c-2.5,0-4.6,2.1-4.6,4.6s2.1,4.6,4.6,4.6
	s4.6-2.1,4.6-4.6C464.9,259.3,462.8,257.3,460.3,257.3z"/>
<path class="st11" d="M457.7,150.2c-0.4-1.6-1.2-3-2.4-4.2l9.1-15.8l-1.8-1c-4-2.3-8.6-3.6-13.3-3.6c-4.7,0-9.3,1.2-13.3,3.6l-1.8,1
	l9.1,15.8c-1.2,1.1-2,2.5-2.4,4.2h-18.3v2c0,4.7,1.3,9.4,3.7,13.5c2.3,4,5.7,7.3,9.6,9.6l1.8,1l9.1-15.8c0.8,0.2,1.6,0.3,2.4,0.3
	s1.6-0.1,2.4-0.3l9.1,15.8l1.8-1c4-2.3,7.3-5.6,9.6-9.6c2.4-4.1,3.7-8.7,3.7-13.5v-2H457.7z M436.4,170.7c-2.6-1.8-4.8-4.2-6.5-7
	c-1.7-2.9-2.7-6.1-3-9.4H441c0.4,1.6,1.2,3,2.4,4.2L436.4,170.7z M439.9,131.8c3-1.4,6.2-2.1,9.5-2.1s6.5,0.7,9.5,2.1l-7.1,12.2
	c-0.8-0.2-1.6-0.3-2.4-0.3s-1.6,0.1-2.4,0.3L439.9,131.8z M449.4,156.7c-2.5,0-4.5-2-4.5-4.5s2-4.5,4.5-4.5s4.5,2,4.5,4.5
	S451.9,156.7,449.4,156.7z M468.8,163.7c-1.6,2.8-3.8,5.2-6.5,7l-7.1-12.2c1.2-1.1,2-2.5,2.4-4.2h14.1
	C471.5,157.6,470.5,160.8,468.8,163.7z"/>
<path class="st12" d="M437.9,176.7l-2-1.2c-4-2.3-7.4-5.7-9.7-9.7c-2.4-4.1-3.7-8.8-3.7-13.6v-2.3h18.4c0.4-1.5,1.2-2.8,2.3-3.9
	l-9.2-15.9l2-1.2c4.1-2.4,8.7-3.6,13.5-3.6s9.4,1.3,13.5,3.6l2,1.2l-9.2,15.9c1.1,1.1,1.9,2.4,2.3,3.9h18.4v2.3
	c0,4.8-1.3,9.5-3.7,13.6c-2.4,4-5.7,7.3-9.7,9.7l-2,1.2l-9.2-15.9c-1.5,0.4-3,0.4-4.5,0L437.9,176.7z M451.9,160.1l9.1,15.8l1.5-0.9
	c3.9-2.3,7.2-5.5,9.5-9.5c2.4-4,3.6-8.6,3.6-13.3v-1.7h-18.2l-0.1-0.2c-0.4-1.5-1.2-2.9-2.3-4l-0.2-0.2l9.1-15.8l-1.5-0.9
	c-4-2.3-8.5-3.5-13.2-3.5s-9.2,1.2-13.2,3.5l-1.5,0.9l9.1,15.8l-0.2,0.2c-1.1,1.1-1.9,2.5-2.3,4l-0.1,0.2h-18v1.7
	c0,4.7,1.3,9.3,3.6,13.3c2.3,3.9,5.6,7.2,9.5,9.5l1.5,0.9l9.1-15.8l0.2,0.1c1.5,0.4,3.1,0.4,4.6,0L451.9,160.1z M436.5,171.1
	l-0.3-0.2c-2.6-1.9-4.9-4.3-6.5-7.1c-1.7-2.9-2.8-6.2-3.1-9.5V154h14.7l0.1,0.2c0.4,1.5,1.2,2.9,2.3,4l0.2,0.2L436.5,171.1z
	 M427.2,154.6c0.3,3.1,1.3,6.2,2.9,8.9c1.5,2.6,3.6,4.9,6.1,6.7l6.8-11.7c-1.1-1.1-1.9-2.4-2.3-3.9H427.2z M462.3,171.1l-7.3-12.7
	l0.2-0.2c1.1-1.1,1.9-2.5,2.3-4l0.1-0.2h14.7v0.3c-0.3,3.3-1.4,6.6-3.1,9.5c-1.6,2.8-3.9,5.2-6.5,7.1L462.3,171.1z M455.7,158.5
	l6.8,11.7c2.5-1.8,4.6-4.1,6.1-6.7l0,0c1.6-2.7,2.6-5.8,2.9-8.9h-13.6C457.5,156,456.8,157.4,455.7,158.5z M449.4,157
	c-2.6,0-4.8-2.2-4.8-4.8s2.2-4.8,4.8-4.8s4.8,2.2,4.8,4.8C454.2,154.9,452,157,449.4,157z M449.4,148c-2.3,0-4.2,1.9-4.2,4.2
	s1.9,4.2,4.2,4.2s4.2-1.9,4.2-4.2S451.7,148,449.4,148z M446.8,144.3l-7.3-12.7l0.3-0.1c3-1.4,6.3-2.1,9.6-2.1
	c3.3,0,6.6,0.7,9.6,2.1l0.3,0.1l-7.3,12.7l-0.2-0.1c-1.5-0.4-3.1-0.4-4.6,0L446.8,144.3z M449.4,143.4c0.8,0,1.5,0.1,2.3,0.3
	l6.8-11.8c-2.8-1.3-5.9-1.9-9-1.9s-6.2,0.7-9,1.9l6.8,11.8C447.9,143.5,448.6,143.4,449.4,143.4z"/>
<path class="st0" d="M142.2,235.7h-0.9c-7,0-12.7,5.7-12.7,12.7v17c0,0.5,0.4,0.9,0.9,0.9h3.4c5.6,0,10.2-4.6,10.2-10.2v-10v-7.8
	v-1.6C143.1,236.1,142.7,235.7,142.2,235.7z"/>
<path class="st0" d="M160.1,235.7h-0.9c-0.5,0-0.9,0.4-0.9,0.9v1.6v7.8v10c0,5.6,4.6,10.2,10.2,10.2h3.4c0.5,0,0.9-0.4,0.9-0.9v-17
	C172.8,241.4,167.1,235.7,160.1,235.7z"/>
<path class="st1" d="M160.1,232.8h-0.9c-2.1,0-3.9,1.7-3.9,3.9v0.4v12.3l0,0v6.8c0,7.3,5.9,13.2,13.2,13.2h3.4
	c2.1,0,3.9-1.7,3.9-3.9v-17C175.8,239.8,168.8,232.8,160.1,232.8z M172.8,265.4c0,0.5-0.4,0.9-0.9,0.9h-3.4
	c-5.6,0-10.2-4.6-10.2-10.2v-10v-7.8v-1.6c0-0.5,0.4-0.9,0.9-0.9h0.9c7,0,12.7,5.7,12.7,12.7V265.4z"/>
<path class="st1" d="M146,236.7c0-2.1-1.7-3.9-3.9-3.9h-0.9c-8.6,0-15.6,7-15.6,15.6v17c0,2.1,1.7,3.9,3.9,3.9h3.4
	c7.3,0,13.2-5.9,13.2-13.2v-6.8v-3.6v-9H146z M143.1,238.3v7.8v10c0,5.6-4.6,10.2-10.2,10.2h-3.4c-0.5,0-0.9-0.4-0.9-0.9v-17
	c0-7,5.7-12.7,12.7-12.7h0.9c0.5,0,0.9,0.4,0.9,0.9V238.3z"/>
<path d="M155.4,243.7c-1.4-0.4-2.6-1.2-3.6-2.3l-1.1-1.2l-1.1,1.2c-1,1.1-2.2,1.9-3.6,2.3v-2.1c2.2-0.9,3.7-3.1,3.7-5.6v-10.6h2V236
	c0,2.5,1.5,4.7,3.7,5.6L155.4,243.7L155.4,243.7z"/>
<path d="M155.9,244.4l-0.6-0.2c-1.5-0.5-2.8-1.3-3.8-2.4l-0.7-0.8l-0.7,0.8c-1,1.1-2.3,2-3.8,2.4l-0.6,0.2v-3.1l0.3-0.1
	c2.1-0.9,3.4-2.9,3.4-5.1V225h2.9v11c0,2.2,1.3,4.3,3.4,5.1l0.3,0.1L155.9,244.4L155.9,244.4z M146.5,241.9v1.1c1-0.4,2-1.1,2.7-1.9
	l1.5-1.6l1.5,1.6c0.8,0.8,1.7,1.5,2.7,1.9v-1.1c-2.3-1.1-3.7-3.4-3.7-5.9v-10.1h-1V236C150.2,238.5,148.8,240.8,146.5,241.9z"/>
<path d="M50,328.9c0.6,0,1-0.5,1-1v-4.1c0-0.6-0.5-1-1-1c-0.6,0-1,0.5-1,1v4.1C49,328.5,49.5,328.9,50,328.9z"/>
<path d="M50,329.2c-0.7,0-1.3-0.6-1.3-1.3v-4.1c0-0.7,0.6-1.3,1.3-1.3s1.3,0.6,1.3,1.3v4.1C51.3,328.6,50.7,329.2,50,329.2z M50,323
	c-0.4,0-0.8,0.4-0.8,0.8v4.1c0,0.4,0.4,0.8,0.8,0.8s0.8-0.4,0.8-0.8v-4.1C50.8,323.4,50.5,323,50,323z"/>
<path d="M57.1,330.1c0.2-0.1,0.3-0.2,0.4-0.3l1.8-3.8c0.3-0.5,0.2-1.1-0.2-1.4c-0.2-0.2-0.5-0.2-0.8-0.2s-0.5,0.2-0.7,0.4l-1.8,3.8
	c-0.3,0.5-0.2,1.1,0.2,1.4C56.3,330.3,56.7,330.3,57.1,330.1z"/>
<path d="M56.6,330.5c-0.3,0-0.5-0.1-0.7-0.2c-0.3-0.2-0.5-0.5-0.5-0.8c-0.1-0.3,0-0.7,0.2-1l1.8-3.7c0.2-0.3,0.5-0.5,0.9-0.6
	s0.7,0,1,0.2c0.6,0.4,0.7,1.2,0.3,1.8l-1.8,3.7c-0.1,0.2-0.3,0.4-0.5,0.4C57,330.4,56.8,330.5,56.6,330.5z M58.4,324.7L58.4,324.7
	c-0.3,0-0.5,0.1-0.6,0.3l-1.8,3.7c-0.1,0.2-0.2,0.4-0.2,0.6s0.1,0.4,0.3,0.5c0.2,0.2,0.5,0.2,0.8,0.1l0,0c0.1-0.1,0.2-0.1,0.3-0.2
	L59,326c0.3-0.4,0.2-0.9-0.2-1.1C58.8,324.7,58.6,324.7,58.4,324.7z"/>
<path d="M40.4,326.6l2.3,3.5c0.1,0.1,0.3,0.2,0.4,0.3c0.4,0.1,0.7,0,1-0.2c0.4-0.4,0.5-1,0.1-1.5l-2.3-3.5c-0.4-0.4-1-0.5-1.5-0.1
	C40,325.5,40,326.2,40.4,326.6z"/>
<path d="M43.5,330.7c-0.1,0-0.3,0-0.4-0.1c-0.2-0.1-0.4-0.2-0.5-0.3l-2.3-3.5c-0.5-0.5-0.4-1.3,0.1-1.8c0.3-0.2,0.6-0.4,0.9-0.3
	c0.3,0,0.7,0.2,0.9,0.4l2.3,3.6c0.5,0.5,0.4,1.3-0.1,1.8C44.1,330.6,43.8,330.7,43.5,330.7z M41.1,325.1c-0.2,0-0.4,0.1-0.5,0.2
	c-0.3,0.3-0.3,0.8-0.1,1.1l0,0l2.3,3.5c0.1,0.1,0.2,0.1,0.3,0.2c0.3,0.1,0.6,0,0.8-0.2c0.3-0.3,0.3-0.8,0.1-1.1l-2.3-3.6
	C41.6,325.2,41.4,325.1,41.1,325.1C41.2,325.1,41.2,325.1,41.1,325.1z"/>
<path d="M68.2,369H66v-5.7c0-0.6-0.5-1-1-1h-2v-16.1c0-7.2-5.8-13-13-13s-13,5.8-13,13v16.1h-1.9c-0.6,0-1,0.5-1,1v5.7h-2.2
	c-0.6,0-1,0.5-1,1v4.3c0,0.6,0.5,1,1,1h36.3c0.6,0,1-0.5,1-1V370C69.2,369.5,68.7,369,68.2,369z M53,353.5c1.4-1,2.2-2.5,2.2-4.2
	c0-2.8-2.3-5.1-5.1-5.1s-5.1,2.3-5.1,5.1c0,1.7,0.8,3.2,2.2,4.2v8.8h-8v-16.1c0-6,4.9-10.9,10.9-10.9S61,340.2,61,346.2v16.1h-8
	C53,362.3,53,353.5,53,353.5z M48.6,352c-1-0.5-1.6-1.6-1.6-2.7c0-1.7,1.4-3.1,3.1-3.1s3.1,1.4,3.1,3.1c0,1.1-0.6,2.2-1.6,2.7
	c-0.3,0.2-0.6,0.5-0.6,0.9v9.4h-1.7v-9.4C49.2,352.5,49,352.2,48.6,352z M55.4,370c0-0.6-0.5-1-1-1H36.2v-4.7h27.7v4.7h-9.6
	c-0.6,0-1,0.5-1,1s0.5,1,1,1h12.8v2.2H32.9V371h21.4C54.9,371.1,55.4,370.6,55.4,370z"/>
<path d="M68.2,375.6H31.9c-0.7,0-1.3-0.6-1.3-1.3V370c0-0.7,0.6-1.3,1.3-1.3h2v-5.5c0-0.7,0.6-1.3,1.3-1.3h1.6v-15.8
	c0-7.3,5.9-13.2,13.2-13.2s13.2,5.9,13.2,13.2V362h1.6c0.7,0,1.3,0.6,1.3,1.3v5.5h2c0.7,0,1.3,0.6,1.3,1.3v4.3
	C69.4,375,68.9,375.6,68.2,375.6z M31.9,369.3c-0.4,0-0.8,0.4-0.8,0.8v4.3c0,0.4,0.4,0.8,0.8,0.8h36.3c0.4,0,0.8-0.4,0.8-0.8V370
	c0-0.4-0.4-0.8-0.8-0.8h-2.5v-6c0-0.4-0.4-0.8-0.8-0.8h-2.1v-16.3c0-7-5.7-12.7-12.7-12.7s-12.7,5.7-12.7,12.7v16.3h-2.1
	c-0.4,0-0.8,0.4-0.8,0.8v6L31.9,369.3L31.9,369.3z M67.4,373.5H32.7v-2.7h20.6c-0.2-0.2-0.3-0.5-0.3-0.8s0.1-0.6,0.3-0.8H35.9V364
	h28.2v5.2h-8.8c0.2,0.2,0.3,0.5,0.3,0.8s-0.1,0.6-0.3,0.8h12L67.4,373.5L67.4,373.5z M33.2,373h33.7v-1.7H33.2V373z M54.3,369.3
	c-0.4,0-0.8,0.4-0.8,0.8s0.4,0.8,0.8,0.8l0,0c0.4,0,0.8-0.4,0.8-0.8S54.8,369.3,54.3,369.3L54.3,369.3z M54.3,368.8h9.3v-4.2H36.4
	v4.2H54.3z M61.2,362.5h-8.5v-9.2l0.1-0.1c1.3-0.9,2.1-2.4,2.1-4c0-2.7-2.2-4.9-4.9-4.9s-4.9,2.2-4.9,4.9c0,1.6,0.8,3.1,2.1,4
	l0.1,0.1v9.2h-8.5v-16.3c0-6.2,5-11.2,11.2-11.2s11.2,5,11.2,11.2C61.2,346.2,61.2,362.5,61.2,362.5z M53.2,362h7.5v-15.8
	c0-5.9-4.8-10.7-10.7-10.7s-10.7,4.8-10.7,10.7V362h7.5v-8.4c-1.4-1-2.2-2.6-2.2-4.3c0-3,2.4-5.4,5.4-5.4s5.4,2.4,5.4,5.4
	c0,1.7-0.8,3.3-2.2,4.3V362z M51.1,362.5h-2.2v-9.6c0-0.3-0.2-0.6-0.4-0.7c-1.1-0.6-1.8-1.7-1.8-2.9c0-1.8,1.5-3.3,3.3-3.3
	s3.3,1.5,3.3,3.3c0,1.2-0.7,2.4-1.8,2.9c-0.3,0.1-0.4,0.4-0.4,0.7C51.1,352.9,51.1,362.5,51.1,362.5z M49.4,362h1.2v-9.1
	c0-0.5,0.3-0.9,0.7-1.1c0.9-0.5,1.5-1.4,1.5-2.5c0-1.5-1.3-2.8-2.8-2.8s-2.8,1.3-2.8,2.8c0,1,0.6,2,1.5,2.5l0,0
	c0.4,0.2,0.7,0.7,0.7,1.1C49.4,352.9,49.4,362,49.4,362z"/>
<path class="st1" d="M139.8,375.3h21.1c0.8,0,1.5-0.7,1.5-1.5v-8.5c2-2.2,3-4.9,3-7.9v-23.1c0-2.5-2-4.5-4.5-4.5
	c-0.6,0-1.2,0.1-1.7,0.3c-0.5-1.9-2.3-3.3-4.4-3.3c-0.6,0-1.2,0.1-1.7,0.3c-0.5-1.9-2.3-3.3-4.4-3.3c-2.1,0-3.8,1.4-4.4,3.3
	c-0.5-0.2-1.1-0.3-1.7-0.3c-2.5,0-4.5,2-4.5,4.5v12.3c-1.3-0.9-2.8-1.5-4.5-1.5c-0.8,0-1.5,0.7-1.5,1.5V355c0,4.4,2.3,8.4,6,10.7
	v8.2C138.3,374.6,139,375.3,139.8,375.3L139.8,375.3z M135.3,354.9v-9.6c1.8,0.6,3,2.3,3,4.3v3c0,0.8,0.7,1.5,1.5,1.5
	s1.5-0.7,1.5-1.5c0-1.1,0-20.2,0-21.3c0-0.8,0.7-1.5,1.5-1.5s1.5,0.7,1.5,1.5v15.3c0,0.8,0.7,1.5,1.5,1.5s1.5-0.7,1.5-1.5v-18.3
	c0-0.8,0.7-1.5,1.5-1.5s1.5,0.7,1.5,1.5v18.3c0,0.8,0.7,1.5,1.5,1.5s1.5-0.7,1.5-1.5v-15.3c0-0.8,0.7-1.5,1.5-1.5s1.5,0.7,1.5,1.5
	v15.3c0,0.8,0.7,1.5,1.5,1.5s1.5-0.7,1.5-1.5v-12.3c0-0.8,0.7-1.5,1.5-1.5s1.5,0.7,1.5,1.5v23.1c0,2.3-0.9,4.6-2.6,6.2
	c-0.3,0.3-0.4,0.7-0.4,1.1v7.5h-18.1v-7.6c0-0.6-0.3-1.1-0.9-1.4C137.3,361.7,135.3,358.5,135.3,354.9L135.3,354.9z"/>
<circle class="st1" cx="151.9" cy="352.6" r="1.5"/>
<circle class="st1" cx="145.9" cy="352.6" r="1.5"/>
<circle class="st1" cx="157.9" cy="352.6" r="1.5"/>
<circle class="st1" cx="154.9" cy="358.7" r="1.5"/>
<circle class="st1" cx="148.9" cy="358.7" r="1.5"/>
<circle class="st1" cx="151.9" cy="364.7" r="1.5"/>
<path class="st7" d="M272.7,351.2c-1.9-0.6-4,0.1-5.2,1.6l-4-1.3c0.5-1.7,0.8-3.5,0.8-5.3c0-0.5,0-1-0.1-1.4h2.6
	c0.6,1.8,2.4,3.2,4.4,3.2l0,0l0,0c1.2,0,2.4-0.5,3.3-1.4s1.4-2.1,1.4-3.3c0-1.2-0.5-2.4-1.4-3.3s-2.1-1.4-3.3-1.4l0,0
	c-2,0-3.8,1.3-4.4,3.1h-3.2c-0.6-2.1-1.6-4.1-2.8-5.8l6.6-2.2c0.9,1.2,2.3,1.9,3.7,1.9c0.5,0,1-0.1,1.4-0.2c2.5-0.8,3.8-3.4,3-5.9
	c-0.4-1.2-1.2-2.2-2.3-2.7c-1.1-0.6-2.4-0.7-3.6-0.3c-1.2,0.4-2.2,1.2-2.7,2.3c-0.3,0.6-0.5,1.3-0.5,2l-7.9,2.6
	c-3.1-2.8-7.1-4.5-11.6-4.5c-4.6,0-8.9,1.8-12.1,5c-3.1,3.1-4.9,7.2-5.1,11.6l-5.7,8.8l4.7,2.1v6.7c0,2.7,2.2,4.8,4.8,4.8h4.8v4.8
	h18.2v-12.2c2.2-1.5,4-3.4,5.3-5.7c0.1-0.2,0.2-0.4,0.3-0.5l4.3,1.4c0,0.7,0.2,1.4,0.5,2c0.6,1.1,1.5,1.9,2.7,2.3
	c0.5,0.2,1,0.2,1.5,0.2c0.7,0,1.5-0.2,2.1-0.5c1.1-0.6,1.9-1.5,2.3-2.7s0.3-2.5-0.3-3.6C274.8,352.4,273.8,351.6,272.7,351.2z
	 M271.3,341.7L271.3,341.7c0.4,0,0.9,0.2,1.2,0.5c0.3,0.3,0.5,0.7,0.5,1.2c0,0.4-0.2,0.8-0.5,1.2c-0.3,0.3-0.7,0.5-1.2,0.5l0,0
	c-0.9,0-1.6-0.7-1.6-1.6C269.6,342.4,270.4,341.7,271.3,341.7z M269.8,330.2c0.2-0.4,0.5-0.7,1-0.8c0.2-0.1,0.3-0.1,0.5-0.1
	c0.3,0,0.5,0.1,0.7,0.2c0.4,0.2,0.7,0.5,0.8,1c0.3,0.9-0.2,1.8-1.1,2.1c-0.9,0.3-1.8-0.2-2.1-1.1
	C269.5,331.1,269.6,330.6,269.8,330.2z M254.3,358.4l-0.7,0.4v10.8h-12.2v-4.8h-7.8c-1,0-1.8-0.8-1.8-1.8v-8.7l-3.3-1.4l4.2-6.5V346
	c0.1-7.7,6.5-14,14.2-14c7.8,0,14.2,6.4,14.2,14.2C261.2,351.3,258.7,355.8,254.3,358.4z M272.8,356.2c-0.1,0.4-0.4,0.8-0.8,1
	s-0.8,0.2-1.3,0.1c-0.4-0.1-0.8-0.4-1-0.8s-0.2-0.8-0.1-1.3c0.2-0.7,0.9-1.1,1.6-1.1c0.2,0,0.3,0,0.5,0.1c0.4,0.1,0.8,0.4,1,0.8
	C272.9,355.3,272.9,355.7,272.8,356.2z"/>
<path class="st13" d="M358.4,363.6c-0.6-0.5-1.4-0.5-2,0c-0.5,0.4-5,4-5,8.3c0,3.3,2.7,6,6,6s6-2.7,6-6
	C363.4,367.6,358.9,364,358.4,363.6L358.4,363.6z M357.4,374.6c-1.5,0-2.7-1.2-2.7-2.7c0-1.7,1.5-3.6,2.7-4.8
	c1.2,1.2,2.7,3.1,2.7,4.8C360.1,373.3,358.9,374.6,357.4,374.6z"/>
<path class="st13" d="M366.4,345.1c-2.8-4.7-6.1-12.4-7.5-17.9c-0.2-0.9-1.1-1.4-2-1.2c-0.9,0.2-1.4,1.1-1.2,2
	c1.4,5.8,4.8,13.8,7.8,18.8c1.4,2.3,3.5,5.7,3.5,8.3c0,1.4-1.2,2.7-2.5,3.5c-2.5,1.5-5,0.6-6,0.1c1-1.3,1.9-2,3.6-2
	c0.9,0,1.6-0.7,1.6-1.6s-0.7-1.6-1.6-1.6c-3.9,0-5.6,2.4-7,4.4c-1.4,2.1-2.6,3.7-6,3.7s-4.6-1.6-6-3.7c-1.4-2-3.1-4.4-7-4.4
	c-0.9,0-1.6,0.7-1.6,1.6s0.7,1.6,1.6,1.6c1.7,0,2.6,0.7,3.6,2c-1,0.5-3.5,1.4-6-0.1c-1.2-0.7-2.5-2.1-2.5-3.5c0-2.6,2.1-6.1,3.5-8.3
	c3.1-5.1,6.4-13,7.8-18.8c0.2-0.9-0.3-1.7-1.2-2c-0.9-0.2-1.7,0.3-2,1.2c-1.3,5.5-4.6,13.2-7.5,17.9c-1.6,2.6-3.9,6.5-4,10
	c0,3.7,3.9,7.6,8.7,7.6c2.4,0,4.3-0.9,5-1.3c1.5,1.8,3.5,3.5,7.5,3.5c3.9,0,6-1.7,7.5-3.5c0.6,0.4,2.5,1.3,5,1.3
	c4.7,0,8.7-3.8,8.7-7.6C370.3,351.6,368,347.7,366.4,345.1L366.4,345.1z"/>
<path class="st7" d="M464.9,352.5c-1-1.7-2.3-3.3-3.8-4.6c3.3-1.8,5.5-5.2,5.5-9.2v-1.6H432v1.6c0,3.9,2.2,7.4,5.5,9.2
	c-1.5,1.3-2.8,2.9-3.8,4.6c-1.5,2.7-2.4,5.8-2.4,8.9V375h35.8v-13.6C467.3,358.3,466.5,355.2,464.9,352.5z M457.7,371.9h-6.8V370
	c1.9-0.6,3.3-2.5,3.3-4.6c0-2.2-2.8-5.6-3.7-6.6l-1.2-1.3l-1.2,1.3c-0.9,1-3.7,4.3-3.7,6.6c0,2.1,1.4,4,3.3,4.6v1.9H441V362
	c0-4.6,3.8-8.4,8.4-8.4s8.4,3.8,8.4,8.4L457.7,371.9L457.7,371.9z M449.3,367.2c-1,0-1.8-0.8-1.8-1.8c0-0.5,0.8-1.8,1.8-3.1
	c1,1.3,1.7,2.6,1.8,3.1C451.1,366.4,450.3,367.2,449.3,367.2z M464.2,371.9h-3.3V362c0-6.3-5.2-11.5-11.5-11.5s-11.5,5.2-11.5,11.5
	v9.9h-3.3v-10.5c0-5.2,2.7-9.9,7.1-12.7l3.5-2.1l-4-0.7c-2.9-0.5-5.2-2.8-5.8-5.6h28.1c-0.6,2.8-2.9,5.1-5.8,5.6l-4,0.7l3.5,2.1
	c4.4,2.7,7.1,7.4,7.1,12.7L464.2,371.9L464.2,371.9z"/>
<path class="st1" d="M457.7,333.9c-0.6,0-1.2-0.5-1.2-1.2c0-0.9-0.4-1.3-1.3-2c-0.9-0.8-2.1-1.8-2.1-3.8s1.1-3.1,2-3.8
	c0.8-0.7,1.2-1.2,1.2-2.1c0-0.7,0.5-1.2,1.2-1.2l0,0c0.6,0,1.2,0.5,1.2,1.2c0,2-1.1,3.1-2,3.8c-0.8,0.7-1.2,1.2-1.2,2.1
	s0.4,1.3,1.3,2c0.9,0.8,2.1,1.8,2.1,3.8C458.9,333.3,458.4,333.9,457.7,333.9L457.7,333.9z"/>
<path class="st1" d="M451,333.9c-0.6,0-1.2-0.5-1.2-1.2c0-0.9-0.4-1.3-1.3-2c-0.9-0.8-2.1-1.8-2.1-3.8s1.1-3.1,2-3.8
	c0.8-0.7,1.2-1.2,1.2-2.1c0-0.7,0.5-1.2,1.2-1.2l0,0c0.6,0,1.2,0.5,1.2,1.2c0,2-1.1,3.1-2,3.8c-0.8,0.7-1.2,1.2-1.2,2.1
	s0.4,1.3,1.3,2c0.9,0.8,2.1,1.8,2.1,3.8C452.2,333.3,451.7,333.9,451,333.9L451,333.9z"/>
<path class="st1" d="M444.3,333.9c-0.6,0-1.2-0.5-1.2-1.2c0-0.9-0.4-1.3-1.3-2c-0.9-0.8-2.1-1.8-2.1-3.8s1.1-3.1,2-3.8
	c0.8-0.7,1.2-1.2,1.2-2.1c0-0.7,0.5-1.2,1.2-1.2l0,0c0.6,0,1.2,0.5,1.2,1.2c0,2-1.1,3.1-2,3.8c-0.8,0.7-1.2,1.2-1.2,2.1
	s0.4,1.3,1.3,2c0.9,0.8,2.1,1.8,2.1,3.8C445.5,333.3,445,333.9,444.3,333.9L444.3,333.9z"/>
<g>
	<g>
		<path class="st14" d="M50,472.7c-13.2,0-24-10.8-24-24s10.8-24,24-24s24,10.8,24,24S63.2,472.7,50,472.7z M50,426.6
			c-12.2,0-22.1,9.9-22.1,22.1s9.9,22.1,22.1,22.1s22.1-9.9,22.1-22.1C72.1,436.6,62.2,426.6,50,426.6z"/>
	</g>
	<g>
		<g>
			<path class="st14" d="M50.7,466.3c-1.8,0-3.7-0.3-5.5-0.9c-0.1,0-0.3-0.1-0.4-0.1l0,0l0,0c-0.1,0-0.2-0.1-0.4-0.1
				c-0.7-0.2-1.4-0.5-2.1-0.9c-3.5-1.8-6.5-4.8-8.2-8.4c-1.6-3.2-2.2-6.8-1.7-10.3v-0.1v-0.1c0-0.1,0-0.2,0-0.3V445
				c0.1-0.4,0.2-0.8,0.3-1.1c1.5-4.7,6.5-7.3,11.2-5.8c3.7,1.2,6.2,4.5,6.2,8.3c0.1,0,0.1,0,0.2,0c4,1.3,6.7,5,6.9,9.1
				c1.2-1,2.3-2.1,3.2-3.5l0.1-0.1l0.1-0.2c0,0,0,0,0.1-0.1l0,0c1-1.3,2.8-1.9,4.4-1.4l0,0c1,0.3,1.8,1,2.3,2c0.5,0.9,0.6,2,0.3,3
				c-0.1,0.2-0.1,0.4-0.2,0.6C64.2,462.4,57.6,466.3,50.7,466.3z M45.2,463.5L45.2,463.5c0.2,0,0.4,0.1,0.5,0.1
				c7.8,2.5,16.4-1.2,20-8.6c0.1-0.1,0.1-0.2,0.1-0.3c0.2-0.5,0.1-1.1-0.1-1.6c-0.3-0.5-0.7-0.9-1.2-1l0,0c-0.8-0.3-1.7,0-2.3,0.7
				l0,0l-0.1,0.1L62,453l0,0c-1.4,2.1-3.2,3.8-5.3,5.1c-0.3,0.2-0.7,0.2-1,0s-0.5-0.6-0.4-0.9c0.7-3.9-1.7-7.8-5.5-9
				c-0.2-0.1-0.5-0.1-0.7-0.2H49c-0.5-0.1-0.8-0.5-0.7-1c0.2-3.3-1.8-6.2-4.9-7.2c-3.7-1.2-7.7,0.9-8.8,4.6c-0.1,0.3-0.2,0.6-0.2,1
				v0.1v0.1v0.1h-0.1c0,0,0,0,0,0.1h0.1c-0.4,3.2,0.1,6.4,1.5,9.3c1.6,3.2,4.2,5.9,7.4,7.6h0.1l0,0C43.9,463,44.5,463.3,45.2,463.5
				C45,463.5,45.1,463.5,45.2,463.5z"/>
		</g>
		<g>
			<path class="st14" d="M45.1,454.5c-0.3,0-0.7-0.2-0.8-0.5c-0.3-0.5-0.1-1,0.4-1.3c1.6-0.9,2.8-2.3,3.3-4c0.2-0.7,0.3-1.4,0.3-2.1
				c0-0.5,0.4-0.9,0.9-0.9l0,0c0.5,0,0.9,0.4,0.9,0.9c0,0.9-0.1,1.8-0.4,2.6c-0.7,2.2-2.2,4-4.2,5.1
				C45.4,454.5,45.2,454.5,45.1,454.5z"/>
		</g>
	</g>
	<g>
		<circle class="st14" cx="44.8" cy="446" r="0.9"/>
	</g>
	<g>
		<path class="st14" d="M55.6,453.3c-0.3,0-0.7-0.2-0.8-0.5c-0.2-0.5-0.1-1,0.4-1.3c0,0,1.2-0.7,1.7-2.1c0.3-1.2,0.1-2.6-0.9-4.3
			c-1.7-3-0.9-5.4,0.7-6.4c1.6-1.1,4.2-0.9,6.1,1.4c2.1,2.6,4.5,4.1,6.4,4c1-0.1,1.9-0.6,2.5-1.6c0.3-0.4,0.8-0.6,1.3-0.3
			c0.4,0.3,0.6,0.8,0.3,1.3c-0.9,1.6-2.3,2.4-4,2.6c-2.6,0.2-5.5-1.5-8-4.7c-1.2-1.5-2.7-1.6-3.5-1c-1,0.7-1.1,2.2-0.1,3.9
			c1.2,2.1,1.6,4.1,1,5.8c-0.7,2.2-2.5,3.2-2.6,3.2C55.9,453.3,55.7,453.3,55.6,453.3z"/>
	</g>
</g>
<g>
	<g>
		<g>
			<path class="st15" d="M130.4,451c-3.1,0-6.1-1.4-8.1-4c-1.6-2.1-2.3-4.8-1.9-7.5s1.8-5,3.9-6.6c4.5-3.3,13.4,1.6,13.8,1.8
				c0.5,0.3,0.6,0.8,0.4,1.3c-0.3,0.5-0.8,0.6-1.3,0.4c-2.3-1.3-8.8-4.1-11.7-1.9c-1.7,1.3-2.9,3.2-3.2,5.4
				c-0.3,2.2,0.2,4.3,1.5,6.1c2.5,3.3,7,4.2,10.6,2.2c0.4-0.3,1-0.1,1.3,0.4s0.1,1-0.4,1.3C133.8,450.6,132.1,451,130.4,451z"/>
		</g>
		<g>
			<circle class="st16" cx="132.5" cy="449.7" r="2.8"/>
			<path class="st15" d="M132.5,453.5c-1.1,0-2.3-0.5-3-1.5c-1.2-1.7-0.9-4,0.8-5.3c0.8-0.6,1.8-0.9,2.8-0.7c1,0.1,1.9,0.7,2.5,1.5
				s0.9,1.8,0.7,2.8c-0.1,1-0.7,1.9-1.5,2.5C134.1,453.2,133.3,453.5,132.5,453.5z M132.5,447.8c-0.4,0-0.8,0.1-1.1,0.4
				c-0.8,0.6-1,1.8-0.4,2.6c0.6,0.8,1.8,1,2.6,0.4c0.4-0.3,0.7-0.7,0.7-1.2c0.1-0.5-0.1-1-0.4-1.4l0,0c-0.3-0.4-0.7-0.7-1.2-0.7
				C132.7,447.8,132.6,447.8,132.5,447.8z"/>
		</g>
	</g>
	<g>
		<g>
			<path class="st15" d="M165.5,451c-1.7,0-3.4-0.4-4.9-1.3c-0.5-0.3-0.6-0.8-0.4-1.3c0.3-0.5,0.8-0.6,1.3-0.4
				c3.6,2,8.1,1.1,10.6-2.2c1.3-1.7,1.9-3.9,1.5-6.1c-0.3-2.2-1.4-4.1-3.2-5.4c-2.9-2.2-9.5,0.6-11.7,1.9c-0.5,0.3-1,0.1-1.3-0.4
				s-0.1-1,0.4-1.3c0.4-0.2,9.3-5.1,13.8-1.8c2.2,1.6,3.5,4,3.9,6.6c0.4,2.7-0.3,5.3-1.9,7.5C171.6,449.6,168.6,451,165.5,451z"/>
		</g>
		<g>
			<circle class="st16" cx="163.5" cy="449.7" r="2.8"/>
			<path class="st15" d="M163.5,453.5c-0.8,0-1.6-0.2-2.2-0.7c-0.8-0.6-1.3-1.5-1.5-2.5c-0.1-1,0.1-2,0.7-2.8l0,0
				c0.6-0.8,1.5-1.3,2.5-1.5c1-0.1,2,0.1,2.8,0.7c1.7,1.2,2,3.6,0.8,5.3C165.7,452.9,164.6,453.5,163.5,453.5z M163.5,447.8
				c-0.1,0-0.2,0-0.3,0c-0.5,0.1-0.9,0.3-1.2,0.7l0,0c-0.3,0.4-0.4,0.9-0.4,1.4c0.1,0.5,0.3,0.9,0.7,1.2c0.8,0.6,2,0.5,2.6-0.4
				c0.6-0.8,0.5-2-0.4-2.6C164.3,448,163.9,447.8,163.5,447.8z M161.2,448L161.2,448L161.2,448z"/>
		</g>
	</g>
	<g>
		<path class="st16" d="M148,470.2L148,470.2c-1.1,0-2-0.7-2.3-1.8l-0.6-2.3c-0.8-3-0.9-6.1-0.4-9.1l0.1-0.7l-7.3-16
			c-1.6-3.4,1-7.3,4.7-7.3h11.5c3.8,0,6.3,3.9,4.7,7.3l-7.3,16l0.1,0.8c0.4,2.9,0.3,5.9-0.4,8.8l-0.6,2.4
			C150.1,469.5,149.1,470.2,148,470.2z"/>
		<path class="st15" d="M148,471.1c-1.5,0-2.8-1-3.2-2.5l-0.6-2.3c-0.8-3.1-1-6.3-0.5-9.5l0.1-0.4l-7.1-15.7
			c-0.9-1.9-0.7-4.1,0.4-5.9c1.1-1.8,3.1-2.8,5.2-2.8h11.5c2.1,0,4,1.1,5.2,2.8c1.1,1.8,1.3,3.9,0.4,5.9l-7.1,15.7l0.1,0.6
			c0.4,3.1,0.3,6.2-0.5,9.2l-0.6,2.4C150.9,470.1,149.5,471.1,148,471.1z M142.3,434c-1.5,0-2.8,0.7-3.6,2c-0.8,1.2-0.9,2.7-0.3,4.1
			l7.3,16c0.1,0.2,0.1,0.3,0.1,0.5l-0.1,0.7c-0.4,2.9-0.3,5.9,0.4,8.7l0.6,2.3c0.2,0.6,0.7,1.1,1.4,1.1s1.2-0.4,1.4-1.1l0.6-2.4
			c0.7-2.8,0.8-5.6,0.4-8.5l-0.1-0.8c0-0.2,0-0.4,0.1-0.5l7.3-16c0.6-1.3,0.5-2.8-0.3-4.1c-0.8-1.2-2.1-2-3.6-2L142.3,434L142.3,434
			z"/>
	</g>
</g>
<g>
	<g>
		<path class="st17" d="M249,475L249,475c-0.2,0-0.3,0-0.4-0.1c-0.1,0-0.1-0.1-0.2-0.1l-14-10.2c-4-2.9-6.3-7.5-6.3-12.5v-18.4
			c0-0.3,0.1-0.5,0.3-0.8c0.2-0.2,0.4-0.3,0.8-0.2c0,0,3.4,0.2,8.8-1.9c5.4-2.1,9.9-5.9,10.4-6.3c0.1-0.1,0.2-0.1,0.3-0.2
			c0.2-0.1,0.5-0.1,0.9,0c0.1,0,0.2,0.1,0.3,0.2c0.6,0.5,5.1,4.2,10.4,6.3c5.4,2.1,8.8,1.9,8.8,1.9c0.2,0,0.5,0.1,0.8,0.2
			c0.2,0.2,0.3,0.4,0.3,0.8v18.4c0,4.9-2.4,9.6-6.3,12.5l-14.1,10.2c-0.1,0-0.1,0.1-0.2,0.1C249.3,474.9,249.2,475,249,475z
			 M230,434.7v17.4c0,4.3,2,8.4,5.5,10.9l13.5,9.8l13.5-9.8c3.4-2.5,5.5-6.6,5.5-10.9v-17.4c-1.5-0.1-4.5-0.4-8.7-2l0,0
			c-4.7-1.9-8.8-4.9-10.4-6.2c-1.5,1.2-5.6,4.3-10.4,6.2C234.6,434.2,231.5,434.7,230,434.7z"/>
	</g>
	<g>
		<path class="st17" d="M253,460.4h-7.8v-6.8h-6.9v-7.8h6.8V439h7.8v6.8h6.8v7.8h-6.8L253,460.4L253,460.4L253,460.4z M247.1,458.3
			h4v-6.8h6.8v-4H251v-6.8h-4v6.8h-6.8v4h6.8L247.1,458.3L247.1,458.3z"/>
	</g>
</g>
<g>
	<g>
		<path class="st11" d="M340.3,473.4c-0.2,0-0.4,0-0.6,0c-2.4-0.3-4.3-2.3-4.5-4.8l-1.3-12.3l-4.1-14.9c-1.1-3.9,0.2-8,3.2-10.6
			c3.1-2.6,7.3-3.3,11-1.6c3,1.3,6.3,1.4,9.3,0.3l1.3-0.5c3.1-1.2,6.7-0.8,9.6,0.9c2.7,1.7,4.5,4.4,4.8,7.5c0.2,1.4,0,2.7-0.3,4.1
			l-4.1,14.9l-1.3,12.5c-0.1,1.4-0.8,2.6-1.8,3.5c-1.1,0.9-2.4,1.3-3.8,1.1c-2.4-0.3-4.3-2.3-4.5-4.8l-1.1-10.1h-5.7l-1.2,10.3
			c-0.1,1.4-0.8,2.6-1.8,3.5C342.7,473,341.5,473.4,340.3,473.4z M345,455.2h8.7c0.8,0,1.5,0.7,1.6,1.5l1.3,11.6
			c0.1,1,0.8,1.8,1.6,1.9c0.5,0.1,1-0.1,1.4-0.4s0.6-0.8,0.7-1.3l1.3-12.7c0-0.1,0-0.2,0.1-0.3l4.1-15.1c0.3-1,0.3-1.9,0.2-2.9
			c-0.2-2.1-1.4-4-3.3-5.1c-2-1.2-4.5-1.5-6.7-0.6l0,0l-1.3,0.5c-3.8,1.5-8,1.3-11.8-0.3c-2.6-1.1-5.4-0.7-7.6,1.1
			c-2.1,1.9-3,4.6-2.2,7.3l4.1,15.1c0,0.1,0,0.2,0.1,0.3l1.3,12.5c0.1,1,0.8,1.8,1.6,1.9c0.5,0.1,1-0.1,1.4-0.4s0.6-0.8,0.7-1.3
			l1.3-11.8C343.5,455.9,344.2,455.2,345,455.2z M355.4,430.3L355.4,430.3L355.4,430.3z"/>
	</g>
</g>
<g>
	<g>
		<path d="M472,472.4h-45.4c-0.5,0-1-0.4-1-1V426c0-0.5,0.4-1,1-1H472c0.5,0,1,0.4,1,1v45.4C473,472,472.5,472.4,472,472.4z
			 M427.6,470.5H471V427h-43.4V470.5z"/>
	</g>
	<g>
		<g>
			<g>
				<path d="M430.3,433.8c-0.4,0-0.6-0.3-0.6-0.6v-3.5c0-0.4,0.3-0.6,0.6-0.6h3.5c0.4,0,0.6,0.3,0.6,0.6s-0.3,0.6-0.6,0.6h-2.9v2.9
					C430.9,433.5,430.6,433.8,430.3,433.8z"/>
			</g>
			<g>
				<path d="M468.3,433.8c-0.4,0-0.6-0.3-0.6-0.6v-2.9h-2.9c-0.4,0-0.6-0.3-0.6-0.6s0.3-0.6,0.6-0.6h3.5c0.4,0,0.6,0.3,0.6,0.6v3.5
					C469,433.5,468.7,433.8,468.3,433.8z"/>
			</g>
		</g>
		<g>
			<g>
				<path d="M433.8,468.5h-3.5c-0.4,0-0.6-0.3-0.6-0.6v-3.5c0-0.4,0.3-0.6,0.6-0.6s0.6,0.3,0.6,0.6v2.9h2.9c0.4,0,0.6,0.3,0.6,0.6
					S434.1,468.5,433.8,468.5z"/>
			</g>
			<g>
				<path d="M468.3,468.5h-3.5c-0.4,0-0.6-0.3-0.6-0.6s0.3-0.6,0.6-0.6h2.9v-2.9c0-0.4,0.3-0.6,0.6-0.6s0.6,0.3,0.6,0.6v3.5
					C469,468.3,468.7,468.5,468.3,468.5z"/>
			</g>
		</g>
	</g>
	<g>
		<path d="M449.3,447.7c-0.5,0-1-0.4-1-1v-12.9c0-0.5,0.4-1,1-1s1,0.4,1,1v12.9C450.3,447.2,449.9,447.7,449.3,447.7z"/>
	</g>
	<g>
		<path d="M453.3,447.7h-7.9c-0.5,0-1-0.4-1-1s0.4-1,1-1h7.9c0.5,0,1,0.4,1,1S453.8,447.7,453.3,447.7z"/>
	</g>
	<g>
		<path d="M441.8,459.7h-6.4c-1.8,0-3.2-1.4-3.2-3.2c0-7.5,3.9-15.5,11-15.5c1.8,0,3.2,1.4,3.2,3.2v10.9
			C446.4,457.7,444.3,459.7,441.8,459.7z M443.2,443c-6.3,0-9.1,7.9-9.1,13.5c0,0.7,0.6,1.2,1.2,1.2h6.4c1.5,0,2.7-1.2,2.7-2.7
			v-10.9C444.4,443.6,443.9,443,443.2,443z"/>
	</g>
	<g>
		<path d="M463.3,459.7h-6.4c-2.5,0-4.6-2.1-4.6-4.6v-10.9c0-1.8,1.4-3.2,3.2-3.2c7.2,0,11,8,11,15.5
			C466.5,458.3,465.1,459.7,463.3,459.7z M455.5,443c-0.7,0-1.2,0.6-1.2,1.2v10.9c0,1.5,1.2,2.7,2.7,2.7h6.4c0.7,0,1.2-0.6,1.2-1.2
			C464.6,450.9,461.8,443,455.5,443z"/>
	</g>
</g>
<g>
	<g>
		<circle class="st2" cx="60.3" cy="566.1" r="3"/>
		<path d="M60.3,570.2c-2.3,0-4.2-1.9-4.2-4.2s1.9-4.2,4.2-4.2s4.2,1.9,4.2,4.2S62.6,570.2,60.3,570.2z M60.3,564.1
			c-1.1,0-1.9,0.9-1.9,1.9c0,1.1,0.9,1.9,1.9,1.9s1.9-0.9,1.9-1.9S61.4,564.1,60.3,564.1z"/>
	</g>
	<g>
		<g>
			<path d="M56.2,573.3c-0.1,0-0.3,0-0.4-0.1c-2.5-1.6-3.9-4.2-3.9-7.2c0-2.8,1.4-5.4,3.7-7c0.3-0.2,0.8-0.1,1,0.2s0.1,0.8-0.2,1
				c-1.9,1.3-3.1,3.5-3.1,5.8c0,2.4,1.2,4.6,3.3,5.9c0.3,0.2,0.4,0.7,0.2,1C56.7,573.2,56.4,573.3,56.2,573.3z"/>
		</g>
		<g>
			<path d="M64.4,573.3c-0.2,0-0.5-0.1-0.6-0.3c-0.2-0.3-0.1-0.8,0.2-1c2-1.3,3.3-3.5,3.3-5.9c0-2.3-1.2-4.5-3.1-5.8
				c-0.3-0.2-0.4-0.7-0.2-1c0.2-0.3,0.7-0.4,1-0.2c2.3,1.6,3.7,4.2,3.7,7c0,2.9-1.5,5.6-3.9,7.2C64.7,573.3,64.5,573.3,64.4,573.3z"
				/>
		</g>
	</g>
</g>
<g id="XMLID_777_">
	<path id="XMLID_1091_" class="st18" d="M141.6,551.5L141.6,551.5c-0.2,0-0.5,0-0.7,0c-0.6-0.1-1.1,0.3-1.1,0.9
		c-0.1,0.6,0.3,1.1,0.9,1.1c0.3,0,0.6,0.1,0.9,0.1l0,0c0.6,0,1-0.5,1-1C142.7,551.9,142.2,551.5,141.6,551.5L141.6,551.5z"/>
	<path id="XMLID_1093_" class="st18" d="M146.6,551.8c0.2-0.2,0.5-0.4,0.7-0.6c0.4-0.4,0.4-1.1,0-1.5s-1.1-0.4-1.5,0
		c-0.2,0.2-0.3,0.3-0.5,0.5c-0.4,0.4-0.5,1-0.2,1.5c0.2,0.3,0.5,0.4,0.8,0.4C146.2,552,146.4,552,146.6,551.8L146.6,551.8z"/>
	<path id="XMLID_1094_" class="st18" d="M148.6,540.6c0.6,0,1-0.5,1-1v-0.8c0-0.6-0.5-1-1-1c-0.6,0-1,0.5-1,1v0.8
		C147.6,540.1,148.1,540.6,148.6,540.6z"/>
	<path id="XMLID_1095_" class="st18" d="M148.6,546.2c0.6,0,1-0.5,1-1v-1c0-0.6-0.5-1-1-1c-0.6,0-1,0.5-1,1v1
		C147.6,545.7,148.1,546.2,148.6,546.2z"/>
	<path id="XMLID_1098_" class="st18" d="M174.8,566.7L164,555.9c4.3-3.7,6.7-8.7,6.7-14c0-4.5-1.8-8.8-5-12.3
		c-3.1-3.4-7.5-5.8-12.3-6.7c-0.6-0.1-1.1,0.3-1.2,0.8c-0.1,0.6,0.3,1.1,0.8,1.2c9,1.8,15.6,8.9,15.6,17c0,4.1-1.7,8.1-4.7,11.2
		c0.1-0.7,0.1-1.4,0.1-2.1v-5.8c0-0.8-0.1-1.5-0.2-2.2c0.9-1,1.6-2.3,1.9-3.6c0.2-0.6-0.2-1.1-0.7-1.3c-0.6-0.2-1.1,0.2-1.3,0.7
		c-0.2,0.6-0.4,1.2-0.8,1.8c-1-2-2.6-3.7-4.7-4.7c-0.1-0.1-0.2-0.1-0.3-0.2c0.7-1.2,1-2.6,1-4c0-0.6-0.5-1-1-1c-0.6,0-1,0.5-1,1
		c0,1.1-0.3,2.2-0.9,3.1c-4.8-1.8-10.1-1.8-14.9,0c-0.6-0.9-0.9-2-0.9-3.1c0-0.6-0.5-1-1-1c-0.6,0-1,0.5-1,1c0,1.4,0.3,2.8,1,4
		c-0.1,0.1-0.2,0.1-0.3,0.2c-2.1,1.1-3.7,2.7-4.7,4.7c-0.3-0.6-0.6-1.2-0.8-1.8s-0.7-0.9-1.3-0.7s-0.9,0.7-0.7,1.3
		c0.4,1.3,1,2.6,1.9,3.6c-0.2,0.7-0.2,1.5-0.2,2.2v5.8c0,0.7,0,1.4,0.1,2.1c-3-3.1-4.7-7.1-4.7-11.2c0-8.1,6.5-15.2,15.6-17
		c0.6-0.1,0.9-0.7,0.8-1.2c-0.1-0.6-0.7-0.9-1.2-0.8c-4.8,0.9-9.2,3.3-12.3,6.7c-3.2,3.5-5,7.8-5,12.3c0,5.7,2.8,11,7.6,14.7
		c1.3,3.9,4,7.2,7.5,9.3v0.6c0,3.2-2,6-5.1,6.9c-0.5,0.2-0.9,0.7-0.7,1.3c0.1,0.4,0.5,0.7,1,0.7c0.1,0,0.2,0,0.3,0
		c1.9-0.6,3.5-1.8,4.7-3.4c1.1-1.5,1.7-3.3,1.8-5.1c1.5,0.6,3.1,1.1,4.8,1.3h0.1h0.1c1.7-0.2,3.3-0.6,4.8-1.3
		c0.1,1.9,0.7,3.6,1.8,5.1c1.2,1.6,2.8,2.8,4.7,3.4c0.1,0,0.2,0,0.3,0c0.4,0,0.9-0.3,1-0.7c0.2-0.5-0.1-1.1-0.7-1.3
		c-3-0.9-5.1-3.7-5.1-6.9v-0.7c1.7-1,3.2-2.3,4.5-3.9l9.7,9.7c0.2,0.2,0.5,0.3,0.7,0.3c0.3,0,0.5-0.1,0.7-0.3l3.5-3.5
		C175.2,567.8,175.2,567.1,174.8,566.7L174.8,566.7z M157.2,555.6l-1.6-3.1l3.1,1.6L157.2,555.6z M149.7,565.9v-1.6c0-0.6-0.5-1-1-1
		s-1,0.5-1,1v1.6c-7.1-1.4-12.3-7.6-12.3-14.9v-5.8c0-3.2,1.8-6.1,4.6-7.5c5.5-2.8,12-2.8,17.5,0c2.8,1.4,4.6,4.3,4.6,7.5v5.8
		c0,0.9-0.1,1.8-0.2,2.6l-0.5-0.5c-0.1-0.1-0.2-0.1-0.3-0.2l-7.2-3.7c-0.4-0.2-0.9-0.1-1.2,0.2s-0.4,0.8-0.2,1.2l3.7,7.2
		c0,0.1,0.1,0.2,0.2,0.3l2.4,2.4C156.4,563.3,153.2,565.2,149.7,565.9L149.7,565.9z M170.6,569.5l-12.1-12.1l2-2l12.1,12.1
		L170.6,569.5z"/>
</g>
<g>
	<path class="st4" d="M371.9,531.8c-1.1-1.1-2.7-1.7-4.1-1.7c0-1.5-0.6-3-1.7-4.1c-2.3-2.3-6-2.3-8.3,0c-1.9,1.9-2.3,4.9-0.8,7.2
		l-22,22c-2.2-1.4-5.3-1.1-7.3,0.8c-2.3,2.3-2.3,6,0,8.3c1.1,1.1,2.7,1.7,4.2,1.7c0,1.6,0.6,3,1.7,4.2c2.3,2.3,6,2.3,8.3,0
		c2.2-2.2,2.3-5.6,0.5-7.9l21.7-21.8c2.3,1.8,5.8,1.7,7.9-0.5C374.2,537.9,374.2,534.2,371.9,531.8L371.9,531.8z M369.9,538.2
		c-1.2,1.2-3.2,1.2-4.5,0c-0.1-0.1-0.3-0.3-0.4-0.5c-0.5-0.6-1.5-0.7-2.1-0.2c0,0-23.8,23.9-23.9,24c-0.5,0.6-0.4,1.6,0.3,2.1
		c1.6,1.1,1.7,3.4,0.4,4.8c-1.2,1.2-3.2,1.2-4.3,0c-0.8-0.8-1.2-2.3-0.7-3.4c0.5-1.2-0.7-2.3-1.8-1.8c-1.2,0.5-2.5,0.2-3.4-0.7
		c-1.9-1.9-0.6-5.2,2.2-5.2c0.8,0,1.6,0.3,2.2,0.9c0.5,0.5,1.4,0.6,2,0c25.4-25.5,23.8-23.8,24-24.2c0.3-0.6,0.1-1.2-0.3-1.6
		c-1.2-1.2-1.2-3.2,0-4.3c1.2-1.2,3.2-1.2,4.3,0c0.8,0.8,1.2,2.1,0.7,3.3c-0.1,0.3-0.1,0.7,0,1c0.3,0.7,1.1,1.1,1.8,0.8
		c1.2-0.5,2.5-0.2,3.4,0.7C371.1,535,371.1,537,369.9,538.2z"/>
	<path class="st4" d="M341.3,541.6c0.5,0.5,1.4,0.5,2,0c0.5-0.5,0.5-1.4,0-2l-4.7-4.7c-0.5-0.5-1.4-0.5-2,0s-0.5,1.4,0,2
		L341.3,541.6z"/>
	<path class="st4" d="M331.1,546.6h6.7c0.8,0,1.4-0.6,1.4-1.4s-0.6-1.4-1.4-1.4h-6.7c-0.8,0-1.4,0.6-1.4,1.4
		C329.6,546,330.3,546.6,331.1,546.6z"/>
	<path class="st4" d="M346.9,537.5c0.8,0,1.4-0.6,1.4-1.4v-6.7c0-0.8-0.6-1.4-1.4-1.4s-1.4,0.6-1.4,1.4v6.7
		C345.5,536.9,346.1,537.5,346.9,537.5z"/>
	<path class="st4" d="M358.3,554.8c-0.5-0.5-1.4-0.5-2,0c-0.5,0.5-0.5,1.4,0,2l4.7,4.7c0.3,0.3,0.6,0.4,1,0.4c1.2,0,1.9-1.5,1-2.4
		L358.3,554.8z"/>
	<path class="st4" d="M368.6,549.8h-6.7c-0.8,0-1.4,0.6-1.4,1.4s0.6,1.4,1.4,1.4h6.7c0.8,0,1.4-0.6,1.4-1.4
		C369.9,550.4,369.3,549.8,368.6,549.8z"/>
	<path class="st4" d="M352.7,558.9c-0.8,0-1.4,0.6-1.4,1.4v6.7c0,0.8,0.6,1.4,1.4,1.4s1.4-0.6,1.4-1.4v-6.7
		C354.1,559.6,353.5,558.9,352.7,558.9z"/>
</g>
<g>
	<path class="st19" d="M274.9,575.8h-27.4c-0.5,0-0.9-0.4-0.9-0.9v-34.8c0-0.5,0.4-0.9,0.9-0.9H275c0.5,0,0.9,0.4,0.9,0.9V575
		C275.8,575.5,275.5,575.8,274.9,575.8z M248.4,574H274v-33h-25.7L248.4,574L248.4,574z"/>
</g>
<g>
	<path class="st19" d="M261.2,562.2c-5,0-9.1-4.1-9.1-9.1s4.1-9.1,9.1-9.1s9.1,4.1,9.1,9.1C270.3,558.2,266.2,562.2,261.2,562.2z
		 M261.2,545.9c-4,0-7.3,3.2-7.3,7.3s3.2,7.2,7.3,7.2s7.3-3.2,7.3-7.3S265.2,545.9,261.2,545.9z"/>
</g>
<g>
	<rect x="251.7" y="567.5" class="st19" width="19" height="1.8"/>
</g>
<g>
	<g>
		<path class="st19" d="M239.7,554.3H224c-0.5,0-0.9-0.4-0.9-0.9c0-4.8,3.9-8.8,8.8-8.8c4.8,0,8.8,3.9,8.8,8.8
			C240.6,553.9,240.2,554.3,239.7,554.3z M225,552.5h13.7c-0.4-3.4-3.4-6-6.9-6S225.4,549.1,225,552.5z"/>
	</g>
</g>
<g>
	<path class="st19" d="M239.7,576.1H224c-0.5,0-0.9-0.4-0.9-0.9v-21.7c0-0.5,0.4-0.9,0.9-0.9h15.6c0.5,0,0.9,0.4,0.9,0.9v21.7
		C240.6,575.6,240.2,576.1,239.7,576.1z M225,574.2h13.8v-19.9H225V574.2z"/>
</g>
<g>
	<rect x="225" y="558.6" class="st19" width="3.4" height="1.8"/>
</g>
<g>
	<rect x="224.1" y="563.2" class="st19" width="5.9" height="1.8"/>
</g>
<g>
	<rect x="224.8" y="567.5" class="st19" width="2.9" height="1.8"/>
</g>
<g>
	<path class="st19" d="M232.5,545.6h-1.8v-6.9c0-9,7.4-16.4,16.3-16.4c7.8,0,14.1,5.7,15.4,13.9l-1.8,0.3
		c-1.1-7.4-6.5-12.4-13.5-12.4c-8,0-14.5,6.5-14.5,14.6C232.5,538.6,232.5,545.6,232.5,545.6z"/>
</g>
<g>
	<path class="st19" d="M266.1,541.1h-9.7c-0.5,0-0.9-0.4-0.9-0.9v-3.6c0-0.5,0.4-0.9,0.9-0.9h9.7c0.5,0,0.9,0.4,0.9,0.9v3.6
		C267,540.6,266.5,541.1,266.1,541.1z M257.2,539.2h7.9v-1.8h-7.9V539.2z"/>
</g>
<g>
	<g id="_465" transform="translate(0)">
		<path id="_734" class="st20" d="M467.9,523.4h-38.8c-4,0-7.2,3.3-7.3,7.3v20.8c0,3.9,3.1,7.1,7,7.2l3.9,11.9
			c0.1,0.4,0.5,0.7,1,0.7h29.4c0.4,0,0.9-0.3,1-0.7l3.9-11.9c3.9-0.1,7-3.4,7-7.2v-20.8C475.1,526.7,471.8,523.4,467.9,523.4z
			 M462.4,569.3h-27.9l-3.5-10.5h34.8L462.4,569.3z M473.1,551.6c0,2.9-2.3,5.2-5.2,5.2h-38.8c-2.9,0-5.2-2.3-5.2-5.2v-20.8
			c0-2.9,2.3-5.2,5.2-5.2h38.8c2.9,0,5.2,2.3,5.2,5.2V551.6z"/>
	</g>
	<g id="_466" transform="translate(2.923 2.924)">
		<path id="_736" class="st20" d="M463.9,524.7h-36.7c-2.3,0-4.2,1.9-4.2,4.2v18.6c0,2.3,1.9,4.2,4.2,4.2h36.7
			c2.3,0,4.2-1.9,4.2-4.2v-18.6C468.1,526.6,466.2,524.7,463.9,524.7z M466,547.6c0,1.2-1,2.1-2.1,2.1h-36.7c-1.2,0-2.1-1-2.1-2.1
			v-18.6c0-1.2,1-2.1,2.1-2.1h36.7c1.2,0,2.1,1,2.1,2.1V547.6z"/>
	</g>
	<g id="_471" transform="translate(12.133 5.774)">
		<path id="_746" class="st20" d="M428,527c-0.5,0-1.1,0.4-1.1,1.1s0.4,1.1,1.1,1.1c0.5,0,1.1-0.4,1.1-1.1l0,0
			C429.1,527.4,428.5,527,428,527z"/>
	</g>
	<g id="_475" transform="translate(23.827 5.774)">
		<path id="_754" class="st20" d="M433,529.1c0.5,0,1.1-0.4,1.1-1.1s-0.4-1.1-1.1-1.1c-0.5,0-1.1,0.4-1.1,1.1l0,0
			C432,528.7,432.4,529.1,433,529.1z"/>
	</g>
	<g id="_476" transform="translate(27.19 14.545)">
		<path id="_756" class="st20" d="M437.1,529.7c-0.5,0-1.1,0.4-1.1,1.1c0,0.6,0.4,1.1,1.1,1.1c0.5,0,1.1-0.4,1.1-1.1l0,0
			C438.1,530.1,437.6,529.7,437.1,529.7z"/>
	</g>
	<g id="_480" transform="translate(24.266 11.621)">
		<path id="_764" class="st20" d="M433.2,528.4c-0.5,0-1.1,0.4-1.1,1.1s0.4,1.1,1.1,1.1c0.5,0,1.1-0.4,1.1-1.1l0,0
			C434.2,528.9,433.7,528.4,433.2,528.4z"/>
	</g>
	<g id="_482" transform="translate(27.19 8.698)">
		<path id="_768" class="st20" d="M437.1,527.2c-0.5,0-1.1,0.4-1.1,1.1s0.4,1.1,1.1,1.1c0.5,0,1.1-0.4,1.1-1.1l0,0
			C438.1,527.6,437.6,527.2,437.1,527.2z"/>
	</g>
	<g id="_486" transform="translate(8.771 14.545)">
		<path id="_776" class="st20" d="M425.4,530.7c0-0.5-0.4-1.1-1.1-1.1c-0.5,0-1.1,0.4-1.1,1.1c0,0.5,0.4,1.1,1.1,1.1l0,0
			C425,531.7,425.4,531.3,425.4,530.7z"/>
	</g>
	<g id="_490" transform="translate(11.695 11.621)">
		<path id="_784" class="st20" d="M427.8,530.5c0.5,0,1.1-0.4,1.1-1.1c0-0.6-0.4-1.1-1.1-1.1c-0.5,0-1.1,0.4-1.1,1.1l0,0
			C426.8,530,427.2,530.5,427.8,530.5z"/>
	</g>
	<g id="_492" transform="translate(8.771 8.698)">
		<path id="_788" class="st20" d="M424.8,529.2c0.5,0,1.1-0.4,1.1-1.1c0-0.5-0.4-1.1-1.1-1.1c-0.5,0-1.1,0.4-1.1,1.1l0,0
			C423.9,528.8,424.3,529.2,424.8,529.2z"/>
	</g>
	<g id="_494" transform="translate(12.133 17.469)">
		<path id="_792" class="st20" d="M428,529.2c-0.5,0-1.1,0.4-1.1,1.1s0.4,1.1,1.1,1.1c0.5,0,1.1-0.4,1.1-1.1l0,0
			C429.1,529.7,428.5,529.2,428,529.2z"/>
	</g>
	<g id="_496" transform="translate(23.827 17.469)">
		<path id="_796" class="st20" d="M433,529.6c-0.5,0-1.1,0.4-1.1,1.1s0.4,1.1,1.1,1.1c0.5,0,1.1-0.4,1.1-1.1l0,0
			C434,530,433.5,529.6,433,529.6z"/>
	</g>
	<g id="_503" transform="translate(15.788 9.466)">
		<path id="_810" class="st20" d="M432.7,527.5c-2.3,0-4.2,1.9-4.2,4.2c0,2.3,1.9,4.2,4.2,4.2c2.3,0,4.2-1.9,4.2-4.2l0,0
			C436.9,529.4,434.9,527.5,432.7,527.5z M432.7,533.7c-1.2,0-2.1-1-2.1-2.1c0-1.2,1-2.1,2.1-2.1c1.2,0,2.1,1,2.1,2.1
			C434.7,532.8,433.8,533.7,432.7,533.7z"/>
	</g>
	<g id="_504" transform="translate(12.143 26.313)">
		<path id="_812" class="st20" d="M430,540.9c1.7,0,3.1-1.4,3.1-3.1s-1.4-3.1-3.1-3.1s-3.1,1.4-3.1,3.1l0,0
			C426.9,539.5,428.3,540.9,430,540.9z M430,536.8c0.5,0,1.1,0.4,1.1,1.1c0,0.6-0.4,1.1-1.1,1.1c-0.5,0-1.1-0.4-1.1-1.1l0,0
			C429.1,537.3,429.5,536.8,430,536.8L430,536.8z"/>
	</g>
	<g id="_505" transform="translate(20.921 29.236)">
		<path id="_814" class="st20" d="M430.6,535.9h4.2c0.5,0,1.1-0.4,1.1-1.1c0-0.5-0.4-1.1-1.1-1.1l0,0h-4.2
			c-0.5,0-1.1,0.4-1.1,1.1C429.5,535.5,430.1,535.9,430.6,535.9L430.6,535.9z"/>
	</g>
</g>
<path id="_733" class="st21" d="M66.3,632.3c-2.9-3.6-6.8-6.2-11.2-7.5v-1c0-1-0.8-1.8-1.8-1.8H45c-1,0-1.8,0.8-1.8,1.8v1
	c-4.4,1.3-8.3,3.9-11.2,7.5c-3,3.8-4.7,8.6-4.7,13.5c0,7.5,3.8,14.4,10.2,18.4l-2.5,7.4c-0.2,0.7,0.1,1.4,0.8,1.6
	c0.1,0,0.3,0.1,0.4,0.1h20.5c0.4,0,0.8-0.3,0.8-0.7s-0.3-0.8-0.7-0.8c0,0,0,0-0.1,0h-2v-4.9c1.6-0.4,3.2-1.1,4.7-1.9l2.3,6.8h-1.5
	c-0.4,0-0.8,0.3-0.8,0.7s0.3,0.8,0.7,0.8c0,0,0,0,0.1,0h1.9c0.7,0,1.3-0.6,1.3-1.3c0-0.1,0-0.3-0.1-0.4l-2.5-7.4
	c6.3-4,10.2-10.9,10.2-18.4C70.9,640.9,69.3,636.1,66.3,632.3L66.3,632.3z M57.2,653.3H46.5c-0.4,0-0.7,0.4-0.7,0.8
	c0,0.4,0.3,0.7,0.7,0.7H57v4.5H41.2v-4.5h1.9c0.4,0,0.7-0.4,0.7-0.8c0-0.4-0.3-0.7-0.7-0.7H41c-0.7,0-1.4,0.6-1.4,1.4v2.4
	c-6.2-5.2-7.1-14.5-1.9-20.7c1.7-2,3.8-3.5,6.2-4.4c0.1,0,0.3,0.1,0.4,0.1h9.3c0.1,0,0.3,0,0.4-0.1c7.6,2.8,11.6,11.3,8.8,18.9
	c-0.9,2.4-2.4,4.6-4.4,6.2v-2.4C58.6,653.9,58,653.3,57.2,653.3L57.2,653.3z M44.7,623.8c0-0.2,0.1-0.3,0.3-0.3h8.3
	c0.2,0,0.3,0.1,0.3,0.3v6.7h-8.8L44.7,623.8L44.7,623.8z M28.9,645.8c0-8.9,5.8-16.8,14.4-19.4v4.3c-8.3,3.3-12.5,12.7-9.2,21
	c1.1,2.9,3.1,5.4,5.7,7.3v0.5c0,0.7,0.6,1.4,1.4,1.4h2.5v4.5c-1.6-0.5-3.2-1.1-4.6-1.9c-0.1-0.1-0.2-0.1-0.3-0.2
	C32.6,659.5,28.8,652.9,28.9,645.8L28.9,645.8z M38.9,665c1.5,0.8,3.1,1.4,4.7,1.9v4.9h-7L38.9,665z M45.1,671.7v-10.9h8.2v10.9
	H45.1z M59.6,663.2c-0.1,0-0.2,0.1-0.3,0.2c-1.4,0.8-3,1.5-4.6,1.9v-4.5h2.5c0.7,0,1.4-0.6,1.4-1.4v-0.5c7.3-5.2,9-15.4,3.8-22.6
	c-1.8-2.6-4.4-4.5-7.3-5.7v-4.3c10.7,3.3,16.7,14.6,13.5,25.4C67.1,656.5,63.9,660.6,59.6,663.2L59.6,663.2z"/>
<g id="_464" transform="translate(0)">
	<g id="_462" transform="translate(0 0)">
		<path id="_729" class="st18" d="M135.4,653.2h-1.3c-0.4,0-0.8,0.4-0.8,0.8c0,0.4,0.4,0.8,0.8,0.8h1.3c0.4,0,0.8-0.4,0.8-0.8
			C136.2,653.6,135.8,653.2,135.4,653.2L135.4,653.2z"/>
		<path id="_731" class="st18" d="M148.5,622.7L148.5,622.7c-10.1,0-18.3,8.3-18.4,18.5v22.5c0,0.7,0.5,1.2,1.2,1.2h5.1
			c-0.1,0.7-0.2,1.5-0.3,2.2v3.1c0,0.7,0.6,1.3,1.3,1.3h1.7v2.3c0,0.7,0.6,1.3,1.3,1.3h16.1c0.7,0,1.3-0.6,1.3-1.3v-2.3h1.7
			c0.7,0,1.3-0.6,1.3-1.3v-3.1c0-0.7-0.1-1.5-0.3-2.2h5.5c0.7,0,1.2-0.5,1.2-1.2v-9.2c0-0.4-0.3-0.8-0.8-0.8c-0.4,0-0.8,0.3-0.8,0.8
			c0,0,0,0,0,0.1v8.8h-5.4c-0.8-4.1-2.2-10-2.4-11.1v-1.1c5.4-5.2,5.6-13.9,0.4-19.3c-0.7-0.7-1.5-1.4-2.3-2l1.6-2.9
			c5,3.2,8.1,8.7,8.1,14.7v9.2c0,0.4,0.4,0.8,0.8,0.8c0.4,0,0.7-0.4,0.8-0.8v-9.2C167.2,631.2,158.8,622.7,148.5,622.7L148.5,622.7z
			 M147.7,624.3v3.2c-1.8,0.1-3.6,0.6-5.3,1.4l-1.6-2.8C142.9,625,145.3,624.4,147.7,624.3L147.7,624.3z M136.7,663.3h-5v-22.1
			c0-5.8,2.9-11.1,7.7-14.2l1.6,2.8c-6.3,4.1-8,12.6-3.9,18.9c0.6,0.9,1.2,1.7,1.9,2.4v1.1C138.9,653.3,137.5,659.2,136.7,663.3
			L136.7,663.3z M156.3,673.5h-15.6v-2h15.6V673.5z M159.2,666.3h-9.3c-0.4,0-0.8,0.3-0.8,0.8c0,0.4,0.3,0.8,0.8,0.8c0,0,0,0,0.1,0
			h9.3v2h-21.5v-2h8.6c0.4,0,0.8-0.3,0.8-0.8c0-0.4-0.3-0.8-0.8-0.8c0,0,0,0-0.1,0h-8.5c0-0.3,2.6-12.1,2.8-13.2h15.9
			C156.6,654.2,159.2,666,159.2,666.3L159.2,666.3z M154.9,646.3L154.9,646.3c-0.1,0-0.3,0-0.4,0h-12c-0.2,0-0.3,0-0.4,0l0,0
			c-2.8-3.6-2.2-8.8,1.4-11.6c3.6-2.8,8.7-2.2,11.5,1.4C157.3,639.1,157.3,643.3,154.9,646.3z M156.3,649.7v1.8h-15.6v-1.8
			c0-1,0.8-1.8,1.8-1.8h12C155.5,647.9,156.3,648.7,156.3,649.7L156.3,649.7z M160.4,641.2c0,2.8-0.9,5.5-2.7,7.6
			c-0.2-0.8-0.7-1.4-1.3-1.9c3.1-4.5,2.1-10.6-2.3-13.8c-4.4-3.2-10.5-2.1-13.7,2.3c-2.4,3.4-2.4,8,0,11.4c-0.6,0.5-1.1,1.1-1.3,1.9
			c-4.2-5.2-3.4-12.8,1.7-17c2.1-1.8,4.8-2.7,7.6-2.7l0,0C155.1,629.1,160.4,634.5,160.4,641.2L160.4,641.2z M154.6,629
			c-1.6-0.8-3.4-1.3-5.3-1.4v-3.2c2.4,0.1,4.8,0.7,6.9,1.8L154.6,629z"/>
	</g>
</g>
<g>
	<g>
		<path class="st22" d="M269.9,647.9c1.1-1.1,2.1-2.3,3.1-3.5c3.5-4.6,4.6-8.6,2.9-11.2c-0.8-1.3-2.6-2.8-6.6-2.8
			c-2.7,0.1-5.3,0.5-7.9,1.4c-2-7-5.2-11.5-8.9-11.5s-6.9,4.5-8.9,11.5c-2.6-0.8-5.2-1.3-7.9-1.3c-4.1,0-5.8,1.5-6.6,2.8
			c-1.6,2.6-0.6,6.6,2.9,11.2c1,1.2,2,2.4,3.1,3.5c-1.1,1.1-2.1,2.3-3.1,3.5c-3.5,4.6-4.6,8.6-2.9,11.2c0.8,1.3,2.6,2.8,6.6,2.8
			c2.7-0.1,5.3-0.5,7.9-1.3c2,7,5.2,11.5,8.9,11.5c3.7,0,6.9-4.5,8.9-11.5c2.6,0.8,5.2,1.3,7.9,1.3c4,0,5.8-1.5,6.6-2.8
			c1.6-2.6,0.6-6.6-2.9-11.2C272,650.2,271,649,269.9,647.9z M235.6,663.3c-1.7,0-3.9-0.3-4.9-1.8c-1.1-1.8-0.1-5,2.8-8.9
			c0.9-1.2,1.9-2.3,2.9-3.3c1.7,1.6,3.4,3,5.3,4.4c0.2,2.8,0.6,5.5,1.3,8.2C240.6,662.8,238.1,663.2,235.6,663.3z M241.6,651
			c-1.3-1-2.5-2.1-3.6-3.1c1.1-1,2.3-2.1,3.6-3.1c0,1-0.1,2.1-0.1,3.1S241.6,650,241.6,651z M241.8,642L241.8,642
			c-1.9,1.4-3.6,2.9-5.3,4.4c-1-1-2-2.2-2.9-3.3c-2.9-3.8-4-7.1-2.8-8.9c0.9-1.5,3.1-1.8,4.9-1.8c2.5,0.1,5,0.5,7.4,1.3
			C242.4,636.5,242,639.2,241.8,642z M260.8,640.4c-0.8-0.6-1.7-1.2-2.6-1.7c-1.2-0.7-2.3-1.4-3.5-2.1c1.7-0.8,3.4-1.5,5.1-2.2
			C260.3,636.4,260.6,638.4,260.8,640.4z M252.4,622.3c2.5,0,5.2,3.8,6.9,10.1c-2.4,0.8-4.7,1.8-6.9,3c-2.2-1.1-4.6-2.1-6.9-3
			C247.2,626.1,249.9,622.3,252.4,622.3z M245,634.4c1.7,0.6,3.5,1.3,5.1,2.2c-1.2,0.6-2.3,1.3-3.5,2.1c-0.9,0.6-1.8,1.1-2.6,1.7
			C244.2,638.4,244.6,636.4,245,634.4z M244.1,655.4c0.8,0.6,1.7,1.2,2.6,1.7c1.2,0.7,2.3,1.4,3.5,2.1c-1.8,0.8-3.5,1.6-5.1,2.2
			C244.6,659.4,244.3,657.4,244.1,655.4z M252.4,673.5c-2.5,0-5.2-3.8-6.9-10.1c2.4-0.8,4.7-1.8,6.9-3c2.2,1.1,4.6,2.1,6.9,3
			C257.7,669.7,254.9,673.5,252.4,673.5z M259.9,661.3c-1.7-0.6-3.4-1.3-5.1-2.2c1.2-0.6,2.3-1.3,3.5-2.1c0.9-0.6,1.8-1.1,2.6-1.7
			C260.6,657.4,260.3,659.4,259.9,661.3z M261.1,652.7c-1.3,0.9-2.6,1.8-4,2.7c-1.6,1-3.1,1.9-4.7,2.7c-1.6-0.8-3.1-1.7-4.7-2.7
			c-1.4-0.9-2.7-1.8-4-2.7c-0.1-1.5-0.2-3.1-0.2-4.8c0-1.6,0.1-3.2,0.2-4.8c1.3-0.9,2.6-1.8,4-2.7c1.6-1,3.1-1.9,4.7-2.7
			c1.6,0.8,3.1,1.7,4.7,2.7c1.4,0.9,2.7,1.8,4,2.7c0.1,1.5,0.2,3.1,0.2,4.8C261.3,649.5,261.2,651.1,261.1,652.7L261.1,652.7
			L261.1,652.7z M269.2,632.5c1.7,0,3.9,0.3,4.9,1.8c1.1,1.8,0.1,5-2.8,8.9c-0.9,1.2-1.8,2.3-2.9,3.3l0,0c-1.7-1.6-3.4-3-5.3-4.4
			c-0.2-2.8-0.6-5.5-1.3-8.2C264.2,633,266.7,632.5,269.2,632.5z M263.3,644.8c1.3,1,2.5,2.1,3.6,3.1c-1.1,1-2.3,2.1-3.6,3.1
			c0-1,0.1-2.1,0.1-3.1C263.3,646.8,263.3,645.8,263.3,644.8z M274.1,661.5c-0.9,1.5-3.1,1.8-4.9,1.8c-2.5-0.1-5-0.5-7.4-1.3
			c0.6-2.7,1-5.5,1.2-8.2c1.8-1.4,3.6-2.8,5.3-4.4c1,1,2,2.1,2.9,3.3l0,0C274.2,656.5,275.2,659.7,274.1,661.5z"/>
	</g>
</g>
<g>
	<g>
		<path class="st22" d="M252.4,643c-2.7,0-4.9,2.2-4.9,4.9s2.2,4.9,4.9,4.9s4.9-2.2,4.9-4.9S255.2,643,252.4,643z M252.4,650.7
			L252.4,650.7c-1.6,0-2.8-1.3-2.8-2.8c0-1.6,1.3-2.8,2.8-2.8s2.8,1.3,2.8,2.8C255.3,649.5,254,650.7,252.4,650.7z"/>
	</g>
</g>
<g>
	<g>
		<path class="st23" d="M472.6,633.8H426c-0.5,0-0.9,0.4-0.9,0.9v24.2c0,0.5,0.4,0.9,0.9,0.9h6.1c0.8,4.6,0.4,9.3-1.3,13.6
			c-0.2,0.5,0.1,1,0.5,1.2c0.1,0,0.2,0.1,0.3,0.1h35.1c0.5,0,0.9-0.4,0.9-0.9c0-0.1,0-0.2-0.1-0.3c-1.6-4.4-2.1-9.1-1.3-13.6h6.1
			c0.5,0,0.9-0.4,0.9-0.9v-24.2C473.5,634.2,473.1,633.8,472.6,633.8z M433.1,672.9c1.3-4.2,1.7-8.7,1-13h30.5
			c-0.7,4.4-0.4,8.8,1,13H433.1z M450.2,635.6h21.4V658h-4.8l2.8-12.8l-1.8-0.4l-2.9,13.2h-31.2l-2.9-13.2l-1.8,0.4l2.8,12.8H427
			v-22.3h21.4"/>
	</g>
</g>
<g>
	<g>
		<path class="st23" d="M468.6,625.4h-11.8v-5.6c0-0.5-0.4-0.9-0.9-0.9h-13c-0.5,0-0.9,0.4-0.9,0.9v5.6H430c-4.8,0-8.6,3.9-8.6,8.6
			v4.4h1.9V634c0-3.7,3-6.8,6.8-6.8h12.8c0.5,0,0.9-0.4,0.9-0.9v-5.6h11.2v5.6c0,0.5,0.4,0.9,0.9,0.9h12.8c3.7,0,6.8,3,6.8,6.8v4.4
			h1.9V634C477.2,629.3,473.3,625.4,468.6,625.4z"/>
	</g>
</g>
<circle class="st23" cx="440.4" cy="646" r="1.6"/>
<circle class="st23" cx="459.2" cy="646" r="1.6"/>
<path class="st24" d="M371.3,639.3c-4.2-3.8-10.1-4.9-15.4-2.9l-4.4,1.7l-4.4-1.7c-5.3-2-11.2-0.9-15.4,2.9l-11.1,10l11,9.7
	c5.5,4.9,12.6,7.6,20,7.6c7.4,0,14.4-2.7,20-7.6l11-9.7L371.3,639.3z M333.9,642c3.2-2.9,7.7-3.7,11.7-2.2l5.7,2.2l5.7-2.2
	c4-1.5,8.5-0.7,11.7,2.2l6,5.4l-11.6,1.4c-2.1,0.3-4.3,0.1-6.4-0.5c-3.6-1.1-7.4-1.1-11,0c-2.1,0.6-4.2,0.8-6.4,0.5l-11.6-1.4
	L333.9,642z M369,656.3c-10,8.8-25.1,8.8-35.1,0l-5.9-5.2l11.1,1.4c2.6,0.3,5.3,0.1,7.8-0.7c2.9-0.9,6-0.9,8.9,0
	c1.8,0.5,3.6,0.8,5.5,0.8c0.8,0,1.6,0,2.4-0.1l11.1-1.4L369,656.3z"/>
</svg>
