<?xml version="1.0" encoding="utf-8"?>
<!-- Generator: Adobe Illustrator 25.3.1, SVG Export Plug-In . SVG Version: 6.00 Build 0)  -->
<svg version="1.1" id="Capa_1" xmlns="http://www.w3.org/2000/svg" xmlns:xlink="http://www.w3.org/1999/xlink" x="0px" y="0px"
	 viewBox="0 0 100 100" style="enable-background:new 0 0 100 100;" xml:space="preserve">
<style type="text/css">
	.st0{stroke:#000000;stroke-miterlimit:10;}
</style>
<g>
	<g>
		<g>
			<circle class="st0" cx="50" cy="73" r="4.3"/>
			<path class="st0" d="M50,8.1C25.8,8.1,6.1,27.8,6.1,52c0,24.2,19.6,43.9,43.9,43.9c24.2,0,43.9-19.6,43.9-43.9
				C93.9,27.8,74.2,8.1,50,8.1z M50,89c-20.5,0-37-16.6-37-37c0-20.5,16.6-37,37-37c20.5,0,37,16.6,37,37C87,72.5,70.5,89,50,89z"/>
			<path class="st0" d="M50,30.2c-7.6,0-13.7,6.2-13.7,13.7c0,1.9,1.5,3.4,3.4,3.4c1.9,0,3.4-1.5,3.4-3.4c0-3.8,3.1-6.9,6.9-6.9
				s6.9,3.1,6.9,6.9s-3.1,6.9-6.9,6.9c-1.9,0-3.4,1.5-3.4,3.4v8.6c0,1.9,1.5,3.4,3.4,3.4s3.4-1.5,3.4-3.4v-5.6
				c5.9-1.5,10.3-6.9,10.3-13.3C63.7,36.3,57.6,30.2,50,30.2z"/>
		</g>
	</g>
</g>
</svg>
