<?xml version="1.0" encoding="utf-8"?>
<!-- Generator: Adobe Illustrator 24.3.0, SVG Export Plug-In . SVG Version: 6.00 Build 0)  -->
<svg version="1.1" id="Layer_1" xmlns="http://www.w3.org/2000/svg" xmlns:xlink="http://www.w3.org/1999/xlink" x="0px" y="0px"
	 viewBox="0 0 400 100" style="enable-background:new 0 0 400 100;" xml:space="preserve">
<style type="text/css">
	.st0{fill:#FFFFFF;}
	.st1{fill:none;stroke:#000000;stroke-width:2.1;stroke-miterlimit:10;}
	.st2{fill:none;}
</style>
<g>
	<polygon class="st0" points="376.3,86.4 323.1,86.4 323.5,70.4 328.1,66 336.2,63.5 337,61.3 341.7,58.5 342,54.5 336.2,48.7 
		334.9,43.1 331.5,42.8 331.1,40.4 331.9,37.8 333.3,34.5 333.1,27.7 334.4,24.9 333.3,22.4 342.3,18.3 355.3,17.1 360.6,19.9 
		363.4,20.2 365.3,22.7 366.5,37.1 368,39.4 367.5,42.4 364.2,44 360.8,51.7 357.7,54.3 358.1,59.1 363.5,62.6 364.2,63.9 
		374.2,67.7 375.7,70.5 	"/>
	<g>
		<g>
			<path d="M343.1,37.8c-0.6,0-1,0.5-1,1v1.1c0,0.6,0.5,1,1,1s1-0.5,1-1v-1.1C344.1,38.2,343.6,37.8,343.1,37.8z"/>
		</g>
	</g>
	<g>
		<g>
			<path d="M356.4,37.8c-0.6,0-1,0.5-1,1v1.1c0,0.6,0.5,1,1,1c0.6,0,1-0.5,1-1v-1.1C357.4,38.2,356.9,37.8,356.4,37.8z"/>
		</g>
	</g>
	<g>
		<g>
			<path d="M353.8,45.8c-0.4-0.4-1.1-0.4-1.5,0c-0.4,0.4-1.3,0.8-2.6,0.8s-2.2-0.4-2.6-0.8c-0.4-0.4-1.1-0.4-1.5,0
				c-0.4,0.4-0.4,1.1,0,1.5c0.9,0.9,2.4,1.4,4.1,1.4c1.6,0,3.2-0.5,4.1-1.4C354.2,46.9,354.2,46.3,353.8,45.8z"/>
		</g>
	</g>
	<g>
		<g>
			<path d="M344.2,34.5H342c-0.6,0-1,0.5-1,1c0,0.6,0.5,1,1,1h2.2c0.6,0,1-0.5,1-1C345.2,34.9,344.8,34.5,344.2,34.5z"/>
		</g>
	</g>
	<g>
		<g>
			<path d="M357.5,34.5h-2.2c-0.6,0-1,0.5-1,1c0,0.6,0.5,1,1,1h2.2c0.6,0,1-0.5,1-1C358.5,34.9,358,34.5,357.5,34.5z"/>
		</g>
	</g>
	<g>
		<g>
			<path d="M371.9,65l-7.5-2.3c0-0.2,0-0.5-0.1-0.7c-0.2-0.7-0.6-1.3-1.3-1.6l-4.6-2.3v-3.3c3.5-2.4,5.9-6.2,6.5-10.5h0.6
				c2,0,3.8-1.5,3.9-3.4c0.1-1.1-0.2-2.1-1-2.9c-0.3-0.4-0.8-0.7-1.2-0.9V25.5c0-4.2-3.4-7.7-7.7-7.7c0,0-0.1,0-0.2,0
				c-1.9-1.4-4.6-2.2-7.6-2.2c-6.5,0-9.4,1.3-12.9,2.9c-1.8,0.8-3.7,1.7-6.4,2.5c-0.3,0.1-0.5,0.3-0.6,0.5c-0.1,0.3-0.1,0.6,0,0.8
				c0,0.1,0.5,1.2,1.7,2.5c-0.5,0.6-1.5,2.3-1.5,5.5v6.7c-1.2,0.6-2.1,1.7-2.2,3c-0.1,1.1,0.2,2.1,1,2.9c0.7,0.8,1.7,1.3,2.8,1.3
				h0.8c0.6,4.4,3,8.1,6.5,10.5v3.3l-4.6,2.3c-0.6,0.3-1.1,0.9-1.3,1.6c-0.1,0.2-0.1,0.5-0.1,0.7l-7.5,2.3c-3.2,1-5.4,3.9-5.4,7.3
				v13c0,0.6,0.5,1,1,1s1-0.5,1-1v-13c0-2.5,1.6-4.6,4-5.4l7.8-2.4l1.4,1.8l-1.6,1.6c-1,1-1.2,2.5-0.6,3.8l3,5.9h-2.8v-1.2
				c0-0.6-0.5-1-1-1s-1,0.5-1,1v1.2h-4.5c-0.6,0-1,0.5-1,1v6.6c0,0.6,0.5,1,1,1h11.1c0.6,0,1-0.5,1-1v-2.3l1.4,2.7
				c0.2,0.4,0.5,0.6,0.9,0.6c0.2,0,0.3,0,0.5-0.1c0.5-0.3,0.7-0.9,0.5-1.4l-7-14.1c-0.2-0.5-0.1-1,0.2-1.4l2.2-2.2
				c0.4-0.4,0.4-0.9,0.1-1.4l-2.3-3.1c-0.1-0.1-0.1-0.2-0.1-0.3c0-0.1,0.1-0.2,0.2-0.2l4.1-2l2.9,9.9c0.2,0.5,0.7,0.9,1.3,0.7
				c0.5-0.2,0.9-0.7,0.7-1.3l-0.5-1.6c1.3,0.4,2.6,0.7,4,0.7c1.4,0,2.7-0.2,4-0.7l-4,13.7l-2.2-7.7c-0.2-0.5-0.7-0.9-1.3-0.7
				s-0.9,0.7-0.7,1.3l3.2,11.1c0.1,0.4,0.5,0.7,1,0.7c0.5,0,0.9-0.3,1-0.7l7.4-25.4l4.1,2c0.1,0.1,0.2,0.2,0.2,0.2
				c0,0.1,0,0.2-0.1,0.3l-2.3,3.1c-0.3,0.4-0.3,1,0.1,1.4l2.2,2.2c0.4,0.4,0.4,0.9,0.2,1.4l-7,14.1c-0.3,0.5,0,1.1,0.5,1.4
				c0.1,0.1,0.3,0.1,0.5,0.1c0.4,0,0.7-0.2,0.9-0.6l7-14.1c0.6-1.3,0.4-2.8-0.6-3.8l-1.6-1.6l1.4-1.8l7.8,2.4c2.4,0.7,4,2.9,4,5.4
				v13c0,0.6,0.5,1,1,1c0.6,0,1-0.5,1-1v-13C377.3,68.9,375.2,66,371.9,65z M338.7,84.3h-9v-4.6h3.5v0.1c0,0.6,0.5,1,1,1s1-0.5,1-1
				v-0.1h3.5V84.3L338.7,84.3z M339.8,20.4c3.4-1.5,6-2.7,12-2.7c3.8,0,7.2,1.6,7.9,3.7c0.2,0.5,0.8,0.8,1.3,0.7
				c0.5-0.2,0.8-0.8,0.7-1.3c-0.1-0.2-0.1-0.4-0.2-0.5c2.2,0.8,3.7,2.9,3.7,5.3v11.1h-1.2c-0.7,0-1.2-0.5-1.2-1.2v-1.1
				c0-4.8-3.5-8.3-3.6-8.5c-0.3-0.3-0.7-0.4-1-0.3c-5.8,1.8-13.9,3.3-19.8,0.3c-2.1-1.1-3.4-2.4-4-3.4
				C336.6,21.9,338.3,21.1,339.8,20.4z M356.4,58.6l-2,6.8c-1.5,0.8-3.1,1.2-4.7,1.2c-1.7,0-3.3-0.4-4.7-1.2l-2-6.8V56
				c2,1,4.3,1.5,6.7,1.5c2.4,0,4.7-0.6,6.7-1.5V58.6z M349.7,55.5c-7.4,0-13.4-6-13.4-13.4c0-0.6-0.5-1-1-1s-1,0.5-1,1v0.1h-0.6
				c-0.5,0-1-0.2-1.3-0.6c-0.3-0.4-0.5-0.8-0.4-1.3c0.1-0.9,0.9-1.6,1.9-1.6h1.5c1.8,0,3.3-1.5,3.3-3.3v-3.9c0-0.6-0.5-1-1-1
				s-1,0.5-1,1v3.9c0,0.7-0.5,1.2-1.2,1.2h-1.2v-6.3c0-2.4,0.6-3.6,0.9-4c0.6,0.5,1.4,1,2.2,1.4c2.3,1.2,5.1,1.9,8.3,2
				c3.7,0.1,7.9-0.5,12.6-1.9c0.8,1,2.6,3.5,2.6,6.6v1.1c0,1.8,1.5,3.3,3.3,3.3h1.7c0.5,0,1,0.2,1.3,0.6c0.3,0.4,0.5,0.8,0.4,1.3
				c-0.1,0.9-0.9,1.6-1.9,1.6h-0.5v-0.1c0-0.6-0.5-1-1-1c0,0,0,0,0,0c-0.6,0-1,0.5-1,1C363.1,49.5,357.1,55.5,349.7,55.5z"/>
		</g>
	</g>
	<g>
		<g>
			<path d="M370.8,78.2H369v-1.7c0-0.6-0.5-1-1-1c-0.6,0-1,0.5-1,1v1.7h-1.7c-0.6,0-1,0.5-1,1c0,0.6,0.5,1,1,1h1.7V82
				c0,0.6,0.5,1,1,1c0.6,0,1-0.5,1-1v-1.7h1.7c0.6,0,1-0.5,1-1C371.8,78.7,371.3,78.2,370.8,78.2z"/>
		</g>
	</g>
</g>
<g>
	<polygon class="st0" points="224,86.4 275,86.4 275,73 271.6,68.5 262.1,65.3 261.8,62.7 256.2,60.2 256.8,56.6 269,53.7 
		269.5,51.3 268.6,44.2 268.6,32.7 262.4,21.4 251.7,16.6 245,17.2 236.3,22.3 230.9,31.7 231,41.2 229.8,51 230.5,53.5 237.2,55.9 
		242.4,57.4 242.9,59.5 237.3,62.7 237.2,65.2 226.3,69.4 224.4,71.5 223.6,75.8 	"/>
	<g>
		<g>
			<path d="M244,36.7h-2.2c-0.6,0-1,0.5-1,1c0,0.6,0.5,1,1,1h2.2c0.6,0,1-0.5,1-1C245,37.1,244.5,36.7,244,36.7z"/>
		</g>
	</g>
	<g>
		<g>
			<path d="M257.3,36.7h-2.2c-0.6,0-1,0.5-1,1c0,0.6,0.5,1,1,1h2.2c0.6,0,1-0.5,1-1C258.3,37.1,257.8,36.7,257.3,36.7z"/>
		</g>
	</g>
	<g>
		<g>
			<path d="M242.9,40c-0.6,0-1,0.5-1,1v1.1c0,0.6,0.5,1,1,1s1-0.5,1-1V41C243.9,40.5,243.4,40,242.9,40z"/>
		</g>
	</g>
	<g>
		<g>
			<path d="M256.2,40c-0.6,0-1,0.5-1,1v1.1c0,0.6,0.5,1,1,1s1-0.5,1-1V41C257.2,40.5,256.7,40,256.2,40z"/>
		</g>
	</g>
	<g>
		<g>
			<path d="M254.5,46.1h-10c-0.6,0-1,0.5-1,1c0,3,2.7,5.5,6,5.5s6-2.5,6-5.5C255.5,46.5,255.1,46.1,254.5,46.1z M249.5,50.5
				c-1.8,0-3.2-1-3.8-2.4h7.5C252.8,49.5,251.3,50.5,249.5,50.5z"/>
		</g>
	</g>
	<path d="M270.9,67.3l-8-2.8c0.1-0.4,0.1-0.9,0-1.3c-0.2-0.8-0.7-1.4-1.4-1.7l-4.3-2V58c4.5-0.8,8.5-2,11.2-2.9
		c0.8-0.3,1.5-0.9,1.9-1.7c0.4-0.8,0.4-1.7,0.1-2.5c-0.5-1.2-1-3.3-1-6.5v-8.9c0-11-8.9-19.9-19.9-19.9c-11,0-19.9,8.9-19.9,19.9
		v8.9c0,3.2-0.6,5.3-1,6.5c-0.3,0.8-0.3,1.7,0.1,2.5c0.4,0.8,1.1,1.4,1.9,1.7c2.7,0.9,6.8,2.1,11.2,2.9v1.4l-4.3,2
		c-0.7,0.3-1.2,1-1.4,1.7c-0.1,0.4-0.1,0.9,0,1.3l-8,2.8c-3.1,1.1-5.1,4-5.1,7.2v10.8c0,0.6,0.5,1,1,1c0.6,0,1-0.5,1-1V74.5
		c0-2.4,1.5-4.5,3.7-5.3l8.4-3l1,1.4l-1.1,1.7c-0.6,0.9-0.7,2.1-0.2,3.2l1.6,3.5l0,0l4.6,9.8c0.2,0.3,0.5,0.5,0.9,0.5
		c0.1,0,0.3,0,0.4-0.1c0.5-0.2,0.7-0.9,0.5-1.4l-6.1-13.3c-0.2-0.4-0.1-0.8,0.1-1.1l1.5-2.3c0.2-0.4,0.2-0.8,0-1.2l-2.2-2.9
		c-0.1-0.2-0.1-0.4-0.1-0.4c0-0.1,0.1-0.3,0.3-0.4l3.8-1.8l2.3,8.6c0.1,0.6,0.7,0.9,1.3,0.7c0.6-0.1,0.9-0.7,0.7-1.3l-0.1-0.3
		c1,0.3,2.1,0.5,3.2,0.5c1.1,0,2.1-0.2,3.2-0.5l-3.2,12l-1.9-7.3c-0.1-0.6-0.7-0.9-1.3-0.7c-0.6,0.1-0.9,0.7-0.7,1.3l2.9,11.1
		c0.1,0.5,0.5,0.8,1,0.8c0.5,0,0.9-0.3,1-0.8l6.3-24.1l3.8,1.8c0.2,0.1,0.3,0.3,0.3,0.4c0,0.1,0,0.3-0.1,0.4l-2.2,2.9
		c-0.3,0.4-0.3,0.8,0,1.2l1.5,2.3c0.2,0.3,0.3,0.8,0.1,1.1l-6.1,13.3c-0.2,0.5,0,1.1,0.5,1.4c0.1,0.1,0.3,0.1,0.4,0.1
		c0.4,0,0.8-0.2,0.9-0.6l6.1-13.3c0.5-1,0.4-2.2-0.2-3.2l-1.1-1.7l1-1.4l8.4,3c2.2,0.8,3.7,2.9,3.7,5.3v10.8c0,0.6,0.5,1,1,1
		c0.6,0,1-0.5,1-1V74.5C276,71.3,274,68.4,270.9,67.3z M268.4,52.5c-0.1,0.3-0.4,0.5-0.7,0.6c-2.2,0.7-5.4,1.7-8.9,2.4
		c3.7-2.8,6.1-7.3,6.1-12.3v-5.1c0.8,0.2,1.6,0.3,2.4,0.4v5.8c0,2.9,0.4,5.3,1.2,7.3C268.6,51.9,268.6,52.2,268.4,52.5z M255.1,59.9
		l-1.8,6.8c-1.2,0.7-2.5,1-3.8,1c-1.3,0-2.7-0.3-3.8-1l-1.8-6.8v-2.3c1.7,0.7,3.6,1.1,5.6,1.1c2,0,3.9-0.4,5.6-1.1V59.9z
		 M249.5,56.6c-7.4,0-13.4-6-13.4-13.4v-4.4c0-0.6-0.5-1-1-1c-0.6,0-1,0.5-1,1v4.4c0,5,2.4,9.5,6.1,12.3c-3.6-0.7-6.7-1.7-8.9-2.4
		c-0.3-0.1-0.6-0.3-0.7-0.6c-0.1-0.3-0.1-0.6,0-0.9c0.8-2,1.2-4.4,1.2-7.3v-7.8c0.2,0,0.3-0.1,0.4-0.1c0.3-0.1,6.4-1.8,11.7-6.2
		c0.8-0.6,1.9-0.6,2.7,0c2,1.5,5.5,3.7,10.4,5.6c0.5,0.2,1.1-0.1,1.3-0.6c0.2-0.5-0.1-1.1-0.6-1.3c-4.7-1.8-7.9-3.9-9.9-5.3
		c-1.6-1.2-3.8-1.2-5.3,0.1c-4.4,3.6-9.6,5.4-10.7,5.7c0.6-9.3,8.3-16.7,17.8-16.7c9.8,0,17.8,8,17.8,17.8v1
		c-1.8-0.3-3.6-0.7-5.3-1.2c-0.6-0.2-1.1,0.2-1.3,0.7c-0.2,0.6,0.2,1.1,0.7,1.3c0.5,0.1,1,0.3,1.5,0.4v5.5
		C262.9,50.6,256.9,56.6,249.5,56.6z"/>
</g>
<g>
	<g>
		<path class="st0" d="M38,23l-3.1,3l-1.8,8.7l-3.8,0.7l-2.2,2.9l-0.3,3.1l1.3,1.8l1.3,2.3l0.7,2.7l2.8,4.3L36,54l3.7-0.3l2.1-0.5
			l1.3,2.1l0.3,2.8l-4.7,2.4c0,0-1,2.3-1,2.4s-8.4,3.1-8.4,3.1l-3.5,1.9l-1.3,3v15.3h50.9V71.2l-3.2-4.5l-9.6-3l-0.9-3l-4.5-1.8
			l-0.5-4.4l2.8-1.5l3,1.6l4.2-1.3l3-3.9l0.9-3.7l2.3-2.9l0.3-4.6l-3.1-3.3l-3.3-0.5l-1.3-9l-3.2-3"/>
		<g>
			<g>
				<g>
					<path d="M43.4,37.8c-0.6,0-1,0.5-1,1V40c0,0.6,0.5,1,1,1s1-0.5,1-1v-1.1C44.4,38.3,43.9,37.8,43.4,37.8z"/>
				</g>
			</g>
			<g>
				<g>
					<path d="M56.6,37.8c-0.6,0-1,0.5-1,1V40c0,0.6,0.5,1,1,1c0.6,0,1-0.5,1-1v-1.1C57.7,38.3,57.2,37.8,56.6,37.8z"/>
				</g>
			</g>
			<g>
				<g>
					<path d="M54.1,45.9c-0.4-0.4-1.1-0.4-1.5,0c-0.4,0.4-1.3,0.8-2.6,0.8c-1.3,0-2.2-0.4-2.6-0.8c-0.4-0.4-1.1-0.4-1.5,0
						c-0.4,0.4-0.4,1.1,0,1.5c0.9,0.9,2.4,1.4,4,1.4c1.6,0,3.2-0.5,4-1.4C54.5,47,54.5,46.3,54.1,45.9z"/>
				</g>
			</g>
			<path d="M71.4,65.1l-8-2.8c0-0.1,0-0.1,0-0.2c-0.1-1.3-0.9-2.5-2.2-2.9L57.7,58v-2.5c0.5-0.3,1-0.6,1.5-1
				c1.1,0.5,2.3,0.8,3.6,0.8c0.5,0,1,0,1.5-0.1c2.9-0.5,5.4-2.7,6.3-5.5c0.4-1.1,0.5-2.2,0.4-3.3c0-0.4,0.1-0.8,0.5-1
				c2.2-1.5,3.3-4.1,2.7-6.7c-0.5-2.6-2.6-4.7-5.3-5.1c-0.4-0.1-0.8-0.1-1.3-0.1v-0.1c0-4.8-1.9-9.1-5-12.2l-1,1.9
				c2.4,2.7,3.9,6.4,3.9,10.3v3.4c0,0-0.1,0-0.1,0c-1,0-2-0.1-3-0.4c-0.6-0.2-1.1,0.2-1.3,0.7c-0.2,0.6,0.2,1.1,0.7,1.3
				c1.2,0.3,2.4,0.5,3.6,0.5v0c0.1,0,0.3,0,0.6,0c1,0,1.7,0.8,1.7,1.7c0,1-0.8,1.7-1.7,1.7h-0.6c0,0,0,0,0-0.1c0-0.6-0.5-1-1-1
				c-0.6,0-1,0.5-1,1c0,7.4-6,13.3-13.3,13.3c-7.4,0-13.3-6-13.3-13.3c0-0.6-0.5-1-1-1c-0.6,0-1,0.5-1,1c0,0,0,0,0,0.1H34
				c-1,0-1.7-0.8-1.7-1.7c0-1,0.8-1.7,1.7-1.7c0.2,0,0.4,0,0.6,0v0c7.4,0,13.3-6.4,15.4-9.2c0,0,0,0,0.1,0c0,0,0,0,0.1,0
				c1.3,1.7,4.1,4.8,7.8,6.9c0.5,0.3,1.1,0.1,1.4-0.4c0.3-0.5,0.1-1.1-0.4-1.4c-3.4-2-5.9-4.9-7.2-6.4c-0.4-0.5-1-0.8-1.7-0.8l0,0
				c-0.7,0-1.3,0.3-1.7,0.8c-6,7.6-11.6,8.4-13.8,8.4c0,0,0,0-0.1,0v-3.4c0-3.8,1.4-7.3,3.7-10.1l-0.9-2c-3,3.2-4.8,7.4-4.8,12.1
				v0.1c-0.4,0-0.8,0-1.2,0.1c-2.6,0.5-4.8,2.5-5.3,5.1c-0.5,2.7,0.5,5.2,2.7,6.7c0.3,0.2,0.5,0.6,0.5,1c-0.1,1.1,0,2.2,0.4,3.3
				c0.9,2.8,3.4,5,6.3,5.5c0.5,0.1,1,0.1,1.5,0.1c1.2,0,2.4-0.3,3.6-0.8c0.5,0.4,1,0.7,1.5,1V58l-3.5,1.2c-1.2,0.4-2.1,1.6-2.2,2.9
				c0,0.1,0,0.1,0,0.2l-8,2.8c-3.1,1.1-5.1,4-5.1,7.2v13c0,0.6,0.5,1,1,1c0.6,0,1-0.5,1-1v-13c0-0.7,0.1-1.4,0.4-2l5.2,4.5
				c0.8,0.6,1.2,1.6,1.2,2.6v8c0,0.6,0.5,1,1,1s1-0.5,1-1v-8c0-1.6-0.7-3.1-1.9-4.1l-5.5-4.7c0.6-0.7,1.4-1.2,2.3-1.5l7.3-2.6
				c0.1,3.2,0.9,5.8,1.7,7.5c1.1,2.5,3.7,3.9,6.4,3.2l4.3-1.1v3.4c0,0.6,0.5,1,1,1c0.6,0,1-0.5,1-1v-3.4l4.3,1.1
				c0.5,0.1,0.9,0.2,1.3,0.2c2.2,0,4.2-1.3,5-3.4c0.7-1.7,1.5-4.3,1.7-7.5l7.3,2.6c0.9,0.3,1.7,0.8,2.3,1.5l-5.5,4.7
				c-1.2,1-1.9,2.6-1.9,4.1v8c0,0.6,0.5,1,1,1c0.6,0,1-0.5,1-1v-8c0-1,0.4-1.9,1.2-2.6l5.2-4.5c0.2,0.6,0.4,1.3,0.4,2v13
				c0,0.6,0.5,1,1,1c0.6,0,1-0.5,1-1v-13C76.5,69.1,74.4,66.2,71.4,65.1z M65.3,44.2H66c2.1,0,3.8-1.7,3.8-3.8
				c0-1.5-0.9-2.8-2.2-3.5v-1.6c0.3,0,0.6,0,0.9,0.1c1.8,0.3,3.2,1.7,3.6,3.5c0.4,1.8-0.4,3.6-1.9,4.6c-1,0.7-1.5,1.8-1.4,2.9
				c0.1,0.8,0,1.7-0.3,2.5c-0.7,2.1-2.5,3.7-4.7,4.1c-1,0.2-2,0.1-3-0.2C63.2,50.7,64.8,47.6,65.3,44.2z M36.1,53.1
				c-2.2-0.4-4-2-4.7-4.1c-0.3-0.8-0.4-1.7-0.3-2.5c0.1-1.2-0.4-2.3-1.4-2.9c-1.5-1-2.2-2.8-1.9-4.6c0.3-1.8,1.8-3.2,3.6-3.5
				c0.3-0.1,0.6-0.1,0.9-0.1V37c-1.3,0.6-2.2,1.9-2.2,3.5c0,2.1,1.7,3.8,3.8,3.8h0.8c0.5,3.4,2,6.4,4.3,8.7
				C38.1,53.3,37.1,53.3,36.1,53.1z M44.4,56.5c1.7,0.7,3.6,1.1,5.6,1.1c2,0,3.9-0.4,5.6-1.1l0,5.5c0,3.1-2.5,5.6-5.6,5.6
				c-3.1,0-5.6-2.5-5.6-5.6L44.4,56.5z M59.8,71.2c-0.7,1.6-2.3,2.4-4,2l-5.6-1.4c-0.2,0-0.3,0-0.5,0l-5.6,1.4c-1.6,0.4-3.3-0.4-4-2
				c-0.8-1.9-1.7-5.1-1.5-9c0-0.5,0.3-0.9,0.8-1.1l2.8-1V62c0,4.2,3.4,7.7,7.7,7.7c4.2,0,7.7-3.4,7.7-7.7v-1.8l2.8,1
				c0.5,0.2,0.8,0.6,0.8,1.1C61.5,66.1,60.6,69.2,59.8,71.2z"/>
			<g>
				<g>
					<path d="M50,80.9c-0.6,0-1,0.5-1,1V83c0,0.6,0.5,1,1,1c0.6,0,1-0.5,1-1v-1.1C51,81.4,50.6,80.9,50,80.9z"/>
				</g>
			</g>
		</g>
	</g>
	<path class="st1" d="M37.3,22.5c0,0,11.6-13.9,25.1-0.3"/>
</g>
<g>
	<path class="st0" d="M126.9,86.4h48.3V72l-3.1-4.3l-9.1-2.9l-0.9-2.9l-4.3-1.7l-0.5-4.2l2.6-1.4l2.8,1.5l4-1.3l2.8-3.7l0.8-3.5
		l2.1-2.7l0.3-4.3l-3-3.1l-3.1-0.5l-1.2-8.5l-3-2.8l3.8-7.7l-11.1-4.4l-9.1-0.3l-9.6,4l0.7,3.5l2.5,5.3l-2.9,2.9l-1.7,8.2l-3.6,0.7
		l-2.1,2.8l-0.3,3l1.2,1.7l1.2,2.2l0.6,2.5l2.7,4.1l2.9,1.3l3.5-0.3l2-0.4l1.2,2l0.3,2.7l-4.4,2.3c0,0-1,2.2-1,2.3
		c0,0.1-7.9,3-7.9,3L128,69l-1.2,2.8V86.4z"/>
	<g>
		<g>
			<g>
				<path d="M144.7,40.4c-0.5,0-1,0.4-1,1v1c0,0.5,0.4,1,1,1s1-0.4,1-1v-1C145.7,40.8,145.2,40.4,144.7,40.4z"/>
			</g>
		</g>
		<g>
			<g>
				<path d="M157.3,40.4c-0.5,0-1,0.4-1,1v1c0,0.5,0.4,1,1,1c0.5,0,1-0.4,1-1v-1C158.3,40.8,157.8,40.4,157.3,40.4z"/>
			</g>
		</g>
		<g>
			<g>
				<path d="M154.8,48c-0.4-0.4-1-0.4-1.4,0c-0.4,0.4-1.2,0.8-2.5,0.8c-1.2,0-2.1-0.4-2.5-0.8c-0.4-0.4-1-0.4-1.4,0
					c-0.4,0.4-0.4,1,0,1.4c0.8,0.8,2.3,1.3,3.8,1.3c1.6,0,3-0.5,3.8-1.3C155.2,49,155.2,48.4,154.8,48z"/>
			</g>
		</g>
		<path d="M171.2,66.2l-7.6-2.7c0-0.1,0-0.1,0-0.2c-0.1-1.3-0.9-2.3-2.1-2.7l-3.3-1.1v-2.4c0.5-0.3,1-0.6,1.4-0.9
			c1.1,0.5,2.2,0.8,3.4,0.8c0.5,0,1,0,1.5-0.1c2.7-0.5,5.1-2.5,6-5.2c0.3-1,0.5-2.1,0.4-3.2c0-0.4,0.1-0.8,0.5-1
			c2.1-1.4,3.1-3.9,2.6-6.4c-0.5-2.5-2.5-4.4-5-4.9c-0.4-0.1-0.8-0.1-1.2-0.1V36c0-4.5-1.8-8.6-4.7-11.6l-1,1.8
			c2.3,2.6,3.7,6,3.7,9.8v3.2c0,0-0.1,0-0.1,0c-0.9,0-1.9-0.1-2.9-0.4c-0.5-0.1-1.1,0.2-1.2,0.7c-0.1,0.5,0.2,1.1,0.7,1.2
			c1.1,0.3,2.3,0.5,3.4,0.5v0c0.1,0,0.3,0,0.5,0c0.9,0,1.6,0.7,1.6,1.6c0,0.9-0.7,1.6-1.6,1.6h-0.6c0,0,0,0,0-0.1c0-0.5-0.4-1-1-1
			c-0.5,0-1,0.4-1,1c0,7-5.7,12.7-12.7,12.7c-7,0-12.7-5.7-12.7-12.7c0-0.5-0.4-1-1-1c-0.5,0-1,0.4-1,1c0,0,0,0,0,0.1h-0.6
			c-0.9,0-1.6-0.7-1.6-1.6c0-0.9,0.7-1.6,1.6-1.6c0.2,0,0.4,0,0.5,0v0c7,0,12.6-6.1,14.6-8.7c0,0,0,0,0.1,0c0,0,0,0,0.1,0
			c1.3,1.6,3.9,4.6,7.4,6.6c0.5,0.3,1.1,0.1,1.3-0.4c0.3-0.5,0.1-1.1-0.4-1.3c-3.2-1.8-5.6-4.6-6.8-6.1c-0.4-0.5-1-0.8-1.6-0.8l0,0
			c-0.6,0-1.2,0.3-1.6,0.8c-5.7,7.2-11,8-13.1,8c0,0,0,0-0.1,0V36c0-3.6,1.3-7,3.5-9.5l-0.9-1.9c-2.8,3-4.6,7-4.6,11.5v0.1
			c-0.4,0-0.8,0-1.2,0.1c-2.5,0.4-4.5,2.4-5,4.9c-0.5,2.5,0.5,5,2.6,6.4c0.3,0.2,0.5,0.6,0.5,1c-0.1,1.1,0,2.1,0.4,3.2
			c0.9,2.7,3.2,4.7,6,5.2c0.5,0.1,1,0.1,1.5,0.1c1.2,0,2.3-0.3,3.4-0.8c0.5,0.3,0.9,0.6,1.4,0.9v2.4l-3.3,1.1
			c-1.2,0.4-2,1.5-2.1,2.7c0,0.1,0,0.1,0,0.2l-7.6,2.7c-2.9,1-4.9,3.8-4.9,6.9v12.4c0,0.5,0.4,1,1,1c0.5,0,1-0.4,1-1V73
			c0-0.7,0.1-1.3,0.3-1.9l5,4.3c0.7,0.6,1.1,1.5,1.1,2.4v7.5c0,0.5,0.4,1,1,1c0.5,0,1-0.4,1-1v-7.5c0-1.5-0.7-2.9-1.8-3.9l-5.2-4.5
			c0.6-0.6,1.3-1.1,2.2-1.4l6.9-2.4c0.1,3,0.9,5.5,1.6,7.1c1,2.4,3.5,3.7,6,3l4.1-1V78c0,0.5,0.4,1,1,1c0.5,0,1-0.4,1-1v-3.2l4.1,1
			c0.4,0.1,0.9,0.2,1.3,0.2c2.1,0,3.9-1.2,4.8-3.2c0.7-1.6,1.4-4.1,1.6-7.1l6.9,2.4c0.8,0.3,1.6,0.8,2.2,1.4l-5.2,4.5
			c-1.1,1-1.8,2.4-1.8,3.9v7.5c0,0.5,0.4,1,1,1s1-0.4,1-1v-7.5c0-0.9,0.4-1.8,1.1-2.4l5-4.3c0.2,0.6,0.3,1.2,0.3,1.9v12.4
			c0,0.5,0.4,1,1,1c0.5,0,1-0.4,1-1V73C176.1,70,174.1,67.2,171.2,66.2z M165.5,46.4h0.7c2,0,3.6-1.6,3.6-3.6c0-1.5-0.9-2.7-2.1-3.3
			V38c0.3,0,0.6,0,0.9,0.1c1.7,0.3,3.1,1.7,3.4,3.3c0.3,1.7-0.3,3.4-1.8,4.4c-0.9,0.6-1.4,1.7-1.3,2.8c0.1,0.8,0,1.6-0.3,2.4
			c-0.7,2-2.4,3.5-4.4,3.9c-1,0.2-1.9,0.1-2.8-0.2C163.5,52.5,165,49.6,165.5,46.4z M137.8,54.9c-2-0.4-3.8-1.9-4.4-3.9
			c-0.3-0.8-0.3-1.6-0.3-2.4c0.1-1.1-0.4-2.2-1.3-2.8c-1.4-1-2.1-2.7-1.8-4.4c0.3-1.7,1.7-3,3.4-3.3c0.3,0,0.6-0.1,0.8-0.1v1.5
			c-1.2,0.6-2.1,1.8-2.1,3.3c0,2,1.6,3.6,3.6,3.6h0.7c0.4,3.2,1.9,6.1,4.1,8.3C139.7,55,138.8,55,137.8,54.9z M145.7,58
			c1.6,0.6,3.4,1,5.3,1c1.9,0,3.7-0.4,5.3-1l0,5.2c0,2.9-2.4,5.3-5.3,5.3c-2.9,0-5.3-2.4-5.3-5.3L145.7,58z M160.3,71.9
			c-0.6,1.5-2.2,2.3-3.8,1.9l-5.3-1.3c-0.2,0-0.3,0-0.5,0l-5.3,1.3c-1.6,0.4-3.1-0.4-3.8-1.9c-0.8-1.8-1.6-4.8-1.4-8.5
			c0-0.5,0.3-0.9,0.7-1l2.7-0.9v1.7c0,4,3.3,7.3,7.3,7.3c4,0,7.3-3.3,7.3-7.3v-1.7l2.7,0.9c0.4,0.2,0.7,0.5,0.8,1
			C161.9,67.1,161,70.1,160.3,71.9z"/>
		<g>
			<g>
				<path d="M151,81.2c-0.5,0-1,0.4-1,1v1c0,0.5,0.4,1,1,1c0.5,0,1-0.4,1-1v-1C152,81.6,151.5,81.2,151,81.2z"/>
			</g>
		</g>
		<path d="M153.2,18.6H152v-1.2c0-0.6-0.5-1-1-1c-0.6,0-1,0.5-1,1v1.2h-1.2c-0.6,0-1,0.5-1,1s0.5,1,1,1h1.2v1.2c0,0.6,0.5,1,1,1
			c0.6,0,1-0.5,1-1v-1.2h1.2c0.6,0,1-0.5,1-1S153.8,18.6,153.2,18.6z"/>
		<g>
			<path class="st2" d="M151,24.7C151,24.7,151,24.7,151,24.7C151,24.7,151,24.7,151,24.7c2.9,0,5.7,0.5,10,1.8l3.9-8
				c-4.7-2.6-9.3-4-13.9-4c-4.5,0-9.2,1.4-13.9,4l3.9,8C145.3,25.2,148.1,24.7,151,24.7z"/>
			<polygon class="st2" points="139,27.2 139,27.2 139,27.2 			"/>
			<path d="M139,27.2L139,27.2l0.6,1.1c0.4,0.5,0.9,0.6,1.6,0.4c4.3-1.3,7.1-1.9,9.8-1.9c2.8,0,5.5,0.5,9.8,1.9
				c0.2,0.1,0.4,0.1,0.6,0.1c0.5,0,0.9-0.3,1.2-0.8l0.4-0.8v0l2.2-4.5l1.8-3.7c0.3-0.6,0.5-1.5-0.6-2.1c-5.1-3-10.3-4.5-15.3-4.5
				c-5,0-10.2,1.5-15.3,4.5c-1.2,0.7-0.9,1.5-0.6,2.1l1.2,2.4l0,0L139,27.2z M151,14.5c4.5,0,9.2,1.4,13.9,4l-3.9,8
				c-4.3-1.3-7.1-1.8-10-1.8c0,0,0,0,0,0c0,0,0,0,0,0c-2.9,0-5.7,0.5-10,1.8l-3.9-8C141.8,15.8,146.4,14.5,151,14.5z"/>
			<path d="M139.4,27.9c0.1,0.1,0.1,0.2,0.2,0.3l-0.6-1L139.4,27.9z"/>
		</g>
	</g>
</g>
</svg>
