<?xml version="1.0" encoding="utf-8"?>
<!-- Generator: Adobe Illustrator 25.2.1, SVG Export Plug-In . SVG Version: 6.00 Build 0)  -->
<svg version="1.1" id="Layer_1" xmlns="http://www.w3.org/2000/svg" xmlns:xlink="http://www.w3.org/1999/xlink" x="0px" y="0px"
	 viewBox="0 0 201.9 62.6" style="enable-background:new 0 0 201.9 62.6;" xml:space="preserve">
<g>
	<rect x="15.6" y="0.1" width="12.7" height="29.2"/>
	<path d="M138.3,0.1h-14c-4.1,0-7,2.9-7,7v15.2c0,4.1,2.9,7,7,7h14c4.1,0,7-2.9,7-7V7.1C145.3,3.1,142.3,0.1,138.3,0.1z M129.9,22.5
		V7h2.6v15.6h-2.6V22.5z"/>
	<polygon points="59.1,29.3 59.1,20.9 43.7,20.9 43.7,17.8 57.9,17.7 57.8,11.7 43.6,11.7 43.6,8.6 59,8.6 59,0.1 31,0.1 31.1,29.4 
			"/>
	<rect x="0.2" y="0.1" width="12.7" height="29.2"/>
	<polygon points="92.6,0.1 92.6,10.9 96.9,10.9 96.9,29.4 110.1,29.4 110.1,10.9 114.5,10.9 114.5,0.1 	"/>
	<polygon points="162.6,3 166.7,10.4 163.8,10.4 158.4,0.1 148,0.1 148,29.4 161.5,29.4 161.5,26.5 157.4,19.1 160.2,19.1 
		165.7,29.4 176,29.4 176,0.1 162.6,0.1 	"/>
	<path d="M21.3,32.1h-5.7v22.7h5.7c4.1,0,7-2.9,7-7v-8.7C28.3,35,25.4,32.1,21.3,32.1z"/>
	<polygon points="178.8,32.1 178.8,42.8 183.2,42.8 183.2,61.3 196.3,61.3 196.3,42.8 200.7,42.8 200.7,32.1 	"/>
	<rect x="0.2" y="32.1" width="12.7" height="29.2"/>
	<path d="M52,32.1H31v29.2h12.6v-6.7h2.7v6.7h12.6v-5.1c0-2.8-1.8-5.3-4.2-6c2.6-1,4.2-3.4,4.2-6.5V39C59,35,56.1,32.1,52,32.1z
		 M43.7,48.4v-10h2.7v10H43.7z"/>
	<polygon points="117.3,61.3 145.3,61.3 145.3,52.3 130.5,52.3 130.5,49.7 144.1,49.7 144.1,43.7 130.5,43.7 130.5,41.1 145.3,41.1 
		145.3,32.1 117.3,32.1 	"/>
	<path d="M169,32.1h-14c-4.1,0-7,2.9-7,7v15.2c0,4.1,2.9,7,7,7h14c4.1,0,7-2.9,7-7v-5.8h-12.7v6h-2.6V38.9h2.6v6H176v-5.8
		C176,35,173.1,32.1,169,32.1z"/>
	<path d="M101,50.6h-7.9v10.7h13.5c4.1,0,7-2.9,7-7V32.1H101V50.6z"/>
	<path d="M82.8,32.1h-14c-4.1,0-7,2.9-7,7v15.2c0,4.1,2.9,7,7,7h14c4.1,0,7-2.9,7-7V39.1C89.8,35,86.9,32.1,82.8,32.1z M77.1,54.5
		h-2.6V38.9h2.6V54.5z"/>
	<path d="M82.8,0.1h-14c-4.1,0-7,2.9-7,7v15.2c0,4.1,2.9,7,7,7h14c4.1,0,7-2.9,7-7v-5.8H77.1v6h-2.6V7h2.6v6h12.7V7.1
		C89.8,3.1,86.9,0.1,82.8,0.1z"/>
</g>
</svg>
