<?xml version="1.0" encoding="utf-8"?>
<!-- Generator: Adobe Illustrator 25.3.1, SVG Export Plug-In . SVG Version: 6.00 Build 0)  -->
<svg version="1.1" id="Layer_1" xmlns="http://www.w3.org/2000/svg" xmlns:xlink="http://www.w3.org/1999/xlink" x="0px" y="0px"
	 viewBox="0 0 181.2 100" style="enable-background:new 0 0 181.2 100;" xml:space="preserve">
<style type="text/css">
	.st0{fill:#323242;}
	.st1{fill:#FFFFFF;}
</style>
<g>
	<path class="st0" d="M174.2,27L148.8,7.1c-3-2.3-7.1-2.3-10.1,0L99.9,37.4v30.5c0,4.6,3.7,8.3,8.3,8.3h34.6v15.2
		c0,1.5,1.7,2.4,3,1.4l28.4-22.6c1.7-1.6,2.3-3.7,2.3-5.5V31.8C176.5,30,175.7,28.1,174.2,27z"/>
	<g>
		<polygon class="st0" points="20.1,69.1 6.5,69.1 6.5,76.1 41.5,76.1 41.5,69.1 28,69.1 28,63.7 20.1,63.7 		"/>
		<polygon class="st0" points="6.4,55.7 11.4,60.6 21.7,60.6 21.7,53.4 13.8,53.4 13.8,43.2 21.7,43.2 21.7,36 6.4,36 		"/>
		<polygon class="st0" points="41.5,43.2 41.5,36 26.3,36 26.3,55.7 31.2,60.6 41.5,60.6 41.5,53.4 33.7,53.4 33.7,43.2 		"/>
	</g>
	<g>
		<polygon class="st0" points="81.3,36 73.7,36 73.7,62.8 81.3,62.8 81.3,53.6 87.2,53.6 87.2,45.6 81.3,45.6 		"/>
		<polygon class="st0" points="63.4,36 47.8,36 47.8,43.1 60.6,43.1 60.6,62.8 63.4,62.8 68.2,58 68.2,40.8 		"/>
	</g>
	<g>
		<g>
			<path class="st1" d="M126.2,37.4v5.2h-7v-5.2h-3.8V52l3.3,3.3h11.3V37.4H126.2z M119.1,51.5v-5.4h7v5.4H119.1z"/>
			<g>
				<rect x="133.6" y="37.4" class="st1" width="3.7" height="18"/>
			</g>
		</g>
		<g>
			<g>
				<rect x="141.6" y="57.2" class="st1" width="19.4" height="3.7"/>
			</g>
			<polygon class="st1" points="161,51.6 153.5,41.1 161,41.1 161,37.4 141.6,37.4 141.6,41.1 149.1,41.1 141.6,51.6 144.6,54 
				151.3,44.6 158.1,54 			"/>
		</g>
	</g>
</g>
</svg>
