<?xml version="1.0" encoding="utf-8"?>
<!-- Generator: Adobe Illustrator 25.2.1, SVG Export Plug-In . SVG Version: 6.00 Build 0)  -->
<svg version="1.1" id="Layer_1" xmlns="http://www.w3.org/2000/svg" xmlns:xlink="http://www.w3.org/1999/xlink" x="0px" y="0px"
	 viewBox="0 0 62.1 71" style="enable-background:new 0 0 62.1 71;" xml:space="preserve">
<style type="text/css">
	.st0{fill:#FAE100;}
	.st1{fill:#0055FF;}
</style>
<g>
	<path class="st0" d="M26.4,7.9l-24.5,19V48v2.5c0,2.6,2.1,4.7,4.7,4.7h29.7v13.3l14.5-11.5l0,0V27.1L26.4,7.9z"/>
</g>
<path class="st1" d="M57.9,18.6L38.1,3.2c-1.7-1.3-4.1-1.3-5.8,0l-5.9,4.7l24.5,19.2v29.8l7-5.5c1.1-0.9,1.8-2.2,1.8-3.8V22.4
	C59.7,20.9,59,19.5,57.9,18.6z"/>
<path class="st1" d="M34.4,69.2V57H6.6C2.9,57,0,54,0,50.4V26L31.2,1.7c2.5-1.9,5.8-1.9,8.2,0l20.5,16c1.2,0.9,1.9,2.3,1.9,3.9V48
	c0,1.5-0.4,3.1-1.8,4.5l-23.1,18C35.9,71.1,34.4,70.5,34.4,69.2z M3.7,27.8v22.6c0,1.6,1.2,2.9,2.9,2.9h32.2v9.8l19.1-15V20.9
	L37,4.6c-1-0.8-2.5-0.8-3.6,0l-5.9,4.7L3.7,27.8z"/>
</svg>
