<?xml version="1.0" encoding="utf-8"?>
<!-- Generator: Adobe Illustrator 25.2.3, SVG Export Plug-In . SVG Version: 6.00 Build 0)  -->
<svg version="1.1" id="Layer_1" xmlns="http://www.w3.org/2000/svg" xmlns:xlink="http://www.w3.org/1999/xlink" x="0px" y="0px"
	 viewBox="0 0 262.8 200" style="enable-background:new 0 0 262.8 200;" xml:space="preserve">
<style type="text/css">
	.st0{fill:#FAE100;}
	.st1{fill:#323242;}
	.st2{fill:#FBEDE3;}
	.st3{fill:none;}
	.st4{fill:#FFFFFF;stroke:#323242;stroke-width:1.629;stroke-linecap:round;stroke-linejoin:round;}
	.st5{fill:#FFFFFF;}
	.st6{fill:#43434C;}
	.st7{fill:#C9CACA;}
	.st8{fill:#00A582;}
	.st9{fill:#B5B5B6;}
</style>
<g id="그룹_1613_1_" transform="translate(-162.7 -2025.942)">
	<g id="그룹_1556_1_" transform="translate(354.711 2382.1)">
		<path id="패스_1459_1_" class="st0" d="M22.4-216.8c-0.6-19.6,7.7-49.3-23.5-56.6c-18.3-4.3-47.5-1.9-48.2,23.5v33"/>
		<path id="패스_1460_1_" class="st1" d="M22.4-215.8c-0.5,0-1-0.4-1-1c-0.1-3.6,0.1-7.4,0.3-11.5c0.8-18,1.8-38.3-23-44.1
			c-11.4-2.7-28.3-3-38.6,4.9c-5.4,4.1-8.2,10.1-8.4,17.6v33c0,0.5-0.4,1-1,1c-0.5,0-1-0.4-1-1v-33c0.2-8.2,3.3-14.6,9.2-19.1
			c10.8-8.3,28.4-8.1,40.2-5.3c26.4,6.2,25.3,28.3,24.5,46.1c-0.2,4-0.4,7.9-0.3,11.4C23.4-216.3,23-215.8,22.4-215.8L22.4-215.8z"
			/>
	</g>
	<g id="그룹_1557_1_" transform="translate(390.054 2411.78)">
		<path id="패스_1461_1_" class="st1" d="M-37.5-245.5c0,0-0.1,0-0.1,0c-5.6-0.7-9.2-3.6-9.3-7.2c0-3.5,3.7-8.1,14.2-9.9v-9.6
			c0-0.5,0.4-1,1-1c0.5,0,1,0.4,1,1v10.4c0,0.5-0.4,0.9-0.8,1c-9.3,1.4-13.4,5-13.4,8c0,2.5,3.1,4.6,7.5,5.2
			c0.5,0.1,0.9,0.6,0.9,1.1C-36.6-245.9-37-245.5-37.5-245.5L-37.5-245.5z"/>
	</g>
	<g id="그룹_1558_1_" transform="translate(378.057 2377.538)">
		<path id="패스_1462_1_" class="st2" d="M-40-261.5c-7.6,0.1-7.3-8.6-7-14h14C-32.7-270.1-32.4-261.4-40-261.5z"/>
		<path id="패스_1463_1_" class="st1" d="M-40.1-260.5c-2,0.1-3.9-0.7-5.3-2.1c-3.1-3.2-2.8-9.6-2.6-13c0-0.5,0.5-0.9,1-0.9h14
			c0.5,0,1,0.4,1,0.9c0.2,3.4,0.5,9.7-2.6,13c-1.4,1.5-3.4,2.2-5.4,2.1L-40.1-260.5z M-46-274.5c-0.2,3.2-0.2,8.2,2.1,10.6
			c1.1,1,2.5,1.6,4,1.4h0c1.5,0.1,2.9-0.4,4-1.4c2.3-2.4,2.2-7.3,2.1-10.6H-46z"/>
	</g>
	<g id="그룹_1559_1_" transform="translate(243.7 2435.279)">
		<line id="선_82_1_" class="st3" x1="-59.9" y1="-270" x2="155.9" y2="-270"/>
		<path id="패스_1464_1_" class="st1" d="M155.9-269H-59.9c-0.5,0-1-0.4-1-1c0-0.5,0.4-1,1-1h215.8c0.5,0,1,0.4,1,1
			C156.9-269.4,156.5-269,155.9-269L155.9-269z"/>
	</g>
	<g id="그룹_1560_1_" transform="translate(280.502 2436.127)">
		<path id="패스_1465_1_" class="st4" d="M-57.4-270.9"/>
	</g>
	<g id="그룹_1561_1_" transform="translate(274.676 2402.96)">
		<path id="패스_1466_1_" class="st4" d="M-57.9-274"/>
	</g>
	<g id="그룹_1562_1_" transform="translate(268.34 2377.957)">
		<path id="패스_1467_1_" class="st5" d="M-56.9-232.2c-1-14.8-4.7-38.4,27.8-42.4c7-0.9,19.9-1.2,26.5,0
			c30.6,5.2,26.3,39.3,25.7,60.6"/>
		<path id="패스_1468_1_" class="st1" d="M23-213.1L23-213.1c-0.6,0-1-0.5-1-1c0.1-1.8,0.1-3.6,0.2-5.5c0.9-20.9,2.1-49.4-25.1-54
			c-6.2-1.1-18.9-0.8-26.2,0.1c-29.7,3.7-28.2,24-27.1,38.8c0.1,0.9,0.1,1.8,0.2,2.6c0,0.5-0.4,1-0.9,1.1c0,0,0,0,0,0
			c-0.5,0-1-0.4-1.1-0.9c-0.1-0.8-0.1-1.7-0.2-2.6c-1.1-14.7-2.7-37,28.8-40.9c7.4-0.9,20.2-1.2,26.7,0
			c28.9,4.9,27.6,34.5,26.7,56.1c-0.1,1.9-0.2,3.8-0.2,5.5C24-213.6,23.6-213.1,23-213.1z"/>
	</g>
	<g id="그룹_1563_1_" transform="translate(301.467 2370.28)">
		<path id="패스_1469_1_" class="st2" d="M-46.8-261.3c-8,0.1-7.8-9.2-7.4-14.9h14.9C-39.1-270.5-38.8-261.2-46.8-261.3z"/>
		<path id="패스_1470_1_" class="st1" d="M-47-260.3c-2.1,0.1-4.1-0.7-5.6-2.2c-3.3-3.4-2.9-10.1-2.7-13.8c0-0.5,0.5-0.9,1-0.9
			h14.9c0.5,0,1,0.4,1,0.9c0.2,3.6,0.6,10.3-2.7,13.8c-1.5,1.5-3.5,2.3-5.6,2.2L-47-260.3z M-53.3-275.2c-0.2,3.4-0.2,8.8,2.2,11.3
			c1.1,1.1,2.7,1.7,4.3,1.5h0c1.6,0.1,3.2-0.4,4.3-1.5c2.5-2.6,2.4-7.9,2.2-11.3H-53.3z"/>
	</g>
	<g id="그룹_1564_1_" transform="translate(348.638 2420.514)">
		<path id="패스_1471_1_" class="st2" d="M-43.4-253.3c4.1,0.6,8.2-1.9,8.2-6.3c0.4-4.7,0-11.7-6.3-11.6c-4.1-0.6-8.2,1.9-8.2,6.3
			C-50.2-260.2-49.8-253.2-43.4-253.3z"/>
		<path id="패스_1472_1_" class="st1" d="M-42.3-252.3c-0.4,0-0.8,0-1.2-0.1c-1.9,0.1-3.7-0.6-5-2c-2.4-2.6-2.6-7.3-2.3-10.7
			c0-2,0.8-4,2.4-5.3c1.9-1.6,4.4-2.3,6.9-2c1.9-0.1,3.7,0.6,5,2c2.4,2.6,2.6,7.3,2.3,10.7c0,2-0.8,4-2.4,5.3
			C-38.2-253-40.2-252.2-42.3-252.3z M-43.4-254.3c0,0,0.1,0,0.1,0c1.9,0.3,3.9-0.2,5.4-1.5c1.1-1,1.7-2.4,1.7-3.9
			c0.3-3.1,0.2-7.2-1.8-9.3c-0.9-1-2.2-1.5-3.6-1.4c-0.1,0-0.1,0-0.2,0c-1.9-0.3-3.9,0.2-5.4,1.5c-1.1,1-1.7,2.4-1.7,3.9
			c-0.3,3.1-0.2,7.2,1.8,9.3C-46.1-254.7-44.8-254.2-43.4-254.3L-43.4-254.3z"/>
	</g>
	<g id="그룹_1565_1_" transform="translate(386.665 2422.273)">
		<path id="패스_1473_1_" class="st2" d="M-38-253.2c-4.1,0.6-8.2-1.9-8.2-6.3c-0.4-4.7,0-11.7,6.3-11.6c4.1-0.6,8.2,1.9,8.2,6.3
			C-31.2-260.1-31.6-253.1-38-253.2z"/>
		<path id="패스_1474_1_" class="st1" d="M-39.1-252.1c-2.1,0-4.1-0.7-5.7-2c-1.5-1.4-2.4-3.3-2.4-5.4c-0.3-3.3-0.1-8,2.3-10.6
			c1.3-1.4,3.1-2.1,5-2c2.5-0.3,5,0.4,6.9,2c1.5,1.4,2.4,3.3,2.4,5.4c0.3,3.3,0.2,8-2.3,10.6c-1.3,1.4-3.1,2.1-5,2
			C-38.3-252.1-38.7-252.1-39.1-252.1z M-39.9-270.1c-1.3-0.1-2.6,0.4-3.5,1.4c-1.9,2.1-2,6.1-1.8,9.2c-0.1,1.5,0.6,3,1.7,4
			c1.5,1.2,3.4,1.8,5.4,1.5c0.1,0,0.1,0,0.2,0c1.3,0.1,2.7-0.4,3.6-1.4c1.9-2.1,2-6.1,1.8-9.2c0.1-1.5-0.6-3-1.7-4
			c-1.5-1.2-3.4-1.8-5.4-1.5c-0.1,0-0.1,0-0.2,0L-39.9-270.1z"/>
	</g>
	<g id="그룹_1579_1_" transform="translate(277.377 2314.64)">
		<g id="그룹_1566_1_" transform="translate(48.11 28.164)">
			<path id="패스_1475_1_" class="st2" d="M-52.1-261.3c16.2,2.4,16.2-19.7,0-17.3V-261.3z"/>
			<path id="패스_1476_1_" class="st1" d="M-49.7-260.2c-0.8,0-1.7-0.1-2.5-0.2c-0.5-0.1-0.8-0.5-0.8-1v-17.3c0-0.5,0.4-0.9,0.8-1
				c5.2-0.8,9.5,0.8,11.7,4.3c2,3.2,2,7.3,0,10.6C-42.4-261.8-45.7-260.2-49.7-260.2z M-51.1-262.2c4,0.4,7.2-0.9,8.9-3.6
				c1.6-2.6,1.6-5.8,0-8.4c-1.7-2.7-4.9-3.9-8.9-3.6L-51.1-262.2z"/>
		</g>
		<g id="그룹_1567_1_" transform="translate(10.814 0.863)">
			<path id="패스_1477_1_" class="st2" d="M-34-214c-11.8,0-21.4-9.6-21.4-21.4c0,0,0,0,0,0c-0.3-17.1-3.6-46,21.4-46.1
				c11.8,0,21.4,9.6,21.4,21.4c0,0,0,0,0,0C-12.3-242.9-9-214-34-214z"/>
			<path id="패스_1478_1_" class="st1" d="M-34-213L-34-213c-12.4,0-22.4-10-22.4-22.4c0-1.5-0.1-3.1-0.1-4.7
				c-0.4-12.6-0.9-28.3,7.3-36.7c3.7-3.8,8.8-5.7,15.2-5.7l0,0c12.4,0,22.4,10,22.4,22.4l0,0c0,1.5,0.1,3.1,0.1,4.7
				c0.4,12.6,0.9,28.3-7.3,36.7C-22.4-214.9-27.5-213-34-213z M-34-280.4L-34-280.4c-6,0-10.5,1.7-13.8,5.1
				c-7.6,7.8-7.1,23-6.7,35.2c0.1,1.7,0.1,3.3,0.1,4.8c0,11.3,9.1,20.4,20.4,20.4c6,0,10.5-1.7,13.8-5.1c7.6-7.8,7.1-23,6.7-35.2
				c-0.1-1.7-0.1-3.2-0.1-4.7C-13.6-271.3-22.7-280.4-34-280.4C-34-280.4-34-280.4-34-280.4L-34-280.4z"/>
		</g>
		<g id="그룹_1568_1_" transform="translate(27.33 50.835)">
			<path id="패스_1479_1_" class="st1" d="M-48.9-274.2c-2,0-4-0.6-5.7-1.6c-0.5-0.3-0.6-0.9-0.3-1.4c0.3-0.5,0.9-0.6,1.4-0.3l0,0
				l0,0c0.2,0.1,4.6,2.8,8.7,0c0.5-0.3,1.1-0.1,1.4,0.4c0.3,0.4,0.1,1-0.2,1.3C-45.3-274.8-47.1-274.2-48.9-274.2z"/>
		</g>
		<g id="그룹_1569_1_" transform="translate(30.546 38.524)">
			<path id="패스_1480_1_" class="st1" d="M-52.6-269.5h-1.5c-0.4,0-0.7-0.3-0.6-0.7c0-0.3,0.3-0.6,0.6-0.6h1.5
				c0.7,0,1.2-0.5,1.2-1.2v-6.1c0-0.4,0.3-0.7,0.6-0.7c0.4,0,0.7,0.3,0.7,0.6c0,0,0,0,0,0.1v6.1C-50-270.6-51.2-269.5-52.6-269.5
				C-52.6-269.5-52.6-269.5-52.6-269.5z"/>
		</g>
		<g id="그룹_1570_1_" transform="translate(4.301)">
			<path id="패스_1481_1_" class="st6" d="M-20.8-279.2v14.3c-0.1,2.4-0.5,4.8-1,7.2c-2.6,8.9-13.6,8.7-13.6,8.7l2.5-5.4
				c0,0-4.3,3.2-15.9,4l-6.1,4C-54.9-246.5-66.6-292-20.8-279.2z"/>
			<path id="패스_1482_1_" class="st1" d="M-54.9-245.5c-0.5,0-0.9-0.3-1-0.7c-0.2-0.8-5.2-20.8,5.1-30.8c6.1-6,16.3-7.1,30.2-3.2
				c0.4,0.1,0.7,0.5,0.7,1v14.3c-0.1,2.5-0.5,5-1,7.4c-2.8,9.5-14.5,9.4-14.6,9.4c-0.5,0-1-0.5-1-1c0-0.1,0-0.3,0.1-0.4l1.3-2.8
				c-4.3,1.6-8.8,2.6-13.4,2.8l-5.9,3.8C-54.5-245.5-54.7-245.5-54.9-245.5z M-35.2-280.5c-6.1,0-10.8,1.6-14.2,4.9
				c-8,7.8-5.8,22.9-4.9,27.5l4.9-3.2c0.1-0.1,0.3-0.1,0.5-0.2c11-0.8,15.3-3.8,15.4-3.8c0.4-0.3,1.1-0.2,1.4,0.2
				c0.2,0.3,0.3,0.7,0.1,1l-1.8,3.9c3-0.3,9.3-1.7,11.1-7.9c0.5-2.3,0.8-4.6,0.9-6.9v-13.5C-26.2-279.7-30.7-280.4-35.2-280.5
				L-35.2-280.5z"/>
		</g>
		<g id="그룹_1571_1_" transform="translate(0 28.166)">
			<path id="패스_1483_1_" class="st2" d="M-44.6-261.3c-16.2,2.4-16.2-19.7,0-17.3V-261.3z"/>
			<path id="패스_1484_1_" class="st1" d="M-46.9-260.2c-4.1,0-7.3-1.6-9.2-4.5c-2-3.2-2-7.3,0-10.6c2.3-3.5,6.6-5.1,11.7-4.3
				c0.5,0.1,0.8,0.5,0.8,1v17.3c0,0.5-0.4,0.9-0.8,1C-45.2-260.2-46.1-260.2-46.9-260.2z M-44.6-261.3 M-46.9-277.8
				c-3.4,0-6.1,1.3-7.6,3.6c-1.6,2.6-1.6,5.8,0,8.4c1.7,2.7,4.9,3.9,8.9,3.6v-15.5C-46-277.8-46.5-277.8-46.9-277.8L-46.9-277.8z"/>
		</g>
		<g id="그룹_1572_1_" transform="translate(36.641 1.842)">
			<path id="패스_1485_1_" class="st6" d="M-53.2-281.1v14.3c1.1,7.2,5.7,13.4,12.4,16.5l5.3,1.9
				C-35.5-248.3-24.1-284.6-53.2-281.1z"/>
			<path id="패스_1486_1_" class="st1" d="M-35.5-247.3c-0.1,0-0.2,0-0.3-0.1l-5.3-1.9c-7-3.2-11.9-9.7-13-17.3v-14.4
				c0-0.5,0.4-0.9,0.9-1c7.7-0.9,13.4,0.8,16.9,5c7.9,9.5,2.1,28.2,1.8,29c-0.1,0.3-0.3,0.5-0.5,0.6
				C-35.2-247.4-35.4-247.3-35.5-247.3z M-52.2-280.2v13.4c1.1,6.8,5.5,12.7,11.8,15.6l4.2,1.5c1.1-4,4.5-18.6-1.7-26.1
				C-40.9-279.3-45.7-280.8-52.2-280.2z"/>
		</g>
		<g id="그룹_1575_1_" transform="translate(18.737 45.905)">
			<g id="그룹_1573_1_" transform="translate(0 0.001)">
				<path id="패스_1487_1_" class="st1" d="M-55.2-271.1c-0.1,0-0.2,0-0.3-0.1c-0.3-0.2-0.4-0.6-0.2-0.9c0,0,0,0,0,0l3.5-5.7
					c0.2-0.3,0.6-0.4,0.9-0.2c0.3,0.2,0.4,0.6,0.2,0.9l-3.5,5.7C-54.8-271.2-55-271.1-55.2-271.1z"/>
			</g>
			<g id="그룹_1574_1_" transform="translate(20.337)">
				<path id="패스_1488_1_" class="st1" d="M-49.8-271.1c-0.2,0-0.4-0.1-0.6-0.3l-3.5-5.7c-0.2-0.3-0.1-0.7,0.2-0.9
					c0.3-0.2,0.7-0.1,0.9,0.2l3.5,5.7c0.2,0.3,0.1,0.7-0.2,0.9C-49.6-271.1-49.7-271.1-49.8-271.1L-49.8-271.1z"/>
			</g>
		</g>
		<g id="그룹_1576_1_" transform="translate(4.928 7.602)">
			<path id="패스_1489_1_" class="st7" d="M-2.8-259.2c-9.4,0-17.1-17.6-18.7-21.4c-8.6,15.4-35.1,18.4-35.3,18.4
				c-0.2,0-0.3-0.1-0.4-0.3c0,0,0,0,0,0c0-0.2,0.1-0.3,0.3-0.4c0.3,0,27.1-3.1,35.1-18.7c0.1-0.2,0.3-0.2,0.4-0.2
				c0.1,0,0.1,0.1,0.2,0.2c0.1,0.2,8.4,21.6,18.3,21.6c0.2,0,0.3,0.1,0.3,0.3C-2.5-259.4-2.7-259.2-2.8-259.2L-2.8-259.2z"/>
		</g>
		<g id="그룹_1577_1_" transform="translate(20.619 36.267)">
			<path id="패스_1490_1_" class="st1" d="M-50.8-276.6c0,3.2-4.9,3.2-4.9,0C-55.8-279.8-50.8-279.8-50.8-276.6z"/>
		</g>
		<g id="그룹_1578_1_" transform="translate(39.658 36.02)">
			<path id="패스_1491_1_" class="st1" d="M-49-276.7c0,3.2-4.9,3.2-4.9,0C-53.9-279.8-48.9-279.8-49-276.7z"/>
		</g>
	</g>
	<g id="그룹_1580_1_" transform="translate(270.425 2347.434)">
		<path id="패스_1495_1_" class="st8" d="M-15.4-249.1c-3.7-3.8-9.8-3.9-13.6-0.2l-12-12.4c3.8-3.7,3.9-9.8,0.2-13.6
			c-3.7-3.8-9.8-3.9-13.6-0.2c-3.8,3.7-3.9,9.8-0.2,13.6c0,0,0,0,0,0l25.4,26.3c3.6,3.9,9.7,4.2,13.6,0.6c3.9-3.6,4.2-9.7,0.6-13.6
			C-15.1-248.8-15.3-249-15.4-249.1L-15.4-249.1z"/>
		<path id="패스_1496_1_" class="st1" d="M-22.3-231.8h-0.2c-2.8,0-5.5-1.2-7.5-3.2l-25.4-26.3c-4.1-4.2-4-11,0.3-15
			c2-2,4.7-3.1,7.6-3c5.9,0.1,10.5,5,10.4,10.8c0,2.5-1,4.9-2.6,6.7l10.7,11.1c4.6-3.7,11.3-2.9,14.9,1.7c3.7,4.6,2.9,11.3-1.7,14.9
			C-17.6-232.6-19.9-231.8-22.3-231.8L-22.3-231.8z M-47.7-277.4c-4.8,0-8.6,3.9-8.6,8.6c0,2.2,0.9,4.4,2.4,6l25.4,26.3
			c1.6,1.7,3.8,2.6,6.1,2.6c2.3,0,4.5-0.8,6.2-2.4c3.4-3.3,3.5-8.8,0.2-12.2l0,0c-3.3-3.4-8.8-3.5-12.2-0.2c-0.4,0.4-1,0.4-1.4,0
			l-12-12.4c-0.4-0.4-0.4-1,0-1.4c0,0,0,0,0,0c3.4-3.3,3.5-8.8,0.2-12.2c-1.6-1.6-3.8-2.6-6.1-2.6L-47.7-277.4z"/>
	</g>
	<g id="그룹_1581_1_" transform="translate(268.928 2385.9)">
		<path id="패스_1497_1_" class="st1" d="M-44.2-222.5c-0.3,0-0.6,0-0.9,0c-12.3-0.8-13.4-17.9-13.4-18.1c0-0.5,0.4-1,0.9-1
			c0.5,0,1,0.4,1,0.9c0,0.2,0.9,15.5,11.5,16.2c2.8,0.3,5.6-0.8,7.5-2.9c9-9.7,5.7-39.5,5-44.5l-10.8-1.6l-4.2,21.6
			c-0.1,0.5-0.6,0.9-1.2,0.8c-0.5-0.1-0.9-0.6-0.8-1.2l4.4-22.6c0.1-0.5,0.6-0.9,1.1-0.8l12.5,1.8c0.4,0.1,0.8,0.4,0.8,0.8
			c0.2,1.5,5,35.7-5.4,46.9C-38.1-223.8-41.1-222.5-44.2-222.5z"/>
	</g>
	<g id="그룹_1582_1_" transform="translate(279.279 2371.849)">
		<path id="패스_1498_1_" class="st2" d="M-49.1-275.9c4.6-0.6,9.4,2.3,9.3,7.3c0.4,5.4-0.1,12.6-7.3,13.2
			c-5.3,0.4-9.4-2.3-9.3-7.3C-56.8-268.1-56.3-276.1-49.1-275.9z"/>
		<path id="패스_1499_1_" class="st1" d="M-48.2-254.4c-2.5,0.1-5-0.8-6.8-2.4c-1.6-1.5-2.5-3.7-2.4-6c-0.3-3.8-0.1-9.1,2.6-12
			c1.5-1.5,3.5-2.3,5.6-2.2c2.8-0.4,5.6,0.4,7.7,2.3c1.7,1.5,2.7,3.7,2.6,6c0.4,5.1-0.4,9-2.4,11.4c-1.5,1.7-3.6,2.7-5.8,2.8
			C-47.4-254.4-47.8-254.4-48.2-254.4z M-49.3-275c-1.5-0.1-3,0.5-4,1.6c-2.3,2.4-2.4,7.1-2.1,10.6c-0.1,1.7,0.5,3.4,1.7,4.6
			c1.8,1.5,4.1,2.2,6.5,1.8c1.7,0,3.3-0.8,4.5-2.1c1.7-2,2.3-5.3,1.9-10c0.1-1.8-0.6-3.5-2-4.6c-1.7-1.4-4-2.1-6.2-1.8
			c-0.1,0-0.1,0-0.2,0L-49.3-275z"/>
	</g>
	<g id="그룹_1583_1_" transform="translate(313.369 2410.608)">
		<path id="패스_1500_1_" class="st1" d="M-41.6-244.6c0,0-0.1,0-0.1,0c-7.1-0.9-12.5-5.3-12.5-10.2c0-2.3,1.2-7.7,12.9-9.7v-7.7
			c0-0.5,0.4-1,1-1c0.5,0,1,0.4,1,1v8.6c0,0.5-0.4,0.9-0.8,1c-7.6,1.2-12.1,4.1-12.1,7.9c0,3.4,4.1,7.4,10.8,8.3
			c0.5,0.1,0.9,0.6,0.9,1.1C-40.7-245-41.1-244.7-41.6-244.6L-41.6-244.6z"/>
	</g>
	<g id="그룹_1584_1_" transform="translate(310.38 2419.828)">
		<path id="패스_1501_1_" class="st2" d="M-44.5-251.7c-4.4,0.6-9-2.1-8.9-6.9c-0.5-5.1,0-12.8,6.9-12.7c4.4-0.6,9,2.1,8.9,6.9
			C-37.1-259.3-37.6-251.6-44.5-251.7z"/>
		<path id="패스_1502_1_" class="st1" d="M-45.7-250.7c-2.2,0-4.4-0.8-6.1-2.2c-1.7-1.5-2.6-3.6-2.6-5.8
			c-0.3-3.6-0.2-8.7,2.5-11.5c1.4-1.4,3.3-2.2,5.3-2.1h0.1c2.7-0.4,5.4,0.4,7.4,2.1c1.7,1.5,2.6,3.6,2.6,5.8
			c0.3,3.6,0.2,8.7-2.5,11.5c-1.4,1.4-3.3,2.2-5.3,2.1h-0.1C-44.8-250.7-45.3-250.7-45.7-250.7z M-46.6-270.4
			c-1.4-0.1-2.9,0.5-3.9,1.5c-2.1,2.3-2.2,6.8-1.9,10.1c-0.1,1.7,0.6,3.3,1.9,4.4c1.6,1.4,3.8,2,5.9,1.6c0.1,0,0.1,0,0.2,0
			c1.5,0.1,3-0.4,4-1.5c2.1-2.3,2.2-6.8,1.9-10.1c0.1-1.7-0.6-3.3-1.9-4.4c-1.6-1.4-3.8-2-5.9-1.6c-0.1,0-0.1,0-0.2,0L-46.6-270.4z"
			/>
	</g>
	<g id="그룹_1585_1_" transform="translate(307.55 2388.227)">
		<path id="패스_1503_1_" class="st1" d="M-47.1-240.3c-0.3,0-0.6-0.2-0.7-0.6c-0.2-1.3-0.5-2.7-0.9-4c-0.6,0.5-1.2,0.8-2,1
			c-0.3,0.1-0.6,0-0.8-0.3c-0.4-0.9-0.1-2,0.6-2.6c0.6-0.6,1.5-0.8,2.3-0.5v0c0.3-0.8,0.1-1.7-0.4-2.3c-0.2,0.3-0.4,0.5-0.7,0.7
			c-0.8,0.6-1.8,0.8-2.7,0.5c-0.3-0.1-0.5-0.4-0.4-0.7c0.1-0.8,0.6-1.6,1.3-2c0.6-0.3,1.3-0.5,2-0.4c0.1-0.3,0.1-0.5,0.1-0.8
			c0-0.2-0.1-0.5-0.2-0.7c-0.5,0.4-1.2,0.8-1.8,0.9c-0.5,0.1-1,0-1.3-0.3c-0.3-0.3-0.5-0.7-0.4-1.1c0-0.6,0.4-1.2,0.9-1.6
			c0.6-0.4,1.4-0.5,2.2-0.3c0.2,0.1,0.3,0.1,0.4,0.2c0-0.1,0.1-0.3,0.1-0.4c0.1-0.6-0.1-1.3-0.6-1.7c-0.9,0.8-2.1,1.4-3.3,1.7
			c-0.2,0.1-0.4,0-0.6-0.1c-0.2-0.1-0.3-0.3-0.3-0.5c-0.1-0.8,0.3-1.7,0.9-2.2c0.7-0.6,1.6-0.9,2.5-0.8c0.2,0,0.3,0.1,0.4,0.1
			c0.1-0.1,0.2-0.3,0.3-0.5c0.3-0.7,0.4-1.6,0.1-2.3c0-0.1-0.1-0.1-0.1-0.2c-0.7,1-1.7,1.7-2.9,2c-0.3,0.1-0.7,0.1-1-0.1
			c-0.3-0.2-0.4-0.4-0.5-0.7c-0.3-1-0.1-2.1,0.7-2.7c0.9-0.9,2.1-1.2,3.3-0.7c0,0,0.1,0,0.1,0.1c0.3-0.9,0.5-1.8,0.4-2.8
			c0-0.7-0.2-1.4-0.5-1.9c-0.3-0.4-0.8-0.7-1.4-0.6c-0.3,0.1-0.7-0.1-0.8-0.4c-0.7-1.6-1.9-4.8-2-4.9c-0.1-0.3,0.1-0.7,0.4-0.8
			c0.3-0.1,0.7,0,0.8,0.4c0,0,1,2.7,1.8,4.4c0.9,0,1.7,0.4,2.2,1.2c0.5,0.8,0.8,1.7,0.8,2.6c0.1,1.3-0.1,2.6-0.6,3.8
			c0.3,0.3,0.4,0.7,0.6,1c0.4,1.1,0.4,2.3-0.1,3.4c-0.1,0.2-0.2,0.4-0.3,0.6c1.1,1.1,1.4,2.8,0.6,4.1c0.3,0.5,0.5,1.1,0.5,1.7
			c0,0.5,0,1-0.2,1.5c1.1,1,1.6,2.6,1.1,4c-0.1,0.3-0.2,0.5-0.4,0.8c0.5,1.6,0.9,3.2,1.2,4.9C-46.4-240.7-46.6-240.4-47.1-240.3
			C-47-240.3-47-240.3-47.1-240.3C-47-240.3-47-240.3-47.1-240.3z M-49.3-246c-0.2,0-0.4,0.1-0.5,0.3c-0.1,0.1-0.2,0.2-0.2,0.3
			C-49.8-245.6-49.6-245.8-49.3-246L-49.3-246z M-50.3-250c-0.2,0-0.3,0.1-0.5,0.2c-0.1,0.1-0.3,0.2-0.4,0.3
			c0.3-0.1,0.5-0.2,0.7-0.4C-50.4-249.9-50.4-250-50.3-250L-50.3-250z M-50.9-254c-0.2,0-0.5,0.1-0.6,0.2c-0.2,0.1-0.3,0.3-0.3,0.5
			c-0.1,0,0,0,0.2,0c0.5-0.1,0.9-0.3,1.3-0.6c0,0-0.1,0-0.1-0.1C-50.6-254-50.7-254-50.9-254L-50.9-254z M-51.6-257.6
			c-0.3,0.1-0.6,0.2-0.8,0.4c0,0-0.1,0-0.1,0.1C-52.2-257.2-51.9-257.4-51.6-257.6L-51.6-257.6z M-51.6-262.9c-0.5,0-1,0.2-1.3,0.6
			c-0.4,0.3-0.5,0.8-0.4,1.3c1-0.2,1.8-0.9,2.3-1.7l-0.1,0C-51.3-262.9-51.4-262.9-51.6-262.9L-51.6-262.9z"/>
	</g>
	<g id="그룹_1599_1_" transform="translate(356.789 2320.118)">
		<g id="그룹_1593_1_">
			<g id="그룹_1586_1_" transform="translate(9.064 8.086)">
				<path id="패스_1504_1_" class="st2" d="M-31.5-220.8c-10.4-1.2-17.8-10.6-16.6-20.9c1.3-14.7,1.9-41.1,23.5-38.2
					c10.4,1.2,17.8,10.6,16.6,20.9c0,0,0,0,0,0C-9.4-244.3-10-217.9-31.5-220.8z"/>
				<path id="패스_1505_1_" class="st1" d="M-28.4-219.6c-1.1,0-2.2-0.1-3.2-0.2c-10.9-1.3-18.7-11.1-17.4-22c0.1-1,0.2-2,0.3-3.1
					c0.9-11,2.1-26,10.5-32.7c3.6-2.9,8.2-4,13.8-3.3c10.9,1.3,18.7,11.1,17.4,22c-0.1,1-0.2,2-0.3,3.1c-0.9,11-2.1,26-10.5,32.7
					C-20.9-220.7-24.6-219.5-28.4-219.6z M-27.8-279.2c-3.3-0.1-6.6,1-9.2,3.1c-7.7,6.2-8.9,20.7-9.8,31.4c-0.1,1.1-0.2,2.1-0.3,3.1
					c-1.2,9.8,5.9,18.7,15.7,19.9c0,0,0,0,0,0h0c5,0.7,9.1-0.3,12.3-2.8c7.7-6.2,8.9-20.8,9.8-31.4c0.1-1.1,0.2-2.1,0.3-3.1
					c1.2-9.8-5.9-18.7-15.7-19.9c0,0,0,0,0,0C-25.8-279.1-26.8-279.2-27.8-279.2L-27.8-279.2z"/>
			</g>
			<g id="그룹_1587_1_" transform="translate(0 26.596)">
				<path id="패스_1506_1_" class="st2" d="M-38.9-261.9c-15.1,0.7-12.7-20.2,1.9-16L-38.9-261.9z"/>
				<path id="패스_1507_1_" class="st1" d="M-39.6-260.9c-4.4,0-7.9-1.9-9.5-5.2c-1.6-3.3-1.2-7.3,1.2-10.1c2.5-3,6.6-4,11.2-2.6
					c0.5,0.1,0.8,0.6,0.7,1.1l-1.9,16c-0.1,0.5-0.5,0.9-0.9,0.9C-39.1-260.9-39.3-260.9-39.6-260.9z M-38.9-261.9 M-40.7-277.4
					c-2.2-0.1-4.3,0.8-5.7,2.5c-1.8,2.2-2.2,5.4-0.9,8c1.3,2.6,4,4,7.6,4.1l1.7-14.3C-38.9-277.3-39.8-277.4-40.7-277.4L-40.7-277.4
					z"/>
			</g>
			<g id="그룹_1588_1_" transform="translate(43.601 31.061)">
				<path id="패스_1508_1_" class="st2" d="M-44.9-262c14.5,4.2,17-16.7,1.9-16L-44.9-262z"/>
				<path id="패스_1509_1_" class="st1" d="M-41.3-260.5c-1.3,0-2.7-0.2-3.9-0.6c-0.5-0.1-0.8-0.6-0.7-1.1l1.9-16
					c0.1-0.5,0.5-0.9,0.9-0.9c4.8-0.2,8.6,1.6,10.3,5.1c1.6,3.3,1.2,7.3-1.2,10.1C-35.8-261.6-38.5-260.4-41.3-260.5z M-43.9-262.8
					c3.5,0.8,6.5,0,8.3-2.2c1.8-2.2,2.2-5.4,0.9-8c-1.3-2.6-4-4-7.6-4.1L-43.9-262.8z"/>
			</g>
			<g id="그룹_1589_1_" transform="translate(0.301)">
				<path id="패스_1510_1_" class="st9" d="M7.1-259.1c3.7-5.5,0.6-13.6-5.7-15.2c-2.1-6.9-12.1-9.1-16.9-3.6c-4-4-10.4-4-14.4,0
					c0,0-0.1,0.1-0.1,0.1c-8.1-3.1-16.4,6-12.6,13.7c-21.7,15.8,18.9,31.5,13.5,5.2c1.2-0.5,2.2-1.3,3.1-2.2
					c3.7,1.3,7.9,0.3,10.6-2.6c1.2,1.2,2.7,2.1,4.3,2.6c0.8,2.4,2.5,4.3,4.7,5.5c-4.1,6.1,0.1,14.9,7.4,15.6
					C11.9-238.3,16.8-254.3,7.1-259.1z"/>
				<path id="패스_1511_1_" class="st1" d="M2.6-238.8c-0.6,0-1.1,0-1.7-0.1c-6.2-0.8-10.5-6.4-9.8-12.6c0.2-1.3,0.5-2.5,1.1-3.6
					c-1.8-1.2-3.3-3-4.1-5c-1.3-0.5-2.5-1.2-3.6-2c-2.8,2.5-6.7,3.3-10.3,2.3c-0.7,0.6-1.5,1.2-2.3,1.6c1.8,10.1-3.3,13.1-5.6,13.9
					c-5.4,1.9-12.7-0.9-15.4-5.9c-1.2-2.2-2.9-7.8,5.2-14.1c-2-5.9,1.1-12.3,7-14.3c2.1-0.7,4.4-0.8,6.6-0.2c2-1.9,4.7-2.9,7.5-2.9
					h0c2.6,0,5.2,0.9,7.2,2.6c4.8-4,11.9-3.4,15.9,1.4c0.7,0.8,1.3,1.8,1.7,2.8c5.9,2.1,8.9,8.5,6.9,14.4c-0.2,0.4-0.3,0.9-0.5,1.3
					c4.8,2.9,5.6,8.4,4.3,12.7C11.4-242.6,7.8-238.8,2.6-238.8z M-15.5-264.7c0.3,0,0.5,0.1,0.7,0.3c1.1,1.1,2.4,1.9,3.9,2.4
					c0.3,0.1,0.5,0.3,0.7,0.6c0.8,2.1,2.3,3.9,4.2,5c0.2,0.1,0.4,0.4,0.5,0.6c0.1,0.3,0,0.6-0.1,0.8c-2.7,4.3-1.4,10,3,12.7
					c1.1,0.7,2.4,1.2,3.7,1.3c5.1,0.8,8.5-2.7,9.7-6.4c1.2-3.8,0.3-8.6-4.2-10.8c-0.5-0.2-0.7-0.8-0.5-1.3c0,0,0-0.1,0.1-0.1
					c1.6-2.4,1.9-5.4,0.8-8.1c-1-2.7-3.2-4.8-6-5.6c-0.3-0.1-0.6-0.3-0.7-0.7c-1.8-4.8-7.1-7.2-11.9-5.4c-1.2,0.5-2.3,1.2-3.2,2.1
					c-0.2,0.2-0.5,0.3-0.7,0.3c-0.3,0-0.5-0.1-0.7-0.3c-1.7-1.8-4-2.7-6.5-2.7h0c-2.5-0.1-4.8,0.9-6.5,2.7c-0.3,0.3-0.7,0.4-1.1,0.3
					c-4.9-1.6-10.1,1.1-11.6,5.9c-0.7,2.1-0.6,4.4,0.3,6.4c0.2,0.4,0.1,1-0.3,1.2c-5.4,3.9-7.3,8.2-5.2,12c2.2,4.2,8.5,6.6,13,5
					c4.1-1.5,5.5-5.9,4.2-12.4c-0.1-0.5,0.1-0.9,0.6-1.1c1.1-0.5,2-1.1,2.8-2c0.3-0.3,0.7-0.4,1.1-0.2c3.4,1.1,7.1,0.2,9.5-2.3
					C-16-264.5-15.7-264.6-15.5-264.7L-15.5-264.7z"/>
			</g>
			<g id="그룹_1590_1_" transform="translate(23.414 38.197)">
				<line id="선_83_1_" class="st3" x1="-46.2" y1="-277.6" x2="-47.2" y2="-269.3"/>
				<path id="패스_1512_1_" class="st1" d="M-47.2-268.6C-47.2-268.6-47.3-268.6-47.2-268.6c-0.4,0-0.7-0.4-0.7-0.7l1-8.4
					c0.1-0.4,0.4-0.6,0.8-0.5c0.3,0.1,0.5,0.3,0.5,0.7l-1,8.4C-46.6-268.8-46.9-268.6-47.2-268.6z"/>
			</g>
			<g id="그룹_1591_1_" transform="translate(18.947 50.395)">
				<path id="패스_1513_1_" class="st1" d="M-41.6-272.4c-2.5-0.1-4.9-1.2-6.5-3.2c-0.3-0.4-0.3-1.1,0.2-1.4
					c0.4-0.3,1.1-0.3,1.4,0.2l0,0c0.2,0.2,3.6,4.5,9.1,1c0.5-0.3,1.1-0.2,1.4,0.3c0.3,0.5,0.2,1.1-0.3,1.4
					C-37.9-273-39.7-272.4-41.6-272.4z"/>
			</g>
			<g id="그룹_1592_1_" transform="translate(19.31 37.186)">
				<line id="선_84_1_" class="st3" x1="-47.3" y1="-277.4" x2="-37.2" y2="-276.2"/>
				<path id="패스_1514_1_" class="st1" d="M-37.2-275.2c0,0-0.1,0-0.1,0l-10.1-1.2c-0.5-0.1-0.9-0.6-0.9-1.1c0,0,0,0,0,0
					c0.1-0.5,0.6-0.9,1.1-0.9l10.1,1.2c0.5,0.1,0.9,0.5,0.9,1.1C-36.2-275.6-36.7-275.2-37.2-275.2L-37.2-275.2z"/>
			</g>
		</g>
		<g id="그룹_1596_1_" transform="translate(13.89 46.364)">
			<g id="그룹_1594_1_">
				<line id="선_85_1_" class="st3" x1="-44.2" y1="-276.9" x2="-48.1" y2="-271.9"/>
				<path id="패스_1515_1_" class="st1" d="M-48.1-271.2c-0.4,0-0.7-0.3-0.7-0.6c0-0.2,0-0.3,0.1-0.4l3.9-5
					c0.2-0.3,0.7-0.3,0.9-0.1c0.3,0.2,0.3,0.6,0.1,0.9l-3.9,5C-47.7-271.3-47.9-271.2-48.1-271.2z"/>
			</g>
			<g id="그룹_1595_1_" transform="translate(17.777 1.654)">
				<line id="선_86_1_" class="st3" x1="-46.4" y1="-276.7" x2="-43.8" y2="-271"/>
				<path id="패스_1516_1_" class="st1" d="M-43.8-270.3c-0.3,0-0.5-0.2-0.6-0.4l-2.6-5.7c-0.2-0.3,0-0.7,0.3-0.9
					c0.3-0.2,0.7,0,0.9,0.3l2.6,5.7c0.2,0.3,0,0.7-0.3,0.9C-43.6-270.3-43.7-270.3-43.8-270.3L-43.8-270.3z"/>
			</g>
		</g>
		<g id="그룹_1597_1_" transform="translate(28.37 35.226)">
			<path id="사각형_515_1_" class="st2" d="M-41.6-277.7l8.4,1l0,0l-0.7,5.9c-0.3,2.3-2.3,3.9-4.6,3.7l0,0l-4.2-0.5
				c-2.3-0.3-3.9-2.3-3.7-4.6l0.2-1.7C-46-276.3-43.9-277.9-41.6-277.7L-41.6-277.7z"/>
			<path id="패스_1517_1_" class="st1" d="M-38.8-266.2c-0.2,0-0.5,0-0.7,0l0,0l-2.5-0.3c-3.3-0.4-5.7-3.3-5.4-6.7
				c0.4-3.3,3.3-5.7,6.7-5.4c0,0,0.1,0,0.1,0l7.5,0.9c0.5,0.1,0.9,0.6,0.9,1.1c0,0,0,0,0,0l-0.6,5
				C-33.2-268.5-35.8-266.2-38.8-266.2L-38.8-266.2z M-39.3-268.3c2.2,0.3,4.2-1.3,4.5-3.5c0,0,0,0,0,0l0.5-4l-6.5-0.8
				c-2.2-0.2-4.2,1.4-4.4,3.6c-0.2,2.2,1.3,4.1,3.5,4.4L-39.3-268.3z"/>
		</g>
		<g id="그룹_1598_1_" transform="translate(7.797 32.335)">
			<path id="사각형_516_1_" class="st2" d="M-40.5-266.9l-4.3-0.5c-2.3-0.3-3.9-2.3-3.7-4.6l0.7-5.9l0,0l8.4,1
				c2.3,0.3,3.9,2.3,3.7,4.6l-0.2,1.7C-36.2-268.3-38.2-266.6-40.5-266.9L-40.5-266.9z"/>
			<path id="패스_1518_1_" class="st1" d="M-40.8-266c-0.2,0-0.5,0-0.7,0l-2.5-0.3l0,0c-3.3-0.4-5.7-3.4-5.3-6.7l0.6-5
				c0.1-0.5,0.6-0.9,1.1-0.9l7.5,0.9c3.3,0.4,5.7,3.4,5.3,6.7C-35.2-268.3-37.7-266-40.8-266L-40.8-266z M-43.8-268.3l2.5,0.3
				c1.1,0.1,2.1-0.2,3-0.8c1.7-1.4,2-3.9,0.6-5.7c-0.7-0.8-1.6-1.4-2.7-1.5l-6.5-0.8l-0.5,4C-47.6-270.5-46-268.5-43.8-268.3
				L-43.8-268.3z"/>
		</g>
	</g>
	<g id="그룹_1600_1_" transform="translate(318.957 2438.124)">
		<path id="패스_1519_1_" class="st1" d="M-25.8-249.6c-20.9,0-27.8-20-27.9-20.2c-0.1-0.3,0.1-0.7,0.4-0.8s0.7,0.1,0.8,0.4
			c0.1,0.2,7.2,20.8,28.9,19.2c0.4,0,0.7,0.3,0.7,0.6c0,0.4-0.2,0.7-0.6,0.7C-24.2-249.6-25-249.6-25.8-249.6z"/>
	</g>
	<g id="그룹_1612_1_" transform="translate(341.424 2444.947)">
		<g id="그룹_1610_1_">
			<g id="그룹_1601_1_">
				<path id="사각형_517_1_" class="st8" d="M-46.6-269h46.2c2.2,0,4,1.8,4,4l0,0v42.9l0,0h-54.1l0,0v-42.9
					C-50.6-267.3-48.8-269-46.6-269L-46.6-269z"/>
				<path id="패스_1520_1_" class="st1" d="M3.5-221.2h-54.1c-0.5,0-1-0.4-1-1v-42c0-3.2,2.6-5.8,5.8-5.8h0h44.5
					c3.2,0,5.8,2.6,5.8,5.8l0,0v42C4.5-221.6,4.1-221.2,3.5-221.2C3.5-221.2,3.5-221.2,3.5-221.2z M-49.6-223.2H2.5v-41.1
					c0-2.1-1.7-3.8-3.8-3.8h-44.5c-2.1,0-3.8,1.7-3.8,3.8L-49.6-223.2z"/>
			</g>
			<g id="그룹_1602_1_" transform="translate(5.138 5.35)">
				<path id="사각형_518_1_" class="st8" d="M-47.4-268.9h1.3c1.7,0,3,1.4,3,3v20.4c0,1.7-1.4,3-3,3h-1.3c-1.7,0-3-1.4-3-3v-20.4
					C-50.4-267.5-49.1-268.9-47.4-268.9z"/>
				<path id="패스_1521_1_" class="st1" d="M-46.8-241.8c-2.4,0-4.3-1.9-4.3-4.3v-19.1c0-2.4,1.9-4.3,4.3-4.3
					c2.4,0,4.3,1.9,4.3,4.3v19.1C-42.4-243.7-44.4-241.8-46.8-241.8z M-46.8-268.2c-1.7,0-3,1.3-3,3v19.1c0,1.7,1.3,3,3,3
					c1.7,0,3-1.3,3-3v-19.1C-43.8-266.9-45.1-268.2-46.8-268.2L-46.8-268.2z"/>
			</g>
			<g id="그룹_1603_1_" transform="translate(20.727 6.088)">
				<circle id="타원_123_1_" class="st5" cx="-46.1" cy="-266" r="2.8"/>
				<path id="패스_1522_1_" class="st1" d="M-46.1-262.5c-1.9,0-3.5-1.6-3.5-3.5c0-1.9,1.6-3.5,3.5-3.5c1.9,0,3.5,1.6,3.5,3.5
					C-42.6-264.1-44.2-262.5-46.1-262.5z M-46.1-268.1c-1.2,0-2.2,1-2.2,2.2c0,1.2,1,2.2,2.2,2.2c1.2,0,2.1-1,2.2-2.1
					C-44-267.2-44.9-268.1-46.1-268.1L-46.1-268.1z"/>
			</g>
			<g id="그룹_1604_1_" transform="translate(29.518 6.088)">
				<circle id="타원_124_1_" class="st5" cx="-45.3" cy="-266" r="2.8"/>
				<path id="패스_1523_1_" class="st1" d="M-45.3-262.5c-1.9,0-3.5-1.6-3.5-3.5c0-1.9,1.6-3.5,3.5-3.5c1.9,0,3.5,1.6,3.5,3.5
					C-41.8-264.1-43.4-262.5-45.3-262.5z M-45.3-268.1c-1.2,0-2.2,1-2.2,2.2c0,1.2,1,2.2,2.2,2.2c1.2,0,2.1-1,2.2-2.1
					C-43.1-267.2-44.1-268.1-45.3-268.1L-45.3-268.1z"/>
			</g>
			<g id="그룹_1605_1_" transform="translate(38.309 6.088)">
				<circle id="타원_125_1_" class="st5" cx="-44.4" cy="-266" r="2.8"/>
				<path id="패스_1524_1_" class="st1" d="M-44.4-262.5c-1.9,0-3.5-1.6-3.5-3.5s1.6-3.5,3.5-3.5c1.9,0,3.5,1.6,3.5,3.5
					C-41-264.1-42.5-262.5-44.4-262.5z M-44.4-268.1c-1.2,0-2.2,1-2.2,2.2c0,1.2,1,2.2,2.2,2.2c1.2,0,2.1-1,2.2-2.1
					C-42.3-267.2-43.2-268.1-44.4-268.1L-44.4-268.1z"/>
			</g>
			<g id="그룹_1606_1_" transform="translate(20.727 14.879)">
				<circle id="타원_126_1_" class="st5" cx="-46.1" cy="-265.1" r="2.8"/>
				<path id="패스_1525_1_" class="st1" d="M-46.1-261.7c-1.9,0-3.5-1.6-3.5-3.5c0-1.9,1.6-3.5,3.5-3.5c1.9,0,3.5,1.6,3.5,3.5
					C-42.6-263.2-44.2-261.7-46.1-261.7z M-46.1-267.3c-1.2,0-2.2,1-2.2,2.2c0,1.2,1,2.2,2.2,2.2c1.2,0,2.2-1,2.2-2.2l0,0
					C-44-266.3-44.9-267.3-46.1-267.3L-46.1-267.3z"/>
			</g>
			<g id="그룹_1607_1_" transform="translate(29.518 14.879)">
				<circle id="타원_127_1_" class="st5" cx="-45.3" cy="-265.1" r="2.8"/>
				<path id="패스_1526_1_" class="st1" d="M-45.3-261.7c-1.9,0-3.5-1.6-3.5-3.5c0-1.9,1.6-3.5,3.5-3.5c1.9,0,3.5,1.6,3.5,3.5
					C-41.8-263.2-43.4-261.7-45.3-261.7z M-45.3-267.3c-1.2,0-2.2,1-2.2,2.2c0,1.2,1,2.2,2.2,2.2c1.2,0,2.2-1,2.2-2.2l0,0
					C-43.1-266.3-44.1-267.3-45.3-267.3L-45.3-267.3z"/>
			</g>
			<g id="그룹_1608_1_" transform="translate(38.309 14.879)">
				<circle id="타원_128_1_" class="st5" cx="-44.4" cy="-265.1" r="2.8"/>
				<path id="패스_1527_1_" class="st1" d="M-44.4-261.7c-1.9,0-3.5-1.6-3.5-3.5c0-1.9,1.6-3.5,3.5-3.5c1.9,0,3.5,1.6,3.5,3.5
					C-41-263.2-42.5-261.7-44.4-261.7z M-44.4-267.3c-1.2,0-2.2,1-2.2,2.2c0,1.2,1,2.2,2.2,2.2s2.2-1,2.2-2.2l0,0
					C-42.3-266.3-43.2-267.3-44.4-267.3L-44.4-267.3z"/>
			</g>
			<g id="그룹_1609_1_" transform="translate(20.727 24.335)">
				<path id="사각형_519_1_" class="st5" d="M-47.5-267.1h22c0.8,0,1.4,0.6,1.4,1.4v2.8c0,0.8-0.6,1.4-1.4,1.4h-22
					c-0.8,0-1.4-0.6-1.4-1.4v-2.8C-48.9-266.4-48.3-267.1-47.5-267.1z"/>
				<path id="패스_1528_1_" class="st1" d="M-25.8-260.8h-21.4c-1.3,0-2.4-1.1-2.4-2.4v-2.2c0-1.3,1.1-2.4,2.4-2.4h21.4
					c1.3,0,2.4,1.1,2.4,2.4v2.2C-23.4-261.8-24.4-260.8-25.8-260.8z M-47.2-266.4c-0.6,0-1.1,0.5-1.1,1.1v2.2c0,0.6,0.5,1.1,1.1,1.1
					h21.4c0.6,0,1.1-0.5,1.1-1.1v-2.2c0-0.6-0.5-1.1-1.1-1.1H-47.2z"/>
			</g>
		</g>
		<g id="그룹_1611_1_" transform="translate(0.303 34.413)">
			<path id="패스_1529_1_" class="st1" d="M3.2-260.7c-0.4,0-0.7-0.3-0.7-0.7c0,0,0,0,0,0c0-2.3-1.8-4.1-4.1-4.1h-44.6
				c-2.3,0-4.1,1.8-4.1,4.1c0,0.4-0.3,0.7-0.6,0.7s-0.7-0.3-0.7-0.6c0,0,0,0,0-0.1c0-3,2.4-5.4,5.4-5.4h44.6c3,0,5.4,2.4,5.4,5.4
				C3.9-261,3.6-260.7,3.2-260.7C3.2-260.7,3.2-260.7,3.2-260.7z"/>
		</g>
	</g>
</g>
</svg>
