<?xml version="1.0" encoding="utf-8"?>
<!-- Generator: Adobe Illustrator 25.2.1, SVG Export Plug-In . SVG Version: 6.00 Build 0)  -->
<svg version="1.1" id="Layer_1" xmlns="http://www.w3.org/2000/svg" xmlns:xlink="http://www.w3.org/1999/xlink" x="0px" y="0px"
	 viewBox="0 0 262.8 200" style="enable-background:new 0 0 262.8 200;" xml:space="preserve">
<style type="text/css">
	.st0{fill:#0055FF;}
	.st1{fill:#323242;}
	.st2{fill:#FBEDE3;}
	.st3{fill:#B5B5B6;}
	.st4{fill:#9FA0B4;}
	.st5{fill:none;}
	.st6{fill:#FFFFFF;stroke:#323242;stroke-width:1.6446;stroke-linecap:round;stroke-linejoin:round;}
	.st7{fill:#FFFFFF;}
	.st8{fill:#DCDDEB;}
	.st9{fill:#FFE100;}
	.st10{fill:#43434C;}
	.st11{fill:#C9CACA;}
</style>
<g id="그룹_1193" transform="translate(-821.891 -1097.308)">
	<g id="그룹_1122" transform="translate(1055.064 1476.068)">
		<path id="패스_993" class="st0" d="M-17.6-220.6c-0.7-20,7.9-50.2-23.9-57.6c-18.6-4.3-48.3-2-49.1,23.9v33.6"/>
		<path id="패스_994" class="st1" d="M-17.6-219.6c-0.6,0-1-0.4-1-1c-0.1-3.6,0.1-7.6,0.2-11.7c0.9-18.2,1.8-39-23.4-44.9
			c-11.6-2.7-28.9-3-39.3,5.1c-5.4,4.2-8.4,10.3-8.5,17.9v33.6c0,0.6-0.4,1-1,1s-1-0.4-1-1v-33.6c0.2-8.4,3.4-14.9,9.4-19.5
			c11.1-8.5,29-8.2,40.9-5.4c26.9,6.3,25.8,28.9,25,47c-0.2,4.1-0.3,8-0.2,11.6C-16.5-220-16.9-219.6-17.6-219.6L-17.6-219.6z"/>
	</g>
	<g id="그룹_1123" transform="translate(1090.718 1506.008)">
		<path id="패스_995" class="st1" d="M-78.2-249.6h-0.1c-5.8-0.8-9.4-3.6-9.4-7.3c0-3.5,3.8-8.2,14.5-10.1v-9.7c0-0.6,0.4-1,1-1
			c0.6,0,1,0.4,1,1v10.6c0,0.6-0.3,0.9-0.9,1c-9.4,1.4-13.6,5.1-13.6,8.2c0,2.5,3.1,4.8,7.6,5.3c0.6,0.1,1,0.6,0.9,1.1
			C-77.3-249.9-77.7-249.6-78.2-249.6L-78.2-249.6z"/>
	</g>
	<g id="그룹_1124" transform="translate(1078.616 1471.465)">
		<path id="패스_996" class="st2" d="M-80.8-266.1c-7.7,0.1-7.4-8.8-7.1-14.3h14.2C-73.4-274.9-73.1-266-80.8-266.1z"/>
		<path id="패스_997" class="st1" d="M-81-265.1c-2,0.1-4-0.7-5.4-2.1c-3.2-3.3-2.8-9.7-2.7-13.3c0-0.6,0.4-1,1-1h14.4
			c0.6,0,1,0.4,1,1c0.2,3.4,0.6,10-2.7,13.3c-1.4,1.4-3.4,2.2-5.5,2.1H-81z M-87-279.3c-0.1,3.3-0.2,8.3,2.1,10.7
			c1.1,1.1,2.5,1.5,4.1,1.4l0,0c1.5,0.1,3-0.4,4.1-1.4c2.3-2.4,2.2-7.5,2.1-10.7H-87z"/>
	</g>
	<g id="그룹_1137" transform="translate(1057.122 1419.74)">
		<g id="그룹_1134">
			<g id="그룹_1125" transform="translate(44.406 11.497)">
				<path id="패스_998" class="st3" d="M-83.4-284.6c12.9-0.1,11.9,7.7,10.3,18l-12.4-1.3L-83.4-284.6z"/>
				<path id="패스_999" class="st1" d="M-73.1-265.6C-73.2-265.6-73.2-265.6-73.1-265.6l-12.5-1.3c-0.6-0.1-1-0.6-0.9-1.1l0,0
					l2.1-16.7c0.1-0.6,0.4-0.9,1-0.9c4.9,0,8.2,1,10.1,3.3c3.1,3.6,2.2,9.6,1.2,15.9C-72.3-265.9-72.7-265.6-73.1-265.6z
					 M-84.4-268.8l10.4,1.1c0.8-5.3,1.4-10.6-0.9-13.4c-1.4-1.7-4-2.5-7.6-2.5L-84.4-268.8z"/>
			</g>
			<g id="그룹_1126" transform="translate(3.629 7.557)">
				<path id="패스_1000" class="st3" d="M-90-267.5c1.2-10.4-0.3-20.4,14.2-16.8l-1.8,16.5C-77.6-267.9-90.3-268.1-90-267.5z"/>
				<path id="패스_1001" class="st1" d="M-90-266.6c-0.3,0-0.6-0.1-0.8-0.3c-0.2-0.2-0.2-0.7-0.2-0.9c0.1-1.3,0.2-2.7,0.3-4
					c0.4-5.5,0.9-10.3,4.2-12.7c2.3-1.7,5.9-1.9,10.7-0.8c0.4,0.1,0.8,0.6,0.8,1.1l-1.8,16.5c-0.1,0.6-0.6,0.9-1,0.9
					c-5-0.1-10.5-0.1-11.7,0.1c-0.1,0.1-0.2,0.1-0.3,0.1C-89.7-266.6-89.8-266.6-90-266.6z M-81-284c-1.4-0.1-2.9,0.3-4.2,1.1
					c-2.7,1.9-3,6.2-3.4,11.3c-0.1,0.9-0.1,1.9-0.2,2.9c1.7-0.1,4.6-0.1,10.3,0l1.7-14.7C-78.2-283.8-79.6-284-81-284L-81-284z"/>
			</g>
			<g id="그룹_1127" transform="translate(10.087)">
				<path id="패스_1002" class="st2" d="M-71.5-223.1c-10.9-1.2-18.9-11.1-17.7-22l0,0c1.4-15.9,1.4-43.1,24.6-40.6
					c10.9,1.2,18.9,11.1,17.7,22l0,0C-48.4-247.8-48.4-220.6-71.5-223.1z"/>
				<path id="패스_1003" class="st1" d="M-68.6-221.9c-1,0-2-0.1-3-0.2l0,0c-11.5-1.2-19.8-11.6-18.6-23.1l0,0
					c0.1-1.3,0.2-2.9,0.3-4.4c0.9-11.7,2.1-26.3,10.5-33.3c3.8-3.1,8.7-4.4,14.7-3.8c11.5,1.2,19.8,11.6,18.6,23.1l0,0
					c-0.1,1.3-0.2,2.9-0.3,4.4c-0.9,11.7-2.1,26.3-10.5,33.3C-60.2-223.2-64.3-221.8-68.6-221.9z M-71.4-224.1
					c5.5,0.6,9.8-0.4,13.3-3.3c7.7-6.4,8.8-20.6,9.8-32c0.1-1.5,0.2-3,0.3-4.4c1.1-10.4-6.3-19.8-16.7-20.9l0,0
					c-5.5-0.6-9.8,0.4-13.3,3.3c-7.7,6.4-8.8,20.6-9.8,32c-0.1,1.5-0.2,3-0.3,4.4C-89.3-234.6-81.8-225.3-71.4-224.1L-71.4-224.1
					L-71.4-224.1z"/>
			</g>
			<g id="그룹_1128" transform="translate(14.719 32.247)">
				<path id="패스_1004" class="st3" d="M-64.2-272.1l-8.4-0.9l-3.6-3.9l-4.1,3l-8.4-0.9C-88.2-286.7-62.2-283.8-64.2-272.1z"/>
				<path id="패스_1005" class="st1" d="M-64.2-271.1C-64.2-271.1-64.3-271.1-64.2-271.1l-8.5-0.9c-0.2,0-0.4-0.1-0.7-0.3l-3-3.2
					l-3.4,2.5c-0.2,0.1-0.4,0.2-0.7,0.2l-8.4-0.9c-0.6-0.1-0.9-0.6-0.9-1.1c0.1-3.2,2.2-6,5.1-7.2c5.3-2.4,13.3-1.5,17.9,2
					c2.7,1.8,4,5,3.4,8.2C-63.3-271.5-63.8-271.1-64.2-271.1z M-72.2-274l7,0.8c0-2.1-1.1-4.1-2.8-5.2c-4-3.1-11.3-3.9-15.8-1.8
					c-2,0.8-3.4,2.4-3.9,4.5l7,0.8l3.8-2.8c0.4-0.3,1-0.2,1.3,0.1L-72.2-274z"/>
			</g>
			<g id="그룹_1129" transform="translate(20.135 44.191)">
				<path id="패스_1006" class="st1" d="M-81.6-277.3c-2.9,0-5.5-1.2-7.4-3.3c-0.3-0.4-0.2-1.1,0.2-1.4c0.4-0.3,1.1-0.2,1.4,0.2
					c0.2,0.2,4,4.9,10.9,1.1c0.6-0.2,1.1,0,1.3,0.4s0.1,1.1-0.4,1.3C-77.3-277.8-79.4-277.3-81.6-277.3z"/>
			</g>
			<g id="그룹_1130" transform="translate(0 21.236)">
				<path id="패스_1007" class="st2" d="M-79.3-266.2c-16,0.6-13.7-21,1.9-16.9L-79.3-266.2z"/>
				<path id="패스_1008" class="st1" d="M-79.9-265.2c-4.9,0-8.6-2-10.4-5.5c-1.7-3.4-1.2-7.4,1.1-10.4c2.7-3.2,7-4.3,11.9-3
					c0.4,0.1,0.8,0.6,0.8,1.1l-1.9,16.9c0,0.6-0.4,0.9-1,0.9C-79.5-265.2-79.7-265.2-79.9-265.2z M-81.2-282.6
					c-2.4-0.1-4.9,0.9-6.4,2.8c-1.9,2.3-2.2,5.5-0.9,8.2c1.3,2.8,4.4,4.3,8.3,4.4l1.7-15.2C-79.4-282.5-80.3-282.6-81.2-282.6
					L-81.2-282.6z"/>
			</g>
			<g id="그룹_1131" transform="translate(46.294 25.683)">
				<path id="패스_1009" class="st2" d="M-85.4-266.2c15.6,4.1,17.9-17.5,1.9-16.9L-85.4-266.2z"/>
				<path id="패스_1010" class="st1" d="M-81.7-264.7c-1.3,0-2.7-0.2-4-0.6c-0.4-0.1-0.8-0.6-0.8-1.1l1.9-16.9
					c0-0.6,0.4-0.9,1-0.9c5.2-0.2,9.2,1.8,11.1,5.5c1.7,3.4,1.2,7.4-1.1,10.4C-75.6-265.8-78.6-264.6-81.7-264.7z M-84.3-267
					c3.9,0.8,7.1-0.1,9.1-2.5c1.9-2.3,2.2-5.5,0.9-8.2c-1.3-2.8-4.4-4.3-8.3-4.4L-84.3-267z"/>
			</g>
			<g id="그룹_1132" transform="translate(16.11 25.82)">
				<path id="패스_1011" class="st1" d="M-84.8-281.5c-0.3,3.1-5.2,2.5-4.8-0.6C-89.3-285.2-84.4-284.6-84.8-281.5z"/>
			</g>
			<g id="그룹_1133" transform="translate(34.165 27.806)">
				<path id="패스_1012" class="st1" d="M-82.8-281.3c-0.3,3.1-5.2,2.5-4.8-0.6C-87.4-285-82.5-284.4-82.8-281.3z"/>
			</g>
		</g>
		<g id="그룹_1135" transform="translate(33.954 19.329)">
			<path id="사각형_484" class="st3" d="M-82.5-284.2l1.7,0.2c2,0.3,3.3,2.2,3.1,4.2l0,0L-78-278l0,0l-8.8-1.3l0,0l0.2-1.8
				C-86.4-283.1-84.5-284.5-82.5-284.2z"/>
			<path id="패스_1013" class="st1" d="M-78.2-277.4L-78.2-277.4l-9-1.3c-0.3-0.1-0.7-0.4-0.6-0.8l0.1-1c0.4-2.8,3.1-4.8,5.9-4.3
				c2.8,0.4,4.8,3.1,4.3,5.9l-0.1,1C-77.6-277.6-77.9-277.4-78.2-277.4z M-86.3-279.9l7.5,1.2v-0.3c0.3-2.1-1.1-4-3.2-4.3
				c-2.1-0.3-4,1.1-4.3,3.2V-279.9z"/>
		</g>
		<g id="그룹_1136" transform="translate(15.223 17.38)">
			<path id="사각형_485" class="st3" d="M-85.2-284.4l1.7,0.1c2,0.1,3.6,1.8,3.5,3.8l0,0l-0.1,1.8l0,0l-9-0.3l0,0l0.1-1.8
				C-88.9-282.9-87.2-284.4-85.2-284.4z"/>
			<path id="패스_1014" class="st1" d="M-80.1-278L-80.1-278l-9-0.3c-0.3,0-0.7-0.3-0.7-0.7v-1c0.1-2.9,2.4-5.1,5.3-5
				c2.9,0.1,5.1,2.4,5,5.3l0,0v1C-79.4-278.3-79.7-278-80.1-278L-80.1-278z M-88.3-279.7l7.6,0.2v-0.3c0.1-2.1-1.5-3.9-3.6-4
				s-3.9,1.5-4,3.6v0.1V-279.7z"/>
		</g>
	</g>
	<g id="그룹_1138" transform="translate(938.037 1546.12)">
		<path id="패스_1015" class="st4" d="M-27.3-254.5H-103v-17.9h97.8c1.2,0,2.3,1,2.3,2.3c0,0.8-0.4,1.5-1.1,2L-27.3-254.5z"/>
		<path id="패스_1016" class="st1" d="M-27.3-253.5H-103c-0.6,0-1-0.4-1-1v-17.9c0-0.6,0.4-1,1-1h97.8c1.9,0,3.3,1.5,3.3,3.3
			c0,1.2-0.7,2.2-1.7,2.9l-23.2,13.7C-26.9-253.5-27.1-253.5-27.3-253.5z M-102-255.5h74.3L-4.5-269c0.7-0.3,0.8-1.1,0.4-1.8
			c-0.2-0.4-0.7-0.7-1.1-0.7h-96.7L-102-255.5z"/>
	</g>
	<g id="그룹_1139" transform="translate(943.074 1529.715)">
		<line id="선_60" class="st5" x1="-102.4" y1="-274.2" x2="136.5" y2="-274.2"/>
		<path id="패스_1017" class="st1" d="M136.4-273.2h-238.7c-0.6,0-1.1-0.3-1.1-0.9c0-0.6,0.3-1.1,0.9-1.1c0.1,0,0.1,0,0.2,0h238.7
			c0.6,0,1.1,0.3,1.1,0.9c0,0.6-0.3,1.1-0.9,1.1C136.5-273.2,136.5-273.2,136.4-273.2z"/>
	</g>
	<g id="그룹_1140" transform="translate(980.201 1530.57)">
		<path id="패스_1018" class="st6" d="M-99.5-275.1"/>
	</g>
	<g id="그룹_1141" transform="translate(980.201 1500.182)">
		<path id="패스_1019" class="st6" d="M-99.5-278.3"/>
	</g>
	<g id="그룹_1142" transform="translate(974.806 1476.83)">
		<path id="패스_1020" class="st7" d="M-99.1-239.3c0.6-17.5,2.7-34.6,25.9-39.6c6.4-1.3,18.5-1.1,24.7,0
			c28.5,4.9,24.7,31.4,24,51.3c-0.1,4.1-2,7.9-5.3,10.4l-15.8,10.7l-11.8-11.5l13.2-8.6v-12.7"/>
		<path id="패스_1021" class="st1" d="M-45.6-205.6c-0.2,0-0.6-0.1-0.7-0.3l-11.8-11.4c-0.4-0.4-0.4-1,0-1.4c0,0,0.1-0.1,0.2-0.1
			l12.7-8.3v-12.2c0-0.6,0.4-1,1-1c0.6,0,1,0.4,1,1v12.7c0,0.3-0.2,0.7-0.4,0.9l-12.2,8l10.3,10.1l15.2-10.3c3-2.3,4.8-5.8,4.8-9.5
			c0-1.8,0.1-3.5,0.2-5.4c0.9-19,1.8-40.6-23.3-44.9c-6.2-1.1-18.1-1.2-24.3,0c-22.3,4.8-24.6,21-25.1,38.6c0,0.6-0.4,1-1,1
			s-1-0.4-1-1c0.6-17.7,3-35.5,26.7-40.5c6.4-1.3,18.6-1.2,25,0c26.9,4.5,25.9,28.1,25,47c-0.1,1.9-0.1,3.6-0.2,5.3
			c-0.1,4.3-2.2,8.4-5.6,11.2l-15.9,10.7C-45.2-205.6-45.4-205.6-45.6-205.6z"/>
	</g>
	<g id="그룹_1143" transform="translate(1002.698 1471.822)">
		<path id="패스_1022" class="st2" d="M-89-266.5c-7.5,0.1-7.2-8.5-7-13.8h13.8C-81.8-275-81.5-266.4-89-266.5z"/>
		<path id="패스_1023" class="st1" d="M-89.1-265.5c-2,0.1-3.9-0.7-5.2-2c-3.1-3.2-2.8-9.5-2.5-12.9c0-0.6,0.4-1,1-1h13.8
			c0.6,0,1,0.4,1,1c0.2,3.4,0.6,9.6-2.5,12.9c-1.4,1.4-3.4,2.2-5.4,2H-89.1z M-95-279.3c-0.1,3.2-0.2,8.1,2,10.4
			c1,1,2.4,1.5,3.9,1.4l0,0c1.4,0.1,2.9-0.4,3.9-1.4c2.2-2.3,2.2-7.2,2-10.4H-95z"/>
	</g>
	<g id="그룹_1144" transform="translate(1005.787 1531.406)">
		<path id="패스_1024" class="st2" d="M-94.1-259.2c-2.7-3.9-2.3-9.4,2.2-11.6c4.5-2.9,11.3-5.6,15,0.4c2.8,4.5,2.3,9.4-2.2,11.6
			C-83.6-256-90.9-252.8-94.1-259.2z"/>
		<path id="패스_1025" class="st1" d="M-88.3-254.4c-0.8,0-1.4-0.1-2.2-0.3c-2-0.6-3.6-2.1-4.5-4c-1.7-2.3-2.2-5.2-1.5-7.9
			c0.6-2.2,2.1-4.1,4.2-5.1c4.4-2.8,8.2-3.8,11.3-3.1c2.2,0.6,4.1,2,5.2,3.9c1.7,2.4,2.2,5.3,1.5,8.2c-0.7,2.1-2.2,3.9-4.2,4.9
			C-81.2-256.2-84.8-254.4-88.3-254.4z M-83.1-273c-2.3,0-5.1,1-8.3,3.1c-1.5,0.8-2.8,2.1-3.2,3.9c-0.4,2.2,0,4.5,1.3,6.3l0.1,0.1
			c0.6,1.4,1.8,2.5,3.3,3c3.1,0.9,7.4-1.1,10.3-3c1.5-0.7,2.8-2,3.2-3.6c0.4-2.3,0-4.6-1.3-6.5c-0.8-1.5-2.2-2.5-3.9-3
			C-82.1-273-82.5-273-83.1-273L-83.1-273z"/>
	</g>
	<g id="그룹_1145" transform="translate(1048.937 1514.819)">
		<path id="패스_1026" class="st2" d="M-84.6-257.4c4.1,0.6,8.4-2,8.3-6.4c0.4-4.8,0-11.9-6.4-11.8c-4.1-0.6-8.4,2-8.3,6.4
			C-91.4-264.5-91-257.3-84.6-257.4z"/>
		<path id="패스_1027" class="st1" d="M-83.5-256.3c-0.4,0-0.8,0-1.2-0.1c-1.9,0.1-3.8-0.7-5.1-2c-2.4-2.7-2.7-7.4-2.3-10.9
			c0-2.1,0.9-4,2.4-5.4c2-1.7,4.5-2.3,7-2c1.9-0.1,3.8,0.7,5.1,2c2.4,2.7,2.7,7.4,2.3,10.9c0,2.1-0.9,4-2.4,5.4
			C-79.3-257.1-81.4-256.3-83.5-256.3z M-84.6-258.4h0.1c2,0.3,4-0.2,5.4-1.5c1.1-1,1.8-2.4,1.8-4c0.2-3.2,0.2-7.3-1.8-9.4
			c-1-1-2.3-1.4-3.6-1.3h-0.1c-2-0.3-4,0.2-5.4,1.5c-1.1,1-1.8,2.4-1.8,4c-0.2,3.2-0.2,7.3,1.8,9.4C-87.3-258.8-86-258.3-84.6-258.4
			L-84.6-258.4z"/>
	</g>
	<g id="그룹_1146" transform="translate(1087.299 1516.594)">
		<path id="패스_1028" class="st2" d="M-78.6-257.2c-4.1,0.6-8.4-2-8.3-6.4c-0.4-4.8,0-11.9,6.4-11.8c4.1-0.6,8.4,2,8.3,6.4
			C-71.8-264.3-72.2-257.1-78.6-257.2z"/>
		<path id="패스_1029" class="st1" d="M-79.8-256.1c-2.1,0-4.2-0.7-5.8-2.1c-1.5-1.3-2.4-3.4-2.4-5.5c-0.3-3.4-0.1-8.2,2.3-10.8
			c1.3-1.3,3.2-2.1,5.1-2c2.5-0.3,5.1,0.3,7,2c1.5,1.3,2.4,3.4,2.4,5.5c0.3,3.4,0.1,8.2-2.3,10.8c-1.3,1.3-3.1,2.1-5,2h-0.1
			C-79-256.2-79.4-256.1-79.8-256.1z M-80.6-274.5c-1.3-0.1-2.7,0.4-3.5,1.3c-2,2.1-2.1,6.3-1.8,9.4c-0.1,1.5,0.6,3,1.8,4.1
			c1.5,1.2,3.5,1.8,5.4,1.5h0.1c1.3,0.1,2.7-0.3,3.6-1.3c2-2.1,2.1-6.3,1.8-9.4c0.1-1.5-0.6-3-1.8-4.1c-1.5-1.2-3.5-1.8-5.4-1.5
			h-0.1H-80.6z"/>
	</g>
	<g id="그룹_1153" transform="translate(932.267 1513.396)">
		<g id="그룹_1147">
			<path id="사각형_486" class="st8" d="M-97.9-275.9h70.8c3.1,0,5.5,2.4,5.5,5.5l0,0v48.6l0,0h-81.8l0,0v-48.6
				C-103.6-273.5-101-275.9-97.9-275.9L-97.9-275.9z"/>
			<path id="패스_1030" class="st1" d="M-21.7-220.8h-81.8c-0.6,0-1-0.4-1-1v-47.3c0-4.3,3.5-7.7,7.7-7.9h68.2
				c4.3,0,7.7,3.5,7.7,7.9v47.3C-20.6-221.3-21.2-220.8-21.7-220.8z M-102.5-222.8h79.9v-46.3c0-3.2-2.5-5.8-5.8-5.8h-68.2
				c-3.2,0-5.8,2.5-5.8,5.8L-102.5-222.8z"/>
		</g>
	</g>
	<g id="그룹_1155" transform="translate(1113.379 1391.286)">
		<g id="그룹_1154">
			<path id="패스_1034" class="st7" d="M-76.2-245c-10.3-9.5-10.9-25.4-1.4-35.7s25.4-10.9,35.7-1.4c10.3,9.5,10.9,25.4,1.4,35.7
				c-6.9,7.4-17.4,10.1-26.9,6.7c-8.6,3.9-13.7-0.2-13.7-0.2C-78.6-240.7-76.7-241.7-76.2-245z"/>
			<path id="패스_1035" class="st1" d="M-74.5-237.1c-2.5,0.1-5.1-0.7-7.2-2.2c-0.4-0.3-0.4-1-0.1-1.4c0.1-0.1,0.3-0.2,0.4-0.3
				c2.2-0.7,3.5-1.4,4.1-3.8c-5.9-5.6-8.7-13.7-7.9-21.8c1.5-14.4,14.6-24.9,29-23.2c14.4,1.7,24.9,14.6,23.2,29
				c-1.5,14.4-14.6,24.9-29,23.2c-1.8-0.2-3.6-0.6-5.3-1.1C-69.6-237.6-72-237.1-74.5-237.1z M-78.7-239.8c2,0.8,5.8,1.5,10.9-0.9
				c0.2-0.1,0.6-0.1,0.8,0c12.6,4.3,26.4-2.3,30.9-15c4.3-12.6-2.3-26.4-15-30.9c-12.6-4.3-26.4,2.3-30.9,15
				c-3.1,9.1-0.6,19.1,6.5,25.8c0.2,0.2,0.3,0.6,0.3,0.9C-75.4-242.7-76.7-240.8-78.7-239.8L-78.7-239.8z"/>
		</g>
		<g id="그룹_423" transform="translate(11.762 11.046)">
			<g id="그룹_418" transform="translate(0 4.726)">
				<g id="합치기_1">
					<path id="패스_1036" class="st7" d="M-58.6-287.2h-24.6v21.1h24.6V-287.2z"/>
					<path id="패스_1037" class="st1" d="M-58.6-265h-24.6c-0.6,0-1-0.4-1-1v-21.1c0-0.6,0.4-1,1-1h24.6c0.6,0,1,0.4,1,1v21.1
						C-57.6-265.5-58-265-58.6-265z M-82-267h22.5v-19.1H-82V-267z"/>
				</g>
				<g id="그룹_417" transform="translate(8.261 12.871)">
					<g id="사각형_283-2">
						<rect id="사각형_487" x="-82.6" y="-286.1" class="st9" width="6.9" height="7.3"/>
						<path id="패스_1038" class="st1" d="M-75.6-278.3h-6.9c-0.3,0-0.7-0.3-0.7-0.7l0,0v-7.3c0-0.3,0.3-0.7,0.7-0.7h6.9
							c0.3,0,0.7,0.3,0.7,0.7l0,0v7.3C-75-278.5-75.3-278.3-75.6-278.3L-75.6-278.3z M-81.9-279.6h5.5v-5.9h-5.5V-279.6z"/>
					</g>
				</g>
			</g>
			<g id="그룹_421" transform="translate(5.346)">
				<g id="사각형_375">
					<path id="사각형_488" class="st7" d="M-80.2-287.7h8.2c1.2,0,2.2,1,2.2,2.2v8.2c0,1.2-1,2.2-2.2,2.2h-8.2
						c-1.2,0-2.2-1-2.2-2.2v-8.2C-82.6-286.7-81.6-287.7-80.2-287.7z"/>
					<path id="패스_1039" class="st1" d="M-72.6-274.1h-7.2c-2.1,0-3.8-1.7-3.8-3.8v-7.2c0-2.1,1.7-3.8,3.8-3.8h7.2
						c2.1,0,3.8,1.7,3.8,3.8v7.2C-68.9-275.7-70.5-274.1-72.6-274.1z M-79.8-286.7c-1,0-1.7,0.8-1.8,1.8v7.2c0,1,0.8,1.7,1.8,1.8
						h7.2c1,0,1.7-0.8,1.7-1.8v-7.2c0-1-0.8-1.7-1.7-1.8H-79.8z"/>
				</g>
				<g id="패스_304" transform="translate(3.37 3.372)">
					<path id="패스_1040" class="st0" d="M-83.2-286h2.4v-2.4h2.4v2.4h2.4v2.4h-2.4v2.4h-2.4v-2.4h-2.4V-286z"/>
				</g>
			</g>
		</g>
	</g>
	<g id="그룹_1172" transform="translate(981.409 1419.014)">
		<g id="패스_821" transform="translate(0.976 38.727)">
			<path id="패스_1041" class="st10" d="M-93.6-280.8c1.1,8.8-4.5,8-4.5,8c1.7,3,4.5,5.1,8,5.6c12.8,1.2,4.9-14.2,4.4-14.6
				C-87.3-280.7-92.1-279.8-93.6-280.8z"/>
			<path id="패스_1042" class="st1" d="M-88.9-266.1c-0.4,0-1,0-1.4-0.1c-3.8-0.6-7.1-2.8-8.8-6.2c-0.1-0.3-0.1-0.8,0.1-1
				c0.2-0.3,0.6-0.4,1-0.4c0.9,0.1,1.7-0.2,2.3-0.8c1.1-1.1,1.4-3.1,1.1-6c-0.1-0.6,0.3-1.1,0.9-1.1c0.2,0,0.4,0,0.7,0.1
				c1.2,0.8,5.4,0,6.7-1c0.4-0.3,1-0.2,1.3,0.1c0.3,0.4,4.8,8.6,2.3,13.3C-83.8-267.1-85.9-266.1-88.9-266.1z M-96.5-272
				c1.5,2,3.9,3.3,6.4,3.8c2.9,0.2,4.6-0.3,5.5-1.8c1.7-2.9-0.6-8.4-1.5-10.5c-2,0.9-4.2,1.2-6.3,1.1c0.1,2.9-0.4,5-1.9,6.2
				C-94.9-272.5-95.7-272.2-96.5-272z"/>
		</g>
		<g id="패스_823" transform="translate(35.711 35.702)">
			<path id="패스_1043" class="st10" d="M-79.1-282.1c0,0,6.1,23.9-15.4,17.3c0,0,5.2-1.2,9-16.9C-83.6-280.6-81-280.7-79.1-282.1
				z"/>
			<path id="패스_1044" class="st1" d="M-87.8-262.6c-2.4,0-4.8-0.4-7-1.2c-0.6-0.2-0.9-0.8-0.7-1.2c0.1-0.3,0.4-0.6,0.8-0.7
				c0,0,4.6-1.5,8.2-16.1c0.1-0.6,0.7-0.9,1.2-0.8c0.1,0,0.2,0.1,0.3,0.1c1.7,1,3.8,0.9,5.3-0.3c0.2-0.2,0.7-0.2,1-0.1
				c0.3,0.1,0.6,0.3,0.7,0.7c0.1,0.4,3,11.9-2.7,17.1C-82.7-263.4-85.2-262.5-87.8-262.6z M-92.1-265.3c4.5,1.1,7.9,0.6,10-1.4
				c3.6-3.5,2.9-10.8,2.3-13.9c-1.7,0.8-3.4,0.8-5.1,0.2C-87.3-271.2-90.2-267.1-92.1-265.3L-92.1-265.3z"/>
		</g>
		<g id="그룹_1156" transform="translate(9.983 3.703)">
			<path id="패스_1045" class="st2" d="M-78.1-225.9c-10.4,0-18.9-8.5-18.9-18.9c-0.2-15.2-3.1-40.7,18.9-40.7
				c10.4,0,18.9,8.5,18.9,18.9C-58.9-251.6-56.1-225.9-78.1-225.9z"/>
			<path id="패스_1046" class="st1" d="M-78.1-224.9L-78.1-224.9c-10.9,0-19.9-9-19.9-19.9c0-1.3-0.1-2.7-0.1-4.2
				c-0.3-11.2-0.8-25.1,6.5-32.5c3.2-3.3,7.9-5.1,13.6-5.1c10.9,0,19.9,9,19.9,19.9c0,1.3,0.1,2.7,0.1,4.2
				c0.3,11.2,0.8,25.1-6.5,32.5C-67.8-226.6-72.3-224.9-78.1-224.9z M-78.1-284.5c-5.2,0-9.2,1.4-12.1,4.4
				c-6.6,6.9-6.2,20.2-5.9,31.1c0,1.4,0.1,2.9,0.1,4.2c0,9.8,8,17.9,17.9,17.9c5.2,0,9.2-1.4,12.1-4.4c6.6-6.9,6.2-20.2,5.9-31.1
				c0-1.4-0.1-2.9-0.1-4.2C-60.3-276.4-68.2-284.5-78.1-284.5z"/>
		</g>
		<g id="그룹_1157" transform="translate(22.971 46.93)">
			<path id="패스_1047" class="st1" d="M-91.1-278.6c-1.9,0-3.8-0.6-5.3-1.4c-0.4-0.3-0.6-0.9-0.3-1.4c0.3-0.4,0.9-0.6,1.3-0.3
				c0.2,0.1,4.2,2.5,8,0c0.4-0.3,1.1-0.1,1.4,0.3c0.3,0.4,0.2,1-0.2,1.3C-87.6-279.2-89.3-278.6-91.1-278.6z"/>
		</g>
		<g id="그룹_1158" transform="translate(25.326 35.671)">
			<path id="패스_1048" class="st1" d="M-92.8-274.4h-1.4c-1.3,0-2.4-1.1-2.4-2.4v-5.8c0-0.3,0.3-0.7,0.7-0.7s0.7,0.3,0.7,0.7v5.8
				c0,0.6,0.4,1.1,1.1,1.1h1.4c0.3,0,0.7,0.3,0.7,0.7S-92.5-274.4-92.8-274.4L-92.8-274.4z"/>
		</g>
		<g id="그룹_1159" transform="translate(22.97 35.365)">
			<path id="패스_1049" class="st1" d="M-87.3-281.2h-8.6c-0.6,0-1-0.4-1-1c0-0.6,0.4-1,1-1l0,0h8.6c0.6,0,1,0.4,1,1
				C-86.3-281.6-86.8-281.2-87.3-281.2L-87.3-281.2L-87.3-281.2z"/>
		</g>
		<g id="그룹_1160" transform="translate(3.969)">
			<path id="패스_1050" class="st10" d="M-64.9-283.8v13.3c0,0-4.8,10.8-26.1,13.5l-5.6,3.6C-96.6-253.3-107.5-295.7-64.9-283.8z"
				/>
			<path id="패스_1051" class="st1" d="M-96.6-252.3c-0.4,0-0.9-0.3-1-0.8c-0.2-0.8-4.9-19.4,4.8-28.8c5.8-5.6,15.3-6.6,28.2-3
				c0.4,0.1,0.8,0.6,0.8,1v13.3c0,0.1,0,0.3-0.1,0.4c-0.2,0.4-5.2,11.4-26.7,14l-5.4,3.5C-96.3-252.4-96.4-252.3-96.6-252.3z
				 M-78.3-284.9c-5.6,0-10.1,1.5-13.2,4.5c-7.3,7.2-5.4,21-4.5,25.4l4.4-2.9c0.1-0.1,0.3-0.1,0.4-0.1c18.9-2.3,24.4-11.4,25.2-12.7
				v-12.3C-70-284.2-74.1-284.8-78.3-284.9L-78.3-284.9z"/>
		</g>
		<g id="그룹_1161" transform="translate(0 26)">
			<path id="패스_1052" class="st2" d="M-87-266.9c-15,2.2-15-18.4,0-16.1V-266.9z"/>
			<path id="패스_1053" class="st1" d="M-89.2-265.7c-3.8,0-6.9-1.5-8.7-4.3c-1.9-3-1.9-6.9,0-10c2.1-3.3,6.2-4.9,11.1-4.1
				c0.4,0.1,0.9,0.6,0.9,1v16.1c0,0.6-0.3,0.9-0.9,1C-87.6-265.8-88.4-265.7-89.2-265.7z M-89.2-282.1c-2.8-0.2-5.4,1.1-7,3.3
				c-1.4,2.3-1.4,5.4,0,7.7c1.5,2.4,4.5,3.6,8.2,3.3V-282C-88.4-282.1-88.9-282.1-89.2-282.1L-89.2-282.1z"/>
		</g>
		<g id="그룹_1162" transform="translate(33.052 1.903)">
			<path id="패스_1054" class="st10" d="M-94.9-285.5v13.1c0,0,11.7-2.2,12.4,15.4l5,1.8C-77.5-255.2-67.7-288.8-94.9-285.5z"/>
			<path id="패스_1055" class="st1" d="M-77.5-254.2c-0.1,0-0.2,0-0.3-0.1l-5-1.8c-0.3-0.1-0.7-0.6-0.7-0.9
				c-0.2-6.1-1.8-10.3-4.6-12.6c-1.9-1.4-4.2-2.1-6.5-1.9c-0.3,0-0.6,0-0.8-0.2c-0.2-0.2-0.3-0.4-0.3-0.8v-13.1c0-0.6,0.3-1,0.9-1
				c7.3-0.9,12.6,0.8,16,4.8c7.5,8.8,2.5,26.1,2.3,26.8c-0.1,0.2-0.2,0.4-0.6,0.7C-77.2-254.3-77.4-254.2-77.5-254.2z M-81.5-257.7
				l3.2,1.2c0.9-3.8,3.5-17-2.2-23.9c-2.8-3.3-7.3-4.8-13.4-4.2v11.1c2.5,0,5,0.8,7,2.3C-83.7-268.6-81.8-264-81.5-257.7
				L-81.5-257.7z"/>
		</g>
		<g id="그룹_1163" transform="translate(44.412 26.001)">
			<path id="패스_1056" class="st2" d="M-93.7-266.9c15,2.2,15-18.4,0-16.1V-266.9z"/>
			<path id="패스_1057" class="st1" d="M-91.4-265.7c-0.8,0-1.5-0.1-2.3-0.2c-0.4-0.1-0.9-0.6-0.9-1V-283c0-0.6,0.3-0.9,0.9-1
				c4.9-0.8,8.8,0.8,11.1,4.1c1.9,3,1.9,6.9,0,10C-84.5-267.2-87.6-265.7-91.4-265.7z M-92.6-267.8c3.6,0.3,6.6-0.9,8.2-3.3
				c1.4-2.3,1.4-5.4,0-7.7c-1.5-2.4-4.5-3.6-8.2-3.3V-267.8z"/>
		</g>
		<g id="그룹_1166" transform="translate(17.323 42.406)">
			<g id="그룹_1164" transform="translate(0 0.001)">
				<path id="패스_1058" class="st1" d="M-96.9-275.8c-0.3,0-0.7-0.3-0.7-0.7c0-0.1,0-0.2,0.1-0.3l3.2-5.3
					c0.2-0.3,0.7-0.4,0.9-0.2c0.3,0.2,0.4,0.6,0.2,0.9l-3.2,5.3C-96.4-275.9-96.6-275.8-96.9-275.8z"/>
			</g>
			<g id="그룹_1165" transform="translate(16.697)">
				<path id="패스_1059" class="st1" d="M-91.8-275.8c-0.2,0-0.4-0.1-0.6-0.3l-3.2-5.3c-0.2-0.3-0.1-0.8,0.2-0.9
					c0.3-0.2,0.8-0.1,0.9,0.2l3.2,5.3c0.2,0.3,0.1,0.8-0.2,0.9l0,0C-91.6-275.8-91.7-275.8-91.8-275.8z"/>
			</g>
		</g>
		<g id="그룹_1167" transform="translate(4.6 9.188)">
			<path id="패스_1060" class="st11" d="M-52.1-266.6L-52.1-266.6c-0.2,0-0.3-0.1-0.3-0.3l0,0c0.1-7-1.5-12.1-5-15.2
				c-2.4-2.1-5.5-3.3-8.7-3.2c-5.8,14.4-31.3,15.7-32.4,15.8c-0.2,0-0.3-0.1-0.3-0.3l0,0c0-0.2,0.1-0.3,0.3-0.3
				c0.2,0,26.4-1.4,31.9-15.6c0-0.1,0.1-0.2,0.3-0.2c3.5-0.2,6.9,1,9.5,3.3c3.5,3.2,5.3,8.5,5.2,15.6
				C-51.8-266.8-51.9-266.6-52.1-266.6L-52.1-266.6z"/>
		</g>
		<g id="그룹_1168" transform="translate(8.863 28.726)">
			<path id="사각형_489" class="st2" d="M-87.1-270.8h-5.2c-2.8,0-5-2.2-5-5v-7.2l0,0h10.2c2.8,0,5,2.2,5,5v2.2
				C-82.2-273-84.5-270.8-87.1-270.8L-87.1-270.8z"/>
			<path id="패스_1061" class="st1" d="M-88.2-269.7h-3c-3.9,0-7.1-3.2-7.1-7.1v-6.1c0-0.6,0.4-1,1-1h9.1c3.9,0,7.1,3.2,7.1,7.1
				S-84.4-269.7-88.2-269.7L-88.2-269.7z M-96.3-281.9v5.1c0,2.8,2.2,5.1,5.1,5.1h3c2.8,0,5.1-2.3,5.1-5.1s-2.2-5-5.1-5.1H-96.3z"/>
		</g>
		<g id="그룹_1169" transform="translate(30.391 28.726)">
			<path id="사각형_490" class="st2" d="M-90.2-282.9H-80l0,0v7.2c0,2.8-2.2,5-5,5l0,0h-5.2c-2.8,0-5-2.2-5-5v-2.2
				C-95.1-280.6-92.9-282.9-90.2-282.9L-90.2-282.9z"/>
			<path id="패스_1062" class="st1" d="M-86-269.7h-3c-3.9,0-7.1-3.2-7.1-7.1s3.2-7.1,7.1-7.1h9.1c0.6,0,1,0.4,1,1v6.1
				C-78.9-272.9-82.1-269.7-86-269.7z M-89.1-281.9c-2.8,0-5.1,2.2-5.1,5.1c0,2.8,2.2,5.1,5.1,5.1l0,0h3c2.8,0,5.1-2.2,5.1-5.1v-5.1
				H-89.1z"/>
		</g>
		<g id="그룹_1170" transform="translate(15.27 33.733)">
			<path id="패스_1063" class="st1" d="M-93.1-281.1c0,3-4.6,3-4.5,0C-97.7-284.1-93.1-284.1-93.1-281.1z"/>
		</g>
		<g id="그룹_1171" transform="translate(34.033 33.505)">
			<path id="패스_1064" class="st1" d="M-91.1-281.1c0,3-4.6,3-4.5,0C-95.8-284.1-91.1-284.1-91.1-281.1z"/>
		</g>
	</g>
</g>
</svg>
